<?xml version="1.0" encoding="utf-8" standalone="no"?>
<!DOCTYPE svg PUBLIC "-//W3C//DTD SVG 1.1//EN"
  "http://www.w3.org/Graphics/SVG/1.1/DTD/svg11.dtd">
<svg xmlns:xlink="http://www.w3.org/1999/xlink" width="1440pt" height="360pt" viewBox="0 0 1440 360" xmlns="http://www.w3.org/2000/svg" version="1.1">
 <metadata>
  <rdf:RDF xmlns:dc="http://purl.org/dc/elements/1.1/" xmlns:cc="http://creativecommons.org/ns#" xmlns:rdf="http://www.w3.org/1999/02/22-rdf-syntax-ns#">
   <cc:Work>
    <dc:type rdf:resource="http://purl.org/dc/dcmitype/StillImage"/>
    <dc:date>2022-08-19T14:00:47.769234</dc:date>
    <dc:format>image/svg+xml</dc:format>
    <dc:creator>
     <cc:Agent>
      <dc:title>Matplotlib v3.5.2, https://matplotlib.org/</dc:title>
     </cc:Agent>
    </dc:creator>
   </cc:Work>
  </rdf:RDF>
 </metadata>
 <defs>
  <style type="text/css">*{stroke-linejoin: round; stroke-linecap: butt}</style>
 </defs>
 <g id="figure_1">
  <g id="patch_1">
   <path d="M 0 360 
L 1440 360 
L 1440 0 
L 0 0 
z
" style="fill: #ffffff"/>
  </g>
  <g id="axes_1">
   <g id="patch_2">
    <path d="M 180 315 
L 1296 315 
L 1296 43.2 
L 180 43.2 
z
" style="fill: #eaeaf2"/>
   </g>
   <g id="matplotlib.axis_1">
    <g id="xtick_1"/>
    <g id="xtick_2"/>
    <g id="xtick_3"/>
    <g id="xtick_4"/>
    <g id="xtick_5"/>
    <g id="xtick_6"/>
    <g id="xtick_7"/>
    <g id="xtick_8"/>
    <g id="xtick_9"/>
    <g id="xtick_10"/>
    <g id="xtick_11"/>
    <g id="xtick_12"/>
    <g id="xtick_13"/>
    <g id="xtick_14"/>
    <g id="xtick_15"/>
    <g id="xtick_16"/>
    <g id="xtick_17"/>
    <g id="xtick_18"/>
    <g id="xtick_19"/>
    <g id="xtick_20"/>
    <g id="xtick_21"/>
    <g id="xtick_22"/>
    <g id="xtick_23"/>
    <g id="xtick_24"/>
    <g id="xtick_25"/>
    <g id="xtick_26"/>
    <g id="xtick_27"/>
    <g id="xtick_28"/>
    <g id="xtick_29"/>
    <g id="xtick_30"/>
    <g id="xtick_31"/>
    <g id="xtick_32"/>
    <g id="xtick_33"/>
    <g id="xtick_34"/>
    <g id="xtick_35"/>
    <g id="xtick_36"/>
    <g id="xtick_37"/>
    <g id="xtick_38"/>
    <g id="xtick_39"/>
    <g id="xtick_40"/>
    <g id="xtick_41"/>
    <g id="xtick_42"/>
    <g id="xtick_43"/>
    <g id="xtick_44"/>
    <g id="xtick_45"/>
    <g id="xtick_46"/>
    <g id="xtick_47"/>
    <g id="xtick_48"/>
    <g id="xtick_49"/>
    <g id="xtick_50"/>
    <g id="xtick_51"/>
    <g id="xtick_52"/>
    <g id="xtick_53"/>
    <g id="xtick_54"/>
    <g id="xtick_55"/>
    <g id="xtick_56"/>
    <g id="xtick_57"/>
    <g id="xtick_58"/>
    <g id="xtick_59"/>
    <g id="xtick_60"/>
    <g id="xtick_61"/>
    <g id="xtick_62"/>
    <g id="xtick_63"/>
    <g id="xtick_64"/>
    <g id="xtick_65"/>
    <g id="xtick_66"/>
    <g id="xtick_67"/>
    <g id="xtick_68"/>
    <g id="xtick_69"/>
    <g id="xtick_70"/>
    <g id="xtick_71"/>
    <g id="xtick_72"/>
    <g id="xtick_73"/>
    <g id="xtick_74"/>
    <g id="xtick_75"/>
    <g id="xtick_76"/>
    <g id="xtick_77"/>
    <g id="xtick_78"/>
    <g id="xtick_79"/>
    <g id="xtick_80"/>
    <g id="xtick_81"/>
    <g id="xtick_82"/>
    <g id="xtick_83"/>
    <g id="xtick_84"/>
    <g id="xtick_85"/>
    <g id="xtick_86"/>
    <g id="xtick_87"/>
    <g id="xtick_88"/>
    <g id="xtick_89"/>
    <g id="xtick_90"/>
    <g id="xtick_91"/>
    <g id="xtick_92"/>
    <g id="xtick_93"/>
    <g id="xtick_94"/>
    <g id="xtick_95"/>
    <g id="xtick_96"/>
    <g id="xtick_97"/>
    <g id="xtick_98"/>
    <g id="xtick_99"/>
    <g id="xtick_100"/>
    <g id="xtick_101"/>
    <g id="xtick_102"/>
    <g id="xtick_103"/>
    <g id="xtick_104"/>
    <g id="xtick_105"/>
    <g id="xtick_106"/>
    <g id="xtick_107"/>
    <g id="xtick_108"/>
    <g id="xtick_109"/>
    <g id="xtick_110"/>
    <g id="xtick_111"/>
    <g id="xtick_112"/>
    <g id="xtick_113"/>
    <g id="xtick_114"/>
    <g id="xtick_115"/>
    <g id="xtick_116"/>
    <g id="xtick_117"/>
    <g id="xtick_118"/>
    <g id="xtick_119"/>
    <g id="xtick_120"/>
    <g id="xtick_121"/>
    <g id="xtick_122"/>
    <g id="xtick_123"/>
    <g id="xtick_124"/>
    <g id="xtick_125"/>
    <g id="xtick_126"/>
    <g id="xtick_127"/>
    <g id="xtick_128"/>
    <g id="xtick_129"/>
    <g id="xtick_130"/>
    <g id="xtick_131"/>
    <g id="xtick_132"/>
    <g id="xtick_133"/>
    <g id="xtick_134"/>
    <g id="xtick_135"/>
    <g id="text_1">
     <!-- Character name -->
     <g style="fill: #262626" transform="translate(694.98375 337.089375)scale(0.12 -0.12)">
      <defs>
       <path id="ArialMT-43" d="M 3763 1606 
L 4369 1453 
Q 4178 706 3683 314 
Q 3188 -78 2472 -78 
Q 1731 -78 1267 223 
Q 803 525 561 1097 
Q 319 1669 319 2325 
Q 319 3041 592 3573 
Q 866 4106 1370 4382 
Q 1875 4659 2481 4659 
Q 3169 4659 3637 4309 
Q 4106 3959 4291 3325 
L 3694 3184 
Q 3534 3684 3231 3912 
Q 2928 4141 2469 4141 
Q 1941 4141 1586 3887 
Q 1231 3634 1087 3207 
Q 944 2781 944 2328 
Q 944 1744 1114 1308 
Q 1284 872 1643 656 
Q 2003 441 2422 441 
Q 2931 441 3284 734 
Q 3638 1028 3763 1606 
z
" transform="scale(0.015625)"/>
       <path id="ArialMT-68" d="M 422 0 
L 422 4581 
L 984 4581 
L 984 2938 
Q 1378 3394 1978 3394 
Q 2347 3394 2619 3248 
Q 2891 3103 3008 2847 
Q 3125 2591 3125 2103 
L 3125 0 
L 2563 0 
L 2563 2103 
Q 2563 2525 2380 2717 
Q 2197 2909 1863 2909 
Q 1613 2909 1392 2779 
Q 1172 2650 1078 2428 
Q 984 2206 984 1816 
L 984 0 
L 422 0 
z
" transform="scale(0.015625)"/>
       <path id="ArialMT-61" d="M 2588 409 
Q 2275 144 1986 34 
Q 1697 -75 1366 -75 
Q 819 -75 525 192 
Q 231 459 231 875 
Q 231 1119 342 1320 
Q 453 1522 633 1644 
Q 813 1766 1038 1828 
Q 1203 1872 1538 1913 
Q 2219 1994 2541 2106 
Q 2544 2222 2544 2253 
Q 2544 2597 2384 2738 
Q 2169 2928 1744 2928 
Q 1347 2928 1158 2789 
Q 969 2650 878 2297 
L 328 2372 
Q 403 2725 575 2942 
Q 747 3159 1072 3276 
Q 1397 3394 1825 3394 
Q 2250 3394 2515 3294 
Q 2781 3194 2906 3042 
Q 3031 2891 3081 2659 
Q 3109 2516 3109 2141 
L 3109 1391 
Q 3109 606 3145 398 
Q 3181 191 3288 0 
L 2700 0 
Q 2613 175 2588 409 
z
M 2541 1666 
Q 2234 1541 1622 1453 
Q 1275 1403 1131 1340 
Q 988 1278 909 1158 
Q 831 1038 831 891 
Q 831 666 1001 516 
Q 1172 366 1500 366 
Q 1825 366 2078 508 
Q 2331 650 2450 897 
Q 2541 1088 2541 1459 
L 2541 1666 
z
" transform="scale(0.015625)"/>
       <path id="ArialMT-72" d="M 416 0 
L 416 3319 
L 922 3319 
L 922 2816 
Q 1116 3169 1280 3281 
Q 1444 3394 1641 3394 
Q 1925 3394 2219 3213 
L 2025 2691 
Q 1819 2813 1613 2813 
Q 1428 2813 1281 2702 
Q 1134 2591 1072 2394 
Q 978 2094 978 1738 
L 978 0 
L 416 0 
z
" transform="scale(0.015625)"/>
       <path id="ArialMT-63" d="M 2588 1216 
L 3141 1144 
Q 3050 572 2676 248 
Q 2303 -75 1759 -75 
Q 1078 -75 664 370 
Q 250 816 250 1647 
Q 250 2184 428 2587 
Q 606 2991 970 3192 
Q 1334 3394 1763 3394 
Q 2303 3394 2647 3120 
Q 2991 2847 3088 2344 
L 2541 2259 
Q 2463 2594 2264 2762 
Q 2066 2931 1784 2931 
Q 1359 2931 1093 2626 
Q 828 2322 828 1663 
Q 828 994 1084 691 
Q 1341 388 1753 388 
Q 2084 388 2306 591 
Q 2528 794 2588 1216 
z
" transform="scale(0.015625)"/>
       <path id="ArialMT-74" d="M 1650 503 
L 1731 6 
Q 1494 -44 1306 -44 
Q 1000 -44 831 53 
Q 663 150 594 308 
Q 525 466 525 972 
L 525 2881 
L 113 2881 
L 113 3319 
L 525 3319 
L 525 4141 
L 1084 4478 
L 1084 3319 
L 1650 3319 
L 1650 2881 
L 1084 2881 
L 1084 941 
Q 1084 700 1114 631 
Q 1144 563 1211 522 
Q 1278 481 1403 481 
Q 1497 481 1650 503 
z
" transform="scale(0.015625)"/>
       <path id="ArialMT-65" d="M 2694 1069 
L 3275 997 
Q 3138 488 2766 206 
Q 2394 -75 1816 -75 
Q 1088 -75 661 373 
Q 234 822 234 1631 
Q 234 2469 665 2931 
Q 1097 3394 1784 3394 
Q 2450 3394 2872 2941 
Q 3294 2488 3294 1666 
Q 3294 1616 3291 1516 
L 816 1516 
Q 847 969 1125 678 
Q 1403 388 1819 388 
Q 2128 388 2347 550 
Q 2566 713 2694 1069 
z
M 847 1978 
L 2700 1978 
Q 2663 2397 2488 2606 
Q 2219 2931 1791 2931 
Q 1403 2931 1139 2672 
Q 875 2413 847 1978 
z
" transform="scale(0.015625)"/>
       <path id="ArialMT-20" transform="scale(0.015625)"/>
       <path id="ArialMT-6e" d="M 422 0 
L 422 3319 
L 928 3319 
L 928 2847 
Q 1294 3394 1984 3394 
Q 2284 3394 2536 3286 
Q 2788 3178 2913 3003 
Q 3038 2828 3088 2588 
Q 3119 2431 3119 2041 
L 3119 0 
L 2556 0 
L 2556 2019 
Q 2556 2363 2490 2533 
Q 2425 2703 2258 2804 
Q 2091 2906 1866 2906 
Q 1506 2906 1245 2678 
Q 984 2450 984 1813 
L 984 0 
L 422 0 
z
" transform="scale(0.015625)"/>
       <path id="ArialMT-6d" d="M 422 0 
L 422 3319 
L 925 3319 
L 925 2853 
Q 1081 3097 1340 3245 
Q 1600 3394 1931 3394 
Q 2300 3394 2536 3241 
Q 2772 3088 2869 2813 
Q 3263 3394 3894 3394 
Q 4388 3394 4653 3120 
Q 4919 2847 4919 2278 
L 4919 0 
L 4359 0 
L 4359 2091 
Q 4359 2428 4304 2576 
Q 4250 2725 4106 2815 
Q 3963 2906 3769 2906 
Q 3419 2906 3187 2673 
Q 2956 2441 2956 1928 
L 2956 0 
L 2394 0 
L 2394 2156 
Q 2394 2531 2256 2718 
Q 2119 2906 1806 2906 
Q 1569 2906 1367 2781 
Q 1166 2656 1075 2415 
Q 984 2175 984 1722 
L 984 0 
L 422 0 
z
" transform="scale(0.015625)"/>
      </defs>
      <use xlink:href="#ArialMT-43"/>
      <use xlink:href="#ArialMT-68" x="72.216797"/>
      <use xlink:href="#ArialMT-61" x="127.832031"/>
      <use xlink:href="#ArialMT-72" x="183.447266"/>
      <use xlink:href="#ArialMT-61" x="216.748047"/>
      <use xlink:href="#ArialMT-63" x="272.363281"/>
      <use xlink:href="#ArialMT-74" x="322.363281"/>
      <use xlink:href="#ArialMT-65" x="350.146484"/>
      <use xlink:href="#ArialMT-72" x="405.761719"/>
      <use xlink:href="#ArialMT-20" x="439.0625"/>
      <use xlink:href="#ArialMT-6e" x="466.845703"/>
      <use xlink:href="#ArialMT-61" x="522.460938"/>
      <use xlink:href="#ArialMT-6d" x="578.076172"/>
      <use xlink:href="#ArialMT-65" x="661.376953"/>
     </g>
    </g>
   </g>
   <g id="matplotlib.axis_2">
    <g id="ytick_1">
     <g id="line2d_1">
      <path d="M 180 315 
L 1296 315 
" clip-path="url(#p47f597bffe)" style="fill: none; stroke: #ffffff; stroke-linecap: round"/>
     </g>
     <g id="text_2">
      <!-- 0 -->
      <g style="fill: #262626" transform="translate(164.382969 318.936797)scale(0.11 -0.11)">
       <defs>
        <path id="ArialMT-30" d="M 266 2259 
Q 266 3072 433 3567 
Q 600 4063 929 4331 
Q 1259 4600 1759 4600 
Q 2128 4600 2406 4451 
Q 2684 4303 2865 4023 
Q 3047 3744 3150 3342 
Q 3253 2941 3253 2259 
Q 3253 1453 3087 958 
Q 2922 463 2592 192 
Q 2263 -78 1759 -78 
Q 1097 -78 719 397 
Q 266 969 266 2259 
z
M 844 2259 
Q 844 1131 1108 757 
Q 1372 384 1759 384 
Q 2147 384 2411 759 
Q 2675 1134 2675 2259 
Q 2675 3391 2411 3762 
Q 2147 4134 1753 4134 
Q 1366 4134 1134 3806 
Q 844 3388 844 2259 
z
" transform="scale(0.015625)"/>
       </defs>
       <use xlink:href="#ArialMT-30"/>
      </g>
     </g>
    </g>
    <g id="ytick_2">
     <g id="line2d_2">
      <path d="M 180 284.198341 
L 1296 284.198341 
" clip-path="url(#p47f597bffe)" style="fill: none; stroke: #ffffff; stroke-linecap: round"/>
     </g>
     <g id="text_3">
      <!-- 500 -->
      <g style="fill: #262626" transform="translate(152.148906 288.135138)scale(0.11 -0.11)">
       <defs>
        <path id="ArialMT-35" d="M 266 1200 
L 856 1250 
Q 922 819 1161 601 
Q 1400 384 1738 384 
Q 2144 384 2425 690 
Q 2706 997 2706 1503 
Q 2706 1984 2436 2262 
Q 2166 2541 1728 2541 
Q 1456 2541 1237 2417 
Q 1019 2294 894 2097 
L 366 2166 
L 809 4519 
L 3088 4519 
L 3088 3981 
L 1259 3981 
L 1013 2750 
Q 1425 3038 1878 3038 
Q 2478 3038 2890 2622 
Q 3303 2206 3303 1553 
Q 3303 931 2941 478 
Q 2500 -78 1738 -78 
Q 1113 -78 717 272 
Q 322 622 266 1200 
z
" transform="scale(0.015625)"/>
       </defs>
       <use xlink:href="#ArialMT-35"/>
       <use xlink:href="#ArialMT-30" x="55.615234"/>
       <use xlink:href="#ArialMT-30" x="111.230469"/>
      </g>
     </g>
    </g>
    <g id="ytick_3">
     <g id="line2d_3">
      <path d="M 180 253.396682 
L 1296 253.396682 
" clip-path="url(#p47f597bffe)" style="fill: none; stroke: #ffffff; stroke-linecap: round"/>
     </g>
     <g id="text_4">
      <!-- 1000 -->
      <g style="fill: #262626" transform="translate(146.031875 257.333479)scale(0.11 -0.11)">
       <defs>
        <path id="ArialMT-31" d="M 2384 0 
L 1822 0 
L 1822 3584 
Q 1619 3391 1289 3197 
Q 959 3003 697 2906 
L 697 3450 
Q 1169 3672 1522 3987 
Q 1875 4303 2022 4600 
L 2384 4600 
L 2384 0 
z
" transform="scale(0.015625)"/>
       </defs>
       <use xlink:href="#ArialMT-31"/>
       <use xlink:href="#ArialMT-30" x="55.615234"/>
       <use xlink:href="#ArialMT-30" x="111.230469"/>
       <use xlink:href="#ArialMT-30" x="166.845703"/>
      </g>
     </g>
    </g>
    <g id="ytick_4">
     <g id="line2d_4">
      <path d="M 180 222.595023 
L 1296 222.595023 
" clip-path="url(#p47f597bffe)" style="fill: none; stroke: #ffffff; stroke-linecap: round"/>
     </g>
     <g id="text_5">
      <!-- 1500 -->
      <g style="fill: #262626" transform="translate(146.031875 226.53182)scale(0.11 -0.11)">
       <use xlink:href="#ArialMT-31"/>
       <use xlink:href="#ArialMT-35" x="55.615234"/>
       <use xlink:href="#ArialMT-30" x="111.230469"/>
       <use xlink:href="#ArialMT-30" x="166.845703"/>
      </g>
     </g>
    </g>
    <g id="ytick_5">
     <g id="line2d_5">
      <path d="M 180 191.793364 
L 1296 191.793364 
" clip-path="url(#p47f597bffe)" style="fill: none; stroke: #ffffff; stroke-linecap: round"/>
     </g>
     <g id="text_6">
      <!-- 2000 -->
      <g style="fill: #262626" transform="translate(146.031875 195.730161)scale(0.11 -0.11)">
       <defs>
        <path id="ArialMT-32" d="M 3222 541 
L 3222 0 
L 194 0 
Q 188 203 259 391 
Q 375 700 629 1000 
Q 884 1300 1366 1694 
Q 2113 2306 2375 2664 
Q 2638 3022 2638 3341 
Q 2638 3675 2398 3904 
Q 2159 4134 1775 4134 
Q 1369 4134 1125 3890 
Q 881 3647 878 3216 
L 300 3275 
Q 359 3922 746 4261 
Q 1134 4600 1788 4600 
Q 2447 4600 2831 4234 
Q 3216 3869 3216 3328 
Q 3216 3053 3103 2787 
Q 2991 2522 2730 2228 
Q 2469 1934 1863 1422 
Q 1356 997 1212 845 
Q 1069 694 975 541 
L 3222 541 
z
" transform="scale(0.015625)"/>
       </defs>
       <use xlink:href="#ArialMT-32"/>
       <use xlink:href="#ArialMT-30" x="55.615234"/>
       <use xlink:href="#ArialMT-30" x="111.230469"/>
       <use xlink:href="#ArialMT-30" x="166.845703"/>
      </g>
     </g>
    </g>
    <g id="ytick_6">
     <g id="line2d_6">
      <path d="M 180 160.991705 
L 1296 160.991705 
" clip-path="url(#p47f597bffe)" style="fill: none; stroke: #ffffff; stroke-linecap: round"/>
     </g>
     <g id="text_7">
      <!-- 2500 -->
      <g style="fill: #262626" transform="translate(146.031875 164.928502)scale(0.11 -0.11)">
       <use xlink:href="#ArialMT-32"/>
       <use xlink:href="#ArialMT-35" x="55.615234"/>
       <use xlink:href="#ArialMT-30" x="111.230469"/>
       <use xlink:href="#ArialMT-30" x="166.845703"/>
      </g>
     </g>
    </g>
    <g id="ytick_7">
     <g id="line2d_7">
      <path d="M 180 130.190046 
L 1296 130.190046 
" clip-path="url(#p47f597bffe)" style="fill: none; stroke: #ffffff; stroke-linecap: round"/>
     </g>
     <g id="text_8">
      <!-- 3000 -->
      <g style="fill: #262626" transform="translate(146.031875 134.126842)scale(0.11 -0.11)">
       <defs>
        <path id="ArialMT-33" d="M 269 1209 
L 831 1284 
Q 928 806 1161 595 
Q 1394 384 1728 384 
Q 2125 384 2398 659 
Q 2672 934 2672 1341 
Q 2672 1728 2419 1979 
Q 2166 2231 1775 2231 
Q 1616 2231 1378 2169 
L 1441 2663 
Q 1497 2656 1531 2656 
Q 1891 2656 2178 2843 
Q 2466 3031 2466 3422 
Q 2466 3731 2256 3934 
Q 2047 4138 1716 4138 
Q 1388 4138 1169 3931 
Q 950 3725 888 3313 
L 325 3413 
Q 428 3978 793 4289 
Q 1159 4600 1703 4600 
Q 2078 4600 2393 4439 
Q 2709 4278 2876 4000 
Q 3044 3722 3044 3409 
Q 3044 3113 2884 2869 
Q 2725 2625 2413 2481 
Q 2819 2388 3044 2092 
Q 3269 1797 3269 1353 
Q 3269 753 2831 336 
Q 2394 -81 1725 -81 
Q 1122 -81 723 278 
Q 325 638 269 1209 
z
" transform="scale(0.015625)"/>
       </defs>
       <use xlink:href="#ArialMT-33"/>
       <use xlink:href="#ArialMT-30" x="55.615234"/>
       <use xlink:href="#ArialMT-30" x="111.230469"/>
       <use xlink:href="#ArialMT-30" x="166.845703"/>
      </g>
     </g>
    </g>
    <g id="ytick_8">
     <g id="line2d_8">
      <path d="M 180 99.388386 
L 1296 99.388386 
" clip-path="url(#p47f597bffe)" style="fill: none; stroke: #ffffff; stroke-linecap: round"/>
     </g>
     <g id="text_9">
      <!-- 3500 -->
      <g style="fill: #262626" transform="translate(146.031875 103.325183)scale(0.11 -0.11)">
       <use xlink:href="#ArialMT-33"/>
       <use xlink:href="#ArialMT-35" x="55.615234"/>
       <use xlink:href="#ArialMT-30" x="111.230469"/>
       <use xlink:href="#ArialMT-30" x="166.845703"/>
      </g>
     </g>
    </g>
    <g id="ytick_9">
     <g id="line2d_9">
      <path d="M 180 68.586727 
L 1296 68.586727 
" clip-path="url(#p47f597bffe)" style="fill: none; stroke: #ffffff; stroke-linecap: round"/>
     </g>
     <g id="text_10">
      <!-- 4000 -->
      <g style="fill: #262626" transform="translate(146.031875 72.523524)scale(0.11 -0.11)">
       <defs>
        <path id="ArialMT-34" d="M 2069 0 
L 2069 1097 
L 81 1097 
L 81 1613 
L 2172 4581 
L 2631 4581 
L 2631 1613 
L 3250 1613 
L 3250 1097 
L 2631 1097 
L 2631 0 
L 2069 0 
z
M 2069 1613 
L 2069 3678 
L 634 1613 
L 2069 1613 
z
" transform="scale(0.015625)"/>
       </defs>
       <use xlink:href="#ArialMT-34"/>
       <use xlink:href="#ArialMT-30" x="55.615234"/>
       <use xlink:href="#ArialMT-30" x="111.230469"/>
       <use xlink:href="#ArialMT-30" x="166.845703"/>
      </g>
     </g>
    </g>
    <g id="text_11">
     <!-- Works -->
     <g style="fill: #262626" transform="translate(139.646875 195.992812)rotate(-90)scale(0.12 -0.12)">
      <defs>
       <path id="ArialMT-57" d="M 1294 0 
L 78 4581 
L 700 4581 
L 1397 1578 
Q 1509 1106 1591 641 
Q 1766 1375 1797 1488 
L 2669 4581 
L 3400 4581 
L 4056 2263 
Q 4303 1400 4413 641 
Q 4500 1075 4641 1638 
L 5359 4581 
L 5969 4581 
L 4713 0 
L 4128 0 
L 3163 3491 
Q 3041 3928 3019 4028 
Q 2947 3713 2884 3491 
L 1913 0 
L 1294 0 
z
" transform="scale(0.015625)"/>
       <path id="ArialMT-6f" d="M 213 1659 
Q 213 2581 725 3025 
Q 1153 3394 1769 3394 
Q 2453 3394 2887 2945 
Q 3322 2497 3322 1706 
Q 3322 1066 3130 698 
Q 2938 331 2570 128 
Q 2203 -75 1769 -75 
Q 1072 -75 642 372 
Q 213 819 213 1659 
z
M 791 1659 
Q 791 1022 1069 705 
Q 1347 388 1769 388 
Q 2188 388 2466 706 
Q 2744 1025 2744 1678 
Q 2744 2294 2464 2611 
Q 2184 2928 1769 2928 
Q 1347 2928 1069 2612 
Q 791 2297 791 1659 
z
" transform="scale(0.015625)"/>
       <path id="ArialMT-6b" d="M 425 0 
L 425 4581 
L 988 4581 
L 988 1969 
L 2319 3319 
L 3047 3319 
L 1778 2088 
L 3175 0 
L 2481 0 
L 1384 1697 
L 988 1316 
L 988 0 
L 425 0 
z
" transform="scale(0.015625)"/>
       <path id="ArialMT-73" d="M 197 991 
L 753 1078 
Q 800 744 1014 566 
Q 1228 388 1613 388 
Q 2000 388 2187 545 
Q 2375 703 2375 916 
Q 2375 1106 2209 1216 
Q 2094 1291 1634 1406 
Q 1016 1563 777 1677 
Q 538 1791 414 1992 
Q 291 2194 291 2438 
Q 291 2659 392 2848 
Q 494 3038 669 3163 
Q 800 3259 1026 3326 
Q 1253 3394 1513 3394 
Q 1903 3394 2198 3281 
Q 2494 3169 2634 2976 
Q 2775 2784 2828 2463 
L 2278 2388 
Q 2241 2644 2061 2787 
Q 1881 2931 1553 2931 
Q 1166 2931 1000 2803 
Q 834 2675 834 2503 
Q 834 2394 903 2306 
Q 972 2216 1119 2156 
Q 1203 2125 1616 2013 
Q 2213 1853 2448 1751 
Q 2684 1650 2818 1456 
Q 2953 1263 2953 975 
Q 2953 694 2789 445 
Q 2625 197 2315 61 
Q 2006 -75 1616 -75 
Q 969 -75 630 194 
Q 291 463 197 991 
z
" transform="scale(0.015625)"/>
      </defs>
      <use xlink:href="#ArialMT-57"/>
      <use xlink:href="#ArialMT-6f" x="92.634766"/>
      <use xlink:href="#ArialMT-72" x="148.25"/>
      <use xlink:href="#ArialMT-6b" x="181.550781"/>
      <use xlink:href="#ArialMT-73" x="231.550781"/>
     </g>
    </g>
   </g>
   <g id="patch_3">
    <path d="M 180.826667 315 
L 187.44 315 
L 187.44 56.142857 
L 180.826667 56.142857 
z
" clip-path="url(#p47f597bffe)" style="fill: #ea96a3; stroke: #ffffff; stroke-linejoin: miter"/>
   </g>
   <g id="patch_4">
    <path d="M 189.093333 315 
L 195.706667 315 
L 195.706667 60.886313 
L 189.093333 60.886313 
z
" clip-path="url(#p47f597bffe)" style="fill: #ea96a0; stroke: #ffffff; stroke-linejoin: miter"/>
   </g>
   <g id="patch_5">
    <path d="M 197.36 315 
L 203.973333 315 
L 203.973333 251.178962 
L 197.36 251.178962 
z
" clip-path="url(#p47f597bffe)" style="fill: #ea979c; stroke: #ffffff; stroke-linejoin: miter"/>
   </g>
   <g id="patch_6">
    <path d="M 205.626667 315 
L 212.24 315 
L 212.24 264.115659 
L 205.626667 264.115659 
z
" clip-path="url(#p47f597bffe)" style="fill: #ea9798; stroke: #ffffff; stroke-linejoin: miter"/>
   </g>
   <g id="patch_7">
    <path d="M 213.893333 315 
L 220.506667 315 
L 220.506667 270.584008 
L 213.893333 270.584008 
z
" clip-path="url(#p47f597bffe)" style="fill: #e99793; stroke: #ffffff; stroke-linejoin: miter"/>
   </g>
   <g id="patch_8">
    <path d="M 222.16 315 
L 228.773333 315 
L 228.773333 272.986537 
L 222.16 272.986537 
z
" clip-path="url(#p47f597bffe)" style="fill: #e9978e; stroke: #ffffff; stroke-linejoin: miter"/>
   </g>
   <g id="patch_9">
    <path d="M 230.426667 315 
L 237.04 315 
L 237.04 286.354457 
L 230.426667 286.354457 
z
" clip-path="url(#p47f597bffe)" style="fill: #e89688; stroke: #ffffff; stroke-linejoin: miter"/>
   </g>
   <g id="patch_10">
    <path d="M 238.693333 315 
L 245.306667 315 
L 245.306667 296.580608 
L 238.693333 296.580608 
z
" clip-path="url(#p47f597bffe)" style="fill: #e79681; stroke: #ffffff; stroke-linejoin: miter"/>
   </g>
   <g id="patch_11">
    <path d="M 246.96 315 
L 253.573333 315 
L 253.573333 297.997484 
L 246.96 297.997484 
z
" clip-path="url(#p47f597bffe)" style="fill: #e6957a; stroke: #ffffff; stroke-linejoin: miter"/>
   </g>
   <g id="patch_12">
    <path d="M 255.226667 315 
L 261.84 315 
L 261.84 300.276807 
L 255.226667 300.276807 
z
" clip-path="url(#p47f597bffe)" style="fill: #e59471; stroke: #ffffff; stroke-linejoin: miter"/>
   </g>
   <g id="patch_13">
    <path d="M 263.493333 315 
L 270.106667 315 
L 270.106667 300.400014 
L 263.493333 300.400014 
z
" clip-path="url(#p47f597bffe)" style="fill: #e39366; stroke: #ffffff; stroke-linejoin: miter"/>
   </g>
   <g id="patch_14">
    <path d="M 271.76 315 
L 278.373333 315 
L 278.373333 301.940097 
L 271.76 301.940097 
z
" clip-path="url(#p47f597bffe)" style="fill: #e19257; stroke: #ffffff; stroke-linejoin: miter"/>
   </g>
   <g id="patch_15">
    <path d="M 280.026667 315 
L 286.64 315 
L 286.64 302.987353 
L 280.026667 302.987353 
z
" clip-path="url(#p47f597bffe)" style="fill: #de924f; stroke: #ffffff; stroke-linejoin: miter"/>
   </g>
   <g id="patch_16">
    <path d="M 288.293333 315 
L 294.906667 315 
L 294.906667 303.233766 
L 288.293333 303.233766 
z
" clip-path="url(#p47f597bffe)" style="fill: #d9934e; stroke: #ffffff; stroke-linejoin: miter"/>
   </g>
   <g id="patch_17">
    <path d="M 296.56 315 
L 303.173333 315 
L 303.173333 303.664989 
L 296.56 303.664989 
z
" clip-path="url(#p47f597bffe)" style="fill: #d5954d; stroke: #ffffff; stroke-linejoin: miter"/>
   </g>
   <g id="patch_18">
    <path d="M 304.826667 315 
L 311.44 315 
L 311.44 304.835453 
L 304.826667 304.835453 
z
" clip-path="url(#p47f597bffe)" style="fill: #d1964d; stroke: #ffffff; stroke-linejoin: miter"/>
   </g>
   <g id="patch_19">
    <path d="M 313.093333 315 
L 319.706667 315 
L 319.706667 307.422792 
L 313.093333 307.422792 
z
" clip-path="url(#p47f597bffe)" style="fill: #cd974c; stroke: #ffffff; stroke-linejoin: miter"/>
   </g>
   <g id="patch_20">
    <path d="M 321.36 315 
L 327.973333 315 
L 327.973333 308.901272 
L 321.36 308.901272 
z
" clip-path="url(#p47f597bffe)" style="fill: #ca984c; stroke: #ffffff; stroke-linejoin: miter"/>
   </g>
   <g id="patch_21">
    <path d="M 329.626667 315 
L 336.24 315 
L 336.24 309.086081 
L 329.626667 309.086081 
z
" clip-path="url(#p47f597bffe)" style="fill: #c6994b; stroke: #ffffff; stroke-linejoin: miter"/>
   </g>
   <g id="patch_22">
    <path d="M 337.893333 315 
L 344.506667 315 
L 344.506667 309.332495 
L 337.893333 309.332495 
z
" clip-path="url(#p47f597bffe)" style="fill: #c3994b; stroke: #ffffff; stroke-linejoin: miter"/>
   </g>
   <g id="patch_23">
    <path d="M 346.16 315 
L 352.773333 315 
L 352.773333 309.640511 
L 346.16 309.640511 
z
" clip-path="url(#p47f597bffe)" style="fill: #c09a4a; stroke: #ffffff; stroke-linejoin: miter"/>
   </g>
   <g id="patch_24">
    <path d="M 354.426667 315 
L 361.04 315 
L 361.04 310.687768 
L 354.426667 310.687768 
z
" clip-path="url(#p47f597bffe)" style="fill: #bd9b4a; stroke: #ffffff; stroke-linejoin: miter"/>
   </g>
   <g id="patch_25">
    <path d="M 362.693333 315 
L 369.306667 315 
L 369.306667 312.782281 
L 362.693333 312.782281 
z
" clip-path="url(#p47f597bffe)" style="fill: #ba9b49; stroke: #ffffff; stroke-linejoin: miter"/>
   </g>
   <g id="patch_26">
    <path d="M 370.96 315 
L 377.573333 315 
L 377.573333 312.843884 
L 370.96 312.843884 
z
" clip-path="url(#p47f597bffe)" style="fill: #b79c49; stroke: #ffffff; stroke-linejoin: miter"/>
   </g>
   <g id="patch_27">
    <path d="M 379.226667 315 
L 385.84 315 
L 385.84 312.843884 
L 379.226667 312.843884 
z
" clip-path="url(#p47f597bffe)" style="fill: #b49c48; stroke: #ffffff; stroke-linejoin: miter"/>
   </g>
   <g id="patch_28">
    <path d="M 387.493333 315 
L 394.106667 315 
L 394.106667 312.905487 
L 387.493333 312.905487 
z
" clip-path="url(#p47f597bffe)" style="fill: #b19d48; stroke: #ffffff; stroke-linejoin: miter"/>
   </g>
   <g id="patch_29">
    <path d="M 395.76 315 
L 402.373333 315 
L 402.373333 313.213504 
L 395.76 313.213504 
z
" clip-path="url(#p47f597bffe)" style="fill: #ae9d48; stroke: #ffffff; stroke-linejoin: miter"/>
   </g>
   <g id="patch_30">
    <path d="M 404.026667 315 
L 410.64 315 
L 410.64 313.459917 
L 404.026667 313.459917 
z
" clip-path="url(#p47f597bffe)" style="fill: #ab9e47; stroke: #ffffff; stroke-linejoin: miter"/>
   </g>
   <g id="patch_31">
    <path d="M 412.293333 315 
L 418.906667 315 
L 418.906667 313.52152 
L 412.293333 313.52152 
z
" clip-path="url(#p47f597bffe)" style="fill: #a89e47; stroke: #ffffff; stroke-linejoin: miter"/>
   </g>
   <g id="patch_32">
    <path d="M 420.56 315 
L 427.173333 315 
L 427.173333 313.644727 
L 420.56 313.644727 
z
" clip-path="url(#p47f597bffe)" style="fill: #a59f46; stroke: #ffffff; stroke-linejoin: miter"/>
   </g>
   <g id="patch_33">
    <path d="M 428.826667 315 
L 435.44 315 
L 435.44 313.70633 
L 428.826667 313.70633 
z
" clip-path="url(#p47f597bffe)" style="fill: #a29f46; stroke: #ffffff; stroke-linejoin: miter"/>
   </g>
   <g id="patch_34">
    <path d="M 437.093333 315 
L 443.706667 315 
L 443.706667 313.767934 
L 437.093333 313.767934 
z
" clip-path="url(#p47f597bffe)" style="fill: #9f9f45; stroke: #ffffff; stroke-linejoin: miter"/>
   </g>
   <g id="patch_35">
    <path d="M 445.36 315 
L 451.973333 315 
L 451.973333 313.767934 
L 445.36 313.767934 
z
" clip-path="url(#p47f597bffe)" style="fill: #9da045; stroke: #ffffff; stroke-linejoin: miter"/>
   </g>
   <g id="patch_36">
    <path d="M 453.626667 315 
L 460.24 315 
L 460.24 313.767934 
L 453.626667 313.767934 
z
" clip-path="url(#p47f597bffe)" style="fill: #9aa146; stroke: #ffffff; stroke-linejoin: miter"/>
   </g>
   <g id="patch_37">
    <path d="M 461.893333 315 
L 468.506667 315 
L 468.506667 314.014347 
L 461.893333 314.014347 
z
" clip-path="url(#p47f597bffe)" style="fill: #97a246; stroke: #ffffff; stroke-linejoin: miter"/>
   </g>
   <g id="patch_38">
    <path d="M 470.16 315 
L 476.773333 315 
L 476.773333 314.014347 
L 470.16 314.014347 
z
" clip-path="url(#p47f597bffe)" style="fill: #94a346; stroke: #ffffff; stroke-linejoin: miter"/>
   </g>
   <g id="patch_39">
    <path d="M 478.426667 315 
L 485.04 315 
L 485.04 314.014347 
L 478.426667 314.014347 
z
" clip-path="url(#p47f597bffe)" style="fill: #91a446; stroke: #ffffff; stroke-linejoin: miter"/>
   </g>
   <g id="patch_40">
    <path d="M 486.693333 315 
L 493.306667 315 
L 493.306667 314.07595 
L 486.693333 314.07595 
z
" clip-path="url(#p47f597bffe)" style="fill: #8ea546; stroke: #ffffff; stroke-linejoin: miter"/>
   </g>
   <g id="patch_41">
    <path d="M 494.96 315 
L 501.573333 315 
L 501.573333 314.07595 
L 494.96 314.07595 
z
" clip-path="url(#p47f597bffe)" style="fill: #8aa646; stroke: #ffffff; stroke-linejoin: miter"/>
   </g>
   <g id="patch_42">
    <path d="M 503.226667 315 
L 509.84 315 
L 509.84 314.137554 
L 503.226667 314.137554 
z
" clip-path="url(#p47f597bffe)" style="fill: #86a746; stroke: #ffffff; stroke-linejoin: miter"/>
   </g>
   <g id="patch_43">
    <path d="M 511.493333 315 
L 518.106667 315 
L 518.106667 314.199157 
L 511.493333 314.199157 
z
" clip-path="url(#p47f597bffe)" style="fill: #82a846; stroke: #ffffff; stroke-linejoin: miter"/>
   </g>
   <g id="patch_44">
    <path d="M 519.76 315 
L 526.373333 315 
L 526.373333 314.199157 
L 519.76 314.199157 
z
" clip-path="url(#p47f597bffe)" style="fill: #7da947; stroke: #ffffff; stroke-linejoin: miter"/>
   </g>
   <g id="patch_45">
    <path d="M 528.026667 315 
L 534.64 315 
L 534.64 314.26076 
L 528.026667 314.26076 
z
" clip-path="url(#p47f597bffe)" style="fill: #77aa47; stroke: #ffffff; stroke-linejoin: miter"/>
   </g>
   <g id="patch_46">
    <path d="M 536.293333 315 
L 542.906667 315 
L 542.906667 314.383967 
L 536.293333 314.383967 
z
" clip-path="url(#p47f597bffe)" style="fill: #71ac47; stroke: #ffffff; stroke-linejoin: miter"/>
   </g>
   <g id="patch_47">
    <path d="M 544.56 315 
L 551.173333 315 
L 551.173333 314.44557 
L 544.56 314.44557 
z
" clip-path="url(#p47f597bffe)" style="fill: #69ad47; stroke: #ffffff; stroke-linejoin: miter"/>
   </g>
   <g id="patch_48">
    <path d="M 552.826667 315 
L 559.44 315 
L 559.44 314.44557 
L 552.826667 314.44557 
z
" clip-path="url(#p47f597bffe)" style="fill: #60ae47; stroke: #ffffff; stroke-linejoin: miter"/>
   </g>
   <g id="patch_49">
    <path d="M 561.093333 315 
L 567.706667 315 
L 567.706667 314.44557 
L 561.093333 314.44557 
z
" clip-path="url(#p47f597bffe)" style="fill: #53b047; stroke: #ffffff; stroke-linejoin: miter"/>
   </g>
   <g id="patch_50">
    <path d="M 569.36 315 
L 575.973333 315 
L 575.973333 314.507173 
L 569.36 314.507173 
z
" clip-path="url(#p47f597bffe)" style="fill: #48b14e; stroke: #ffffff; stroke-linejoin: miter"/>
   </g>
   <g id="patch_51">
    <path d="M 577.626667 315 
L 584.24 315 
L 584.24 314.507173 
L 577.626667 314.507173 
z
" clip-path="url(#p47f597bffe)" style="fill: #48b05c; stroke: #ffffff; stroke-linejoin: miter"/>
   </g>
   <g id="patch_52">
    <path d="M 585.893333 315 
L 592.506667 315 
L 592.506667 314.507173 
L 585.893333 314.507173 
z
" clip-path="url(#p47f597bffe)" style="fill: #48b066; stroke: #ffffff; stroke-linejoin: miter"/>
   </g>
   <g id="patch_53">
    <path d="M 594.16 315 
L 600.773333 315 
L 600.773333 314.507173 
L 594.16 314.507173 
z
" clip-path="url(#p47f597bffe)" style="fill: #48af6e; stroke: #ffffff; stroke-linejoin: miter"/>
   </g>
   <g id="patch_54">
    <path d="M 602.426667 315 
L 609.04 315 
L 609.04 314.507173 
L 602.426667 314.507173 
z
" clip-path="url(#p47f597bffe)" style="fill: #49af74; stroke: #ffffff; stroke-linejoin: miter"/>
   </g>
   <g id="patch_55">
    <path d="M 610.693333 315 
L 617.306667 315 
L 617.306667 314.507173 
L 610.693333 314.507173 
z
" clip-path="url(#p47f597bffe)" style="fill: #49af7a; stroke: #ffffff; stroke-linejoin: miter"/>
   </g>
   <g id="patch_56">
    <path d="M 618.96 315 
L 625.573333 315 
L 625.573333 314.568777 
L 618.96 314.568777 
z
" clip-path="url(#p47f597bffe)" style="fill: #49ae7e; stroke: #ffffff; stroke-linejoin: miter"/>
   </g>
   <g id="patch_57">
    <path d="M 627.226667 315 
L 633.84 315 
L 633.84 314.568777 
L 627.226667 314.568777 
z
" clip-path="url(#p47f597bffe)" style="fill: #49ae83; stroke: #ffffff; stroke-linejoin: miter"/>
   </g>
   <g id="patch_58">
    <path d="M 635.493333 315 
L 642.106667 315 
L 642.106667 314.568777 
L 635.493333 314.568777 
z
" clip-path="url(#p47f597bffe)" style="fill: #49ae86; stroke: #ffffff; stroke-linejoin: miter"/>
   </g>
   <g id="patch_59">
    <path d="M 643.76 315 
L 650.373333 315 
L 650.373333 314.568777 
L 643.76 314.568777 
z
" clip-path="url(#p47f597bffe)" style="fill: #4aae8a; stroke: #ffffff; stroke-linejoin: miter"/>
   </g>
   <g id="patch_60">
    <path d="M 652.026667 315 
L 658.64 315 
L 658.64 314.568777 
L 652.026667 314.568777 
z
" clip-path="url(#p47f597bffe)" style="fill: #4aad8d; stroke: #ffffff; stroke-linejoin: miter"/>
   </g>
   <g id="patch_61">
    <path d="M 660.293333 315 
L 666.906667 315 
L 666.906667 314.568777 
L 660.293333 314.568777 
z
" clip-path="url(#p47f597bffe)" style="fill: #4aad90; stroke: #ffffff; stroke-linejoin: miter"/>
   </g>
   <g id="patch_62">
    <path d="M 668.56 315 
L 675.173333 315 
L 675.173333 314.568777 
L 668.56 314.568777 
z
" clip-path="url(#p47f597bffe)" style="fill: #4aad92; stroke: #ffffff; stroke-linejoin: miter"/>
   </g>
   <g id="patch_63">
    <path d="M 676.826667 315 
L 683.44 315 
L 683.44 314.63038 
L 676.826667 314.63038 
z
" clip-path="url(#p47f597bffe)" style="fill: #4aad95; stroke: #ffffff; stroke-linejoin: miter"/>
   </g>
   <g id="patch_64">
    <path d="M 685.093333 315 
L 691.706667 315 
L 691.706667 314.63038 
L 685.093333 314.63038 
z
" clip-path="url(#p47f597bffe)" style="fill: #4aac97; stroke: #ffffff; stroke-linejoin: miter"/>
   </g>
   <g id="patch_65">
    <path d="M 693.36 315 
L 699.973333 315 
L 699.973333 314.63038 
L 693.36 314.63038 
z
" clip-path="url(#p47f597bffe)" style="fill: #4aac99; stroke: #ffffff; stroke-linejoin: miter"/>
   </g>
   <g id="patch_66">
    <path d="M 701.626667 315 
L 708.24 315 
L 708.24 314.691983 
L 701.626667 314.691983 
z
" clip-path="url(#p47f597bffe)" style="fill: #4aac9b; stroke: #ffffff; stroke-linejoin: miter"/>
   </g>
   <g id="patch_67">
    <path d="M 709.893333 315 
L 716.506667 315 
L 716.506667 314.691983 
L 709.893333 314.691983 
z
" clip-path="url(#p47f597bffe)" style="fill: #4bac9d; stroke: #ffffff; stroke-linejoin: miter"/>
   </g>
   <g id="patch_68">
    <path d="M 718.16 315 
L 724.773333 315 
L 724.773333 314.691983 
L 718.16 314.691983 
z
" clip-path="url(#p47f597bffe)" style="fill: #4bac9f; stroke: #ffffff; stroke-linejoin: miter"/>
   </g>
   <g id="patch_69">
    <path d="M 726.426667 315 
L 733.04 315 
L 733.04 314.753587 
L 726.426667 314.753587 
z
" clip-path="url(#p47f597bffe)" style="fill: #4baba1; stroke: #ffffff; stroke-linejoin: miter"/>
   </g>
   <g id="patch_70">
    <path d="M 734.693333 315 
L 741.306667 315 
L 741.306667 314.753587 
L 734.693333 314.753587 
z
" clip-path="url(#p47f597bffe)" style="fill: #4baba3; stroke: #ffffff; stroke-linejoin: miter"/>
   </g>
   <g id="patch_71">
    <path d="M 742.96 315 
L 749.573333 315 
L 749.573333 314.753587 
L 742.96 314.753587 
z
" clip-path="url(#p47f597bffe)" style="fill: #4baba5; stroke: #ffffff; stroke-linejoin: miter"/>
   </g>
   <g id="patch_72">
    <path d="M 751.226667 315 
L 757.84 315 
L 757.84 314.753587 
L 751.226667 314.753587 
z
" clip-path="url(#p47f597bffe)" style="fill: #4baba7; stroke: #ffffff; stroke-linejoin: miter"/>
   </g>
   <g id="patch_73">
    <path d="M 759.493333 315 
L 766.106667 315 
L 766.106667 314.753587 
L 759.493333 314.753587 
z
" clip-path="url(#p47f597bffe)" style="fill: #4baba9; stroke: #ffffff; stroke-linejoin: miter"/>
   </g>
   <g id="patch_74">
    <path d="M 767.76 315 
L 774.373333 315 
L 774.373333 314.753587 
L 767.76 314.753587 
z
" clip-path="url(#p47f597bffe)" style="fill: #4baaab; stroke: #ffffff; stroke-linejoin: miter"/>
   </g>
   <g id="patch_75">
    <path d="M 776.026667 315 
L 782.64 315 
L 782.64 314.753587 
L 776.026667 314.753587 
z
" clip-path="url(#p47f597bffe)" style="fill: #4cabad; stroke: #ffffff; stroke-linejoin: miter"/>
   </g>
   <g id="patch_76">
    <path d="M 784.293333 315 
L 790.906667 315 
L 790.906667 314.81519 
L 784.293333 314.81519 
z
" clip-path="url(#p47f597bffe)" style="fill: #4cabaf; stroke: #ffffff; stroke-linejoin: miter"/>
   </g>
   <g id="patch_77">
    <path d="M 792.56 315 
L 799.173333 315 
L 799.173333 314.81519 
L 792.56 314.81519 
z
" clip-path="url(#p47f597bffe)" style="fill: #4dabb1; stroke: #ffffff; stroke-linejoin: miter"/>
   </g>
   <g id="patch_78">
    <path d="M 800.826667 315 
L 807.44 315 
L 807.44 314.81519 
L 800.826667 314.81519 
z
" clip-path="url(#p47f597bffe)" style="fill: #4dabb3; stroke: #ffffff; stroke-linejoin: miter"/>
   </g>
   <g id="patch_79">
    <path d="M 809.093333 315 
L 815.706667 315 
L 815.706667 314.81519 
L 809.093333 314.81519 
z
" clip-path="url(#p47f597bffe)" style="fill: #4eabb6; stroke: #ffffff; stroke-linejoin: miter"/>
   </g>
   <g id="patch_80">
    <path d="M 817.36 315 
L 823.973333 315 
L 823.973333 314.81519 
L 817.36 314.81519 
z
" clip-path="url(#p47f597bffe)" style="fill: #4eabb8; stroke: #ffffff; stroke-linejoin: miter"/>
   </g>
   <g id="patch_81">
    <path d="M 825.626667 315 
L 832.24 315 
L 832.24 314.81519 
L 825.626667 314.81519 
z
" clip-path="url(#p47f597bffe)" style="fill: #4fabbb; stroke: #ffffff; stroke-linejoin: miter"/>
   </g>
   <g id="patch_82">
    <path d="M 833.893333 315 
L 840.506667 315 
L 840.506667 314.81519 
L 833.893333 314.81519 
z
" clip-path="url(#p47f597bffe)" style="fill: #4fabbd; stroke: #ffffff; stroke-linejoin: miter"/>
   </g>
   <g id="patch_83">
    <path d="M 842.16 315 
L 848.773333 315 
L 848.773333 314.81519 
L 842.16 314.81519 
z
" clip-path="url(#p47f597bffe)" style="fill: #50acc0; stroke: #ffffff; stroke-linejoin: miter"/>
   </g>
   <g id="patch_84">
    <path d="M 850.426667 315 
L 857.04 315 
L 857.04 314.81519 
L 850.426667 314.81519 
z
" clip-path="url(#p47f597bffe)" style="fill: #50acc3; stroke: #ffffff; stroke-linejoin: miter"/>
   </g>
   <g id="patch_85">
    <path d="M 858.693333 315 
L 865.306667 315 
L 865.306667 314.81519 
L 858.693333 314.81519 
z
" clip-path="url(#p47f597bffe)" style="fill: #51acc5; stroke: #ffffff; stroke-linejoin: miter"/>
   </g>
   <g id="patch_86">
    <path d="M 866.96 315 
L 873.573333 315 
L 873.573333 314.81519 
L 866.96 314.81519 
z
" clip-path="url(#p47f597bffe)" style="fill: #52acc9; stroke: #ffffff; stroke-linejoin: miter"/>
   </g>
   <g id="patch_87">
    <path d="M 875.226667 315 
L 881.84 315 
L 881.84 314.81519 
L 875.226667 314.81519 
z
" clip-path="url(#p47f597bffe)" style="fill: #53accc; stroke: #ffffff; stroke-linejoin: miter"/>
   </g>
   <g id="patch_88">
    <path d="M 883.493333 315 
L 890.106667 315 
L 890.106667 314.81519 
L 883.493333 314.81519 
z
" clip-path="url(#p47f597bffe)" style="fill: #53acd0; stroke: #ffffff; stroke-linejoin: miter"/>
   </g>
   <g id="patch_89">
    <path d="M 891.76 315 
L 898.373333 315 
L 898.373333 314.81519 
L 891.76 314.81519 
z
" clip-path="url(#p47f597bffe)" style="fill: #54acd3; stroke: #ffffff; stroke-linejoin: miter"/>
   </g>
   <g id="patch_90">
    <path d="M 900.026667 315 
L 906.64 315 
L 906.64 314.81519 
L 900.026667 314.81519 
z
" clip-path="url(#p47f597bffe)" style="fill: #55acd8; stroke: #ffffff; stroke-linejoin: miter"/>
   </g>
   <g id="patch_91">
    <path d="M 908.293333 315 
L 914.906667 315 
L 914.906667 314.81519 
L 908.293333 314.81519 
z
" clip-path="url(#p47f597bffe)" style="fill: #56addc; stroke: #ffffff; stroke-linejoin: miter"/>
   </g>
   <g id="patch_92">
    <path d="M 916.56 315 
L 923.173333 315 
L 923.173333 314.876793 
L 916.56 314.876793 
z
" clip-path="url(#p47f597bffe)" style="fill: #5fade0; stroke: #ffffff; stroke-linejoin: miter"/>
   </g>
   <g id="patch_93">
    <path d="M 924.826667 315 
L 931.44 315 
L 931.44 314.876793 
L 924.826667 314.876793 
z
" clip-path="url(#p47f597bffe)" style="fill: #6daee2; stroke: #ffffff; stroke-linejoin: miter"/>
   </g>
   <g id="patch_94">
    <path d="M 933.093333 315 
L 939.706667 315 
L 939.706667 314.876793 
L 933.093333 314.876793 
z
" clip-path="url(#p47f597bffe)" style="fill: #78aee4; stroke: #ffffff; stroke-linejoin: miter"/>
   </g>
   <g id="patch_95">
    <path d="M 941.36 315 
L 947.973333 315 
L 947.973333 314.876793 
L 941.36 314.876793 
z
" clip-path="url(#p47f597bffe)" style="fill: #81aee5; stroke: #ffffff; stroke-linejoin: miter"/>
   </g>
   <g id="patch_96">
    <path d="M 949.626667 315 
L 956.24 315 
L 956.24 314.876793 
L 949.626667 314.876793 
z
" clip-path="url(#p47f597bffe)" style="fill: #89aee6; stroke: #ffffff; stroke-linejoin: miter"/>
   </g>
   <g id="patch_97">
    <path d="M 957.893333 315 
L 964.506667 315 
L 964.506667 314.876793 
L 957.893333 314.876793 
z
" clip-path="url(#p47f597bffe)" style="fill: #91aee8; stroke: #ffffff; stroke-linejoin: miter"/>
   </g>
   <g id="patch_98">
    <path d="M 966.16 315 
L 972.773333 315 
L 972.773333 314.876793 
L 966.16 314.876793 
z
" clip-path="url(#p47f597bffe)" style="fill: #97ade8; stroke: #ffffff; stroke-linejoin: miter"/>
   </g>
   <g id="patch_99">
    <path d="M 974.426667 315 
L 981.04 315 
L 981.04 314.876793 
L 974.426667 314.876793 
z
" clip-path="url(#p47f597bffe)" style="fill: #9dade9; stroke: #ffffff; stroke-linejoin: miter"/>
   </g>
   <g id="patch_100">
    <path d="M 982.693333 315 
L 989.306667 315 
L 989.306667 314.876793 
L 982.693333 314.876793 
z
" clip-path="url(#p47f597bffe)" style="fill: #a3adea; stroke: #ffffff; stroke-linejoin: miter"/>
   </g>
   <g id="patch_101">
    <path d="M 990.96 315 
L 997.573333 315 
L 997.573333 314.876793 
L 990.96 314.876793 
z
" clip-path="url(#p47f597bffe)" style="fill: #a8aceb; stroke: #ffffff; stroke-linejoin: miter"/>
   </g>
   <g id="patch_102">
    <path d="M 999.226667 315 
L 1005.84 315 
L 1005.84 314.876793 
L 999.226667 314.876793 
z
" clip-path="url(#p47f597bffe)" style="fill: #adabeb; stroke: #ffffff; stroke-linejoin: miter"/>
   </g>
   <g id="patch_103">
    <path d="M 1007.493333 315 
L 1014.106667 315 
L 1014.106667 314.876793 
L 1007.493333 314.876793 
z
" clip-path="url(#p47f597bffe)" style="fill: #b1aaeb; stroke: #ffffff; stroke-linejoin: miter"/>
   </g>
   <g id="patch_104">
    <path d="M 1015.76 315 
L 1022.373333 315 
L 1022.373333 314.876793 
L 1015.76 314.876793 
z
" clip-path="url(#p47f597bffe)" style="fill: #b5a8eb; stroke: #ffffff; stroke-linejoin: miter"/>
   </g>
   <g id="patch_105">
    <path d="M 1024.026667 315 
L 1030.64 315 
L 1030.64 314.876793 
L 1024.026667 314.876793 
z
" clip-path="url(#p47f597bffe)" style="fill: #b9a6eb; stroke: #ffffff; stroke-linejoin: miter"/>
   </g>
   <g id="patch_106">
    <path d="M 1032.293333 315 
L 1038.906667 315 
L 1038.906667 314.876793 
L 1032.293333 314.876793 
z
" clip-path="url(#p47f597bffe)" style="fill: #bca5ea; stroke: #ffffff; stroke-linejoin: miter"/>
   </g>
   <g id="patch_107">
    <path d="M 1040.56 315 
L 1047.173333 315 
L 1047.173333 314.876793 
L 1040.56 314.876793 
z
" clip-path="url(#p47f597bffe)" style="fill: #c0a3ea; stroke: #ffffff; stroke-linejoin: miter"/>
   </g>
   <g id="patch_108">
    <path d="M 1048.826667 315 
L 1055.44 315 
L 1055.44 314.876793 
L 1048.826667 314.876793 
z
" clip-path="url(#p47f597bffe)" style="fill: #c4a1ea; stroke: #ffffff; stroke-linejoin: miter"/>
   </g>
   <g id="patch_109">
    <path d="M 1057.093333 315 
L 1063.706667 315 
L 1063.706667 314.876793 
L 1057.093333 314.876793 
z
" clip-path="url(#p47f597bffe)" style="fill: #c79fea; stroke: #ffffff; stroke-linejoin: miter"/>
   </g>
   <g id="patch_110">
    <path d="M 1065.36 315 
L 1071.973333 315 
L 1071.973333 314.938397 
L 1065.36 314.938397 
z
" clip-path="url(#p47f597bffe)" style="fill: #cb9de9; stroke: #ffffff; stroke-linejoin: miter"/>
   </g>
   <g id="patch_111">
    <path d="M 1073.626667 315 
L 1080.24 315 
L 1080.24 314.938397 
L 1073.626667 314.938397 
z
" clip-path="url(#p47f597bffe)" style="fill: #ce9be9; stroke: #ffffff; stroke-linejoin: miter"/>
   </g>
   <g id="patch_112">
    <path d="M 1081.893333 315 
L 1088.506667 315 
L 1088.506667 314.938397 
L 1081.893333 314.938397 
z
" clip-path="url(#p47f597bffe)" style="fill: #d299e9; stroke: #ffffff; stroke-linejoin: miter"/>
   </g>
   <g id="patch_113">
    <path d="M 1090.16 315 
L 1096.773333 315 
L 1096.773333 314.938397 
L 1090.16 314.938397 
z
" clip-path="url(#p47f597bffe)" style="fill: #d596e8; stroke: #ffffff; stroke-linejoin: miter"/>
   </g>
   <g id="patch_114">
    <path d="M 1098.426667 315 
L 1105.04 315 
L 1105.04 314.938397 
L 1098.426667 314.938397 
z
" clip-path="url(#p47f597bffe)" style="fill: #d994e8; stroke: #ffffff; stroke-linejoin: miter"/>
   </g>
   <g id="patch_115">
    <path d="M 1106.693333 315 
L 1113.306667 315 
L 1113.306667 314.938397 
L 1106.693333 314.938397 
z
" clip-path="url(#p47f597bffe)" style="fill: #dd91e7; stroke: #ffffff; stroke-linejoin: miter"/>
   </g>
   <g id="patch_116">
    <path d="M 1114.96 315 
L 1121.573333 315 
L 1121.573333 314.938397 
L 1114.96 314.938397 
z
" clip-path="url(#p47f597bffe)" style="fill: #e18de7; stroke: #ffffff; stroke-linejoin: miter"/>
   </g>
   <g id="patch_117">
    <path d="M 1123.226667 315 
L 1129.84 315 
L 1129.84 314.938397 
L 1123.226667 314.938397 
z
" clip-path="url(#p47f597bffe)" style="fill: #e58ae6; stroke: #ffffff; stroke-linejoin: miter"/>
   </g>
   <g id="patch_118">
    <path d="M 1131.493333 315 
L 1138.106667 315 
L 1138.106667 314.938397 
L 1131.493333 314.938397 
z
" clip-path="url(#p47f597bffe)" style="fill: #e689e3; stroke: #ffffff; stroke-linejoin: miter"/>
   </g>
   <g id="patch_119">
    <path d="M 1139.76 315 
L 1146.373333 315 
L 1146.373333 314.938397 
L 1139.76 314.938397 
z
" clip-path="url(#p47f597bffe)" style="fill: #e78adf; stroke: #ffffff; stroke-linejoin: miter"/>
   </g>
   <g id="patch_120">
    <path d="M 1148.026667 315 
L 1154.64 315 
L 1154.64 314.938397 
L 1148.026667 314.938397 
z
" clip-path="url(#p47f597bffe)" style="fill: #e78bdb; stroke: #ffffff; stroke-linejoin: miter"/>
   </g>
   <g id="patch_121">
    <path d="M 1156.293333 315 
L 1162.906667 315 
L 1162.906667 314.938397 
L 1156.293333 314.938397 
z
" clip-path="url(#p47f597bffe)" style="fill: #e78cd8; stroke: #ffffff; stroke-linejoin: miter"/>
   </g>
   <g id="patch_122">
    <path d="M 1164.56 315 
L 1171.173333 315 
L 1171.173333 314.938397 
L 1164.56 314.938397 
z
" clip-path="url(#p47f597bffe)" style="fill: #e78dd4; stroke: #ffffff; stroke-linejoin: miter"/>
   </g>
   <g id="patch_123">
    <path d="M 1172.826667 315 
L 1179.44 315 
L 1179.44 314.938397 
L 1172.826667 314.938397 
z
" clip-path="url(#p47f597bffe)" style="fill: #e88ed1; stroke: #ffffff; stroke-linejoin: miter"/>
   </g>
   <g id="patch_124">
    <path d="M 1181.093333 315 
L 1187.706667 315 
L 1187.706667 314.938397 
L 1181.093333 314.938397 
z
" clip-path="url(#p47f597bffe)" style="fill: #e88ece; stroke: #ffffff; stroke-linejoin: miter"/>
   </g>
   <g id="patch_125">
    <path d="M 1189.36 315 
L 1195.973333 315 
L 1195.973333 314.938397 
L 1189.36 314.938397 
z
" clip-path="url(#p47f597bffe)" style="fill: #e88fcb; stroke: #ffffff; stroke-linejoin: miter"/>
   </g>
   <g id="patch_126">
    <path d="M 1197.626667 315 
L 1204.24 315 
L 1204.24 314.938397 
L 1197.626667 314.938397 
z
" clip-path="url(#p47f597bffe)" style="fill: #e890c8; stroke: #ffffff; stroke-linejoin: miter"/>
   </g>
   <g id="patch_127">
    <path d="M 1205.893333 315 
L 1212.506667 315 
L 1212.506667 314.938397 
L 1205.893333 314.938397 
z
" clip-path="url(#p47f597bffe)" style="fill: #e890c5; stroke: #ffffff; stroke-linejoin: miter"/>
   </g>
   <g id="patch_128">
    <path d="M 1214.16 315 
L 1220.773333 315 
L 1220.773333 314.938397 
L 1214.16 314.938397 
z
" clip-path="url(#p47f597bffe)" style="fill: #e891c2; stroke: #ffffff; stroke-linejoin: miter"/>
   </g>
   <g id="patch_129">
    <path d="M 1222.426667 315 
L 1229.04 315 
L 1229.04 314.938397 
L 1222.426667 314.938397 
z
" clip-path="url(#p47f597bffe)" style="fill: #e891bf; stroke: #ffffff; stroke-linejoin: miter"/>
   </g>
   <g id="patch_130">
    <path d="M 1230.693333 315 
L 1237.306667 315 
L 1237.306667 314.938397 
L 1230.693333 314.938397 
z
" clip-path="url(#p47f597bffe)" style="fill: #e992bc; stroke: #ffffff; stroke-linejoin: miter"/>
   </g>
   <g id="patch_131">
    <path d="M 1238.96 315 
L 1245.573333 315 
L 1245.573333 314.938397 
L 1238.96 314.938397 
z
" clip-path="url(#p47f597bffe)" style="fill: #e992ba; stroke: #ffffff; stroke-linejoin: miter"/>
   </g>
   <g id="patch_132">
    <path d="M 1247.226667 315 
L 1253.84 315 
L 1253.84 314.938397 
L 1247.226667 314.938397 
z
" clip-path="url(#p47f597bffe)" style="fill: #e993b7; stroke: #ffffff; stroke-linejoin: miter"/>
   </g>
   <g id="patch_133">
    <path d="M 1255.493333 315 
L 1262.106667 315 
L 1262.106667 314.938397 
L 1255.493333 314.938397 
z
" clip-path="url(#p47f597bffe)" style="fill: #e993b4; stroke: #ffffff; stroke-linejoin: miter"/>
   </g>
   <g id="patch_134">
    <path d="M 1263.76 315 
L 1270.373333 315 
L 1270.373333 314.938397 
L 1263.76 314.938397 
z
" clip-path="url(#p47f597bffe)" style="fill: #e994b1; stroke: #ffffff; stroke-linejoin: miter"/>
   </g>
   <g id="patch_135">
    <path d="M 1272.026667 315 
L 1278.64 315 
L 1278.64 314.938397 
L 1272.026667 314.938397 
z
" clip-path="url(#p47f597bffe)" style="fill: #e994ae; stroke: #ffffff; stroke-linejoin: miter"/>
   </g>
   <g id="patch_136">
    <path d="M 1280.293333 315 
L 1286.906667 315 
L 1286.906667 314.938397 
L 1280.293333 314.938397 
z
" clip-path="url(#p47f597bffe)" style="fill: #e995ab; stroke: #ffffff; stroke-linejoin: miter"/>
   </g>
   <g id="patch_137">
    <path d="M 1288.56 315 
L 1295.173333 315 
L 1295.173333 314.938397 
L 1288.56 314.938397 
z
" clip-path="url(#p47f597bffe)" style="fill: #e995a7; stroke: #ffffff; stroke-linejoin: miter"/>
   </g>
   <g id="patch_138">
    <path d="M 180 315 
L 180 43.2 
" style="fill: none; stroke: #ffffff; stroke-width: 1.25; stroke-linejoin: miter; stroke-linecap: square"/>
   </g>
   <g id="patch_139">
    <path d="M 1296 315 
L 1296 43.2 
" style="fill: none; stroke: #ffffff; stroke-width: 1.25; stroke-linejoin: miter; stroke-linecap: square"/>
   </g>
   <g id="patch_140">
    <path d="M 180 315 
L 1296 315 
" style="fill: none; stroke: #ffffff; stroke-width: 1.25; stroke-linejoin: miter; stroke-linecap: square"/>
   </g>
   <g id="patch_141">
    <path d="M 180 43.2 
L 1296 43.2 
" style="fill: none; stroke: #ffffff; stroke-width: 1.25; stroke-linejoin: miter; stroke-linecap: square"/>
   </g>
   <g id="text_12">
    <!-- Number of works in which a character from a slash-pair appeared -->
    <g style="fill: #262626" transform="translate(564.27 37.2)scale(0.12 -0.12)">
     <defs>
      <path id="ArialMT-4e" d="M 488 0 
L 488 4581 
L 1109 4581 
L 3516 984 
L 3516 4581 
L 4097 4581 
L 4097 0 
L 3475 0 
L 1069 3600 
L 1069 0 
L 488 0 
z
" transform="scale(0.015625)"/>
      <path id="ArialMT-75" d="M 2597 0 
L 2597 488 
Q 2209 -75 1544 -75 
Q 1250 -75 995 37 
Q 741 150 617 320 
Q 494 491 444 738 
Q 409 903 409 1263 
L 409 3319 
L 972 3319 
L 972 1478 
Q 972 1038 1006 884 
Q 1059 663 1231 536 
Q 1403 409 1656 409 
Q 1909 409 2131 539 
Q 2353 669 2445 892 
Q 2538 1116 2538 1541 
L 2538 3319 
L 3100 3319 
L 3100 0 
L 2597 0 
z
" transform="scale(0.015625)"/>
      <path id="ArialMT-62" d="M 941 0 
L 419 0 
L 419 4581 
L 981 4581 
L 981 2947 
Q 1338 3394 1891 3394 
Q 2197 3394 2470 3270 
Q 2744 3147 2920 2923 
Q 3097 2700 3197 2384 
Q 3297 2069 3297 1709 
Q 3297 856 2875 390 
Q 2453 -75 1863 -75 
Q 1275 -75 941 416 
L 941 0 
z
M 934 1684 
Q 934 1088 1097 822 
Q 1363 388 1816 388 
Q 2184 388 2453 708 
Q 2722 1028 2722 1663 
Q 2722 2313 2464 2622 
Q 2206 2931 1841 2931 
Q 1472 2931 1203 2611 
Q 934 2291 934 1684 
z
" transform="scale(0.015625)"/>
      <path id="ArialMT-66" d="M 556 0 
L 556 2881 
L 59 2881 
L 59 3319 
L 556 3319 
L 556 3672 
Q 556 4006 616 4169 
Q 697 4388 901 4523 
Q 1106 4659 1475 4659 
Q 1713 4659 2000 4603 
L 1916 4113 
Q 1741 4144 1584 4144 
Q 1328 4144 1222 4034 
Q 1116 3925 1116 3625 
L 1116 3319 
L 1763 3319 
L 1763 2881 
L 1116 2881 
L 1116 0 
L 556 0 
z
" transform="scale(0.015625)"/>
      <path id="ArialMT-77" d="M 1034 0 
L 19 3319 
L 600 3319 
L 1128 1403 
L 1325 691 
Q 1338 744 1497 1375 
L 2025 3319 
L 2603 3319 
L 3100 1394 
L 3266 759 
L 3456 1400 
L 4025 3319 
L 4572 3319 
L 3534 0 
L 2950 0 
L 2422 1988 
L 2294 2553 
L 1622 0 
L 1034 0 
z
" transform="scale(0.015625)"/>
      <path id="ArialMT-69" d="M 425 3934 
L 425 4581 
L 988 4581 
L 988 3934 
L 425 3934 
z
M 425 0 
L 425 3319 
L 988 3319 
L 988 0 
L 425 0 
z
" transform="scale(0.015625)"/>
      <path id="ArialMT-6c" d="M 409 0 
L 409 4581 
L 972 4581 
L 972 0 
L 409 0 
z
" transform="scale(0.015625)"/>
      <path id="ArialMT-2d" d="M 203 1375 
L 203 1941 
L 1931 1941 
L 1931 1375 
L 203 1375 
z
" transform="scale(0.015625)"/>
      <path id="ArialMT-70" d="M 422 -1272 
L 422 3319 
L 934 3319 
L 934 2888 
Q 1116 3141 1344 3267 
Q 1572 3394 1897 3394 
Q 2322 3394 2647 3175 
Q 2972 2956 3137 2557 
Q 3303 2159 3303 1684 
Q 3303 1175 3120 767 
Q 2938 359 2589 142 
Q 2241 -75 1856 -75 
Q 1575 -75 1351 44 
Q 1128 163 984 344 
L 984 -1272 
L 422 -1272 
z
M 931 1641 
Q 931 1000 1190 694 
Q 1450 388 1819 388 
Q 2194 388 2461 705 
Q 2728 1022 2728 1688 
Q 2728 2322 2467 2637 
Q 2206 2953 1844 2953 
Q 1484 2953 1207 2617 
Q 931 2281 931 1641 
z
" transform="scale(0.015625)"/>
      <path id="ArialMT-64" d="M 2575 0 
L 2575 419 
Q 2259 -75 1647 -75 
Q 1250 -75 917 144 
Q 584 363 401 755 
Q 219 1147 219 1656 
Q 219 2153 384 2558 
Q 550 2963 881 3178 
Q 1213 3394 1622 3394 
Q 1922 3394 2156 3267 
Q 2391 3141 2538 2938 
L 2538 4581 
L 3097 4581 
L 3097 0 
L 2575 0 
z
M 797 1656 
Q 797 1019 1065 703 
Q 1334 388 1700 388 
Q 2069 388 2326 689 
Q 2584 991 2584 1609 
Q 2584 2291 2321 2609 
Q 2059 2928 1675 2928 
Q 1300 2928 1048 2622 
Q 797 2316 797 1656 
z
" transform="scale(0.015625)"/>
     </defs>
     <use xlink:href="#ArialMT-4e"/>
     <use xlink:href="#ArialMT-75" x="72.216797"/>
     <use xlink:href="#ArialMT-6d" x="127.832031"/>
     <use xlink:href="#ArialMT-62" x="211.132812"/>
     <use xlink:href="#ArialMT-65" x="266.748047"/>
     <use xlink:href="#ArialMT-72" x="322.363281"/>
     <use xlink:href="#ArialMT-20" x="355.664062"/>
     <use xlink:href="#ArialMT-6f" x="383.447266"/>
     <use xlink:href="#ArialMT-66" x="439.0625"/>
     <use xlink:href="#ArialMT-20" x="466.845703"/>
     <use xlink:href="#ArialMT-77" x="494.628906"/>
     <use xlink:href="#ArialMT-6f" x="566.845703"/>
     <use xlink:href="#ArialMT-72" x="622.460938"/>
     <use xlink:href="#ArialMT-6b" x="655.761719"/>
     <use xlink:href="#ArialMT-73" x="705.761719"/>
     <use xlink:href="#ArialMT-20" x="755.761719"/>
     <use xlink:href="#ArialMT-69" x="783.544922"/>
     <use xlink:href="#ArialMT-6e" x="805.761719"/>
     <use xlink:href="#ArialMT-20" x="861.376953"/>
     <use xlink:href="#ArialMT-77" x="889.160156"/>
     <use xlink:href="#ArialMT-68" x="961.376953"/>
     <use xlink:href="#ArialMT-69" x="1016.992188"/>
     <use xlink:href="#ArialMT-63" x="1039.208984"/>
     <use xlink:href="#ArialMT-68" x="1089.208984"/>
     <use xlink:href="#ArialMT-20" x="1144.824219"/>
     <use xlink:href="#ArialMT-61" x="1172.607422"/>
     <use xlink:href="#ArialMT-20" x="1228.222656"/>
     <use xlink:href="#ArialMT-63" x="1256.005859"/>
     <use xlink:href="#ArialMT-68" x="1306.005859"/>
     <use xlink:href="#ArialMT-61" x="1361.621094"/>
     <use xlink:href="#ArialMT-72" x="1417.236328"/>
     <use xlink:href="#ArialMT-61" x="1450.537109"/>
     <use xlink:href="#ArialMT-63" x="1506.152344"/>
     <use xlink:href="#ArialMT-74" x="1556.152344"/>
     <use xlink:href="#ArialMT-65" x="1583.935547"/>
     <use xlink:href="#ArialMT-72" x="1639.550781"/>
     <use xlink:href="#ArialMT-20" x="1672.851562"/>
     <use xlink:href="#ArialMT-66" x="1700.634766"/>
     <use xlink:href="#ArialMT-72" x="1728.417969"/>
     <use xlink:href="#ArialMT-6f" x="1761.71875"/>
     <use xlink:href="#ArialMT-6d" x="1817.333984"/>
     <use xlink:href="#ArialMT-20" x="1900.634766"/>
     <use xlink:href="#ArialMT-61" x="1928.417969"/>
     <use xlink:href="#ArialMT-20" x="1984.033203"/>
     <use xlink:href="#ArialMT-73" x="2011.816406"/>
     <use xlink:href="#ArialMT-6c" x="2061.816406"/>
     <use xlink:href="#ArialMT-61" x="2084.033203"/>
     <use xlink:href="#ArialMT-73" x="2139.648438"/>
     <use xlink:href="#ArialMT-68" x="2189.648438"/>
     <use xlink:href="#ArialMT-2d" x="2245.263672"/>
     <use xlink:href="#ArialMT-70" x="2278.564453"/>
     <use xlink:href="#ArialMT-61" x="2334.179688"/>
     <use xlink:href="#ArialMT-69" x="2389.794922"/>
     <use xlink:href="#ArialMT-72" x="2412.011719"/>
     <use xlink:href="#ArialMT-20" x="2445.3125"/>
     <use xlink:href="#ArialMT-61" x="2473.095703"/>
     <use xlink:href="#ArialMT-70" x="2528.710938"/>
     <use xlink:href="#ArialMT-70" x="2584.326172"/>
     <use xlink:href="#ArialMT-65" x="2639.941406"/>
     <use xlink:href="#ArialMT-61" x="2695.556641"/>
     <use xlink:href="#ArialMT-72" x="2751.171875"/>
     <use xlink:href="#ArialMT-65" x="2784.472656"/>
     <use xlink:href="#ArialMT-64" x="2840.087891"/>
    </g>
   </g>
  </g>
 </g>
 <defs>
  <clipPath id="p47f597bffe">
   <rect x="180" y="43.2" width="1116" height="271.8"/>
  </clipPath>
 </defs>
</svg>
