<?xml version="1.0" encoding="utf-8" standalone="no"?>
<!DOCTYPE svg PUBLIC "-//W3C//DTD SVG 1.1//EN"
  "http://www.w3.org/Graphics/SVG/1.1/DTD/svg11.dtd">
<svg xmlns:xlink="http://www.w3.org/1999/xlink" width="1440pt" height="360pt" viewBox="0 0 1440 360" xmlns="http://www.w3.org/2000/svg" version="1.1">
 <metadata>
  <rdf:RDF xmlns:dc="http://purl.org/dc/elements/1.1/" xmlns:cc="http://creativecommons.org/ns#" xmlns:rdf="http://www.w3.org/1999/02/22-rdf-syntax-ns#">
   <cc:Work>
    <dc:type rdf:resource="http://purl.org/dc/dcmitype/StillImage"/>
    <dc:date>2022-08-19T13:59:35.661093</dc:date>
    <dc:format>image/svg+xml</dc:format>
    <dc:creator>
     <cc:Agent>
      <dc:title>Matplotlib v3.5.2, https://matplotlib.org/</dc:title>
     </cc:Agent>
    </dc:creator>
   </cc:Work>
  </rdf:RDF>
 </metadata>
 <defs>
  <style type="text/css">*{stroke-linejoin: round; stroke-linecap: butt}</style>
 </defs>
 <g id="figure_1">
  <g id="patch_1">
   <path d="M 0 360 
L 1440 360 
L 1440 0 
L 0 0 
z
" style="fill: #ffffff"/>
  </g>
  <g id="axes_1">
   <g id="patch_2">
    <path d="M 180 315 
L 1296 315 
L 1296 43.2 
L 180 43.2 
z
" style="fill: #eaeaf2"/>
   </g>
   <g id="matplotlib.axis_1">
    <g id="xtick_1"/>
    <g id="xtick_2"/>
    <g id="xtick_3"/>
    <g id="xtick_4"/>
    <g id="xtick_5"/>
    <g id="xtick_6"/>
    <g id="xtick_7"/>
    <g id="xtick_8"/>
    <g id="xtick_9"/>
    <g id="xtick_10"/>
    <g id="xtick_11"/>
    <g id="xtick_12"/>
    <g id="xtick_13"/>
    <g id="xtick_14"/>
    <g id="xtick_15"/>
    <g id="xtick_16"/>
    <g id="xtick_17"/>
    <g id="xtick_18"/>
    <g id="xtick_19"/>
    <g id="xtick_20"/>
    <g id="xtick_21"/>
    <g id="xtick_22"/>
    <g id="xtick_23"/>
    <g id="xtick_24"/>
    <g id="xtick_25"/>
    <g id="xtick_26"/>
    <g id="xtick_27"/>
    <g id="xtick_28"/>
    <g id="xtick_29"/>
    <g id="xtick_30"/>
    <g id="xtick_31"/>
    <g id="xtick_32"/>
    <g id="xtick_33"/>
    <g id="xtick_34"/>
    <g id="xtick_35"/>
    <g id="xtick_36"/>
    <g id="xtick_37"/>
    <g id="xtick_38"/>
    <g id="xtick_39"/>
    <g id="xtick_40"/>
    <g id="xtick_41"/>
    <g id="xtick_42"/>
    <g id="xtick_43"/>
    <g id="xtick_44"/>
    <g id="xtick_45"/>
    <g id="xtick_46"/>
    <g id="xtick_47"/>
    <g id="xtick_48"/>
    <g id="xtick_49"/>
    <g id="xtick_50"/>
    <g id="xtick_51"/>
    <g id="xtick_52"/>
    <g id="xtick_53"/>
    <g id="xtick_54"/>
    <g id="xtick_55"/>
    <g id="xtick_56"/>
    <g id="xtick_57"/>
    <g id="xtick_58"/>
    <g id="xtick_59"/>
    <g id="xtick_60"/>
    <g id="xtick_61"/>
    <g id="xtick_62"/>
    <g id="xtick_63"/>
    <g id="xtick_64"/>
    <g id="xtick_65"/>
    <g id="xtick_66"/>
    <g id="xtick_67"/>
    <g id="xtick_68"/>
    <g id="xtick_69"/>
    <g id="xtick_70"/>
    <g id="xtick_71"/>
    <g id="xtick_72"/>
    <g id="xtick_73"/>
    <g id="xtick_74"/>
    <g id="xtick_75"/>
    <g id="xtick_76"/>
    <g id="xtick_77"/>
    <g id="xtick_78"/>
    <g id="xtick_79"/>
    <g id="xtick_80"/>
    <g id="xtick_81"/>
    <g id="xtick_82"/>
    <g id="xtick_83"/>
    <g id="xtick_84"/>
    <g id="xtick_85"/>
    <g id="xtick_86"/>
    <g id="xtick_87"/>
    <g id="xtick_88"/>
    <g id="xtick_89"/>
    <g id="xtick_90"/>
    <g id="xtick_91"/>
    <g id="xtick_92"/>
    <g id="xtick_93"/>
    <g id="xtick_94"/>
    <g id="xtick_95"/>
    <g id="xtick_96"/>
    <g id="xtick_97"/>
    <g id="xtick_98"/>
    <g id="xtick_99"/>
    <g id="xtick_100"/>
    <g id="xtick_101"/>
    <g id="xtick_102"/>
    <g id="xtick_103"/>
    <g id="xtick_104"/>
    <g id="xtick_105"/>
    <g id="xtick_106"/>
    <g id="xtick_107"/>
    <g id="xtick_108"/>
    <g id="xtick_109"/>
    <g id="xtick_110"/>
    <g id="xtick_111"/>
    <g id="xtick_112"/>
    <g id="xtick_113"/>
    <g id="xtick_114"/>
    <g id="xtick_115"/>
    <g id="xtick_116"/>
    <g id="xtick_117"/>
    <g id="xtick_118"/>
    <g id="xtick_119"/>
    <g id="xtick_120"/>
    <g id="xtick_121"/>
    <g id="xtick_122"/>
    <g id="xtick_123"/>
    <g id="xtick_124"/>
    <g id="xtick_125"/>
    <g id="xtick_126"/>
    <g id="xtick_127"/>
    <g id="xtick_128"/>
    <g id="xtick_129"/>
    <g id="xtick_130"/>
    <g id="xtick_131"/>
    <g id="xtick_132"/>
    <g id="xtick_133"/>
    <g id="xtick_134"/>
    <g id="xtick_135"/>
    <g id="xtick_136"/>
    <g id="xtick_137"/>
    <g id="xtick_138"/>
    <g id="xtick_139"/>
    <g id="xtick_140"/>
    <g id="xtick_141"/>
    <g id="xtick_142"/>
    <g id="xtick_143"/>
    <g id="xtick_144"/>
    <g id="xtick_145"/>
    <g id="xtick_146"/>
    <g id="xtick_147"/>
    <g id="xtick_148"/>
    <g id="xtick_149"/>
    <g id="xtick_150"/>
    <g id="xtick_151"/>
    <g id="xtick_152"/>
    <g id="xtick_153"/>
    <g id="xtick_154"/>
    <g id="xtick_155"/>
    <g id="xtick_156"/>
    <g id="xtick_157"/>
    <g id="xtick_158"/>
    <g id="xtick_159"/>
    <g id="xtick_160"/>
    <g id="xtick_161"/>
    <g id="xtick_162"/>
    <g id="xtick_163"/>
    <g id="xtick_164"/>
    <g id="xtick_165"/>
    <g id="xtick_166"/>
    <g id="xtick_167"/>
    <g id="xtick_168"/>
    <g id="xtick_169"/>
    <g id="xtick_170"/>
    <g id="xtick_171"/>
    <g id="xtick_172"/>
    <g id="xtick_173"/>
    <g id="xtick_174"/>
    <g id="xtick_175"/>
    <g id="xtick_176"/>
    <g id="xtick_177"/>
    <g id="xtick_178"/>
    <g id="xtick_179"/>
    <g id="xtick_180"/>
    <g id="xtick_181"/>
    <g id="xtick_182"/>
    <g id="xtick_183"/>
    <g id="xtick_184"/>
    <g id="xtick_185"/>
    <g id="xtick_186"/>
    <g id="xtick_187"/>
    <g id="xtick_188"/>
    <g id="xtick_189"/>
    <g id="xtick_190"/>
    <g id="xtick_191"/>
    <g id="xtick_192"/>
    <g id="xtick_193"/>
    <g id="xtick_194"/>
    <g id="xtick_195"/>
    <g id="xtick_196"/>
    <g id="xtick_197"/>
    <g id="xtick_198"/>
    <g id="xtick_199"/>
    <g id="xtick_200"/>
    <g id="xtick_201"/>
    <g id="xtick_202"/>
    <g id="xtick_203"/>
    <g id="xtick_204"/>
    <g id="xtick_205"/>
    <g id="xtick_206"/>
    <g id="xtick_207"/>
    <g id="xtick_208"/>
    <g id="xtick_209"/>
    <g id="xtick_210"/>
    <g id="xtick_211"/>
    <g id="xtick_212"/>
    <g id="xtick_213"/>
    <g id="xtick_214"/>
    <g id="xtick_215"/>
    <g id="xtick_216"/>
    <g id="xtick_217"/>
    <g id="xtick_218"/>
    <g id="xtick_219"/>
    <g id="xtick_220"/>
    <g id="xtick_221"/>
    <g id="xtick_222"/>
    <g id="xtick_223"/>
    <g id="xtick_224"/>
    <g id="xtick_225"/>
    <g id="xtick_226"/>
    <g id="xtick_227"/>
    <g id="xtick_228"/>
    <g id="xtick_229"/>
    <g id="xtick_230"/>
    <g id="xtick_231"/>
    <g id="xtick_232"/>
    <g id="xtick_233"/>
    <g id="text_1">
     <!-- Character name -->
     <g style="fill: #262626" transform="translate(694.98375 337.089375)scale(0.12 -0.12)">
      <defs>
       <path id="ArialMT-43" d="M 3763 1606 
L 4369 1453 
Q 4178 706 3683 314 
Q 3188 -78 2472 -78 
Q 1731 -78 1267 223 
Q 803 525 561 1097 
Q 319 1669 319 2325 
Q 319 3041 592 3573 
Q 866 4106 1370 4382 
Q 1875 4659 2481 4659 
Q 3169 4659 3637 4309 
Q 4106 3959 4291 3325 
L 3694 3184 
Q 3534 3684 3231 3912 
Q 2928 4141 2469 4141 
Q 1941 4141 1586 3887 
Q 1231 3634 1087 3207 
Q 944 2781 944 2328 
Q 944 1744 1114 1308 
Q 1284 872 1643 656 
Q 2003 441 2422 441 
Q 2931 441 3284 734 
Q 3638 1028 3763 1606 
z
" transform="scale(0.015625)"/>
       <path id="ArialMT-68" d="M 422 0 
L 422 4581 
L 984 4581 
L 984 2938 
Q 1378 3394 1978 3394 
Q 2347 3394 2619 3248 
Q 2891 3103 3008 2847 
Q 3125 2591 3125 2103 
L 3125 0 
L 2563 0 
L 2563 2103 
Q 2563 2525 2380 2717 
Q 2197 2909 1863 2909 
Q 1613 2909 1392 2779 
Q 1172 2650 1078 2428 
Q 984 2206 984 1816 
L 984 0 
L 422 0 
z
" transform="scale(0.015625)"/>
       <path id="ArialMT-61" d="M 2588 409 
Q 2275 144 1986 34 
Q 1697 -75 1366 -75 
Q 819 -75 525 192 
Q 231 459 231 875 
Q 231 1119 342 1320 
Q 453 1522 633 1644 
Q 813 1766 1038 1828 
Q 1203 1872 1538 1913 
Q 2219 1994 2541 2106 
Q 2544 2222 2544 2253 
Q 2544 2597 2384 2738 
Q 2169 2928 1744 2928 
Q 1347 2928 1158 2789 
Q 969 2650 878 2297 
L 328 2372 
Q 403 2725 575 2942 
Q 747 3159 1072 3276 
Q 1397 3394 1825 3394 
Q 2250 3394 2515 3294 
Q 2781 3194 2906 3042 
Q 3031 2891 3081 2659 
Q 3109 2516 3109 2141 
L 3109 1391 
Q 3109 606 3145 398 
Q 3181 191 3288 0 
L 2700 0 
Q 2613 175 2588 409 
z
M 2541 1666 
Q 2234 1541 1622 1453 
Q 1275 1403 1131 1340 
Q 988 1278 909 1158 
Q 831 1038 831 891 
Q 831 666 1001 516 
Q 1172 366 1500 366 
Q 1825 366 2078 508 
Q 2331 650 2450 897 
Q 2541 1088 2541 1459 
L 2541 1666 
z
" transform="scale(0.015625)"/>
       <path id="ArialMT-72" d="M 416 0 
L 416 3319 
L 922 3319 
L 922 2816 
Q 1116 3169 1280 3281 
Q 1444 3394 1641 3394 
Q 1925 3394 2219 3213 
L 2025 2691 
Q 1819 2813 1613 2813 
Q 1428 2813 1281 2702 
Q 1134 2591 1072 2394 
Q 978 2094 978 1738 
L 978 0 
L 416 0 
z
" transform="scale(0.015625)"/>
       <path id="ArialMT-63" d="M 2588 1216 
L 3141 1144 
Q 3050 572 2676 248 
Q 2303 -75 1759 -75 
Q 1078 -75 664 370 
Q 250 816 250 1647 
Q 250 2184 428 2587 
Q 606 2991 970 3192 
Q 1334 3394 1763 3394 
Q 2303 3394 2647 3120 
Q 2991 2847 3088 2344 
L 2541 2259 
Q 2463 2594 2264 2762 
Q 2066 2931 1784 2931 
Q 1359 2931 1093 2626 
Q 828 2322 828 1663 
Q 828 994 1084 691 
Q 1341 388 1753 388 
Q 2084 388 2306 591 
Q 2528 794 2588 1216 
z
" transform="scale(0.015625)"/>
       <path id="ArialMT-74" d="M 1650 503 
L 1731 6 
Q 1494 -44 1306 -44 
Q 1000 -44 831 53 
Q 663 150 594 308 
Q 525 466 525 972 
L 525 2881 
L 113 2881 
L 113 3319 
L 525 3319 
L 525 4141 
L 1084 4478 
L 1084 3319 
L 1650 3319 
L 1650 2881 
L 1084 2881 
L 1084 941 
Q 1084 700 1114 631 
Q 1144 563 1211 522 
Q 1278 481 1403 481 
Q 1497 481 1650 503 
z
" transform="scale(0.015625)"/>
       <path id="ArialMT-65" d="M 2694 1069 
L 3275 997 
Q 3138 488 2766 206 
Q 2394 -75 1816 -75 
Q 1088 -75 661 373 
Q 234 822 234 1631 
Q 234 2469 665 2931 
Q 1097 3394 1784 3394 
Q 2450 3394 2872 2941 
Q 3294 2488 3294 1666 
Q 3294 1616 3291 1516 
L 816 1516 
Q 847 969 1125 678 
Q 1403 388 1819 388 
Q 2128 388 2347 550 
Q 2566 713 2694 1069 
z
M 847 1978 
L 2700 1978 
Q 2663 2397 2488 2606 
Q 2219 2931 1791 2931 
Q 1403 2931 1139 2672 
Q 875 2413 847 1978 
z
" transform="scale(0.015625)"/>
       <path id="ArialMT-20" transform="scale(0.015625)"/>
       <path id="ArialMT-6e" d="M 422 0 
L 422 3319 
L 928 3319 
L 928 2847 
Q 1294 3394 1984 3394 
Q 2284 3394 2536 3286 
Q 2788 3178 2913 3003 
Q 3038 2828 3088 2588 
Q 3119 2431 3119 2041 
L 3119 0 
L 2556 0 
L 2556 2019 
Q 2556 2363 2490 2533 
Q 2425 2703 2258 2804 
Q 2091 2906 1866 2906 
Q 1506 2906 1245 2678 
Q 984 2450 984 1813 
L 984 0 
L 422 0 
z
" transform="scale(0.015625)"/>
       <path id="ArialMT-6d" d="M 422 0 
L 422 3319 
L 925 3319 
L 925 2853 
Q 1081 3097 1340 3245 
Q 1600 3394 1931 3394 
Q 2300 3394 2536 3241 
Q 2772 3088 2869 2813 
Q 3263 3394 3894 3394 
Q 4388 3394 4653 3120 
Q 4919 2847 4919 2278 
L 4919 0 
L 4359 0 
L 4359 2091 
Q 4359 2428 4304 2576 
Q 4250 2725 4106 2815 
Q 3963 2906 3769 2906 
Q 3419 2906 3187 2673 
Q 2956 2441 2956 1928 
L 2956 0 
L 2394 0 
L 2394 2156 
Q 2394 2531 2256 2718 
Q 2119 2906 1806 2906 
Q 1569 2906 1367 2781 
Q 1166 2656 1075 2415 
Q 984 2175 984 1722 
L 984 0 
L 422 0 
z
" transform="scale(0.015625)"/>
      </defs>
      <use xlink:href="#ArialMT-43"/>
      <use xlink:href="#ArialMT-68" x="72.216797"/>
      <use xlink:href="#ArialMT-61" x="127.832031"/>
      <use xlink:href="#ArialMT-72" x="183.447266"/>
      <use xlink:href="#ArialMT-61" x="216.748047"/>
      <use xlink:href="#ArialMT-63" x="272.363281"/>
      <use xlink:href="#ArialMT-74" x="322.363281"/>
      <use xlink:href="#ArialMT-65" x="350.146484"/>
      <use xlink:href="#ArialMT-72" x="405.761719"/>
      <use xlink:href="#ArialMT-20" x="439.0625"/>
      <use xlink:href="#ArialMT-6e" x="466.845703"/>
      <use xlink:href="#ArialMT-61" x="522.460938"/>
      <use xlink:href="#ArialMT-6d" x="578.076172"/>
      <use xlink:href="#ArialMT-65" x="661.376953"/>
     </g>
    </g>
   </g>
   <g id="matplotlib.axis_2">
    <g id="ytick_1">
     <g id="line2d_1">
      <path d="M 180 315 
L 1296 315 
" clip-path="url(#p0537b16bec)" style="fill: none; stroke: #ffffff; stroke-linecap: round"/>
     </g>
     <g id="text_2">
      <!-- 0 -->
      <g style="fill: #262626" transform="translate(164.382969 318.936797)scale(0.11 -0.11)">
       <defs>
        <path id="ArialMT-30" d="M 266 2259 
Q 266 3072 433 3567 
Q 600 4063 929 4331 
Q 1259 4600 1759 4600 
Q 2128 4600 2406 4451 
Q 2684 4303 2865 4023 
Q 3047 3744 3150 3342 
Q 3253 2941 3253 2259 
Q 3253 1453 3087 958 
Q 2922 463 2592 192 
Q 2263 -78 1759 -78 
Q 1097 -78 719 397 
Q 266 969 266 2259 
z
M 844 2259 
Q 844 1131 1108 757 
Q 1372 384 1759 384 
Q 2147 384 2411 759 
Q 2675 1134 2675 2259 
Q 2675 3391 2411 3762 
Q 2147 4134 1753 4134 
Q 1366 4134 1134 3806 
Q 844 3388 844 2259 
z
" transform="scale(0.015625)"/>
       </defs>
       <use xlink:href="#ArialMT-30"/>
      </g>
     </g>
    </g>
    <g id="ytick_2">
     <g id="line2d_2">
      <path d="M 180 262.578545 
L 1296 262.578545 
" clip-path="url(#p0537b16bec)" style="fill: none; stroke: #ffffff; stroke-linecap: round"/>
     </g>
     <g id="text_3">
      <!-- 1000 -->
      <g style="fill: #262626" transform="translate(146.031875 266.515342)scale(0.11 -0.11)">
       <defs>
        <path id="ArialMT-31" d="M 2384 0 
L 1822 0 
L 1822 3584 
Q 1619 3391 1289 3197 
Q 959 3003 697 2906 
L 697 3450 
Q 1169 3672 1522 3987 
Q 1875 4303 2022 4600 
L 2384 4600 
L 2384 0 
z
" transform="scale(0.015625)"/>
       </defs>
       <use xlink:href="#ArialMT-31"/>
       <use xlink:href="#ArialMT-30" x="55.615234"/>
       <use xlink:href="#ArialMT-30" x="111.230469"/>
       <use xlink:href="#ArialMT-30" x="166.845703"/>
      </g>
     </g>
    </g>
    <g id="ytick_3">
     <g id="line2d_3">
      <path d="M 180 210.157091 
L 1296 210.157091 
" clip-path="url(#p0537b16bec)" style="fill: none; stroke: #ffffff; stroke-linecap: round"/>
     </g>
     <g id="text_4">
      <!-- 2000 -->
      <g style="fill: #262626" transform="translate(146.031875 214.093888)scale(0.11 -0.11)">
       <defs>
        <path id="ArialMT-32" d="M 3222 541 
L 3222 0 
L 194 0 
Q 188 203 259 391 
Q 375 700 629 1000 
Q 884 1300 1366 1694 
Q 2113 2306 2375 2664 
Q 2638 3022 2638 3341 
Q 2638 3675 2398 3904 
Q 2159 4134 1775 4134 
Q 1369 4134 1125 3890 
Q 881 3647 878 3216 
L 300 3275 
Q 359 3922 746 4261 
Q 1134 4600 1788 4600 
Q 2447 4600 2831 4234 
Q 3216 3869 3216 3328 
Q 3216 3053 3103 2787 
Q 2991 2522 2730 2228 
Q 2469 1934 1863 1422 
Q 1356 997 1212 845 
Q 1069 694 975 541 
L 3222 541 
z
" transform="scale(0.015625)"/>
       </defs>
       <use xlink:href="#ArialMT-32"/>
       <use xlink:href="#ArialMT-30" x="55.615234"/>
       <use xlink:href="#ArialMT-30" x="111.230469"/>
       <use xlink:href="#ArialMT-30" x="166.845703"/>
      </g>
     </g>
    </g>
    <g id="ytick_4">
     <g id="line2d_4">
      <path d="M 180 157.735636 
L 1296 157.735636 
" clip-path="url(#p0537b16bec)" style="fill: none; stroke: #ffffff; stroke-linecap: round"/>
     </g>
     <g id="text_5">
      <!-- 3000 -->
      <g style="fill: #262626" transform="translate(146.031875 161.672433)scale(0.11 -0.11)">
       <defs>
        <path id="ArialMT-33" d="M 269 1209 
L 831 1284 
Q 928 806 1161 595 
Q 1394 384 1728 384 
Q 2125 384 2398 659 
Q 2672 934 2672 1341 
Q 2672 1728 2419 1979 
Q 2166 2231 1775 2231 
Q 1616 2231 1378 2169 
L 1441 2663 
Q 1497 2656 1531 2656 
Q 1891 2656 2178 2843 
Q 2466 3031 2466 3422 
Q 2466 3731 2256 3934 
Q 2047 4138 1716 4138 
Q 1388 4138 1169 3931 
Q 950 3725 888 3313 
L 325 3413 
Q 428 3978 793 4289 
Q 1159 4600 1703 4600 
Q 2078 4600 2393 4439 
Q 2709 4278 2876 4000 
Q 3044 3722 3044 3409 
Q 3044 3113 2884 2869 
Q 2725 2625 2413 2481 
Q 2819 2388 3044 2092 
Q 3269 1797 3269 1353 
Q 3269 753 2831 336 
Q 2394 -81 1725 -81 
Q 1122 -81 723 278 
Q 325 638 269 1209 
z
" transform="scale(0.015625)"/>
       </defs>
       <use xlink:href="#ArialMT-33"/>
       <use xlink:href="#ArialMT-30" x="55.615234"/>
       <use xlink:href="#ArialMT-30" x="111.230469"/>
       <use xlink:href="#ArialMT-30" x="166.845703"/>
      </g>
     </g>
    </g>
    <g id="ytick_5">
     <g id="line2d_5">
      <path d="M 180 105.314182 
L 1296 105.314182 
" clip-path="url(#p0537b16bec)" style="fill: none; stroke: #ffffff; stroke-linecap: round"/>
     </g>
     <g id="text_6">
      <!-- 4000 -->
      <g style="fill: #262626" transform="translate(146.031875 109.250978)scale(0.11 -0.11)">
       <defs>
        <path id="ArialMT-34" d="M 2069 0 
L 2069 1097 
L 81 1097 
L 81 1613 
L 2172 4581 
L 2631 4581 
L 2631 1613 
L 3250 1613 
L 3250 1097 
L 2631 1097 
L 2631 0 
L 2069 0 
z
M 2069 1613 
L 2069 3678 
L 634 1613 
L 2069 1613 
z
" transform="scale(0.015625)"/>
       </defs>
       <use xlink:href="#ArialMT-34"/>
       <use xlink:href="#ArialMT-30" x="55.615234"/>
       <use xlink:href="#ArialMT-30" x="111.230469"/>
       <use xlink:href="#ArialMT-30" x="166.845703"/>
      </g>
     </g>
    </g>
    <g id="ytick_6">
     <g id="line2d_6">
      <path d="M 180 52.892727 
L 1296 52.892727 
" clip-path="url(#p0537b16bec)" style="fill: none; stroke: #ffffff; stroke-linecap: round"/>
     </g>
     <g id="text_7">
      <!-- 5000 -->
      <g style="fill: #262626" transform="translate(146.031875 56.829524)scale(0.11 -0.11)">
       <defs>
        <path id="ArialMT-35" d="M 266 1200 
L 856 1250 
Q 922 819 1161 601 
Q 1400 384 1738 384 
Q 2144 384 2425 690 
Q 2706 997 2706 1503 
Q 2706 1984 2436 2262 
Q 2166 2541 1728 2541 
Q 1456 2541 1237 2417 
Q 1019 2294 894 2097 
L 366 2166 
L 809 4519 
L 3088 4519 
L 3088 3981 
L 1259 3981 
L 1013 2750 
Q 1425 3038 1878 3038 
Q 2478 3038 2890 2622 
Q 3303 2206 3303 1553 
Q 3303 931 2941 478 
Q 2500 -78 1738 -78 
Q 1113 -78 717 272 
Q 322 622 266 1200 
z
" transform="scale(0.015625)"/>
       </defs>
       <use xlink:href="#ArialMT-35"/>
       <use xlink:href="#ArialMT-30" x="55.615234"/>
       <use xlink:href="#ArialMT-30" x="111.230469"/>
       <use xlink:href="#ArialMT-30" x="166.845703"/>
      </g>
     </g>
    </g>
    <g id="text_8">
     <!-- Works -->
     <g style="fill: #262626" transform="translate(139.646875 195.992812)rotate(-90)scale(0.12 -0.12)">
      <defs>
       <path id="ArialMT-57" d="M 1294 0 
L 78 4581 
L 700 4581 
L 1397 1578 
Q 1509 1106 1591 641 
Q 1766 1375 1797 1488 
L 2669 4581 
L 3400 4581 
L 4056 2263 
Q 4303 1400 4413 641 
Q 4500 1075 4641 1638 
L 5359 4581 
L 5969 4581 
L 4713 0 
L 4128 0 
L 3163 3491 
Q 3041 3928 3019 4028 
Q 2947 3713 2884 3491 
L 1913 0 
L 1294 0 
z
" transform="scale(0.015625)"/>
       <path id="ArialMT-6f" d="M 213 1659 
Q 213 2581 725 3025 
Q 1153 3394 1769 3394 
Q 2453 3394 2887 2945 
Q 3322 2497 3322 1706 
Q 3322 1066 3130 698 
Q 2938 331 2570 128 
Q 2203 -75 1769 -75 
Q 1072 -75 642 372 
Q 213 819 213 1659 
z
M 791 1659 
Q 791 1022 1069 705 
Q 1347 388 1769 388 
Q 2188 388 2466 706 
Q 2744 1025 2744 1678 
Q 2744 2294 2464 2611 
Q 2184 2928 1769 2928 
Q 1347 2928 1069 2612 
Q 791 2297 791 1659 
z
" transform="scale(0.015625)"/>
       <path id="ArialMT-6b" d="M 425 0 
L 425 4581 
L 988 4581 
L 988 1969 
L 2319 3319 
L 3047 3319 
L 1778 2088 
L 3175 0 
L 2481 0 
L 1384 1697 
L 988 1316 
L 988 0 
L 425 0 
z
" transform="scale(0.015625)"/>
       <path id="ArialMT-73" d="M 197 991 
L 753 1078 
Q 800 744 1014 566 
Q 1228 388 1613 388 
Q 2000 388 2187 545 
Q 2375 703 2375 916 
Q 2375 1106 2209 1216 
Q 2094 1291 1634 1406 
Q 1016 1563 777 1677 
Q 538 1791 414 1992 
Q 291 2194 291 2438 
Q 291 2659 392 2848 
Q 494 3038 669 3163 
Q 800 3259 1026 3326 
Q 1253 3394 1513 3394 
Q 1903 3394 2198 3281 
Q 2494 3169 2634 2976 
Q 2775 2784 2828 2463 
L 2278 2388 
Q 2241 2644 2061 2787 
Q 1881 2931 1553 2931 
Q 1166 2931 1000 2803 
Q 834 2675 834 2503 
Q 834 2394 903 2306 
Q 972 2216 1119 2156 
Q 1203 2125 1616 2013 
Q 2213 1853 2448 1751 
Q 2684 1650 2818 1456 
Q 2953 1263 2953 975 
Q 2953 694 2789 445 
Q 2625 197 2315 61 
Q 2006 -75 1616 -75 
Q 969 -75 630 194 
Q 291 463 197 991 
z
" transform="scale(0.015625)"/>
      </defs>
      <use xlink:href="#ArialMT-57"/>
      <use xlink:href="#ArialMT-6f" x="92.634766"/>
      <use xlink:href="#ArialMT-72" x="148.25"/>
      <use xlink:href="#ArialMT-6b" x="181.550781"/>
      <use xlink:href="#ArialMT-73" x="231.550781"/>
     </g>
    </g>
   </g>
   <g id="patch_3">
    <path d="M 180.47897 315 
L 184.31073 315 
L 184.31073 56.142857 
L 180.47897 56.142857 
z
" clip-path="url(#p0537b16bec)" style="fill: #ea96a3; stroke: #ffffff; stroke-linejoin: miter"/>
   </g>
   <g id="patch_4">
    <path d="M 185.26867 315 
L 189.100429 315 
L 189.100429 78.002604 
L 185.26867 78.002604 
z
" clip-path="url(#p0537b16bec)" style="fill: #ea96a1; stroke: #ffffff; stroke-linejoin: miter"/>
   </g>
   <g id="patch_5">
    <path d="M 190.058369 315 
L 193.890129 315 
L 193.890129 213.040271 
L 190.058369 213.040271 
z
" clip-path="url(#p0537b16bec)" style="fill: #ea969f; stroke: #ffffff; stroke-linejoin: miter"/>
   </g>
   <g id="patch_6">
    <path d="M 194.848069 315 
L 198.679828 315 
L 198.679828 214.245964 
L 194.848069 214.245964 
z
" clip-path="url(#p0537b16bec)" style="fill: #ea979d; stroke: #ffffff; stroke-linejoin: miter"/>
   </g>
   <g id="patch_7">
    <path d="M 199.637768 315 
L 203.469528 315 
L 203.469528 229.500608 
L 199.637768 229.500608 
z
" clip-path="url(#p0537b16bec)" style="fill: #ea979b; stroke: #ffffff; stroke-linejoin: miter"/>
   </g>
   <g id="patch_8">
    <path d="M 204.427468 315 
L 208.259227 315 
L 208.259227 242.658393 
L 204.427468 242.658393 
z
" clip-path="url(#p0537b16bec)" style="fill: #ea9799; stroke: #ffffff; stroke-linejoin: miter"/>
   </g>
   <g id="patch_9">
    <path d="M 209.217167 315 
L 213.048927 315 
L 213.048927 252.618469 
L 209.217167 252.618469 
z
" clip-path="url(#p0537b16bec)" style="fill: #ea9796; stroke: #ffffff; stroke-linejoin: miter"/>
   </g>
   <g id="patch_10">
    <path d="M 214.006867 315 
L 217.838627 315 
L 217.838627 256.183128 
L 214.006867 256.183128 
z
" clip-path="url(#p0537b16bec)" style="fill: #e99793; stroke: #ffffff; stroke-linejoin: miter"/>
   </g>
   <g id="patch_11">
    <path d="M 218.796567 315 
L 222.628326 315 
L 222.628326 259.905051 
L 218.796567 259.905051 
z
" clip-path="url(#p0537b16bec)" style="fill: #e99790; stroke: #ffffff; stroke-linejoin: miter"/>
   </g>
   <g id="patch_12">
    <path d="M 223.586266 315 
L 227.418026 315 
L 227.418026 284.752821 
L 223.586266 284.752821 
z
" clip-path="url(#p0537b16bec)" style="fill: #e9978d; stroke: #ffffff; stroke-linejoin: miter"/>
   </g>
   <g id="patch_13">
    <path d="M 228.375966 315 
L 232.207725 315 
L 232.207725 286.482729 
L 228.375966 286.482729 
z
" clip-path="url(#p0537b16bec)" style="fill: #e89689; stroke: #ffffff; stroke-linejoin: miter"/>
   </g>
   <g id="patch_14">
    <path d="M 233.165665 315 
L 236.997425 315 
L 236.997425 292.039403 
L 233.165665 292.039403 
z
" clip-path="url(#p0537b16bec)" style="fill: #e89686; stroke: #ffffff; stroke-linejoin: miter"/>
   </g>
   <g id="patch_15">
    <path d="M 237.955365 315 
L 241.787124 315 
L 241.787124 294.870161 
L 237.955365 294.870161 
z
" clip-path="url(#p0537b16bec)" style="fill: #e79682; stroke: #ffffff; stroke-linejoin: miter"/>
   </g>
   <g id="patch_16">
    <path d="M 242.745064 315 
L 246.576824 315 
L 246.576824 295.656483 
L 242.745064 295.656483 
z
" clip-path="url(#p0537b16bec)" style="fill: #e7957d; stroke: #ffffff; stroke-linejoin: miter"/>
   </g>
   <g id="patch_17">
    <path d="M 247.534764 315 
L 251.366524 315 
L 251.366524 295.866169 
L 247.534764 295.866169 
z
" clip-path="url(#p0537b16bec)" style="fill: #e69579; stroke: #ffffff; stroke-linejoin: miter"/>
   </g>
   <g id="patch_18">
    <path d="M 252.324464 315 
L 256.156223 315 
L 256.156223 298.06787 
L 252.324464 298.06787 
z
" clip-path="url(#p0537b16bec)" style="fill: #e59574; stroke: #ffffff; stroke-linejoin: miter"/>
   </g>
   <g id="patch_19">
    <path d="M 257.114163 315 
L 260.945923 315 
L 260.945923 299.8502 
L 257.114163 299.8502 
z
" clip-path="url(#p0537b16bec)" style="fill: #e4946e; stroke: #ffffff; stroke-linejoin: miter"/>
   </g>
   <g id="patch_20">
    <path d="M 261.903863 315 
L 265.735622 315 
L 265.735622 300.164728 
L 261.903863 300.164728 
z
" clip-path="url(#p0537b16bec)" style="fill: #e49367; stroke: #ffffff; stroke-linejoin: miter"/>
   </g>
   <g id="patch_21">
    <path d="M 266.693562 315 
L 270.525322 315 
L 270.525322 303.257594 
L 266.693562 303.257594 
z
" clip-path="url(#p0537b16bec)" style="fill: #e39360; stroke: #ffffff; stroke-linejoin: miter"/>
   </g>
   <g id="patch_22">
    <path d="M 271.483262 315 
L 275.315021 315 
L 275.315021 304.358445 
L 271.483262 304.358445 
z
" clip-path="url(#p0537b16bec)" style="fill: #e19257; stroke: #ffffff; stroke-linejoin: miter"/>
   </g>
   <g id="patch_23">
    <path d="M 276.272961 315 
L 280.104721 315 
L 280.104721 305.249609 
L 276.272961 305.249609 
z
" clip-path="url(#p0537b16bec)" style="fill: #df914f; stroke: #ffffff; stroke-linejoin: miter"/>
   </g>
   <g id="patch_24">
    <path d="M 281.062661 315 
L 284.894421 315 
L 284.894421 306.140774 
L 281.062661 306.140774 
z
" clip-path="url(#p0537b16bec)" style="fill: #dd924f; stroke: #ffffff; stroke-linejoin: miter"/>
   </g>
   <g id="patch_25">
    <path d="M 285.852361 315 
L 289.68412 315 
L 289.68412 307.294046 
L 285.852361 307.294046 
z
" clip-path="url(#p0537b16bec)" style="fill: #da934e; stroke: #ffffff; stroke-linejoin: miter"/>
   </g>
   <g id="patch_26">
    <path d="M 290.64206 315 
L 294.47382 315 
L 294.47382 308.657004 
L 290.64206 308.657004 
z
" clip-path="url(#p0537b16bec)" style="fill: #d8944e; stroke: #ffffff; stroke-linejoin: miter"/>
   </g>
   <g id="patch_27">
    <path d="M 295.43176 315 
L 299.263519 315 
L 299.263519 310.229648 
L 295.43176 310.229648 
z
" clip-path="url(#p0537b16bec)" style="fill: #d5944d; stroke: #ffffff; stroke-linejoin: miter"/>
   </g>
   <g id="patch_28">
    <path d="M 300.221459 315 
L 304.053219 315 
L 304.053219 310.439333 
L 300.221459 310.439333 
z
" clip-path="url(#p0537b16bec)" style="fill: #d3954d; stroke: #ffffff; stroke-linejoin: miter"/>
   </g>
   <g id="patch_29">
    <path d="M 305.011159 315 
L 308.842918 315 
L 308.842918 310.544176 
L 305.011159 310.544176 
z
" clip-path="url(#p0537b16bec)" style="fill: #d1964d; stroke: #ffffff; stroke-linejoin: miter"/>
   </g>
   <g id="patch_30">
    <path d="M 309.800858 315 
L 313.632618 315 
L 313.632618 311.173234 
L 309.800858 311.173234 
z
" clip-path="url(#p0537b16bec)" style="fill: #cf964c; stroke: #ffffff; stroke-linejoin: miter"/>
   </g>
   <g id="patch_31">
    <path d="M 314.590558 315 
L 318.422318 315 
L 318.422318 311.173234 
L 314.590558 311.173234 
z
" clip-path="url(#p0537b16bec)" style="fill: #cd974c; stroke: #ffffff; stroke-linejoin: miter"/>
   </g>
   <g id="patch_32">
    <path d="M 319.380258 315 
L 323.212017 315 
L 323.212017 311.38292 
L 319.380258 311.38292 
z
" clip-path="url(#p0537b16bec)" style="fill: #cb984c; stroke: #ffffff; stroke-linejoin: miter"/>
   </g>
   <g id="patch_33">
    <path d="M 324.169957 315 
L 328.001717 315 
L 328.001717 311.435341 
L 324.169957 311.435341 
z
" clip-path="url(#p0537b16bec)" style="fill: #c9984c; stroke: #ffffff; stroke-linejoin: miter"/>
   </g>
   <g id="patch_34">
    <path d="M 328.959657 315 
L 332.791416 315 
L 332.791416 311.487763 
L 328.959657 311.487763 
z
" clip-path="url(#p0537b16bec)" style="fill: #c7994b; stroke: #ffffff; stroke-linejoin: miter"/>
   </g>
   <g id="patch_35">
    <path d="M 333.749356 315 
L 337.581116 315 
L 337.581116 311.697448 
L 333.749356 311.697448 
z
" clip-path="url(#p0537b16bec)" style="fill: #c5994b; stroke: #ffffff; stroke-linejoin: miter"/>
   </g>
   <g id="patch_36">
    <path d="M 338.539056 315 
L 342.370815 315 
L 342.370815 311.74987 
L 338.539056 311.74987 
z
" clip-path="url(#p0537b16bec)" style="fill: #c39a4b; stroke: #ffffff; stroke-linejoin: miter"/>
   </g>
   <g id="patch_37">
    <path d="M 343.328755 315 
L 347.160515 315 
L 347.160515 312.169241 
L 343.328755 312.169241 
z
" clip-path="url(#p0537b16bec)" style="fill: #c19a4a; stroke: #ffffff; stroke-linejoin: miter"/>
   </g>
   <g id="patch_38">
    <path d="M 348.118455 315 
L 351.950215 315 
L 351.950215 312.274084 
L 348.118455 312.274084 
z
" clip-path="url(#p0537b16bec)" style="fill: #bf9a4a; stroke: #ffffff; stroke-linejoin: miter"/>
   </g>
   <g id="patch_39">
    <path d="M 352.908155 315 
L 356.739914 315 
L 356.739914 312.326506 
L 352.908155 312.326506 
z
" clip-path="url(#p0537b16bec)" style="fill: #bd9b4a; stroke: #ffffff; stroke-linejoin: miter"/>
   </g>
   <g id="patch_40">
    <path d="M 357.697854 315 
L 361.529614 315 
L 361.529614 312.378927 
L 357.697854 312.378927 
z
" clip-path="url(#p0537b16bec)" style="fill: #bc9b4a; stroke: #ffffff; stroke-linejoin: miter"/>
   </g>
   <g id="patch_41">
    <path d="M 362.487554 315 
L 366.319313 315 
L 366.319313 312.48377 
L 362.487554 312.48377 
z
" clip-path="url(#p0537b16bec)" style="fill: #ba9b49; stroke: #ffffff; stroke-linejoin: miter"/>
   </g>
   <g id="patch_42">
    <path d="M 367.277253 315 
L 371.109013 315 
L 371.109013 312.48377 
L 367.277253 312.48377 
z
" clip-path="url(#p0537b16bec)" style="fill: #b89c49; stroke: #ffffff; stroke-linejoin: miter"/>
   </g>
   <g id="patch_43">
    <path d="M 372.066953 315 
L 375.898712 315 
L 375.898712 312.536192 
L 372.066953 312.536192 
z
" clip-path="url(#p0537b16bec)" style="fill: #b79c49; stroke: #ffffff; stroke-linejoin: miter"/>
   </g>
   <g id="patch_44">
    <path d="M 376.856652 315 
L 380.688412 315 
L 380.688412 312.536192 
L 376.856652 312.536192 
z
" clip-path="url(#p0537b16bec)" style="fill: #b59c49; stroke: #ffffff; stroke-linejoin: miter"/>
   </g>
   <g id="patch_45">
    <path d="M 381.646352 315 
L 385.478112 315 
L 385.478112 312.745877 
L 381.646352 312.745877 
z
" clip-path="url(#p0537b16bec)" style="fill: #b39d48; stroke: #ffffff; stroke-linejoin: miter"/>
   </g>
   <g id="patch_46">
    <path d="M 386.436052 315 
L 390.267811 315 
L 390.267811 313.165249 
L 386.436052 313.165249 
z
" clip-path="url(#p0537b16bec)" style="fill: #b19d48; stroke: #ffffff; stroke-linejoin: miter"/>
   </g>
   <g id="patch_47">
    <path d="M 391.225751 315 
L 395.057511 315 
L 395.057511 313.270092 
L 391.225751 313.270092 
z
" clip-path="url(#p0537b16bec)" style="fill: #b09d48; stroke: #ffffff; stroke-linejoin: miter"/>
   </g>
   <g id="patch_48">
    <path d="M 396.015451 315 
L 399.84721 315 
L 399.84721 313.322513 
L 396.015451 313.322513 
z
" clip-path="url(#p0537b16bec)" style="fill: #ae9d48; stroke: #ffffff; stroke-linejoin: miter"/>
   </g>
   <g id="patch_49">
    <path d="M 400.80515 315 
L 404.63691 315 
L 404.63691 313.322513 
L 400.80515 313.322513 
z
" clip-path="url(#p0537b16bec)" style="fill: #ac9e47; stroke: #ffffff; stroke-linejoin: miter"/>
   </g>
   <g id="patch_50">
    <path d="M 405.59485 315 
L 409.426609 315 
L 409.426609 313.427356 
L 405.59485 313.427356 
z
" clip-path="url(#p0537b16bec)" style="fill: #ab9e47; stroke: #ffffff; stroke-linejoin: miter"/>
   </g>
   <g id="patch_51">
    <path d="M 410.384549 315 
L 414.216309 315 
L 414.216309 313.479778 
L 410.384549 313.479778 
z
" clip-path="url(#p0537b16bec)" style="fill: #a99e47; stroke: #ffffff; stroke-linejoin: miter"/>
   </g>
   <g id="patch_52">
    <path d="M 415.174249 315 
L 419.006009 315 
L 419.006009 313.532199 
L 415.174249 313.532199 
z
" clip-path="url(#p0537b16bec)" style="fill: #a79e47; stroke: #ffffff; stroke-linejoin: miter"/>
   </g>
   <g id="patch_53">
    <path d="M 419.963948 315 
L 423.795708 315 
L 423.795708 313.584621 
L 419.963948 313.584621 
z
" clip-path="url(#p0537b16bec)" style="fill: #a69f46; stroke: #ffffff; stroke-linejoin: miter"/>
   </g>
   <g id="patch_54">
    <path d="M 424.753648 315 
L 428.585408 315 
L 428.585408 313.637042 
L 424.753648 313.637042 
z
" clip-path="url(#p0537b16bec)" style="fill: #a49f46; stroke: #ffffff; stroke-linejoin: miter"/>
   </g>
   <g id="patch_55">
    <path d="M 429.543348 315 
L 433.375107 315 
L 433.375107 313.637042 
L 429.543348 313.637042 
z
" clip-path="url(#p0537b16bec)" style="fill: #a29f46; stroke: #ffffff; stroke-linejoin: miter"/>
   </g>
   <g id="patch_56">
    <path d="M 434.333047 315 
L 438.164807 315 
L 438.164807 313.689464 
L 434.333047 313.689464 
z
" clip-path="url(#p0537b16bec)" style="fill: #a09f45; stroke: #ffffff; stroke-linejoin: miter"/>
   </g>
   <g id="patch_57">
    <path d="M 439.122747 315 
L 442.954506 315 
L 442.954506 313.741885 
L 439.122747 313.741885 
z
" clip-path="url(#p0537b16bec)" style="fill: #9fa045; stroke: #ffffff; stroke-linejoin: miter"/>
   </g>
   <g id="patch_58">
    <path d="M 443.912446 315 
L 447.744206 315 
L 447.744206 313.794307 
L 443.912446 313.794307 
z
" clip-path="url(#p0537b16bec)" style="fill: #9da045; stroke: #ffffff; stroke-linejoin: miter"/>
   </g>
   <g id="patch_59">
    <path d="M 448.702146 315 
L 452.533906 315 
L 452.533906 313.794307 
L 448.702146 313.794307 
z
" clip-path="url(#p0537b16bec)" style="fill: #9ba146; stroke: #ffffff; stroke-linejoin: miter"/>
   </g>
   <g id="patch_60">
    <path d="M 453.491845 315 
L 457.323605 315 
L 457.323605 313.899149 
L 453.491845 313.899149 
z
" clip-path="url(#p0537b16bec)" style="fill: #9aa146; stroke: #ffffff; stroke-linejoin: miter"/>
   </g>
   <g id="patch_61">
    <path d="M 458.281545 315 
L 462.113305 315 
L 462.113305 313.951571 
L 458.281545 313.951571 
z
" clip-path="url(#p0537b16bec)" style="fill: #98a246; stroke: #ffffff; stroke-linejoin: miter"/>
   </g>
   <g id="patch_62">
    <path d="M 463.071245 315 
L 466.903004 315 
L 466.903004 314.056414 
L 463.071245 314.056414 
z
" clip-path="url(#p0537b16bec)" style="fill: #97a246; stroke: #ffffff; stroke-linejoin: miter"/>
   </g>
   <g id="patch_63">
    <path d="M 467.860944 315 
L 471.692704 315 
L 471.692704 314.056414 
L 467.860944 314.056414 
z
" clip-path="url(#p0537b16bec)" style="fill: #95a346; stroke: #ffffff; stroke-linejoin: miter"/>
   </g>
   <g id="patch_64">
    <path d="M 472.650644 315 
L 476.482403 315 
L 476.482403 314.108835 
L 472.650644 314.108835 
z
" clip-path="url(#p0537b16bec)" style="fill: #93a446; stroke: #ffffff; stroke-linejoin: miter"/>
   </g>
   <g id="patch_65">
    <path d="M 477.440343 315 
L 481.272103 315 
L 481.272103 314.161257 
L 477.440343 314.161257 
z
" clip-path="url(#p0537b16bec)" style="fill: #91a446; stroke: #ffffff; stroke-linejoin: miter"/>
   </g>
   <g id="patch_66">
    <path d="M 482.230043 315 
L 486.061803 315 
L 486.061803 314.161257 
L 482.230043 314.161257 
z
" clip-path="url(#p0537b16bec)" style="fill: #8fa546; stroke: #ffffff; stroke-linejoin: miter"/>
   </g>
   <g id="patch_67">
    <path d="M 487.019742 315 
L 490.851502 315 
L 490.851502 314.213678 
L 487.019742 314.213678 
z
" clip-path="url(#p0537b16bec)" style="fill: #8da546; stroke: #ffffff; stroke-linejoin: miter"/>
   </g>
   <g id="patch_68">
    <path d="M 491.809442 315 
L 495.641202 315 
L 495.641202 314.213678 
L 491.809442 314.213678 
z
" clip-path="url(#p0537b16bec)" style="fill: #8ba646; stroke: #ffffff; stroke-linejoin: miter"/>
   </g>
   <g id="patch_69">
    <path d="M 496.599142 315 
L 500.430901 315 
L 500.430901 314.2661 
L 496.599142 314.2661 
z
" clip-path="url(#p0537b16bec)" style="fill: #89a646; stroke: #ffffff; stroke-linejoin: miter"/>
   </g>
   <g id="patch_70">
    <path d="M 501.388841 315 
L 505.220601 315 
L 505.220601 314.2661 
L 501.388841 314.2661 
z
" clip-path="url(#p0537b16bec)" style="fill: #87a746; stroke: #ffffff; stroke-linejoin: miter"/>
   </g>
   <g id="patch_71">
    <path d="M 506.178541 315 
L 510.0103 315 
L 510.0103 314.2661 
L 506.178541 314.2661 
z
" clip-path="url(#p0537b16bec)" style="fill: #84a846; stroke: #ffffff; stroke-linejoin: miter"/>
   </g>
   <g id="patch_72">
    <path d="M 510.96824 315 
L 514.8 315 
L 514.8 314.318521 
L 510.96824 314.318521 
z
" clip-path="url(#p0537b16bec)" style="fill: #82a846; stroke: #ffffff; stroke-linejoin: miter"/>
   </g>
   <g id="patch_73">
    <path d="M 515.75794 315 
L 519.5897 315 
L 519.5897 314.318521 
L 515.75794 314.318521 
z
" clip-path="url(#p0537b16bec)" style="fill: #7fa947; stroke: #ffffff; stroke-linejoin: miter"/>
   </g>
   <g id="patch_74">
    <path d="M 520.547639 315 
L 524.379399 315 
L 524.379399 314.318521 
L 520.547639 314.318521 
z
" clip-path="url(#p0537b16bec)" style="fill: #7caa47; stroke: #ffffff; stroke-linejoin: miter"/>
   </g>
   <g id="patch_75">
    <path d="M 525.337339 315 
L 529.169099 315 
L 529.169099 314.318521 
L 525.337339 314.318521 
z
" clip-path="url(#p0537b16bec)" style="fill: #79aa47; stroke: #ffffff; stroke-linejoin: miter"/>
   </g>
   <g id="patch_76">
    <path d="M 530.127039 315 
L 533.958798 315 
L 533.958798 314.370943 
L 530.127039 314.370943 
z
" clip-path="url(#p0537b16bec)" style="fill: #75ab47; stroke: #ffffff; stroke-linejoin: miter"/>
   </g>
   <g id="patch_77">
    <path d="M 534.916738 315 
L 538.748498 315 
L 538.748498 314.370943 
L 534.916738 314.370943 
z
" clip-path="url(#p0537b16bec)" style="fill: #72ac47; stroke: #ffffff; stroke-linejoin: miter"/>
   </g>
   <g id="patch_78">
    <path d="M 539.706438 315 
L 543.538197 315 
L 543.538197 314.370943 
L 539.706438 314.370943 
z
" clip-path="url(#p0537b16bec)" style="fill: #6eac47; stroke: #ffffff; stroke-linejoin: miter"/>
   </g>
   <g id="patch_79">
    <path d="M 544.496137 315 
L 548.327897 315 
L 548.327897 314.370943 
L 544.496137 314.370943 
z
" clip-path="url(#p0537b16bec)" style="fill: #69ad47; stroke: #ffffff; stroke-linejoin: miter"/>
   </g>
   <g id="patch_80">
    <path d="M 549.285837 315 
L 553.117597 315 
L 553.117597 314.423364 
L 549.285837 314.423364 
z
" clip-path="url(#p0537b16bec)" style="fill: #64ae47; stroke: #ffffff; stroke-linejoin: miter"/>
   </g>
   <g id="patch_81">
    <path d="M 554.075536 315 
L 557.907296 315 
L 557.907296 314.423364 
L 554.075536 314.423364 
z
" clip-path="url(#p0537b16bec)" style="fill: #5eaf47; stroke: #ffffff; stroke-linejoin: miter"/>
   </g>
   <g id="patch_82">
    <path d="M 558.865236 315 
L 562.696996 315 
L 562.696996 314.423364 
L 558.865236 314.423364 
z
" clip-path="url(#p0537b16bec)" style="fill: #57af47; stroke: #ffffff; stroke-linejoin: miter"/>
   </g>
   <g id="patch_83">
    <path d="M 563.654936 315 
L 567.486695 315 
L 567.486695 314.423364 
L 563.654936 314.423364 
z
" clip-path="url(#p0537b16bec)" style="fill: #4eb047; stroke: #ffffff; stroke-linejoin: miter"/>
   </g>
   <g id="patch_84">
    <path d="M 568.444635 315 
L 572.276395 315 
L 572.276395 314.475785 
L 568.444635 314.475785 
z
" clip-path="url(#p0537b16bec)" style="fill: #48b14d; stroke: #ffffff; stroke-linejoin: miter"/>
   </g>
   <g id="patch_85">
    <path d="M 573.234335 315 
L 577.066094 315 
L 577.066094 314.475785 
L 573.234335 314.475785 
z
" clip-path="url(#p0537b16bec)" style="fill: #48b056; stroke: #ffffff; stroke-linejoin: miter"/>
   </g>
   <g id="patch_86">
    <path d="M 578.024034 315 
L 581.855794 315 
L 581.855794 314.475785 
L 578.024034 314.475785 
z
" clip-path="url(#p0537b16bec)" style="fill: #48b05d; stroke: #ffffff; stroke-linejoin: miter"/>
   </g>
   <g id="patch_87">
    <path d="M 582.813734 315 
L 586.645494 315 
L 586.645494 314.475785 
L 582.813734 314.475785 
z
" clip-path="url(#p0537b16bec)" style="fill: #48b063; stroke: #ffffff; stroke-linejoin: miter"/>
   </g>
   <g id="patch_88">
    <path d="M 587.603433 315 
L 591.435193 315 
L 591.435193 314.475785 
L 587.603433 314.475785 
z
" clip-path="url(#p0537b16bec)" style="fill: #48b068; stroke: #ffffff; stroke-linejoin: miter"/>
   </g>
   <g id="patch_89">
    <path d="M 592.393133 315 
L 596.224893 315 
L 596.224893 314.475785 
L 592.393133 314.475785 
z
" clip-path="url(#p0537b16bec)" style="fill: #48af6d; stroke: #ffffff; stroke-linejoin: miter"/>
   </g>
   <g id="patch_90">
    <path d="M 597.182833 315 
L 601.014592 315 
L 601.014592 314.475785 
L 597.182833 314.475785 
z
" clip-path="url(#p0537b16bec)" style="fill: #48af71; stroke: #ffffff; stroke-linejoin: miter"/>
   </g>
   <g id="patch_91">
    <path d="M 601.972532 315 
L 605.804292 315 
L 605.804292 314.528207 
L 601.972532 314.528207 
z
" clip-path="url(#p0537b16bec)" style="fill: #49af74; stroke: #ffffff; stroke-linejoin: miter"/>
   </g>
   <g id="patch_92">
    <path d="M 606.762232 315 
L 610.593991 315 
L 610.593991 314.528207 
L 606.762232 314.528207 
z
" clip-path="url(#p0537b16bec)" style="fill: #49af78; stroke: #ffffff; stroke-linejoin: miter"/>
   </g>
   <g id="patch_93">
    <path d="M 611.551931 315 
L 615.383691 315 
L 615.383691 314.528207 
L 611.551931 314.528207 
z
" clip-path="url(#p0537b16bec)" style="fill: #49af7b; stroke: #ffffff; stroke-linejoin: miter"/>
   </g>
   <g id="patch_94">
    <path d="M 616.341631 315 
L 620.173391 315 
L 620.173391 314.580628 
L 616.341631 314.580628 
z
" clip-path="url(#p0537b16bec)" style="fill: #49ae7d; stroke: #ffffff; stroke-linejoin: miter"/>
   </g>
   <g id="patch_95">
    <path d="M 621.13133 315 
L 624.96309 315 
L 624.96309 314.580628 
L 621.13133 314.580628 
z
" clip-path="url(#p0537b16bec)" style="fill: #49ae80; stroke: #ffffff; stroke-linejoin: miter"/>
   </g>
   <g id="patch_96">
    <path d="M 625.92103 315 
L 629.75279 315 
L 629.75279 314.580628 
L 625.92103 314.580628 
z
" clip-path="url(#p0537b16bec)" style="fill: #49ae82; stroke: #ffffff; stroke-linejoin: miter"/>
   </g>
   <g id="patch_97">
    <path d="M 630.71073 315 
L 634.542489 315 
L 634.542489 314.580628 
L 630.71073 314.580628 
z
" clip-path="url(#p0537b16bec)" style="fill: #49ae84; stroke: #ffffff; stroke-linejoin: miter"/>
   </g>
   <g id="patch_98">
    <path d="M 635.500429 315 
L 639.332189 315 
L 639.332189 314.580628 
L 635.500429 314.580628 
z
" clip-path="url(#p0537b16bec)" style="fill: #49ae86; stroke: #ffffff; stroke-linejoin: miter"/>
   </g>
   <g id="patch_99">
    <path d="M 640.290129 315 
L 644.121888 315 
L 644.121888 314.580628 
L 640.290129 314.580628 
z
" clip-path="url(#p0537b16bec)" style="fill: #49ae88; stroke: #ffffff; stroke-linejoin: miter"/>
   </g>
   <g id="patch_100">
    <path d="M 645.079828 315 
L 648.911588 315 
L 648.911588 314.63305 
L 645.079828 314.63305 
z
" clip-path="url(#p0537b16bec)" style="fill: #4aae8a; stroke: #ffffff; stroke-linejoin: miter"/>
   </g>
   <g id="patch_101">
    <path d="M 649.869528 315 
L 653.701288 315 
L 653.701288 314.63305 
L 649.869528 314.63305 
z
" clip-path="url(#p0537b16bec)" style="fill: #4aad8c; stroke: #ffffff; stroke-linejoin: miter"/>
   </g>
   <g id="patch_102">
    <path d="M 654.659227 315 
L 658.490987 315 
L 658.490987 314.63305 
L 654.659227 314.63305 
z
" clip-path="url(#p0537b16bec)" style="fill: #4aad8e; stroke: #ffffff; stroke-linejoin: miter"/>
   </g>
   <g id="patch_103">
    <path d="M 659.448927 315 
L 663.280687 315 
L 663.280687 314.63305 
L 659.448927 314.63305 
z
" clip-path="url(#p0537b16bec)" style="fill: #4aad8f; stroke: #ffffff; stroke-linejoin: miter"/>
   </g>
   <g id="patch_104">
    <path d="M 664.238627 315 
L 668.070386 315 
L 668.070386 314.63305 
L 664.238627 314.63305 
z
" clip-path="url(#p0537b16bec)" style="fill: #4aad91; stroke: #ffffff; stroke-linejoin: miter"/>
   </g>
   <g id="patch_105">
    <path d="M 669.028326 315 
L 672.860086 315 
L 672.860086 314.685471 
L 669.028326 314.685471 
z
" clip-path="url(#p0537b16bec)" style="fill: #4aad92; stroke: #ffffff; stroke-linejoin: miter"/>
   </g>
   <g id="patch_106">
    <path d="M 673.818026 315 
L 677.649785 315 
L 677.649785 314.685471 
L 673.818026 314.685471 
z
" clip-path="url(#p0537b16bec)" style="fill: #4aad94; stroke: #ffffff; stroke-linejoin: miter"/>
   </g>
   <g id="patch_107">
    <path d="M 678.607725 315 
L 682.439485 315 
L 682.439485 314.685471 
L 678.607725 314.685471 
z
" clip-path="url(#p0537b16bec)" style="fill: #4aad95; stroke: #ffffff; stroke-linejoin: miter"/>
   </g>
   <g id="patch_108">
    <path d="M 683.397425 315 
L 687.229185 315 
L 687.229185 314.685471 
L 683.397425 314.685471 
z
" clip-path="url(#p0537b16bec)" style="fill: #4aac97; stroke: #ffffff; stroke-linejoin: miter"/>
   </g>
   <g id="patch_109">
    <path d="M 688.187124 315 
L 692.018884 315 
L 692.018884 314.685471 
L 688.187124 314.685471 
z
" clip-path="url(#p0537b16bec)" style="fill: #4aac98; stroke: #ffffff; stroke-linejoin: miter"/>
   </g>
   <g id="patch_110">
    <path d="M 692.976824 315 
L 696.808584 315 
L 696.808584 314.685471 
L 692.976824 314.685471 
z
" clip-path="url(#p0537b16bec)" style="fill: #4aac99; stroke: #ffffff; stroke-linejoin: miter"/>
   </g>
   <g id="patch_111">
    <path d="M 697.766524 315 
L 701.598283 315 
L 701.598283 314.685471 
L 697.766524 314.685471 
z
" clip-path="url(#p0537b16bec)" style="fill: #4aac9a; stroke: #ffffff; stroke-linejoin: miter"/>
   </g>
   <g id="patch_112">
    <path d="M 702.556223 315 
L 706.387983 315 
L 706.387983 314.685471 
L 702.556223 314.685471 
z
" clip-path="url(#p0537b16bec)" style="fill: #4aac9c; stroke: #ffffff; stroke-linejoin: miter"/>
   </g>
   <g id="patch_113">
    <path d="M 707.345923 315 
L 711.177682 315 
L 711.177682 314.685471 
L 707.345923 314.685471 
z
" clip-path="url(#p0537b16bec)" style="fill: #4bac9d; stroke: #ffffff; stroke-linejoin: miter"/>
   </g>
   <g id="patch_114">
    <path d="M 712.135622 315 
L 715.967382 315 
L 715.967382 314.685471 
L 712.135622 314.685471 
z
" clip-path="url(#p0537b16bec)" style="fill: #4bac9e; stroke: #ffffff; stroke-linejoin: miter"/>
   </g>
   <g id="patch_115">
    <path d="M 716.925322 315 
L 720.757082 315 
L 720.757082 314.737893 
L 716.925322 314.737893 
z
" clip-path="url(#p0537b16bec)" style="fill: #4bac9f; stroke: #ffffff; stroke-linejoin: miter"/>
   </g>
   <g id="patch_116">
    <path d="M 721.715021 315 
L 725.546781 315 
L 725.546781 314.737893 
L 721.715021 314.737893 
z
" clip-path="url(#p0537b16bec)" style="fill: #4baca0; stroke: #ffffff; stroke-linejoin: miter"/>
   </g>
   <g id="patch_117">
    <path d="M 726.504721 315 
L 730.336481 315 
L 730.336481 314.737893 
L 726.504721 314.737893 
z
" clip-path="url(#p0537b16bec)" style="fill: #4baba1; stroke: #ffffff; stroke-linejoin: miter"/>
   </g>
   <g id="patch_118">
    <path d="M 731.294421 315 
L 735.12618 315 
L 735.12618 314.737893 
L 731.294421 314.737893 
z
" clip-path="url(#p0537b16bec)" style="fill: #4baba3; stroke: #ffffff; stroke-linejoin: miter"/>
   </g>
   <g id="patch_119">
    <path d="M 736.08412 315 
L 739.91588 315 
L 739.91588 314.737893 
L 736.08412 314.737893 
z
" clip-path="url(#p0537b16bec)" style="fill: #4baba4; stroke: #ffffff; stroke-linejoin: miter"/>
   </g>
   <g id="patch_120">
    <path d="M 740.87382 315 
L 744.705579 315 
L 744.705579 314.737893 
L 740.87382 314.737893 
z
" clip-path="url(#p0537b16bec)" style="fill: #4baba5; stroke: #ffffff; stroke-linejoin: miter"/>
   </g>
   <g id="patch_121">
    <path d="M 745.663519 315 
L 749.495279 315 
L 749.495279 314.737893 
L 745.663519 314.737893 
z
" clip-path="url(#p0537b16bec)" style="fill: #4baba6; stroke: #ffffff; stroke-linejoin: miter"/>
   </g>
   <g id="patch_122">
    <path d="M 750.453219 315 
L 754.284979 315 
L 754.284979 314.737893 
L 750.453219 314.737893 
z
" clip-path="url(#p0537b16bec)" style="fill: #4baba7; stroke: #ffffff; stroke-linejoin: miter"/>
   </g>
   <g id="patch_123">
    <path d="M 755.242918 315 
L 759.074678 315 
L 759.074678 314.737893 
L 755.242918 314.737893 
z
" clip-path="url(#p0537b16bec)" style="fill: #4baba8; stroke: #ffffff; stroke-linejoin: miter"/>
   </g>
   <g id="patch_124">
    <path d="M 760.032618 315 
L 763.864378 315 
L 763.864378 314.790314 
L 760.032618 314.790314 
z
" clip-path="url(#p0537b16bec)" style="fill: #4baba9; stroke: #ffffff; stroke-linejoin: miter"/>
   </g>
   <g id="patch_125">
    <path d="M 764.822318 315 
L 768.654077 315 
L 768.654077 314.790314 
L 764.822318 314.790314 
z
" clip-path="url(#p0537b16bec)" style="fill: #4babaa; stroke: #ffffff; stroke-linejoin: miter"/>
   </g>
   <g id="patch_126">
    <path d="M 769.612017 315 
L 773.443777 315 
L 773.443777 314.790314 
L 769.612017 314.790314 
z
" clip-path="url(#p0537b16bec)" style="fill: #4babab; stroke: #ffffff; stroke-linejoin: miter"/>
   </g>
   <g id="patch_127">
    <path d="M 774.401717 315 
L 778.233476 315 
L 778.233476 314.790314 
L 774.401717 314.790314 
z
" clip-path="url(#p0537b16bec)" style="fill: #4cabac; stroke: #ffffff; stroke-linejoin: miter"/>
   </g>
   <g id="patch_128">
    <path d="M 779.191416 315 
L 783.023176 315 
L 783.023176 314.790314 
L 779.191416 314.790314 
z
" clip-path="url(#p0537b16bec)" style="fill: #4cabae; stroke: #ffffff; stroke-linejoin: miter"/>
   </g>
   <g id="patch_129">
    <path d="M 783.981116 315 
L 787.812876 315 
L 787.812876 314.790314 
L 783.981116 314.790314 
z
" clip-path="url(#p0537b16bec)" style="fill: #4cabaf; stroke: #ffffff; stroke-linejoin: miter"/>
   </g>
   <g id="patch_130">
    <path d="M 788.770815 315 
L 792.602575 315 
L 792.602575 314.790314 
L 788.770815 314.790314 
z
" clip-path="url(#p0537b16bec)" style="fill: #4dabb0; stroke: #ffffff; stroke-linejoin: miter"/>
   </g>
   <g id="patch_131">
    <path d="M 793.560515 315 
L 797.392275 315 
L 797.392275 314.790314 
L 793.560515 314.790314 
z
" clip-path="url(#p0537b16bec)" style="fill: #4dabb2; stroke: #ffffff; stroke-linejoin: miter"/>
   </g>
   <g id="patch_132">
    <path d="M 798.350215 315 
L 802.181974 315 
L 802.181974 314.790314 
L 798.350215 314.790314 
z
" clip-path="url(#p0537b16bec)" style="fill: #4dabb3; stroke: #ffffff; stroke-linejoin: miter"/>
   </g>
   <g id="patch_133">
    <path d="M 803.139914 315 
L 806.971674 315 
L 806.971674 314.790314 
L 803.139914 314.790314 
z
" clip-path="url(#p0537b16bec)" style="fill: #4dabb4; stroke: #ffffff; stroke-linejoin: miter"/>
   </g>
   <g id="patch_134">
    <path d="M 807.929614 315 
L 811.761373 315 
L 811.761373 314.842736 
L 807.929614 314.842736 
z
" clip-path="url(#p0537b16bec)" style="fill: #4eabb6; stroke: #ffffff; stroke-linejoin: miter"/>
   </g>
   <g id="patch_135">
    <path d="M 812.719313 315 
L 816.551073 315 
L 816.551073 314.842736 
L 812.719313 314.842736 
z
" clip-path="url(#p0537b16bec)" style="fill: #4eabb7; stroke: #ffffff; stroke-linejoin: miter"/>
   </g>
   <g id="patch_136">
    <path d="M 817.509013 315 
L 821.340773 315 
L 821.340773 314.842736 
L 817.509013 314.842736 
z
" clip-path="url(#p0537b16bec)" style="fill: #4eabb8; stroke: #ffffff; stroke-linejoin: miter"/>
   </g>
   <g id="patch_137">
    <path d="M 822.298712 315 
L 826.130472 315 
L 826.130472 314.842736 
L 822.298712 314.842736 
z
" clip-path="url(#p0537b16bec)" style="fill: #4fabba; stroke: #ffffff; stroke-linejoin: miter"/>
   </g>
   <g id="patch_138">
    <path d="M 827.088412 315 
L 830.920172 315 
L 830.920172 314.842736 
L 827.088412 314.842736 
z
" clip-path="url(#p0537b16bec)" style="fill: #4fabbb; stroke: #ffffff; stroke-linejoin: miter"/>
   </g>
   <g id="patch_139">
    <path d="M 831.878112 315 
L 835.709871 315 
L 835.709871 314.842736 
L 831.878112 314.842736 
z
" clip-path="url(#p0537b16bec)" style="fill: #4fabbd; stroke: #ffffff; stroke-linejoin: miter"/>
   </g>
   <g id="patch_140">
    <path d="M 836.667811 315 
L 840.499571 315 
L 840.499571 314.842736 
L 836.667811 314.842736 
z
" clip-path="url(#p0537b16bec)" style="fill: #50acbe; stroke: #ffffff; stroke-linejoin: miter"/>
   </g>
   <g id="patch_141">
    <path d="M 841.457511 315 
L 845.28927 315 
L 845.28927 314.842736 
L 841.457511 314.842736 
z
" clip-path="url(#p0537b16bec)" style="fill: #50acc0; stroke: #ffffff; stroke-linejoin: miter"/>
   </g>
   <g id="patch_142">
    <path d="M 846.24721 315 
L 850.07897 315 
L 850.07897 314.842736 
L 846.24721 314.842736 
z
" clip-path="url(#p0537b16bec)" style="fill: #50acc1; stroke: #ffffff; stroke-linejoin: miter"/>
   </g>
   <g id="patch_143">
    <path d="M 851.03691 315 
L 854.86867 315 
L 854.86867 314.842736 
L 851.03691 314.842736 
z
" clip-path="url(#p0537b16bec)" style="fill: #51acc3; stroke: #ffffff; stroke-linejoin: miter"/>
   </g>
   <g id="patch_144">
    <path d="M 855.826609 315 
L 859.658369 315 
L 859.658369 314.842736 
L 855.826609 314.842736 
z
" clip-path="url(#p0537b16bec)" style="fill: #51acc5; stroke: #ffffff; stroke-linejoin: miter"/>
   </g>
   <g id="patch_145">
    <path d="M 860.616309 315 
L 864.448069 315 
L 864.448069 314.842736 
L 860.616309 314.842736 
z
" clip-path="url(#p0537b16bec)" style="fill: #51acc6; stroke: #ffffff; stroke-linejoin: miter"/>
   </g>
   <g id="patch_146">
    <path d="M 865.406009 315 
L 869.237768 315 
L 869.237768 314.842736 
L 865.406009 314.842736 
z
" clip-path="url(#p0537b16bec)" style="fill: #52acc8; stroke: #ffffff; stroke-linejoin: miter"/>
   </g>
   <g id="patch_147">
    <path d="M 870.195708 315 
L 874.027468 315 
L 874.027468 314.895157 
L 870.195708 314.895157 
z
" clip-path="url(#p0537b16bec)" style="fill: #52acca; stroke: #ffffff; stroke-linejoin: miter"/>
   </g>
   <g id="patch_148">
    <path d="M 874.985408 315 
L 878.817167 315 
L 878.817167 314.895157 
L 874.985408 314.895157 
z
" clip-path="url(#p0537b16bec)" style="fill: #53accc; stroke: #ffffff; stroke-linejoin: miter"/>
   </g>
   <g id="patch_149">
    <path d="M 879.775107 315 
L 883.606867 315 
L 883.606867 314.895157 
L 879.775107 314.895157 
z
" clip-path="url(#p0537b16bec)" style="fill: #53acce; stroke: #ffffff; stroke-linejoin: miter"/>
   </g>
   <g id="patch_150">
    <path d="M 884.564807 315 
L 888.396567 315 
L 888.396567 314.895157 
L 884.564807 314.895157 
z
" clip-path="url(#p0537b16bec)" style="fill: #54acd0; stroke: #ffffff; stroke-linejoin: miter"/>
   </g>
   <g id="patch_151">
    <path d="M 889.354506 315 
L 893.186266 315 
L 893.186266 314.895157 
L 889.354506 314.895157 
z
" clip-path="url(#p0537b16bec)" style="fill: #54acd2; stroke: #ffffff; stroke-linejoin: miter"/>
   </g>
   <g id="patch_152">
    <path d="M 894.144206 315 
L 897.975966 315 
L 897.975966 314.895157 
L 894.144206 314.895157 
z
" clip-path="url(#p0537b16bec)" style="fill: #55acd5; stroke: #ffffff; stroke-linejoin: miter"/>
   </g>
   <g id="patch_153">
    <path d="M 898.933906 315 
L 902.765665 315 
L 902.765665 314.895157 
L 898.933906 314.895157 
z
" clip-path="url(#p0537b16bec)" style="fill: #55acd7; stroke: #ffffff; stroke-linejoin: miter"/>
   </g>
   <g id="patch_154">
    <path d="M 903.723605 315 
L 907.555365 315 
L 907.555365 314.895157 
L 903.723605 314.895157 
z
" clip-path="url(#p0537b16bec)" style="fill: #56acda; stroke: #ffffff; stroke-linejoin: miter"/>
   </g>
   <g id="patch_155">
    <path d="M 908.513305 315 
L 912.345064 315 
L 912.345064 314.895157 
L 908.513305 314.895157 
z
" clip-path="url(#p0537b16bec)" style="fill: #56addd; stroke: #ffffff; stroke-linejoin: miter"/>
   </g>
   <g id="patch_156">
    <path d="M 913.303004 315 
L 917.134764 315 
L 917.134764 314.895157 
L 913.303004 314.895157 
z
" clip-path="url(#p0537b16bec)" style="fill: #59ade0; stroke: #ffffff; stroke-linejoin: miter"/>
   </g>
   <g id="patch_157">
    <path d="M 918.092704 315 
L 921.924464 315 
L 921.924464 314.895157 
L 918.092704 314.895157 
z
" clip-path="url(#p0537b16bec)" style="fill: #62ade1; stroke: #ffffff; stroke-linejoin: miter"/>
   </g>
   <g id="patch_158">
    <path d="M 922.882403 315 
L 926.714163 315 
L 926.714163 314.895157 
L 922.882403 314.895157 
z
" clip-path="url(#p0537b16bec)" style="fill: #6aaee2; stroke: #ffffff; stroke-linejoin: miter"/>
   </g>
   <g id="patch_159">
    <path d="M 927.672103 315 
L 931.503863 315 
L 931.503863 314.895157 
L 927.672103 314.895157 
z
" clip-path="url(#p0537b16bec)" style="fill: #71aee3; stroke: #ffffff; stroke-linejoin: miter"/>
   </g>
   <g id="patch_160">
    <path d="M 932.461803 315 
L 936.293562 315 
L 936.293562 314.895157 
L 932.461803 314.895157 
z
" clip-path="url(#p0537b16bec)" style="fill: #78aee4; stroke: #ffffff; stroke-linejoin: miter"/>
   </g>
   <g id="patch_161">
    <path d="M 937.251502 315 
L 941.083262 315 
L 941.083262 314.895157 
L 937.251502 314.895157 
z
" clip-path="url(#p0537b16bec)" style="fill: #7daee5; stroke: #ffffff; stroke-linejoin: miter"/>
   </g>
   <g id="patch_162">
    <path d="M 942.041202 315 
L 945.872961 315 
L 945.872961 314.895157 
L 942.041202 314.895157 
z
" clip-path="url(#p0537b16bec)" style="fill: #82aee5; stroke: #ffffff; stroke-linejoin: miter"/>
   </g>
   <g id="patch_163">
    <path d="M 946.830901 315 
L 950.662661 315 
L 950.662661 314.895157 
L 946.830901 314.895157 
z
" clip-path="url(#p0537b16bec)" style="fill: #87aee6; stroke: #ffffff; stroke-linejoin: miter"/>
   </g>
   <g id="patch_164">
    <path d="M 951.620601 315 
L 955.452361 315 
L 955.452361 314.895157 
L 951.620601 314.895157 
z
" clip-path="url(#p0537b16bec)" style="fill: #8caee7; stroke: #ffffff; stroke-linejoin: miter"/>
   </g>
   <g id="patch_165">
    <path d="M 956.4103 315 
L 960.24206 315 
L 960.24206 314.895157 
L 956.4103 314.895157 
z
" clip-path="url(#p0537b16bec)" style="fill: #90aee7; stroke: #ffffff; stroke-linejoin: miter"/>
   </g>
   <g id="patch_166">
    <path d="M 961.2 315 
L 965.03176 315 
L 965.03176 314.895157 
L 961.2 314.895157 
z
" clip-path="url(#p0537b16bec)" style="fill: #94aee8; stroke: #ffffff; stroke-linejoin: miter"/>
   </g>
   <g id="patch_167">
    <path d="M 965.9897 315 
L 969.821459 315 
L 969.821459 314.895157 
L 965.9897 314.895157 
z
" clip-path="url(#p0537b16bec)" style="fill: #97ade8; stroke: #ffffff; stroke-linejoin: miter"/>
   </g>
   <g id="patch_168">
    <path d="M 970.779399 315 
L 974.611159 315 
L 974.611159 314.895157 
L 970.779399 314.895157 
z
" clip-path="url(#p0537b16bec)" style="fill: #9bade9; stroke: #ffffff; stroke-linejoin: miter"/>
   </g>
   <g id="patch_169">
    <path d="M 975.569099 315 
L 979.400858 315 
L 979.400858 314.895157 
L 975.569099 314.895157 
z
" clip-path="url(#p0537b16bec)" style="fill: #9eade9; stroke: #ffffff; stroke-linejoin: miter"/>
   </g>
   <g id="patch_170">
    <path d="M 980.358798 315 
L 984.190558 315 
L 984.190558 314.895157 
L 980.358798 314.895157 
z
" clip-path="url(#p0537b16bec)" style="fill: #a2adea; stroke: #ffffff; stroke-linejoin: miter"/>
   </g>
   <g id="patch_171">
    <path d="M 985.148498 315 
L 988.980258 315 
L 988.980258 314.895157 
L 985.148498 314.895157 
z
" clip-path="url(#p0537b16bec)" style="fill: #a5acea; stroke: #ffffff; stroke-linejoin: miter"/>
   </g>
   <g id="patch_172">
    <path d="M 989.938197 315 
L 993.769957 315 
L 993.769957 314.895157 
L 989.938197 314.895157 
z
" clip-path="url(#p0537b16bec)" style="fill: #a8aceb; stroke: #ffffff; stroke-linejoin: miter"/>
   </g>
   <g id="patch_173">
    <path d="M 994.727897 315 
L 998.559657 315 
L 998.559657 314.895157 
L 994.727897 314.895157 
z
" clip-path="url(#p0537b16bec)" style="fill: #abaceb; stroke: #ffffff; stroke-linejoin: miter"/>
   </g>
   <g id="patch_174">
    <path d="M 999.517597 315 
L 1003.349356 315 
L 1003.349356 314.895157 
L 999.517597 314.895157 
z
" clip-path="url(#p0537b16bec)" style="fill: #aeabeb; stroke: #ffffff; stroke-linejoin: miter"/>
   </g>
   <g id="patch_175">
    <path d="M 1004.307296 315 
L 1008.139056 315 
L 1008.139056 314.895157 
L 1004.307296 314.895157 
z
" clip-path="url(#p0537b16bec)" style="fill: #b0aaeb; stroke: #ffffff; stroke-linejoin: miter"/>
   </g>
   <g id="patch_176">
    <path d="M 1009.096996 315 
L 1012.928755 315 
L 1012.928755 314.895157 
L 1009.096996 314.895157 
z
" clip-path="url(#p0537b16bec)" style="fill: #b2a9eb; stroke: #ffffff; stroke-linejoin: miter"/>
   </g>
   <g id="patch_177">
    <path d="M 1013.886695 315 
L 1017.718455 315 
L 1017.718455 314.895157 
L 1013.886695 314.895157 
z
" clip-path="url(#p0537b16bec)" style="fill: #b4a8eb; stroke: #ffffff; stroke-linejoin: miter"/>
   </g>
   <g id="patch_178">
    <path d="M 1018.676395 315 
L 1022.508155 315 
L 1022.508155 314.895157 
L 1018.676395 314.895157 
z
" clip-path="url(#p0537b16bec)" style="fill: #b7a7eb; stroke: #ffffff; stroke-linejoin: miter"/>
   </g>
   <g id="patch_179">
    <path d="M 1023.466094 315 
L 1027.297854 315 
L 1027.297854 314.947579 
L 1023.466094 314.947579 
z
" clip-path="url(#p0537b16bec)" style="fill: #b9a6eb; stroke: #ffffff; stroke-linejoin: miter"/>
   </g>
   <g id="patch_180">
    <path d="M 1028.255794 315 
L 1032.087554 315 
L 1032.087554 314.947579 
L 1028.255794 314.947579 
z
" clip-path="url(#p0537b16bec)" style="fill: #bba5ea; stroke: #ffffff; stroke-linejoin: miter"/>
   </g>
   <g id="patch_181">
    <path d="M 1033.045494 315 
L 1036.877253 315 
L 1036.877253 314.947579 
L 1033.045494 314.947579 
z
" clip-path="url(#p0537b16bec)" style="fill: #bda5ea; stroke: #ffffff; stroke-linejoin: miter"/>
   </g>
   <g id="patch_182">
    <path d="M 1037.835193 315 
L 1041.666953 315 
L 1041.666953 314.947579 
L 1037.835193 314.947579 
z
" clip-path="url(#p0537b16bec)" style="fill: #bfa4ea; stroke: #ffffff; stroke-linejoin: miter"/>
   </g>
   <g id="patch_183">
    <path d="M 1042.624893 315 
L 1046.456652 315 
L 1046.456652 314.947579 
L 1042.624893 314.947579 
z
" clip-path="url(#p0537b16bec)" style="fill: #c1a2ea; stroke: #ffffff; stroke-linejoin: miter"/>
   </g>
   <g id="patch_184">
    <path d="M 1047.414592 315 
L 1051.246352 315 
L 1051.246352 314.947579 
L 1047.414592 314.947579 
z
" clip-path="url(#p0537b16bec)" style="fill: #c3a1ea; stroke: #ffffff; stroke-linejoin: miter"/>
   </g>
   <g id="patch_185">
    <path d="M 1052.204292 315 
L 1056.036052 315 
L 1056.036052 314.947579 
L 1052.204292 314.947579 
z
" clip-path="url(#p0537b16bec)" style="fill: #c5a0ea; stroke: #ffffff; stroke-linejoin: miter"/>
   </g>
   <g id="patch_186">
    <path d="M 1056.993991 315 
L 1060.825751 315 
L 1060.825751 314.947579 
L 1056.993991 314.947579 
z
" clip-path="url(#p0537b16bec)" style="fill: #c79fea; stroke: #ffffff; stroke-linejoin: miter"/>
   </g>
   <g id="patch_187">
    <path d="M 1061.783691 315 
L 1065.615451 315 
L 1065.615451 314.947579 
L 1061.783691 314.947579 
z
" clip-path="url(#p0537b16bec)" style="fill: #c99ee9; stroke: #ffffff; stroke-linejoin: miter"/>
   </g>
   <g id="patch_188">
    <path d="M 1066.573391 315 
L 1070.40515 315 
L 1070.40515 314.947579 
L 1066.573391 314.947579 
z
" clip-path="url(#p0537b16bec)" style="fill: #cb9de9; stroke: #ffffff; stroke-linejoin: miter"/>
   </g>
   <g id="patch_189">
    <path d="M 1071.36309 315 
L 1075.19485 315 
L 1075.19485 314.947579 
L 1071.36309 314.947579 
z
" clip-path="url(#p0537b16bec)" style="fill: #cd9ce9; stroke: #ffffff; stroke-linejoin: miter"/>
   </g>
   <g id="patch_190">
    <path d="M 1076.15279 315 
L 1079.984549 315 
L 1079.984549 314.947579 
L 1076.15279 314.947579 
z
" clip-path="url(#p0537b16bec)" style="fill: #cf9ae9; stroke: #ffffff; stroke-linejoin: miter"/>
   </g>
   <g id="patch_191">
    <path d="M 1080.942489 315 
L 1084.774249 315 
L 1084.774249 314.947579 
L 1080.942489 314.947579 
z
" clip-path="url(#p0537b16bec)" style="fill: #d199e9; stroke: #ffffff; stroke-linejoin: miter"/>
   </g>
   <g id="patch_192">
    <path d="M 1085.732189 315 
L 1089.563948 315 
L 1089.563948 314.947579 
L 1085.732189 314.947579 
z
" clip-path="url(#p0537b16bec)" style="fill: #d398e8; stroke: #ffffff; stroke-linejoin: miter"/>
   </g>
   <g id="patch_193">
    <path d="M 1090.521888 315 
L 1094.353648 315 
L 1094.353648 314.947579 
L 1090.521888 314.947579 
z
" clip-path="url(#p0537b16bec)" style="fill: #d696e8; stroke: #ffffff; stroke-linejoin: miter"/>
   </g>
   <g id="patch_194">
    <path d="M 1095.311588 315 
L 1099.143348 315 
L 1099.143348 314.947579 
L 1095.311588 314.947579 
z
" clip-path="url(#p0537b16bec)" style="fill: #d895e8; stroke: #ffffff; stroke-linejoin: miter"/>
   </g>
   <g id="patch_195">
    <path d="M 1100.101288 315 
L 1103.933047 315 
L 1103.933047 314.947579 
L 1100.101288 314.947579 
z
" clip-path="url(#p0537b16bec)" style="fill: #da93e8; stroke: #ffffff; stroke-linejoin: miter"/>
   </g>
   <g id="patch_196">
    <path d="M 1104.890987 315 
L 1108.722747 315 
L 1108.722747 314.947579 
L 1104.890987 314.947579 
z
" clip-path="url(#p0537b16bec)" style="fill: #dc91e7; stroke: #ffffff; stroke-linejoin: miter"/>
   </g>
   <g id="patch_197">
    <path d="M 1109.680687 315 
L 1113.512446 315 
L 1113.512446 314.947579 
L 1109.680687 314.947579 
z
" clip-path="url(#p0537b16bec)" style="fill: #de8fe7; stroke: #ffffff; stroke-linejoin: miter"/>
   </g>
   <g id="patch_198">
    <path d="M 1114.470386 315 
L 1118.302146 315 
L 1118.302146 314.947579 
L 1114.470386 314.947579 
z
" clip-path="url(#p0537b16bec)" style="fill: #e18de7; stroke: #ffffff; stroke-linejoin: miter"/>
   </g>
   <g id="patch_199">
    <path d="M 1119.260086 315 
L 1123.091845 315 
L 1123.091845 314.947579 
L 1119.260086 314.947579 
z
" clip-path="url(#p0537b16bec)" style="fill: #e38be7; stroke: #ffffff; stroke-linejoin: miter"/>
   </g>
   <g id="patch_200">
    <path d="M 1124.049785 315 
L 1127.881545 315 
L 1127.881545 314.947579 
L 1124.049785 314.947579 
z
" clip-path="url(#p0537b16bec)" style="fill: #e589e6; stroke: #ffffff; stroke-linejoin: miter"/>
   </g>
   <g id="patch_201">
    <path d="M 1128.839485 315 
L 1132.671245 315 
L 1132.671245 314.947579 
L 1128.839485 314.947579 
z
" clip-path="url(#p0537b16bec)" style="fill: #e689e5; stroke: #ffffff; stroke-linejoin: miter"/>
   </g>
   <g id="patch_202">
    <path d="M 1133.629185 315 
L 1137.460944 315 
L 1137.460944 314.947579 
L 1133.629185 314.947579 
z
" clip-path="url(#p0537b16bec)" style="fill: #e689e2; stroke: #ffffff; stroke-linejoin: miter"/>
   </g>
   <g id="patch_203">
    <path d="M 1138.418884 315 
L 1142.250644 315 
L 1142.250644 314.947579 
L 1138.418884 314.947579 
z
" clip-path="url(#p0537b16bec)" style="fill: #e78ae0; stroke: #ffffff; stroke-linejoin: miter"/>
   </g>
   <g id="patch_204">
    <path d="M 1143.208584 315 
L 1147.040343 315 
L 1147.040343 314.947579 
L 1143.208584 314.947579 
z
" clip-path="url(#p0537b16bec)" style="fill: #e78bdd; stroke: #ffffff; stroke-linejoin: miter"/>
   </g>
   <g id="patch_205">
    <path d="M 1147.998283 315 
L 1151.830043 315 
L 1151.830043 314.947579 
L 1147.998283 314.947579 
z
" clip-path="url(#p0537b16bec)" style="fill: #e78bdb; stroke: #ffffff; stroke-linejoin: miter"/>
   </g>
   <g id="patch_206">
    <path d="M 1152.787983 315 
L 1156.619742 315 
L 1156.619742 314.947579 
L 1152.787983 314.947579 
z
" clip-path="url(#p0537b16bec)" style="fill: #e78cd9; stroke: #ffffff; stroke-linejoin: miter"/>
   </g>
   <g id="patch_207">
    <path d="M 1157.577682 315 
L 1161.409442 315 
L 1161.409442 314.947579 
L 1157.577682 314.947579 
z
" clip-path="url(#p0537b16bec)" style="fill: #e78cd7; stroke: #ffffff; stroke-linejoin: miter"/>
   </g>
   <g id="patch_208">
    <path d="M 1162.367382 315 
L 1166.199142 315 
L 1166.199142 314.947579 
L 1162.367382 314.947579 
z
" clip-path="url(#p0537b16bec)" style="fill: #e78dd5; stroke: #ffffff; stroke-linejoin: miter"/>
   </g>
   <g id="patch_209">
    <path d="M 1167.157082 315 
L 1170.988841 315 
L 1170.988841 314.947579 
L 1167.157082 314.947579 
z
" clip-path="url(#p0537b16bec)" style="fill: #e78dd3; stroke: #ffffff; stroke-linejoin: miter"/>
   </g>
   <g id="patch_210">
    <path d="M 1171.946781 315 
L 1175.778541 315 
L 1175.778541 314.947579 
L 1171.946781 314.947579 
z
" clip-path="url(#p0537b16bec)" style="fill: #e78ed1; stroke: #ffffff; stroke-linejoin: miter"/>
   </g>
   <g id="patch_211">
    <path d="M 1176.736481 315 
L 1180.56824 315 
L 1180.56824 314.947579 
L 1176.736481 314.947579 
z
" clip-path="url(#p0537b16bec)" style="fill: #e88ecf; stroke: #ffffff; stroke-linejoin: miter"/>
   </g>
   <g id="patch_212">
    <path d="M 1181.52618 315 
L 1185.35794 315 
L 1185.35794 314.947579 
L 1181.52618 314.947579 
z
" clip-path="url(#p0537b16bec)" style="fill: #e88ece; stroke: #ffffff; stroke-linejoin: miter"/>
   </g>
   <g id="patch_213">
    <path d="M 1186.31588 315 
L 1190.147639 315 
L 1190.147639 314.947579 
L 1186.31588 314.947579 
z
" clip-path="url(#p0537b16bec)" style="fill: #e88fcc; stroke: #ffffff; stroke-linejoin: miter"/>
   </g>
   <g id="patch_214">
    <path d="M 1191.105579 315 
L 1194.937339 315 
L 1194.937339 314.947579 
L 1191.105579 314.947579 
z
" clip-path="url(#p0537b16bec)" style="fill: #e88fca; stroke: #ffffff; stroke-linejoin: miter"/>
   </g>
   <g id="patch_215">
    <path d="M 1195.895279 315 
L 1199.727039 315 
L 1199.727039 314.947579 
L 1195.895279 314.947579 
z
" clip-path="url(#p0537b16bec)" style="fill: #e890c8; stroke: #ffffff; stroke-linejoin: miter"/>
   </g>
   <g id="patch_216">
    <path d="M 1200.684979 315 
L 1204.516738 315 
L 1204.516738 314.947579 
L 1200.684979 314.947579 
z
" clip-path="url(#p0537b16bec)" style="fill: #e890c7; stroke: #ffffff; stroke-linejoin: miter"/>
   </g>
   <g id="patch_217">
    <path d="M 1205.474678 315 
L 1209.306438 315 
L 1209.306438 314.947579 
L 1205.474678 314.947579 
z
" clip-path="url(#p0537b16bec)" style="fill: #e890c5; stroke: #ffffff; stroke-linejoin: miter"/>
   </g>
   <g id="patch_218">
    <path d="M 1210.264378 315 
L 1214.096137 315 
L 1214.096137 314.947579 
L 1210.264378 314.947579 
z
" clip-path="url(#p0537b16bec)" style="fill: #e891c3; stroke: #ffffff; stroke-linejoin: miter"/>
   </g>
   <g id="patch_219">
    <path d="M 1215.054077 315 
L 1218.885837 315 
L 1218.885837 314.947579 
L 1215.054077 314.947579 
z
" clip-path="url(#p0537b16bec)" style="fill: #e891c2; stroke: #ffffff; stroke-linejoin: miter"/>
   </g>
   <g id="patch_220">
    <path d="M 1219.843777 315 
L 1223.675536 315 
L 1223.675536 314.947579 
L 1219.843777 314.947579 
z
" clip-path="url(#p0537b16bec)" style="fill: #e891c0; stroke: #ffffff; stroke-linejoin: miter"/>
   </g>
   <g id="patch_221">
    <path d="M 1224.633476 315 
L 1228.465236 315 
L 1228.465236 314.947579 
L 1224.633476 314.947579 
z
" clip-path="url(#p0537b16bec)" style="fill: #e892be; stroke: #ffffff; stroke-linejoin: miter"/>
   </g>
   <g id="patch_222">
    <path d="M 1229.423176 315 
L 1233.254936 315 
L 1233.254936 314.947579 
L 1229.423176 314.947579 
z
" clip-path="url(#p0537b16bec)" style="fill: #e992bd; stroke: #ffffff; stroke-linejoin: miter"/>
   </g>
   <g id="patch_223">
    <path d="M 1234.212876 315 
L 1238.044635 315 
L 1238.044635 314.947579 
L 1234.212876 314.947579 
z
" clip-path="url(#p0537b16bec)" style="fill: #e992bb; stroke: #ffffff; stroke-linejoin: miter"/>
   </g>
   <g id="patch_224">
    <path d="M 1239.002575 315 
L 1242.834335 315 
L 1242.834335 314.947579 
L 1239.002575 314.947579 
z
" clip-path="url(#p0537b16bec)" style="fill: #e992b9; stroke: #ffffff; stroke-linejoin: miter"/>
   </g>
   <g id="patch_225">
    <path d="M 1243.792275 315 
L 1247.624034 315 
L 1247.624034 314.947579 
L 1243.792275 314.947579 
z
" clip-path="url(#p0537b16bec)" style="fill: #e993b8; stroke: #ffffff; stroke-linejoin: miter"/>
   </g>
   <g id="patch_226">
    <path d="M 1248.581974 315 
L 1252.413734 315 
L 1252.413734 314.947579 
L 1248.581974 314.947579 
z
" clip-path="url(#p0537b16bec)" style="fill: #e993b6; stroke: #ffffff; stroke-linejoin: miter"/>
   </g>
   <g id="patch_227">
    <path d="M 1253.371674 315 
L 1257.203433 315 
L 1257.203433 314.947579 
L 1253.371674 314.947579 
z
" clip-path="url(#p0537b16bec)" style="fill: #e993b4; stroke: #ffffff; stroke-linejoin: miter"/>
   </g>
   <g id="patch_228">
    <path d="M 1258.161373 315 
L 1261.993133 315 
L 1261.993133 314.947579 
L 1258.161373 314.947579 
z
" clip-path="url(#p0537b16bec)" style="fill: #e993b3; stroke: #ffffff; stroke-linejoin: miter"/>
   </g>
   <g id="patch_229">
    <path d="M 1262.951073 315 
L 1266.782833 315 
L 1266.782833 314.947579 
L 1262.951073 314.947579 
z
" clip-path="url(#p0537b16bec)" style="fill: #e994b1; stroke: #ffffff; stroke-linejoin: miter"/>
   </g>
   <g id="patch_230">
    <path d="M 1267.740773 315 
L 1271.572532 315 
L 1271.572532 314.947579 
L 1267.740773 314.947579 
z
" clip-path="url(#p0537b16bec)" style="fill: #e994af; stroke: #ffffff; stroke-linejoin: miter"/>
   </g>
   <g id="patch_231">
    <path d="M 1272.530472 315 
L 1276.362232 315 
L 1276.362232 314.947579 
L 1272.530472 314.947579 
z
" clip-path="url(#p0537b16bec)" style="fill: #e994ae; stroke: #ffffff; stroke-linejoin: miter"/>
   </g>
   <g id="patch_232">
    <path d="M 1277.320172 315 
L 1281.151931 315 
L 1281.151931 314.947579 
L 1277.320172 314.947579 
z
" clip-path="url(#p0537b16bec)" style="fill: #e995ac; stroke: #ffffff; stroke-linejoin: miter"/>
   </g>
   <g id="patch_233">
    <path d="M 1282.109871 315 
L 1285.941631 315 
L 1285.941631 314.947579 
L 1282.109871 314.947579 
z
" clip-path="url(#p0537b16bec)" style="fill: #e995aa; stroke: #ffffff; stroke-linejoin: miter"/>
   </g>
   <g id="patch_234">
    <path d="M 1286.899571 315 
L 1290.73133 315 
L 1290.73133 314.947579 
L 1286.899571 314.947579 
z
" clip-path="url(#p0537b16bec)" style="fill: #e995a7; stroke: #ffffff; stroke-linejoin: miter"/>
   </g>
   <g id="patch_235">
    <path d="M 1291.68927 315 
L 1295.52103 315 
L 1295.52103 314.947579 
L 1291.68927 314.947579 
z
" clip-path="url(#p0537b16bec)" style="fill: #ea96a5; stroke: #ffffff; stroke-linejoin: miter"/>
   </g>
   <g id="patch_236">
    <path d="M 180 315 
L 180 43.2 
" style="fill: none; stroke: #ffffff; stroke-width: 1.25; stroke-linejoin: miter; stroke-linecap: square"/>
   </g>
   <g id="patch_237">
    <path d="M 1296 315 
L 1296 43.2 
" style="fill: none; stroke: #ffffff; stroke-width: 1.25; stroke-linejoin: miter; stroke-linecap: square"/>
   </g>
   <g id="patch_238">
    <path d="M 180 315 
L 1296 315 
" style="fill: none; stroke: #ffffff; stroke-width: 1.25; stroke-linejoin: miter; stroke-linecap: square"/>
   </g>
   <g id="patch_239">
    <path d="M 180 43.2 
L 1296 43.2 
" style="fill: none; stroke: #ffffff; stroke-width: 1.25; stroke-linejoin: miter; stroke-linecap: square"/>
   </g>
   <g id="text_9">
    <!-- Number of works in which character appeared -->
    <g style="fill: #262626" transform="translate(615.617813 37.2)scale(0.12 -0.12)">
     <defs>
      <path id="ArialMT-4e" d="M 488 0 
L 488 4581 
L 1109 4581 
L 3516 984 
L 3516 4581 
L 4097 4581 
L 4097 0 
L 3475 0 
L 1069 3600 
L 1069 0 
L 488 0 
z
" transform="scale(0.015625)"/>
      <path id="ArialMT-75" d="M 2597 0 
L 2597 488 
Q 2209 -75 1544 -75 
Q 1250 -75 995 37 
Q 741 150 617 320 
Q 494 491 444 738 
Q 409 903 409 1263 
L 409 3319 
L 972 3319 
L 972 1478 
Q 972 1038 1006 884 
Q 1059 663 1231 536 
Q 1403 409 1656 409 
Q 1909 409 2131 539 
Q 2353 669 2445 892 
Q 2538 1116 2538 1541 
L 2538 3319 
L 3100 3319 
L 3100 0 
L 2597 0 
z
" transform="scale(0.015625)"/>
      <path id="ArialMT-62" d="M 941 0 
L 419 0 
L 419 4581 
L 981 4581 
L 981 2947 
Q 1338 3394 1891 3394 
Q 2197 3394 2470 3270 
Q 2744 3147 2920 2923 
Q 3097 2700 3197 2384 
Q 3297 2069 3297 1709 
Q 3297 856 2875 390 
Q 2453 -75 1863 -75 
Q 1275 -75 941 416 
L 941 0 
z
M 934 1684 
Q 934 1088 1097 822 
Q 1363 388 1816 388 
Q 2184 388 2453 708 
Q 2722 1028 2722 1663 
Q 2722 2313 2464 2622 
Q 2206 2931 1841 2931 
Q 1472 2931 1203 2611 
Q 934 2291 934 1684 
z
" transform="scale(0.015625)"/>
      <path id="ArialMT-66" d="M 556 0 
L 556 2881 
L 59 2881 
L 59 3319 
L 556 3319 
L 556 3672 
Q 556 4006 616 4169 
Q 697 4388 901 4523 
Q 1106 4659 1475 4659 
Q 1713 4659 2000 4603 
L 1916 4113 
Q 1741 4144 1584 4144 
Q 1328 4144 1222 4034 
Q 1116 3925 1116 3625 
L 1116 3319 
L 1763 3319 
L 1763 2881 
L 1116 2881 
L 1116 0 
L 556 0 
z
" transform="scale(0.015625)"/>
      <path id="ArialMT-77" d="M 1034 0 
L 19 3319 
L 600 3319 
L 1128 1403 
L 1325 691 
Q 1338 744 1497 1375 
L 2025 3319 
L 2603 3319 
L 3100 1394 
L 3266 759 
L 3456 1400 
L 4025 3319 
L 4572 3319 
L 3534 0 
L 2950 0 
L 2422 1988 
L 2294 2553 
L 1622 0 
L 1034 0 
z
" transform="scale(0.015625)"/>
      <path id="ArialMT-69" d="M 425 3934 
L 425 4581 
L 988 4581 
L 988 3934 
L 425 3934 
z
M 425 0 
L 425 3319 
L 988 3319 
L 988 0 
L 425 0 
z
" transform="scale(0.015625)"/>
      <path id="ArialMT-70" d="M 422 -1272 
L 422 3319 
L 934 3319 
L 934 2888 
Q 1116 3141 1344 3267 
Q 1572 3394 1897 3394 
Q 2322 3394 2647 3175 
Q 2972 2956 3137 2557 
Q 3303 2159 3303 1684 
Q 3303 1175 3120 767 
Q 2938 359 2589 142 
Q 2241 -75 1856 -75 
Q 1575 -75 1351 44 
Q 1128 163 984 344 
L 984 -1272 
L 422 -1272 
z
M 931 1641 
Q 931 1000 1190 694 
Q 1450 388 1819 388 
Q 2194 388 2461 705 
Q 2728 1022 2728 1688 
Q 2728 2322 2467 2637 
Q 2206 2953 1844 2953 
Q 1484 2953 1207 2617 
Q 931 2281 931 1641 
z
" transform="scale(0.015625)"/>
      <path id="ArialMT-64" d="M 2575 0 
L 2575 419 
Q 2259 -75 1647 -75 
Q 1250 -75 917 144 
Q 584 363 401 755 
Q 219 1147 219 1656 
Q 219 2153 384 2558 
Q 550 2963 881 3178 
Q 1213 3394 1622 3394 
Q 1922 3394 2156 3267 
Q 2391 3141 2538 2938 
L 2538 4581 
L 3097 4581 
L 3097 0 
L 2575 0 
z
M 797 1656 
Q 797 1019 1065 703 
Q 1334 388 1700 388 
Q 2069 388 2326 689 
Q 2584 991 2584 1609 
Q 2584 2291 2321 2609 
Q 2059 2928 1675 2928 
Q 1300 2928 1048 2622 
Q 797 2316 797 1656 
z
" transform="scale(0.015625)"/>
     </defs>
     <use xlink:href="#ArialMT-4e"/>
     <use xlink:href="#ArialMT-75" x="72.216797"/>
     <use xlink:href="#ArialMT-6d" x="127.832031"/>
     <use xlink:href="#ArialMT-62" x="211.132812"/>
     <use xlink:href="#ArialMT-65" x="266.748047"/>
     <use xlink:href="#ArialMT-72" x="322.363281"/>
     <use xlink:href="#ArialMT-20" x="355.664062"/>
     <use xlink:href="#ArialMT-6f" x="383.447266"/>
     <use xlink:href="#ArialMT-66" x="439.0625"/>
     <use xlink:href="#ArialMT-20" x="466.845703"/>
     <use xlink:href="#ArialMT-77" x="494.628906"/>
     <use xlink:href="#ArialMT-6f" x="566.845703"/>
     <use xlink:href="#ArialMT-72" x="622.460938"/>
     <use xlink:href="#ArialMT-6b" x="655.761719"/>
     <use xlink:href="#ArialMT-73" x="705.761719"/>
     <use xlink:href="#ArialMT-20" x="755.761719"/>
     <use xlink:href="#ArialMT-69" x="783.544922"/>
     <use xlink:href="#ArialMT-6e" x="805.761719"/>
     <use xlink:href="#ArialMT-20" x="861.376953"/>
     <use xlink:href="#ArialMT-77" x="889.160156"/>
     <use xlink:href="#ArialMT-68" x="961.376953"/>
     <use xlink:href="#ArialMT-69" x="1016.992188"/>
     <use xlink:href="#ArialMT-63" x="1039.208984"/>
     <use xlink:href="#ArialMT-68" x="1089.208984"/>
     <use xlink:href="#ArialMT-20" x="1144.824219"/>
     <use xlink:href="#ArialMT-63" x="1172.607422"/>
     <use xlink:href="#ArialMT-68" x="1222.607422"/>
     <use xlink:href="#ArialMT-61" x="1278.222656"/>
     <use xlink:href="#ArialMT-72" x="1333.837891"/>
     <use xlink:href="#ArialMT-61" x="1367.138672"/>
     <use xlink:href="#ArialMT-63" x="1422.753906"/>
     <use xlink:href="#ArialMT-74" x="1472.753906"/>
     <use xlink:href="#ArialMT-65" x="1500.537109"/>
     <use xlink:href="#ArialMT-72" x="1556.152344"/>
     <use xlink:href="#ArialMT-20" x="1589.453125"/>
     <use xlink:href="#ArialMT-61" x="1617.236328"/>
     <use xlink:href="#ArialMT-70" x="1672.851562"/>
     <use xlink:href="#ArialMT-70" x="1728.466797"/>
     <use xlink:href="#ArialMT-65" x="1784.082031"/>
     <use xlink:href="#ArialMT-61" x="1839.697266"/>
     <use xlink:href="#ArialMT-72" x="1895.3125"/>
     <use xlink:href="#ArialMT-65" x="1928.613281"/>
     <use xlink:href="#ArialMT-64" x="1984.228516"/>
    </g>
   </g>
  </g>
 </g>
 <defs>
  <clipPath id="p0537b16bec">
   <rect x="180" y="43.2" width="1116" height="271.8"/>
  </clipPath>
 </defs>
</svg>
