<?xml version="1.0" encoding="utf-8" standalone="no"?>
<!DOCTYPE svg PUBLIC "-//W3C//DTD SVG 1.1//EN"
  "http://www.w3.org/Graphics/SVG/1.1/DTD/svg11.dtd">
<svg xmlns:xlink="http://www.w3.org/1999/xlink" width="649.514875pt" height="603.865746pt" viewBox="0 0 649.514875 603.865746" xmlns="http://www.w3.org/2000/svg" version="1.1">
 <metadata>
  <rdf:RDF xmlns:dc="http://purl.org/dc/elements/1.1/" xmlns:cc="http://creativecommons.org/ns#" xmlns:rdf="http://www.w3.org/1999/02/22-rdf-syntax-ns#">
   <cc:Work>
    <dc:type rdf:resource="http://purl.org/dc/dcmitype/StillImage"/>
    <dc:date>2022-08-19T17:56:04.014621</dc:date>
    <dc:format>image/svg+xml</dc:format>
    <dc:creator>
     <cc:Agent>
      <dc:title>Matplotlib v3.5.2, https://matplotlib.org/</dc:title>
     </cc:Agent>
    </dc:creator>
   </cc:Work>
  </rdf:RDF>
 </metadata>
 <defs>
  <style type="text/css">*{stroke-linejoin: round; stroke-linecap: butt}</style>
 </defs>
 <g id="figure_1">
  <g id="patch_1">
   <path d="M 0 603.865746 
L 649.514875 603.865746 
L 649.514875 0 
L 0 0 
L 0 603.865746 
z
" style="fill: none"/>
  </g>
  <g id="axes_1">
   <g id="patch_2">
    <path d="M 582.862547 304.990125 
C 582.862547 265.376794 573.841575 226.278715 556.485799 190.669825 
C 539.130023 155.060935 513.890937 123.867566 482.688314 99.462396 
C 451.485691 75.057226 415.131239 58.075132 376.390204 49.807832 
C 337.649169 41.540532 297.529365 42.203093 259.082443 51.745117 
L 321.934547 304.990125 
L 582.862547 304.990125 
z
" style="fill: #a1c9f4"/>
   </g>
   <g id="patch_3">
    <path d="M 259.082443 51.745117 
C 221.345838 61.110849 186.175462 78.794059 156.150653 103.497887 
C 126.125845 128.201715 101.998987 159.307117 85.539504 194.53287 
C 69.080022 229.758624 60.700369 268.222018 61.015095 307.102208 
C 61.329821 345.982399 70.33104 384.305099 87.358617 419.259782 
L 321.934547 304.990125 
L 259.082443 51.745117 
z
" style="fill: #ffb482"/>
   </g>
   <g id="patch_4">
    <path d="M 87.358617 419.259782 
C 95.885469 436.76394 106.344843 453.258813 118.541253 468.436108 
C 130.737663 483.613404 144.594647 497.377973 159.853215 509.472552 
L 321.934547 304.990125 
L 87.358617 419.259782 
z
" style="fill: #8de5a1"/>
   </g>
   <g id="patch_5">
    <path d="M 159.853215 509.472552 
C 170.466662 517.885215 181.718996 525.458804 193.508176 532.124642 
C 205.297357 538.790479 217.587641 544.528353 230.267576 549.286231 
L 321.934547 304.990125 
L 159.853215 509.472552 
z
" style="fill: #ff9f9b"/>
   </g>
   <g id="patch_6">
    <path d="M 230.267576 549.286231 
C 242.260997 553.78651 254.569557 557.397482 267.093369 560.089844 
C 279.617181 562.782205 292.322276 564.548653 305.105549 565.374852 
L 321.934547 304.990125 
L 230.267576 549.286231 
z
" style="fill: #d0bbff"/>
   </g>
   <g id="patch_7">
    <path d="M 305.105549 565.374852 
C 313.819313 565.938034 322.555858 566.063452 331.282198 565.750633 
C 340.008538 565.437814 348.713677 564.687153 357.364749 563.501482 
L 321.934547 304.990125 
L 305.105549 565.374852 
z
" style="fill: #a1c9f4"/>
   </g>
   <g id="patch_8">
    <path d="M 357.364749 563.501482 
C 362.926798 562.739177 368.462795 561.797564 373.964097 560.678113 
C 379.465398 559.558661 384.929139 558.261955 390.346785 556.790019 
L 321.934547 304.990125 
L 357.364749 563.501482 
z
" style="fill: #ffb482"/>
   </g>
   <g id="patch_9">
    <path d="M 390.346785 556.790019 
C 395.347626 555.431327 400.30688 553.923958 405.217949 552.269918 
C 410.129019 550.615878 414.989723 548.815902 419.793596 546.872385 
L 321.934547 304.990125 
L 390.346785 556.790019 
z
" style="fill: #8de5a1"/>
   </g>
   <g id="patch_10">
    <path d="M 419.793596 546.872385 
C 423.953394 545.189443 428.069086 543.399472 432.136565 541.50426 
C 436.204045 539.609048 440.221958 537.609225 444.186295 535.506787 
L 321.934547 304.990125 
L 419.793596 546.872385 
z
" style="fill: #ff9f9b"/>
   </g>
   <g id="patch_11">
    <path d="M 444.186295 535.506787 
C 448.117453 533.421944 451.994638 531.236881 455.814043 528.953742 
C 459.633448 526.670603 463.393824 524.290135 467.091482 521.814674 
L 321.934547 304.990125 
L 444.186295 535.506787 
z
" style="fill: #d0bbff"/>
   </g>
   <g id="patch_12">
    <path d="M 467.091482 521.814674 
C 470.399056 519.600362 473.655529 517.310656 476.858344 514.947355 
C 480.061159 512.584053 483.209478 510.147774 486.300829 507.640431 
L 321.934547 304.990125 
L 467.091482 521.814674 
z
" style="fill: #a1c9f4"/>
   </g>
   <g id="patch_13">
    <path d="M 486.300829 507.640431 
C 489.144269 505.334164 491.938855 502.968306 494.68273 500.54443 
C 497.426604 498.120555 500.11916 495.639197 502.758608 493.102006 
L 321.934547 304.990125 
L 486.300829 507.640431 
z
" style="fill: #ffb482"/>
   </g>
   <g id="patch_14">
    <path d="M 502.758608 493.102006 
C 505.34391 490.616864 507.877705 488.07869 510.35838 485.489101 
C 512.839054 482.899512 515.26608 480.259059 517.637911 477.569424 
L 321.934547 304.990125 
L 502.758608 493.102006 
z
" style="fill: #8de5a1"/>
   </g>
   <g id="patch_15">
    <path d="M 517.637911 477.569424 
C 519.92281 474.978369 522.156027 472.342192 524.33624 469.662454 
C 526.516453 466.982715 528.643233 464.259942 530.715321 461.495746 
L 321.934547 304.990125 
L 517.637911 477.569424 
z
" style="fill: #ff9f9b"/>
   </g>
   <g id="patch_16">
    <path d="M 530.715321 461.495746 
C 532.573432 459.016999 534.387252 456.505358 536.155919 453.962018 
C 537.924586 451.418677 539.647818 448.844041 541.324798 446.239334 
L 321.934547 304.990125 
L 530.715321 461.495746 
z
" style="fill: #d0bbff"/>
   </g>
   <g id="patch_17">
    <path d="M 541.324798 446.239334 
C 542.574895 444.297665 543.79916 442.339487 544.997271 440.365316 
C 546.195381 438.391145 547.367231 436.401156 548.51251 434.395874 
L 321.934547 304.990125 
L 541.324798 446.239334 
z
" style="fill: #a1c9f4"/>
   </g>
   <g id="patch_18">
    <path d="M 548.51251 434.395874 
C 549.434315 432.781875 550.338848 431.158072 551.225954 429.524745 
C 552.113061 427.891417 552.98269 426.248657 553.834692 424.596746 
L 321.934547 304.990125 
L 548.51251 434.395874 
z
" style="fill: #ffb482"/>
   </g>
   <g id="patch_19">
    <path d="M 553.834692 424.596746 
C 554.660876 422.994894 555.47044 421.384525 556.263254 419.765897 
C 557.056069 418.14727 557.832091 416.520472 558.591196 414.885764 
L 321.934547 304.990125 
L 553.834692 424.596746 
z
" style="fill: #8de5a1"/>
   </g>
   <g id="patch_20">
    <path d="M 558.591196 414.885764 
C 559.318671 413.31917 560.030573 411.745392 560.726795 410.164661 
C 561.423018 408.583931 562.103528 406.996326 562.768224 405.402081 
L 321.934547 304.990125 
L 558.591196 414.885764 
z
" style="fill: #ff9f9b"/>
   </g>
   <g id="patch_21">
    <path d="M 562.768224 405.402081 
C 563.396795 403.894482 564.011195 402.381014 564.611345 400.861877 
C 565.211494 399.34274 565.797366 397.818001 566.368882 396.287862 
L 321.934547 304.990125 
L 562.768224 405.402081 
z
" style="fill: #d0bbff"/>
   </g>
   <g id="patch_22">
    <path d="M 566.368882 396.287862 
C 566.828722 395.056719 567.279253 393.822119 567.720439 392.584168 
C 568.161624 391.346218 568.59345 390.104952 569.01588 388.860476 
L 321.934547 304.990125 
L 566.368882 396.287862 
z
" style="fill: #a1c9f4"/>
   </g>
   <g id="patch_23">
    <path d="M 569.01588 388.860476 
C 569.233129 388.220463 569.44789 387.579607 569.660159 386.937925 
C 569.872428 386.296242 570.082203 385.653737 570.28948 385.010425 
L 321.934547 304.990125 
L 569.01588 388.860476 
z
" style="fill: #ffb482"/>
   </g>
   <g id="patch_24">
    <path d="M 570.28948 385.010425 
C 570.490998 384.384982 570.690153 383.75878 570.886941 383.131833 
C 571.083729 382.504885 571.278147 381.877197 571.470193 381.248781 
L 321.934547 304.990125 
L 570.28948 385.010425 
z
" style="fill: #8de5a1"/>
   </g>
   <g id="patch_25">
    <path d="M 571.470193 381.248781 
C 571.662238 380.620364 571.851909 379.991225 572.039201 379.361376 
C 572.226493 378.731526 572.411406 378.100972 572.593934 377.469726 
L 321.934547 304.990125 
L 571.470193 381.248781 
z
" style="fill: #ff9f9b"/>
   </g>
   <g id="patch_26">
    <path d="M 572.593934 377.469726 
C 572.771248 376.856515 572.94631 376.242656 573.119118 375.628161 
C 573.291927 375.013665 573.462479 374.398538 573.630773 373.782791 
L 321.934547 304.990125 
L 572.593934 377.469726 
z
" style="fill: #d0bbff"/>
   </g>
   <g id="patch_27">
    <path d="M 573.630773 373.782791 
C 573.774317 373.257595 573.916218 372.731951 574.056472 372.205867 
C 574.196726 371.679783 574.335333 371.153261 574.472291 370.626309 
L 321.934547 304.990125 
L 573.630773 373.782791 
z
" style="fill: #a1c9f4"/>
   </g>
   <g id="patch_28">
    <path d="M 574.472291 370.626309 
C 574.590359 370.172041 574.7072 369.717454 574.822814 369.262555 
C 574.938428 368.807656 575.052815 368.352445 575.165973 367.896929 
L 321.934547 304.990125 
L 574.472291 370.626309 
z
" style="fill: #ffb482"/>
   </g>
   <g id="patch_29">
    <path d="M 575.165973 367.896929 
C 575.274604 367.459633 575.382103 367.022057 575.488467 366.584204 
C 575.594832 366.146351 575.700062 365.708224 575.804157 365.269826 
L 321.934547 304.990125 
L 575.165973 367.896929 
z
" style="fill: #8de5a1"/>
   </g>
   <g id="patch_30">
    <path d="M 575.804157 365.269826 
C 575.899577 364.867961 575.994043 364.46587 576.087553 364.063557 
C 576.181064 363.661244 576.273619 363.258709 576.365218 362.855956 
L 321.934547 304.990125 
L 575.804157 365.269826 
z
" style="fill: #ff9f9b"/>
   </g>
   <g id="patch_31">
    <path d="M 576.365218 362.855956 
C 576.452654 362.47151 576.539218 362.086867 576.62491 361.702028 
C 576.710602 361.31719 576.795421 360.932158 576.879368 360.546935 
L 321.934547 304.990125 
L 576.365218 362.855956 
z
" style="fill: #d0bbff"/>
   </g>
   <g id="patch_32">
    <path d="M 576.879368 360.546935 
C 576.959317 360.180057 577.038474 359.813006 577.116839 359.445785 
C 577.195203 359.078565 577.272775 358.711175 577.349553 358.34362 
L 321.934547 304.990125 
L 576.879368 360.546935 
z
" style="fill: #a1c9f4"/>
   </g>
   <g id="patch_33">
    <path d="M 577.349553 358.34362 
C 577.426332 357.976065 577.502317 357.608344 577.577508 357.24046 
C 577.652699 356.872577 577.727095 356.504532 577.800698 356.136327 
L 321.934547 304.990125 
L 577.349553 358.34362 
z
" style="fill: #ffb482"/>
   </g>
   <g id="patch_34">
    <path d="M 577.800698 356.136327 
C 577.8743 355.768122 577.947107 355.399759 578.019118 355.03124 
C 578.09113 354.662721 578.162346 354.294048 578.232767 353.925221 
L 321.934547 304.990125 
L 577.800698 356.136327 
z
" style="fill: #8de5a1"/>
   </g>
   <g id="patch_35">
    <path d="M 578.232767 353.925221 
C 578.289103 353.63016 578.344929 353.335002 578.400246 353.039748 
C 578.455563 352.744494 578.510369 352.449145 578.564666 352.153702 
L 321.934547 304.990125 
L 578.232767 353.925221 
z
" style="fill: #ff9f9b"/>
   </g>
   <g id="patch_36">
    <path d="M 578.564666 352.153702 
C 578.618963 351.858259 578.672749 351.562722 578.726025 351.267093 
C 578.779301 350.971464 578.832066 350.675743 578.884321 350.379932 
L 321.934547 304.990125 
L 578.564666 352.153702 
z
" style="fill: #d0bbff"/>
   </g>
   <g id="patch_37">
    <path d="M 578.884321 350.379932 
C 578.936576 350.084121 578.988319 349.78822 579.039552 349.49223 
C 579.090785 349.19624 579.141506 348.900162 579.191716 348.603997 
L 321.934547 304.990125 
L 578.884321 350.379932 
z
" style="fill: #a1c9f4"/>
   </g>
   <g id="patch_38">
    <path d="M 579.191716 348.603997 
C 579.238788 348.326342 579.285411 348.048611 579.331583 347.770806 
C 579.377756 347.493 579.423479 347.21512 579.468752 346.937166 
L 321.934547 304.990125 
L 579.191716 348.603997 
z
" style="fill: #ffb482"/>
   </g>
   <g id="patch_39">
    <path d="M 579.468752 346.937166 
C 579.514025 346.659212 579.558848 346.381185 579.603221 346.103086 
C 579.647593 345.824987 579.691516 345.546817 579.734988 345.268576 
L 321.934547 304.990125 
L 579.468752 346.937166 
z
" style="fill: #8de5a1"/>
   </g>
   <g id="patch_40">
    <path d="M 579.734988 345.268576 
C 579.775562 345.008884 579.815743 344.749131 579.855532 344.489318 
C 579.895321 344.229505 579.934718 343.969632 579.973721 343.7097 
L 321.934547 304.990125 
L 579.734988 345.268576 
z
" style="fill: #ff9f9b"/>
   </g>
   <g id="patch_41">
    <path d="M 579.973721 343.7097 
C 580.009939 343.468334 580.045818 343.226918 580.081358 342.985452 
C 580.116898 342.743986 580.1521 342.50247 580.186962 342.260905 
L 321.934547 304.990125 
L 579.973721 343.7097 
z
" style="fill: #d0bbff"/>
   </g>
   <g id="patch_42">
    <path d="M 580.186962 342.260905 
C 580.221825 342.01934 580.256348 341.777726 580.290533 341.536064 
C 580.324717 341.294402 580.358563 341.052692 580.392069 340.810935 
L 321.934547 304.990125 
L 580.186962 342.260905 
z
" style="fill: #a1c9f4"/>
   </g>
   <g id="patch_43">
    <path d="M 580.392069 340.810935 
C 580.422997 340.587775 580.453637 340.364575 580.483988 340.141335 
C 580.514339 339.918096 580.5444 339.694817 580.574172 339.4715 
L 321.934547 304.990125 
L 580.392069 340.810935 
z
" style="fill: #ffb482"/>
   </g>
   <g id="patch_44">
    <path d="M 580.574172 339.4715 
C 580.598983 339.285402 580.623592 339.099277 580.648 338.913126 
C 580.672409 338.726975 580.696616 338.540798 580.720623 338.354595 
L 321.934547 304.990125 
L 580.574172 339.4715 
z
" style="fill: #8de5a1"/>
   </g>
   <g id="patch_45">
    <path d="M 580.720623 338.354595 
C 580.742229 338.187012 580.763672 338.019408 580.784952 337.851783 
C 580.806233 337.684159 580.82735 337.516514 580.848305 337.348848 
L 321.934547 304.990125 
L 580.720623 338.354595 
z
" style="fill: #ff9f9b"/>
   </g>
   <g id="patch_46">
    <path d="M 580.848305 337.348848 
C 580.86926 337.181182 580.890051 337.013497 580.91068 336.845791 
C 580.931309 336.678085 580.951775 336.510359 580.972078 336.342613 
L 321.934547 304.990125 
L 580.848305 337.348848 
z
" style="fill: #d0bbff"/>
   </g>
   <g id="patch_47">
    <path d="M 580.972078 336.342613 
C 580.992381 336.174867 581.012521 336.007102 581.032498 335.839317 
C 581.052475 335.671532 581.072289 335.503728 581.091941 335.335904 
L 321.934547 304.990125 
L 580.972078 336.342613 
z
" style="fill: #a1c9f4"/>
   </g>
   <g id="patch_48">
    <path d="M 581.091941 335.335904 
C 581.109408 335.186728 581.126747 335.037537 581.143957 334.88833 
C 581.161167 334.739124 581.178248 334.589903 581.195201 334.440667 
L 321.934547 304.990125 
L 581.091941 335.335904 
z
" style="fill: #ffb482"/>
   </g>
   <g id="patch_49">
    <path d="M 581.195201 334.440667 
C 581.212153 334.291432 581.228976 334.142181 581.245671 333.992916 
C 581.262366 333.843652 581.278931 333.694372 581.295368 333.545079 
L 321.934547 304.990125 
L 581.195201 334.440667 
z
" style="fill: #8de5a1"/>
   </g>
   <g id="patch_50">
    <path d="M 581.295368 333.545079 
C 581.311805 333.395786 581.328113 333.246478 581.344292 333.097157 
C 581.360471 332.947835 581.376521 332.798499 581.392442 332.64915 
L 321.934547 304.990125 
L 581.295368 333.545079 
z
" style="fill: #ff9f9b"/>
   </g>
   <g id="patch_51">
    <path d="M 581.392442 332.64915 
C 581.408363 332.499801 581.424155 332.350438 581.439818 332.201061 
C 581.455482 332.051685 581.471016 331.902295 581.486421 331.752891 
L 321.934547 304.990125 
L 581.392442 332.64915 
z
" style="fill: #d0bbff"/>
   </g>
   <g id="patch_52">
    <path d="M 581.486421 331.752891 
C 581.501826 331.603488 581.517102 331.454071 581.53225 331.304642 
C 581.547397 331.155212 581.562415 331.005769 581.577304 330.856313 
L 321.934547 304.990125 
L 581.486421 331.752891 
z
" style="fill: #a1c9f4"/>
   </g>
   <g id="patch_53">
    <path d="M 581.577304 330.856313 
C 581.592193 330.706858 581.606953 330.557389 581.621584 330.407908 
C 581.636215 330.258427 581.650717 330.108933 581.66509 329.959427 
L 321.934547 304.990125 
L 581.577304 330.856313 
z
" style="fill: #ffb482"/>
   </g>
   <g id="patch_54">
    <path d="M 581.66509 329.959427 
C 581.677666 329.828609 581.690144 329.697781 581.702522 329.566944 
C 581.714901 329.436108 581.72718 329.305262 581.739361 329.174406 
L 321.934547 304.990125 
L 581.66509 329.959427 
z
" style="fill: #8de5a1"/>
   </g>
   <g id="patch_55">
    <path d="M 581.739361 329.174406 
C 581.751542 329.043551 581.763624 328.912686 581.775607 328.781813 
C 581.78759 328.650939 581.799475 328.520056 581.81126 328.389165 
L 321.934547 304.990125 
L 581.739361 329.174406 
z
" style="fill: #ff9f9b"/>
   </g>
   <g id="patch_56">
    <path d="M 581.81126 328.389165 
C 581.823045 328.258273 581.834732 328.127373 581.846319 327.996464 
C 581.857907 327.865554 581.869395 327.734636 581.880785 327.60371 
L 321.934547 304.990125 
L 581.81126 328.389165 
z
" style="fill: #d0bbff"/>
   </g>
   <g id="patch_57">
    <path d="M 581.880785 327.60371 
C 581.892175 327.472783 581.903466 327.341848 581.914658 327.210904 
C 581.92585 327.079961 581.936942 326.949009 581.947937 326.818048 
L 321.934547 304.990125 
L 581.880785 327.60371 
z
" style="fill: #a1c9f4"/>
   </g>
   <g id="patch_58">
    <path d="M 581.947937 326.818048 
C 581.958931 326.687088 581.969826 326.556119 581.980622 326.425142 
C 581.991418 326.294165 582.002115 326.16318 582.012713 326.032187 
L 321.934547 304.990125 
L 581.947937 326.818048 
z
" style="fill: #ffb482"/>
   </g>
   <g id="patch_59">
    <path d="M 582.012713 326.032187 
C 582.023311 325.901194 582.033811 325.770193 582.044211 325.639184 
C 582.054611 325.508176 582.064913 325.377159 582.075115 325.246134 
L 321.934547 304.990125 
L 582.012713 326.032187 
z
" style="fill: #8de5a1"/>
   </g>
   <g id="patch_60">
    <path d="M 582.075115 325.246134 
C 582.085317 325.11511 582.09542 324.984078 582.105425 324.853038 
C 582.115429 324.721998 582.125334 324.590951 582.135141 324.459896 
L 321.934547 304.990125 
L 582.075115 325.246134 
z
" style="fill: #ff9f9b"/>
   </g>
   <g id="patch_61">
    <path d="M 582.135141 324.459896 
C 582.143546 324.347564 582.151879 324.235226 582.160139 324.122882 
C 582.168399 324.010539 582.176586 323.89819 582.1847 323.785836 
L 321.934547 304.990125 
L 582.135141 324.459896 
z
" style="fill: #d0bbff"/>
   </g>
   <g id="patch_62">
    <path d="M 582.1847 323.785836 
C 582.192815 323.673482 582.200856 323.561123 582.208825 323.448759 
C 582.216794 323.336394 582.22469 323.224025 582.232513 323.11165 
L 321.934547 304.990125 
L 582.1847 323.785836 
z
" style="fill: #a1c9f4"/>
   </g>
   <g id="patch_63">
    <path d="M 582.232513 323.11165 
C 582.240337 322.999275 582.248087 322.886896 582.255765 322.774511 
C 582.263443 322.662126 582.271048 322.549737 582.27858 322.437342 
L 321.934547 304.990125 
L 582.232513 323.11165 
z
" style="fill: #ffb482"/>
   </g>
   <g id="patch_64">
    <path d="M 582.27858 322.437342 
C 582.284857 322.34368 582.291083 322.250015 582.297259 322.156346 
C 582.303435 322.062677 582.30956 321.969005 582.315635 321.875329 
L 321.934547 304.990125 
L 582.27858 322.437342 
z
" style="fill: #8de5a1"/>
   </g>
   <g id="patch_65">
    <path d="M 582.315635 321.875329 
C 582.321709 321.781654 582.327734 321.687975 582.333707 321.594293 
C 582.339681 321.500611 582.345604 321.406926 582.351476 321.313238 
L 321.934547 304.990125 
L 582.315635 321.875329 
z
" style="fill: #ff9f9b"/>
   </g>
   <g id="patch_66">
    <path d="M 582.351476 321.313238 
C 582.357349 321.21955 582.36317 321.125858 582.368942 321.032163 
C 582.374713 320.938469 582.380434 320.844771 582.386104 320.75107 
L 321.934547 304.990125 
L 582.351476 321.313238 
z
" style="fill: #d0bbff"/>
   </g>
   <g id="patch_67">
    <path d="M 582.386104 320.75107 
C 582.39064 320.67611 582.395144 320.601147 582.399615 320.526183 
C 582.404087 320.451218 582.408526 320.376252 582.412933 320.301283 
L 321.934547 304.990125 
L 582.386104 320.75107 
z
" style="fill: #a1c9f4"/>
   </g>
   <g id="patch_68">
    <path d="M 582.412933 320.301283 
C 582.417339 320.226315 582.421714 320.151345 582.426056 320.076373 
C 582.430398 320.0014 582.434707 319.926426 582.438985 319.851451 
L 321.934547 304.990125 
L 582.412933 320.301283 
z
" style="fill: #ffb482"/>
   </g>
   <g id="patch_69">
    <path d="M 582.438985 319.851451 
C 582.443262 319.776475 582.447507 319.701497 582.451719 319.626518 
C 582.455932 319.551538 582.460112 319.476557 582.46426 319.401574 
L 321.934547 304.990125 
L 582.438985 319.851451 
z
" style="fill: #8de5a1"/>
   </g>
   <g id="patch_70">
    <path d="M 582.46426 319.401574 
C 582.468407 319.326591 582.472523 319.251606 582.476606 319.176619 
C 582.480689 319.101632 582.484739 319.026644 582.488758 318.951654 
L 321.934547 304.990125 
L 582.46426 319.401574 
z
" style="fill: #ff9f9b"/>
   </g>
   <g id="patch_71">
    <path d="M 582.488758 318.951654 
C 582.492776 318.876664 582.496762 318.801672 582.500715 318.726678 
C 582.504669 318.651684 582.50859 318.576689 582.512479 318.501692 
L 321.934547 304.990125 
L 582.488758 318.951654 
z
" style="fill: #d0bbff"/>
   </g>
   <g id="patch_72">
    <path d="M 582.512479 318.501692 
C 582.516368 318.426695 582.520224 318.351696 582.524048 318.276696 
C 582.527872 318.201696 582.531664 318.126694 582.535423 318.05169 
L 321.934547 304.990125 
L 582.512479 318.501692 
z
" style="fill: #a1c9f4"/>
   </g>
   <g id="patch_73">
    <path d="M 582.535423 318.05169 
C 582.539182 317.976687 582.542909 317.901681 582.546603 317.826675 
C 582.550298 317.751668 582.55396 317.676659 582.55759 317.601649 
L 321.934547 304.990125 
L 582.535423 318.05169 
z
" style="fill: #ffb482"/>
   </g>
   <g id="patch_74">
    <path d="M 582.55759 317.601649 
C 582.560312 317.545392 582.563016 317.489133 582.565702 317.432874 
C 582.568388 317.376615 582.571056 317.320355 582.573705 317.264094 
L 321.934547 304.990125 
L 582.55759 317.601649 
z
" style="fill: #8de5a1"/>
   </g>
   <g id="patch_75">
    <path d="M 582.573705 317.264094 
C 582.576354 317.207833 582.578986 317.151571 582.581599 317.095308 
C 582.584212 317.039046 582.586806 316.982782 582.589383 316.926518 
L 321.934547 304.990125 
L 582.573705 317.264094 
z
" style="fill: #ff9f9b"/>
   </g>
   <g id="patch_76">
    <path d="M 582.589383 316.926518 
C 582.591959 316.870254 582.594518 316.813988 582.597058 316.757722 
C 582.599598 316.701456 582.60212 316.64519 582.604624 316.588922 
L 321.934547 304.990125 
L 582.589383 316.926518 
z
" style="fill: #d0bbff"/>
   </g>
   <g id="patch_77">
    <path d="M 582.604624 316.588922 
C 582.607127 316.532654 582.609613 316.476386 582.61208 316.420117 
C 582.614547 316.363847 582.616996 316.307577 582.619427 316.251306 
L 321.934547 304.990125 
L 582.604624 316.588922 
z
" style="fill: #a1c9f4"/>
   </g>
   <g id="patch_78">
    <path d="M 582.619427 316.251306 
C 582.621858 316.195036 582.624271 316.138764 582.626665 316.082492 
C 582.629059 316.026219 582.631435 315.969946 582.633793 315.913672 
L 321.934547 304.990125 
L 582.619427 316.251306 
z
" style="fill: #ffb482"/>
   </g>
   <g id="patch_79">
    <path d="M 582.633793 315.913672 
C 582.636151 315.857398 582.638491 315.801124 582.640813 315.744848 
C 582.643134 315.688573 582.645437 315.632296 582.647722 315.576019 
L 321.934547 304.990125 
L 582.633793 315.913672 
z
" style="fill: #8de5a1"/>
   </g>
   <g id="patch_80">
    <path d="M 582.647722 315.576019 
C 582.650007 315.519743 582.652274 315.463465 582.654523 315.407186 
C 582.656771 315.350908 582.659002 315.294629 582.661214 315.238349 
L 321.934547 304.990125 
L 582.647722 315.576019 
z
" style="fill: #ff9f9b"/>
   </g>
   <g id="patch_81">
    <path d="M 582.661214 315.238349 
C 582.663426 315.182069 582.66562 315.125789 582.667796 315.069507 
C 582.669971 315.013226 582.672129 314.956944 582.674268 314.900661 
L 321.934547 304.990125 
L 582.661214 315.238349 
z
" style="fill: #d0bbff"/>
   </g>
   <g id="patch_82">
    <path d="M 582.674268 314.900661 
C 582.676408 314.844379 582.678529 314.788095 582.680631 314.731811 
C 582.682734 314.675527 582.684819 314.619243 582.686885 314.562957 
L 321.934547 304.990125 
L 582.674268 314.900661 
z
" style="fill: #a1c9f4"/>
   </g>
   <g id="patch_83">
    <path d="M 582.686885 314.562957 
C 582.688952 314.506672 582.691 314.450386 582.69303 314.394099 
C 582.69506 314.337812 582.697071 314.281525 582.699065 314.225237 
L 321.934547 304.990125 
L 582.686885 314.562957 
z
" style="fill: #ffb482"/>
   </g>
   <g id="patch_84">
    <path d="M 582.699065 314.225237 
C 582.701058 314.168949 582.703033 314.11266 582.70499 314.056371 
C 582.706947 314.000082 582.708886 313.943792 582.710807 313.887501 
L 321.934547 304.990125 
L 582.699065 314.225237 
z
" style="fill: #8de5a1"/>
   </g>
   <g id="patch_85">
    <path d="M 582.710807 313.887501 
C 582.712727 313.831211 582.71463 313.774919 582.716514 313.718628 
C 582.718398 313.662336 582.720264 313.606043 582.722111 313.54975 
L 321.934547 304.990125 
L 582.710807 313.887501 
z
" style="fill: #ff9f9b"/>
   </g>
   <g id="patch_86">
    <path d="M 582.722111 313.54975 
C 582.723959 313.493457 582.725789 313.437164 582.7276 313.38087 
C 582.729411 313.324575 582.731204 313.268281 582.732979 313.211985 
L 321.934547 304.990125 
L 582.722111 313.54975 
z
" style="fill: #d0bbff"/>
   </g>
   <g id="patch_87">
    <path d="M 582.732979 313.211985 
C 582.734753 313.15569 582.73651 313.099394 582.738248 313.043098 
C 582.739987 312.986801 582.741707 312.930504 582.743408 312.874206 
L 321.934547 304.990125 
L 582.732979 313.211985 
z
" style="fill: #a1c9f4"/>
   </g>
   <g id="patch_88">
    <path d="M 582.743408 312.874206 
C 582.74511 312.817909 582.746794 312.761611 582.748459 312.705312 
C 582.750125 312.649013 582.751772 312.592714 582.753401 312.536414 
L 321.934547 304.990125 
L 582.743408 312.874206 
z
" style="fill: #ffb482"/>
   </g>
   <g id="patch_89">
    <path d="M 582.753401 312.536414 
C 582.75503 312.480115 582.75664 312.423814 582.758233 312.367514 
C 582.759825 312.311213 582.7614 312.254911 582.762956 312.19861 
L 321.934547 304.990125 
L 582.753401 312.536414 
z
" style="fill: #8de5a1"/>
   </g>
   <g id="patch_90">
    <path d="M 582.762956 312.19861 
C 582.763993 312.161075 582.765022 312.12354 582.766043 312.086005 
C 582.767064 312.04847 582.768077 312.010935 582.769082 311.9734 
L 321.934547 304.990125 
L 582.762956 312.19861 
z
" style="fill: #ff9f9b"/>
   </g>
   <g id="patch_91">
    <path d="M 582.769082 311.9734 
C 582.770087 311.935864 582.771084 311.898329 582.772073 311.860793 
C 582.773062 311.823257 582.774042 311.785721 582.775015 311.748185 
L 321.934547 304.990125 
L 582.769082 311.9734 
z
" style="fill: #d0bbff"/>
   </g>
   <g id="patch_92">
    <path d="M 582.775015 311.748185 
C 582.775987 311.710648 582.776952 311.673112 582.777908 311.635575 
C 582.778864 311.598038 582.779812 311.560502 582.780753 311.522964 
L 321.934547 304.990125 
L 582.775015 311.748185 
z
" style="fill: #a1c9f4"/>
   </g>
   <g id="patch_93">
    <path d="M 582.780753 311.522964 
C 582.781693 311.485427 582.782625 311.44789 582.783549 311.410353 
C 582.784473 311.372815 582.785388 311.335277 582.786296 311.297739 
L 321.934547 304.990125 
L 582.780753 311.522964 
z
" style="fill: #ffb482"/>
   </g>
   <g id="patch_94">
    <path d="M 582.786296 311.297739 
C 582.787204 311.260201 582.788103 311.222663 582.788995 311.185125 
C 582.789886 311.147587 582.79077 311.110048 582.791645 311.07251 
L 321.934547 304.990125 
L 582.786296 311.297739 
z
" style="fill: #8de5a1"/>
   </g>
   <g id="patch_95">
    <path d="M 582.791645 311.07251 
C 582.79252 311.034971 582.793387 310.997432 582.794247 310.959893 
C 582.795106 310.922354 582.795957 310.884815 582.796799 310.847275 
L 321.934547 304.990125 
L 582.791645 311.07251 
z
" style="fill: #ff9f9b"/>
   </g>
   <g id="patch_96">
    <path d="M 582.796799 310.847275 
C 582.797642 310.809736 582.798477 310.772196 582.799304 310.734657 
C 582.80013 310.697117 582.800949 310.659577 582.801759 310.622037 
L 321.934547 304.990125 
L 582.796799 310.847275 
z
" style="fill: #d0bbff"/>
   </g>
   <g id="patch_97">
    <path d="M 582.801759 310.622037 
C 582.80257 310.584497 582.803372 310.546956 582.804167 310.509416 
C 582.804961 310.471875 582.805747 310.434335 582.806525 310.396794 
L 321.934547 304.990125 
L 582.801759 310.622037 
z
" style="fill: #a1c9f4"/>
   </g>
   <g id="patch_98">
    <path d="M 582.806525 310.396794 
C 582.807303 310.359253 582.808073 310.321712 582.808835 310.284171 
C 582.809597 310.24663 582.81035 310.209089 582.811096 310.171547 
L 321.934547 304.990125 
L 582.806525 310.396794 
z
" style="fill: #ffb482"/>
   </g>
   <g id="patch_99">
    <path d="M 582.811096 310.171547 
C 582.811842 310.134006 582.812579 310.096464 582.813309 310.058922 
C 582.814038 310.02138 582.814759 309.983838 582.815473 309.946296 
L 321.934547 304.990125 
L 582.811096 310.171547 
z
" style="fill: #8de5a1"/>
   </g>
   <g id="patch_100">
    <path d="M 582.815473 309.946296 
C 582.816186 309.908754 582.816891 309.871212 582.817588 309.83367 
C 582.818285 309.796127 582.818974 309.758585 582.819655 309.721042 
L 321.934547 304.990125 
L 582.815473 309.946296 
z
" style="fill: #ff9f9b"/>
   </g>
   <g id="patch_101">
    <path d="M 582.819655 309.721042 
C 582.820335 309.683499 582.821008 309.645956 582.821673 309.608413 
C 582.822337 309.57087 582.822994 309.533327 582.823642 309.495784 
L 321.934547 304.990125 
L 582.819655 309.721042 
z
" style="fill: #d0bbff"/>
   </g>
   <g id="patch_102">
    <path d="M 582.823642 309.495784 
C 582.824291 309.458241 582.824931 309.420697 582.825563 309.383154 
C 582.826195 309.34561 582.826819 309.308066 582.827435 309.270523 
L 321.934547 304.990125 
L 582.823642 309.495784 
z
" style="fill: #a1c9f4"/>
   </g>
   <g id="patch_103">
    <path d="M 582.827435 309.270523 
C 582.828051 309.232979 582.828659 309.195435 582.829259 309.157891 
C 582.829859 309.120347 582.83045 309.082802 582.831034 309.045258 
L 321.934547 304.990125 
L 582.827435 309.270523 
z
" style="fill: #ffb482"/>
   </g>
   <g id="patch_104">
    <path d="M 582.831034 309.045258 
C 582.831617 309.007714 582.832193 308.970169 582.83276 308.932625 
C 582.833328 308.89508 582.833887 308.857535 582.834438 308.819991 
L 321.934547 304.990125 
L 582.831034 309.045258 
z
" style="fill: #8de5a1"/>
   </g>
   <g id="patch_105">
    <path d="M 582.834438 308.819991 
C 582.834989 308.782446 582.835532 308.744901 582.836067 308.707356 
C 582.836602 308.669811 582.837129 308.632266 582.837648 308.59472 
L 321.934547 304.990125 
L 582.834438 308.819991 
z
" style="fill: #ff9f9b"/>
   </g>
   <g id="patch_106">
    <path d="M 582.837648 308.59472 
C 582.838166 308.557175 582.838677 308.51963 582.839179 308.482084 
C 582.839682 308.444539 582.840176 308.406993 582.840663 308.369447 
L 321.934547 304.990125 
L 582.837648 308.59472 
z
" style="fill: #d0bbff"/>
   </g>
   <g id="patch_107">
    <path d="M 582.840663 308.369447 
C 582.841149 308.331901 582.841627 308.294356 582.842097 308.25681 
C 582.842567 308.219264 582.843029 308.181718 582.843483 308.144172 
L 321.934547 304.990125 
L 582.840663 308.369447 
z
" style="fill: #a1c9f4"/>
   </g>
   <g id="patch_108">
    <path d="M 582.843483 308.144172 
C 582.84371 308.125399 582.843935 308.106625 582.844158 308.087852 
C 582.844381 308.069079 582.844602 308.050306 582.84482 308.031533 
L 321.934547 304.990125 
L 582.843483 308.144172 
z
" style="fill: #ffb482"/>
   </g>
   <g id="patch_109">
    <path d="M 582.84482 308.031533 
C 582.845039 308.01276 582.845256 307.993987 582.845471 307.975213 
C 582.845686 307.95644 582.845898 307.937667 582.846109 307.918894 
L 321.934547 304.990125 
L 582.84482 308.031533 
z
" style="fill: #8de5a1"/>
   </g>
   <g id="patch_110">
    <path d="M 582.846109 307.918894 
C 582.84632 307.90012 582.846529 307.881347 582.846735 307.862574 
C 582.846942 307.843801 582.847147 307.825027 582.847349 307.806254 
L 321.934547 304.990125 
L 582.846109 307.918894 
z
" style="fill: #ff9f9b"/>
   </g>
   <g id="patch_111">
    <path d="M 582.847349 307.806254 
C 582.847552 307.787481 582.847752 307.768707 582.847951 307.749934 
C 582.84815 307.73116 582.848346 307.712387 582.848541 307.693614 
L 321.934547 304.990125 
L 582.847349 307.806254 
z
" style="fill: #d0bbff"/>
   </g>
   <g id="patch_112">
    <path d="M 582.848541 307.693614 
C 582.848735 307.67484 582.848928 307.656067 582.849118 307.637293 
C 582.849309 307.61852 582.849497 307.599746 582.849684 307.580973 
L 321.934547 304.990125 
L 582.848541 307.693614 
z
" style="fill: #a1c9f4"/>
   </g>
   <g id="patch_113">
    <path d="M 582.849684 307.580973 
C 582.84987 307.562199 582.850054 307.543426 582.850237 307.524652 
C 582.850419 307.505879 582.850599 307.487105 582.850778 307.468331 
L 321.934547 304.990125 
L 582.849684 307.580973 
z
" style="fill: #ffb482"/>
   </g>
   <g id="patch_114">
    <path d="M 582.850778 307.468331 
C 582.850956 307.449558 582.851132 307.430784 582.851307 307.412011 
C 582.851481 307.393237 582.851653 307.374463 582.851823 307.35569 
L 321.934547 304.990125 
L 582.850778 307.468331 
z
" style="fill: #8de5a1"/>
   </g>
   <g id="patch_115">
    <path d="M 582.851823 307.35569 
C 582.851994 307.336916 582.852162 307.318142 582.852328 307.299369 
C 582.852494 307.280595 582.852658 307.261821 582.85282 307.243047 
L 321.934547 304.990125 
L 582.851823 307.35569 
z
" style="fill: #ff9f9b"/>
   </g>
   <g id="patch_116">
    <path d="M 582.85282 307.243047 
C 582.852982 307.224274 582.853142 307.2055 582.8533 307.186726 
C 582.853459 307.167952 582.853615 307.149179 582.853769 307.130405 
L 321.934547 304.990125 
L 582.85282 307.243047 
z
" style="fill: #d0bbff"/>
   </g>
   <g id="patch_117">
    <path d="M 582.853769 307.130405 
C 582.853923 307.111631 582.854075 307.092857 582.854224 307.074083 
C 582.854374 307.055309 582.854522 307.036536 582.854668 307.017762 
L 321.934547 304.990125 
L 582.853769 307.130405 
z
" style="fill: #a1c9f4"/>
   </g>
   <g id="patch_118">
    <path d="M 582.854668 307.017762 
C 582.854814 306.998988 582.854958 306.980214 582.8551 306.96144 
C 582.855242 306.942666 582.855381 306.923892 582.855519 306.905118 
L 321.934547 304.990125 
L 582.854668 307.017762 
z
" style="fill: #ffb482"/>
   </g>
   <g id="patch_119">
    <path d="M 582.855519 306.905118 
C 582.855657 306.886344 582.855793 306.86757 582.855927 306.848797 
C 582.85606 306.830023 582.856192 306.811249 582.856322 306.792475 
L 321.934547 304.990125 
L 582.855519 306.905118 
z
" style="fill: #8de5a1"/>
   </g>
   <g id="patch_120">
    <path d="M 582.856322 306.792475 
C 582.856451 306.773701 582.856579 306.754927 582.856705 306.736153 
C 582.85683 306.717379 582.856954 306.698605 582.857075 306.67983 
L 321.934547 304.990125 
L 582.856322 306.792475 
z
" style="fill: #ff9f9b"/>
   </g>
   <g id="patch_121">
    <path d="M 582.857075 306.67983 
C 582.857197 306.661056 582.857317 306.642282 582.857434 306.623508 
C 582.857552 306.604734 582.857667 306.58596 582.857781 306.567186 
L 321.934547 304.990125 
L 582.857075 306.67983 
z
" style="fill: #d0bbff"/>
   </g>
   <g id="patch_122">
    <path d="M 582.857781 306.567186 
C 582.857894 306.548412 582.858006 306.529638 582.858115 306.510864 
C 582.858224 306.49209 582.858332 306.473316 582.858437 306.454541 
L 321.934547 304.990125 
L 582.857781 306.567186 
z
" style="fill: #a1c9f4"/>
   </g>
   <g id="patch_123">
    <path d="M 582.858437 306.454541 
C 582.858543 306.435767 582.858646 306.416993 582.858747 306.398219 
C 582.858848 306.379445 582.858948 306.360671 582.859045 306.341896 
L 321.934547 304.990125 
L 582.858437 306.454541 
z
" style="fill: #ffb482"/>
   </g>
   <g id="patch_124">
    <path d="M 582.859045 306.341896 
C 582.859142 306.323122 582.859238 306.304348 582.859331 306.285574 
C 582.859424 306.2668 582.859515 306.248025 582.859604 306.229251 
L 321.934547 304.990125 
L 582.859045 306.341896 
z
" style="fill: #8de5a1"/>
   </g>
   <g id="patch_125">
    <path d="M 582.859604 306.229251 
C 582.859693 306.210477 582.859781 306.191703 582.859866 306.172928 
C 582.859951 306.154154 582.860034 306.13538 582.860115 306.116606 
L 321.934547 304.990125 
L 582.859604 306.229251 
z
" style="fill: #ff9f9b"/>
   </g>
   <g id="patch_126">
    <path d="M 582.860115 306.116606 
C 582.860196 306.097831 582.860275 306.079057 582.860352 306.060283 
C 582.860429 306.041509 582.860504 306.022734 582.860577 306.00396 
L 321.934547 304.990125 
L 582.860115 306.116606 
z
" style="fill: #d0bbff"/>
   </g>
   <g id="patch_127">
    <path d="M 582.860577 306.00396 
C 582.86065 305.985186 582.860721 305.966411 582.86079 305.947637 
C 582.860859 305.928863 582.860925 305.910088 582.86099 305.891314 
L 321.934547 304.990125 
L 582.860577 306.00396 
z
" style="fill: #a1c9f4"/>
   </g>
   <g id="patch_128">
    <path d="M 582.86099 305.891314 
C 582.861055 305.87254 582.861118 305.853765 582.861179 305.834991 
C 582.86124 305.816217 582.861298 305.797442 582.861355 305.778668 
L 321.934547 304.990125 
L 582.86099 305.891314 
z
" style="fill: #ffb482"/>
   </g>
   <g id="patch_129">
    <path d="M 582.861355 305.778668 
C 582.861412 305.759894 582.861467 305.741119 582.861519 305.722345 
C 582.861572 305.703571 582.861623 305.684796 582.861671 305.666022 
L 321.934547 304.990125 
L 582.861355 305.778668 
z
" style="fill: #8de5a1"/>
   </g>
   <g id="patch_130">
    <path d="M 582.861671 305.666022 
C 582.86172 305.647248 582.861766 305.628473 582.861811 305.609699 
C 582.861856 305.590924 582.861898 305.57215 582.861939 305.553376 
L 321.934547 304.990125 
L 582.861671 305.666022 
z
" style="fill: #ff9f9b"/>
   </g>
   <g id="patch_131">
    <path d="M 582.861939 305.553376 
C 582.861979 305.534601 582.862018 305.515827 582.862054 305.497052 
C 582.862091 305.478278 582.862125 305.459504 582.862158 305.440729 
L 321.934547 304.990125 
L 582.861939 305.553376 
z
" style="fill: #d0bbff"/>
   </g>
   <g id="patch_132">
    <path d="M 582.862158 305.440729 
C 582.86219 305.421955 582.86222 305.40318 582.862249 305.384406 
C 582.862277 305.365632 582.862303 305.346857 582.862328 305.328083 
L 321.934547 304.990125 
L 582.862158 305.440729 
z
" style="fill: #a1c9f4"/>
   </g>
   <g id="patch_133">
    <path d="M 582.862328 305.328083 
C 582.862352 305.309308 582.862374 305.290534 582.862395 305.271759 
C 582.862415 305.252985 582.862433 305.234211 582.862449 305.215436 
L 321.934547 304.990125 
L 582.862328 305.328083 
z
" style="fill: #ffb482"/>
   </g>
   <g id="patch_134">
    <path d="M 582.862449 305.215436 
C 582.862466 305.196662 582.86248 305.177887 582.862492 305.159113 
C 582.862504 305.140338 582.862514 305.121564 582.862522 305.10279 
L 321.934547 304.990125 
L 582.862449 305.215436 
z
" style="fill: #8de5a1"/>
   </g>
   <g id="patch_135">
    <path d="M 582.862522 305.10279 
C 582.86253 305.084015 582.862536 305.065241 582.86254 305.046466 
C 582.862545 305.027692 582.862547 305.008917 582.862547 304.990143 
L 321.934547 304.990125 
L 582.862522 305.10279 
z
" style="fill: #ff9f9b"/>
   </g>
   <g id="matplotlib.axis_1"/>
   <g id="matplotlib.axis_2"/>
   <g id="text_1">
    <!-- Julian Bashir -->
    <g transform="translate(498.763691 81.668998)scale(0.1 -0.1)">
     <defs>
      <path id="DejaVuSans-4a" d="M 628 4666 
L 1259 4666 
L 1259 325 
Q 1259 -519 939 -900 
Q 619 -1281 -91 -1281 
L -331 -1281 
L -331 -750 
L -134 -750 
Q 284 -750 456 -515 
Q 628 -281 628 325 
L 628 4666 
z
" transform="scale(0.015625)"/>
      <path id="DejaVuSans-75" d="M 544 1381 
L 544 3500 
L 1119 3500 
L 1119 1403 
Q 1119 906 1312 657 
Q 1506 409 1894 409 
Q 2359 409 2629 706 
Q 2900 1003 2900 1516 
L 2900 3500 
L 3475 3500 
L 3475 0 
L 2900 0 
L 2900 538 
Q 2691 219 2414 64 
Q 2138 -91 1772 -91 
Q 1169 -91 856 284 
Q 544 659 544 1381 
z
M 1991 3584 
L 1991 3584 
z
" transform="scale(0.015625)"/>
      <path id="DejaVuSans-6c" d="M 603 4863 
L 1178 4863 
L 1178 0 
L 603 0 
L 603 4863 
z
" transform="scale(0.015625)"/>
      <path id="DejaVuSans-69" d="M 603 3500 
L 1178 3500 
L 1178 0 
L 603 0 
L 603 3500 
z
M 603 4863 
L 1178 4863 
L 1178 4134 
L 603 4134 
L 603 4863 
z
" transform="scale(0.015625)"/>
      <path id="DejaVuSans-61" d="M 2194 1759 
Q 1497 1759 1228 1600 
Q 959 1441 959 1056 
Q 959 750 1161 570 
Q 1363 391 1709 391 
Q 2188 391 2477 730 
Q 2766 1069 2766 1631 
L 2766 1759 
L 2194 1759 
z
M 3341 1997 
L 3341 0 
L 2766 0 
L 2766 531 
Q 2569 213 2275 61 
Q 1981 -91 1556 -91 
Q 1019 -91 701 211 
Q 384 513 384 1019 
Q 384 1609 779 1909 
Q 1175 2209 1959 2209 
L 2766 2209 
L 2766 2266 
Q 2766 2663 2505 2880 
Q 2244 3097 1772 3097 
Q 1472 3097 1187 3025 
Q 903 2953 641 2809 
L 641 3341 
Q 956 3463 1253 3523 
Q 1550 3584 1831 3584 
Q 2591 3584 2966 3190 
Q 3341 2797 3341 1997 
z
" transform="scale(0.015625)"/>
      <path id="DejaVuSans-6e" d="M 3513 2113 
L 3513 0 
L 2938 0 
L 2938 2094 
Q 2938 2591 2744 2837 
Q 2550 3084 2163 3084 
Q 1697 3084 1428 2787 
Q 1159 2491 1159 1978 
L 1159 0 
L 581 0 
L 581 3500 
L 1159 3500 
L 1159 2956 
Q 1366 3272 1645 3428 
Q 1925 3584 2291 3584 
Q 2894 3584 3203 3211 
Q 3513 2838 3513 2113 
z
" transform="scale(0.015625)"/>
      <path id="DejaVuSans-20" transform="scale(0.015625)"/>
      <path id="DejaVuSans-42" d="M 1259 2228 
L 1259 519 
L 2272 519 
Q 2781 519 3026 730 
Q 3272 941 3272 1375 
Q 3272 1813 3026 2020 
Q 2781 2228 2272 2228 
L 1259 2228 
z
M 1259 4147 
L 1259 2741 
L 2194 2741 
Q 2656 2741 2882 2914 
Q 3109 3088 3109 3444 
Q 3109 3797 2882 3972 
Q 2656 4147 2194 4147 
L 1259 4147 
z
M 628 4666 
L 2241 4666 
Q 2963 4666 3353 4366 
Q 3744 4066 3744 3513 
Q 3744 3084 3544 2831 
Q 3344 2578 2956 2516 
Q 3422 2416 3680 2098 
Q 3938 1781 3938 1306 
Q 3938 681 3513 340 
Q 3088 0 2303 0 
L 628 0 
L 628 4666 
z
" transform="scale(0.015625)"/>
      <path id="DejaVuSans-73" d="M 2834 3397 
L 2834 2853 
Q 2591 2978 2328 3040 
Q 2066 3103 1784 3103 
Q 1356 3103 1142 2972 
Q 928 2841 928 2578 
Q 928 2378 1081 2264 
Q 1234 2150 1697 2047 
L 1894 2003 
Q 2506 1872 2764 1633 
Q 3022 1394 3022 966 
Q 3022 478 2636 193 
Q 2250 -91 1575 -91 
Q 1294 -91 989 -36 
Q 684 19 347 128 
L 347 722 
Q 666 556 975 473 
Q 1284 391 1588 391 
Q 1994 391 2212 530 
Q 2431 669 2431 922 
Q 2431 1156 2273 1281 
Q 2116 1406 1581 1522 
L 1381 1569 
Q 847 1681 609 1914 
Q 372 2147 372 2553 
Q 372 3047 722 3315 
Q 1072 3584 1716 3584 
Q 2034 3584 2315 3537 
Q 2597 3491 2834 3397 
z
" transform="scale(0.015625)"/>
      <path id="DejaVuSans-68" d="M 3513 2113 
L 3513 0 
L 2938 0 
L 2938 2094 
Q 2938 2591 2744 2837 
Q 2550 3084 2163 3084 
Q 1697 3084 1428 2787 
Q 1159 2491 1159 1978 
L 1159 0 
L 581 0 
L 581 4863 
L 1159 4863 
L 1159 2956 
Q 1366 3272 1645 3428 
Q 1925 3584 2291 3584 
Q 2894 3584 3203 3211 
Q 3513 2838 3513 2113 
z
" transform="scale(0.015625)"/>
      <path id="DejaVuSans-72" d="M 2631 2963 
Q 2534 3019 2420 3045 
Q 2306 3072 2169 3072 
Q 1681 3072 1420 2755 
Q 1159 2438 1159 1844 
L 1159 0 
L 581 0 
L 581 3500 
L 1159 3500 
L 1159 2956 
Q 1341 3275 1631 3429 
Q 1922 3584 2338 3584 
Q 2397 3584 2469 3576 
Q 2541 3569 2628 3553 
L 2631 2963 
z
" transform="scale(0.015625)"/>
     </defs>
     <use xlink:href="#DejaVuSans-4a"/>
     <use xlink:href="#DejaVuSans-75" x="29.492188"/>
     <use xlink:href="#DejaVuSans-6c" x="92.871094"/>
     <use xlink:href="#DejaVuSans-69" x="120.654297"/>
     <use xlink:href="#DejaVuSans-61" x="148.4375"/>
     <use xlink:href="#DejaVuSans-6e" x="209.716797"/>
     <use xlink:href="#DejaVuSans-20" x="273.095703"/>
     <use xlink:href="#DejaVuSans-42" x="304.882812"/>
     <use xlink:href="#DejaVuSans-61" x="373.486328"/>
     <use xlink:href="#DejaVuSans-73" x="434.765625"/>
     <use xlink:href="#DejaVuSans-68" x="486.865234"/>
     <use xlink:href="#DejaVuSans-69" x="550.244141"/>
     <use xlink:href="#DejaVuSans-72" x="578.027344"/>
    </g>
   </g>
   <g id="text_2">
    <!-- 29% -->
    <g transform="translate(407.273526 184.432863)scale(0.1 -0.1)">
     <defs>
      <path id="DejaVuSans-32" d="M 1228 531 
L 3431 531 
L 3431 0 
L 469 0 
L 469 531 
Q 828 903 1448 1529 
Q 2069 2156 2228 2338 
Q 2531 2678 2651 2914 
Q 2772 3150 2772 3378 
Q 2772 3750 2511 3984 
Q 2250 4219 1831 4219 
Q 1534 4219 1204 4116 
Q 875 4013 500 3803 
L 500 4441 
Q 881 4594 1212 4672 
Q 1544 4750 1819 4750 
Q 2544 4750 2975 4387 
Q 3406 4025 3406 3419 
Q 3406 3131 3298 2873 
Q 3191 2616 2906 2266 
Q 2828 2175 2409 1742 
Q 1991 1309 1228 531 
z
" transform="scale(0.015625)"/>
      <path id="DejaVuSans-39" d="M 703 97 
L 703 672 
Q 941 559 1184 500 
Q 1428 441 1663 441 
Q 2288 441 2617 861 
Q 2947 1281 2994 2138 
Q 2813 1869 2534 1725 
Q 2256 1581 1919 1581 
Q 1219 1581 811 2004 
Q 403 2428 403 3163 
Q 403 3881 828 4315 
Q 1253 4750 1959 4750 
Q 2769 4750 3195 4129 
Q 3622 3509 3622 2328 
Q 3622 1225 3098 567 
Q 2575 -91 1691 -91 
Q 1453 -91 1209 -44 
Q 966 3 703 97 
z
M 1959 2075 
Q 2384 2075 2632 2365 
Q 2881 2656 2881 3163 
Q 2881 3666 2632 3958 
Q 2384 4250 1959 4250 
Q 1534 4250 1286 3958 
Q 1038 3666 1038 3163 
Q 1038 2656 1286 2365 
Q 1534 2075 1959 2075 
z
" transform="scale(0.015625)"/>
      <path id="DejaVuSans-25" d="M 4653 2053 
Q 4381 2053 4226 1822 
Q 4072 1591 4072 1178 
Q 4072 772 4226 539 
Q 4381 306 4653 306 
Q 4919 306 5073 539 
Q 5228 772 5228 1178 
Q 5228 1588 5073 1820 
Q 4919 2053 4653 2053 
z
M 4653 2450 
Q 5147 2450 5437 2106 
Q 5728 1763 5728 1178 
Q 5728 594 5436 251 
Q 5144 -91 4653 -91 
Q 4153 -91 3862 251 
Q 3572 594 3572 1178 
Q 3572 1766 3864 2108 
Q 4156 2450 4653 2450 
z
M 1428 4353 
Q 1159 4353 1004 4120 
Q 850 3888 850 3481 
Q 850 3069 1003 2837 
Q 1156 2606 1428 2606 
Q 1700 2606 1854 2837 
Q 2009 3069 2009 3481 
Q 2009 3884 1853 4118 
Q 1697 4353 1428 4353 
z
M 4250 4750 
L 4750 4750 
L 1831 -91 
L 1331 -91 
L 4250 4750 
z
M 1428 4750 
Q 1922 4750 2215 4408 
Q 2509 4066 2509 3481 
Q 2509 2891 2217 2550 
Q 1925 2209 1428 2209 
Q 931 2209 642 2551 
Q 353 2894 353 3481 
Q 353 4063 643 4406 
Q 934 4750 1428 4750 
z
" transform="scale(0.015625)"/>
     </defs>
     <use xlink:href="#DejaVuSans-32"/>
     <use xlink:href="#DejaVuSans-39" x="63.623047"/>
     <use xlink:href="#DejaVuSans-25" x="127.246094"/>
    </g>
   </g>
   <g id="text_3">
    <!-- Elim Garak -->
    <g transform="translate(7.2 186.24652)scale(0.1 -0.1)">
     <defs>
      <path id="DejaVuSans-45" d="M 628 4666 
L 3578 4666 
L 3578 4134 
L 1259 4134 
L 1259 2753 
L 3481 2753 
L 3481 2222 
L 1259 2222 
L 1259 531 
L 3634 531 
L 3634 0 
L 628 0 
L 628 4666 
z
" transform="scale(0.015625)"/>
      <path id="DejaVuSans-6d" d="M 3328 2828 
Q 3544 3216 3844 3400 
Q 4144 3584 4550 3584 
Q 5097 3584 5394 3201 
Q 5691 2819 5691 2113 
L 5691 0 
L 5113 0 
L 5113 2094 
Q 5113 2597 4934 2840 
Q 4756 3084 4391 3084 
Q 3944 3084 3684 2787 
Q 3425 2491 3425 1978 
L 3425 0 
L 2847 0 
L 2847 2094 
Q 2847 2600 2669 2842 
Q 2491 3084 2119 3084 
Q 1678 3084 1418 2786 
Q 1159 2488 1159 1978 
L 1159 0 
L 581 0 
L 581 3500 
L 1159 3500 
L 1159 2956 
Q 1356 3278 1631 3431 
Q 1906 3584 2284 3584 
Q 2666 3584 2933 3390 
Q 3200 3197 3328 2828 
z
" transform="scale(0.015625)"/>
      <path id="DejaVuSans-47" d="M 3809 666 
L 3809 1919 
L 2778 1919 
L 2778 2438 
L 4434 2438 
L 4434 434 
Q 4069 175 3628 42 
Q 3188 -91 2688 -91 
Q 1594 -91 976 548 
Q 359 1188 359 2328 
Q 359 3472 976 4111 
Q 1594 4750 2688 4750 
Q 3144 4750 3555 4637 
Q 3966 4525 4313 4306 
L 4313 3634 
Q 3963 3931 3569 4081 
Q 3175 4231 2741 4231 
Q 1884 4231 1454 3753 
Q 1025 3275 1025 2328 
Q 1025 1384 1454 906 
Q 1884 428 2741 428 
Q 3075 428 3337 486 
Q 3600 544 3809 666 
z
" transform="scale(0.015625)"/>
      <path id="DejaVuSans-6b" d="M 581 4863 
L 1159 4863 
L 1159 1991 
L 2875 3500 
L 3609 3500 
L 1753 1863 
L 3688 0 
L 2938 0 
L 1159 1709 
L 1159 0 
L 581 0 
L 581 4863 
z
" transform="scale(0.015625)"/>
     </defs>
     <use xlink:href="#DejaVuSans-45"/>
     <use xlink:href="#DejaVuSans-6c" x="63.183594"/>
     <use xlink:href="#DejaVuSans-69" x="90.966797"/>
     <use xlink:href="#DejaVuSans-6d" x="118.75"/>
     <use xlink:href="#DejaVuSans-20" x="216.162109"/>
     <use xlink:href="#DejaVuSans-47" x="247.949219"/>
     <use xlink:href="#DejaVuSans-61" x="325.439453"/>
     <use xlink:href="#DejaVuSans-72" x="386.71875"/>
     <use xlink:href="#DejaVuSans-61" x="427.832031"/>
     <use xlink:href="#DejaVuSans-6b" x="489.111328"/>
    </g>
   </g>
   <g id="text_4">
    <!-- 28% -->
    <g transform="translate(168.98424 241.475147)scale(0.1 -0.1)">
     <defs>
      <path id="DejaVuSans-38" d="M 2034 2216 
Q 1584 2216 1326 1975 
Q 1069 1734 1069 1313 
Q 1069 891 1326 650 
Q 1584 409 2034 409 
Q 2484 409 2743 651 
Q 3003 894 3003 1313 
Q 3003 1734 2745 1975 
Q 2488 2216 2034 2216 
z
M 1403 2484 
Q 997 2584 770 2862 
Q 544 3141 544 3541 
Q 544 4100 942 4425 
Q 1341 4750 2034 4750 
Q 2731 4750 3128 4425 
Q 3525 4100 3525 3541 
Q 3525 3141 3298 2862 
Q 3072 2584 2669 2484 
Q 3125 2378 3379 2068 
Q 3634 1759 3634 1313 
Q 3634 634 3220 271 
Q 2806 -91 2034 -91 
Q 1263 -91 848 271 
Q 434 634 434 1313 
Q 434 1759 690 2068 
Q 947 2378 1403 2484 
z
M 1172 3481 
Q 1172 3119 1398 2916 
Q 1625 2713 2034 2713 
Q 2441 2713 2670 2916 
Q 2900 3119 2900 3481 
Q 2900 3844 2670 4047 
Q 2441 4250 2034 4250 
Q 1625 4250 1398 4047 
Q 1172 3844 1172 3481 
z
" transform="scale(0.015625)"/>
     </defs>
     <use xlink:href="#DejaVuSans-32"/>
     <use xlink:href="#DejaVuSans-38" x="63.623047"/>
     <use xlink:href="#DejaVuSans-25" x="127.246094"/>
    </g>
   </g>
   <g id="text_5">
    <!-- Kira Nerys -->
    <g transform="translate(46.575362 487.540082)scale(0.1 -0.1)">
     <defs>
      <path id="DejaVuSans-4b" d="M 628 4666 
L 1259 4666 
L 1259 2694 
L 3353 4666 
L 4166 4666 
L 1850 2491 
L 4331 0 
L 3500 0 
L 1259 2247 
L 1259 0 
L 628 0 
L 628 4666 
z
" transform="scale(0.015625)"/>
      <path id="DejaVuSans-4e" d="M 628 4666 
L 1478 4666 
L 3547 763 
L 3547 4666 
L 4159 4666 
L 4159 0 
L 3309 0 
L 1241 3903 
L 1241 0 
L 628 0 
L 628 4666 
z
" transform="scale(0.015625)"/>
      <path id="DejaVuSans-65" d="M 3597 1894 
L 3597 1613 
L 953 1613 
Q 991 1019 1311 708 
Q 1631 397 2203 397 
Q 2534 397 2845 478 
Q 3156 559 3463 722 
L 3463 178 
Q 3153 47 2828 -22 
Q 2503 -91 2169 -91 
Q 1331 -91 842 396 
Q 353 884 353 1716 
Q 353 2575 817 3079 
Q 1281 3584 2069 3584 
Q 2775 3584 3186 3129 
Q 3597 2675 3597 1894 
z
M 3022 2063 
Q 3016 2534 2758 2815 
Q 2500 3097 2075 3097 
Q 1594 3097 1305 2825 
Q 1016 2553 972 2059 
L 3022 2063 
z
" transform="scale(0.015625)"/>
      <path id="DejaVuSans-79" d="M 2059 -325 
Q 1816 -950 1584 -1140 
Q 1353 -1331 966 -1331 
L 506 -1331 
L 506 -850 
L 844 -850 
Q 1081 -850 1212 -737 
Q 1344 -625 1503 -206 
L 1606 56 
L 191 3500 
L 800 3500 
L 1894 763 
L 2988 3500 
L 3597 3500 
L 2059 -325 
z
" transform="scale(0.015625)"/>
     </defs>
     <use xlink:href="#DejaVuSans-4b"/>
     <use xlink:href="#DejaVuSans-69" x="65.576172"/>
     <use xlink:href="#DejaVuSans-72" x="93.359375"/>
     <use xlink:href="#DejaVuSans-61" x="134.472656"/>
     <use xlink:href="#DejaVuSans-20" x="195.751953"/>
     <use xlink:href="#DejaVuSans-4e" x="227.539062"/>
     <use xlink:href="#DejaVuSans-65" x="302.34375"/>
     <use xlink:href="#DejaVuSans-72" x="363.867188"/>
     <use xlink:href="#DejaVuSans-79" x="404.980469"/>
     <use xlink:href="#DejaVuSans-73" x="464.160156"/>
    </g>
   </g>
   <g id="text_6">
    <!-- 7% -->
    <g transform="translate(191.966539 405.81709)scale(0.1 -0.1)">
     <defs>
      <path id="DejaVuSans-37" d="M 525 4666 
L 3525 4666 
L 3525 4397 
L 1831 0 
L 1172 0 
L 2766 4134 
L 525 4134 
L 525 4666 
z
" transform="scale(0.015625)"/>
     </defs>
     <use xlink:href="#DejaVuSans-37"/>
     <use xlink:href="#DejaVuSans-25" x="63.623047"/>
    </g>
   </g>
   <g id="text_7">
    <!-- Jadzia Dax -->
    <g transform="translate(128.159289 557.597468)scale(0.1 -0.1)">
     <defs>
      <path id="DejaVuSans-64" d="M 2906 2969 
L 2906 4863 
L 3481 4863 
L 3481 0 
L 2906 0 
L 2906 525 
Q 2725 213 2448 61 
Q 2172 -91 1784 -91 
Q 1150 -91 751 415 
Q 353 922 353 1747 
Q 353 2572 751 3078 
Q 1150 3584 1784 3584 
Q 2172 3584 2448 3432 
Q 2725 3281 2906 2969 
z
M 947 1747 
Q 947 1113 1208 752 
Q 1469 391 1925 391 
Q 2381 391 2643 752 
Q 2906 1113 2906 1747 
Q 2906 2381 2643 2742 
Q 2381 3103 1925 3103 
Q 1469 3103 1208 2742 
Q 947 2381 947 1747 
z
" transform="scale(0.015625)"/>
      <path id="DejaVuSans-7a" d="M 353 3500 
L 3084 3500 
L 3084 2975 
L 922 459 
L 3084 459 
L 3084 0 
L 275 0 
L 275 525 
L 2438 3041 
L 353 3041 
L 353 3500 
z
" transform="scale(0.015625)"/>
      <path id="DejaVuSans-44" d="M 1259 4147 
L 1259 519 
L 2022 519 
Q 2988 519 3436 956 
Q 3884 1394 3884 2338 
Q 3884 3275 3436 3711 
Q 2988 4147 2022 4147 
L 1259 4147 
z
M 628 4666 
L 1925 4666 
Q 3281 4666 3915 4102 
Q 4550 3538 4550 2338 
Q 4550 1131 3912 565 
Q 3275 0 1925 0 
L 628 0 
L 628 4666 
z
" transform="scale(0.015625)"/>
      <path id="DejaVuSans-78" d="M 3513 3500 
L 2247 1797 
L 3578 0 
L 2900 0 
L 1881 1375 
L 863 0 
L 184 0 
L 1544 1831 
L 300 3500 
L 978 3500 
L 1906 2253 
L 2834 3500 
L 3513 3500 
z
" transform="scale(0.015625)"/>
     </defs>
     <use xlink:href="#DejaVuSans-4a"/>
     <use xlink:href="#DejaVuSans-61" x="29.492188"/>
     <use xlink:href="#DejaVuSans-64" x="90.771484"/>
     <use xlink:href="#DejaVuSans-7a" x="154.248047"/>
     <use xlink:href="#DejaVuSans-69" x="206.738281"/>
     <use xlink:href="#DejaVuSans-61" x="234.521484"/>
     <use xlink:href="#DejaVuSans-20" x="295.800781"/>
     <use xlink:href="#DejaVuSans-44" x="327.587891"/>
     <use xlink:href="#DejaVuSans-61" x="404.589844"/>
     <use xlink:href="#DejaVuSans-78" x="465.869141"/>
    </g>
   </g>
   <g id="text_8">
    <!-- 5% -->
    <g transform="translate(236.946693 444.03021)scale(0.1 -0.1)">
     <defs>
      <path id="DejaVuSans-35" d="M 691 4666 
L 3169 4666 
L 3169 4134 
L 1269 4134 
L 1269 2991 
Q 1406 3038 1543 3061 
Q 1681 3084 1819 3084 
Q 2600 3084 3056 2656 
Q 3513 2228 3513 1497 
Q 3513 744 3044 326 
Q 2575 -91 1722 -91 
Q 1428 -91 1123 -41 
Q 819 9 494 109 
L 494 744 
Q 775 591 1075 516 
Q 1375 441 1709 441 
Q 2250 441 2565 725 
Q 2881 1009 2881 1497 
Q 2881 1984 2565 2268 
Q 2250 2553 1709 2553 
Q 1456 2553 1204 2497 
Q 953 2441 691 2322 
L 691 4666 
z
" transform="scale(0.015625)"/>
     </defs>
     <use xlink:href="#DejaVuSans-35"/>
     <use xlink:href="#DejaVuSans-25" x="63.623047"/>
    </g>
   </g>
   <g id="text_9">
    <!-- Odo -->
    <g transform="translate(241.270189 588.35919)scale(0.1 -0.1)">
     <defs>
      <path id="DejaVuSans-4f" d="M 2522 4238 
Q 1834 4238 1429 3725 
Q 1025 3213 1025 2328 
Q 1025 1447 1429 934 
Q 1834 422 2522 422 
Q 3209 422 3611 934 
Q 4013 1447 4013 2328 
Q 4013 3213 3611 3725 
Q 3209 4238 2522 4238 
z
M 2522 4750 
Q 3503 4750 4090 4092 
Q 4678 3434 4678 2328 
Q 4678 1225 4090 567 
Q 3503 -91 2522 -91 
Q 1538 -91 948 565 
Q 359 1222 359 2328 
Q 359 3434 948 4092 
Q 1538 4750 2522 4750 
z
" transform="scale(0.015625)"/>
      <path id="DejaVuSans-6f" d="M 1959 3097 
Q 1497 3097 1228 2736 
Q 959 2375 959 1747 
Q 959 1119 1226 758 
Q 1494 397 1959 397 
Q 2419 397 2687 759 
Q 2956 1122 2956 1747 
Q 2956 2369 2687 2733 
Q 2419 3097 1959 3097 
z
M 1959 3584 
Q 2709 3584 3137 3096 
Q 3566 2609 3566 1747 
Q 3566 888 3137 398 
Q 2709 -91 1959 -91 
Q 1206 -91 779 398 
Q 353 888 353 1747 
Q 353 2609 779 3096 
Q 1206 3584 1959 3584 
z
" transform="scale(0.015625)"/>
     </defs>
     <use xlink:href="#DejaVuSans-4f"/>
     <use xlink:href="#DejaVuSans-64" x="78.710938"/>
     <use xlink:href="#DejaVuSans-6f" x="142.1875"/>
    </g>
   </g>
   <g id="text_10">
    <!-- 5% -->
    <g transform="translate(281.097809 460.809331)scale(0.1 -0.1)">
     <use xlink:href="#DejaVuSans-35"/>
     <use xlink:href="#DejaVuSans-25" x="63.623047"/>
    </g>
   </g>
   <g id="text_11">
    <!-- Quark -->
    <g transform="translate(332.216963 594.586059)scale(0.1 -0.1)">
     <defs>
      <path id="DejaVuSans-51" d="M 2522 4238 
Q 1834 4238 1429 3725 
Q 1025 3213 1025 2328 
Q 1025 1447 1429 934 
Q 1834 422 2522 422 
Q 3209 422 3611 934 
Q 4013 1447 4013 2328 
Q 4013 3213 3611 3725 
Q 3209 4238 2522 4238 
z
M 3406 84 
L 4238 -825 
L 3475 -825 
L 2784 -78 
Q 2681 -84 2626 -87 
Q 2572 -91 2522 -91 
Q 1538 -91 948 567 
Q 359 1225 359 2328 
Q 359 3434 948 4092 
Q 1538 4750 2522 4750 
Q 3503 4750 4090 4092 
Q 4678 3434 4678 2328 
Q 4678 1516 4351 937 
Q 4025 359 3406 84 
z
" transform="scale(0.015625)"/>
     </defs>
     <use xlink:href="#DejaVuSans-51"/>
     <use xlink:href="#DejaVuSans-75" x="78.710938"/>
     <use xlink:href="#DejaVuSans-61" x="142.089844"/>
     <use xlink:href="#DejaVuSans-72" x="203.369141"/>
     <use xlink:href="#DejaVuSans-6b" x="244.482422"/>
    </g>
   </g>
   <g id="text_12">
    <!-- 3% -->
    <g transform="translate(319.611106 464.205805)scale(0.1 -0.1)">
     <defs>
      <path id="DejaVuSans-33" d="M 2597 2516 
Q 3050 2419 3304 2112 
Q 3559 1806 3559 1356 
Q 3559 666 3084 287 
Q 2609 -91 1734 -91 
Q 1441 -91 1130 -33 
Q 819 25 488 141 
L 488 750 
Q 750 597 1062 519 
Q 1375 441 1716 441 
Q 2309 441 2620 675 
Q 2931 909 2931 1356 
Q 2931 1769 2642 2001 
Q 2353 2234 1838 2234 
L 1294 2234 
L 1294 2753 
L 1863 2753 
Q 2328 2753 2575 2939 
Q 2822 3125 2822 3475 
Q 2822 3834 2567 4026 
Q 2313 4219 1838 4219 
Q 1578 4219 1281 4162 
Q 984 4106 628 3988 
L 628 4550 
Q 988 4650 1302 4700 
Q 1616 4750 1894 4750 
Q 2613 4750 3031 4423 
Q 3450 4097 3450 3541 
Q 3450 3153 3228 2886 
Q 3006 2619 2597 2516 
z
" transform="scale(0.015625)"/>
     </defs>
     <use xlink:href="#DejaVuSans-33"/>
     <use xlink:href="#DejaVuSans-25" x="63.623047"/>
    </g>
   </g>
   <g id="text_13">
    <!-- Skrain Dukat -->
    <g transform="translate(379.167052 589.006287)scale(0.1 -0.1)">
     <defs>
      <path id="DejaVuSans-53" d="M 3425 4513 
L 3425 3897 
Q 3066 4069 2747 4153 
Q 2428 4238 2131 4238 
Q 1616 4238 1336 4038 
Q 1056 3838 1056 3469 
Q 1056 3159 1242 3001 
Q 1428 2844 1947 2747 
L 2328 2669 
Q 3034 2534 3370 2195 
Q 3706 1856 3706 1288 
Q 3706 609 3251 259 
Q 2797 -91 1919 -91 
Q 1588 -91 1214 -16 
Q 841 59 441 206 
L 441 856 
Q 825 641 1194 531 
Q 1563 422 1919 422 
Q 2459 422 2753 634 
Q 3047 847 3047 1241 
Q 3047 1584 2836 1778 
Q 2625 1972 2144 2069 
L 1759 2144 
Q 1053 2284 737 2584 
Q 422 2884 422 3419 
Q 422 4038 858 4394 
Q 1294 4750 2059 4750 
Q 2388 4750 2728 4690 
Q 3069 4631 3425 4513 
z
" transform="scale(0.015625)"/>
      <path id="DejaVuSans-74" d="M 1172 4494 
L 1172 3500 
L 2356 3500 
L 2356 3053 
L 1172 3053 
L 1172 1153 
Q 1172 725 1289 603 
Q 1406 481 1766 481 
L 2356 481 
L 2356 0 
L 1766 0 
Q 1100 0 847 248 
Q 594 497 594 1153 
L 594 3053 
L 172 3053 
L 172 3500 
L 594 3500 
L 594 4494 
L 1172 4494 
z
" transform="scale(0.015625)"/>
     </defs>
     <use xlink:href="#DejaVuSans-53"/>
     <use xlink:href="#DejaVuSans-6b" x="63.476562"/>
     <use xlink:href="#DejaVuSans-72" x="121.386719"/>
     <use xlink:href="#DejaVuSans-61" x="162.5"/>
     <use xlink:href="#DejaVuSans-69" x="223.779297"/>
     <use xlink:href="#DejaVuSans-6e" x="251.5625"/>
     <use xlink:href="#DejaVuSans-20" x="314.941406"/>
     <use xlink:href="#DejaVuSans-44" x="346.728516"/>
     <use xlink:href="#DejaVuSans-75" x="423.730469"/>
     <use xlink:href="#DejaVuSans-6b" x="487.109375"/>
     <use xlink:href="#DejaVuSans-61" x="543.269531"/>
     <use xlink:href="#DejaVuSans-74" x="604.548828"/>
    </g>
   </g>
   <g id="text_14">
    <!-- Ezri Dax -->
    <g transform="translate(413.54629 579.757272)scale(0.1 -0.1)">
     <use xlink:href="#DejaVuSans-45"/>
     <use xlink:href="#DejaVuSans-7a" x="63.183594"/>
     <use xlink:href="#DejaVuSans-72" x="115.673828"/>
     <use xlink:href="#DejaVuSans-69" x="156.787109"/>
     <use xlink:href="#DejaVuSans-20" x="184.570312"/>
     <use xlink:href="#DejaVuSans-44" x="216.357422"/>
     <use xlink:href="#DejaVuSans-61" x="293.359375"/>
     <use xlink:href="#DejaVuSans-78" x="354.638672"/>
    </g>
   </g>
   <g id="text_15">
    <!-- Miles O'Brien -->
    <g transform="translate(443.156767 567.915049)scale(0.1 -0.1)">
     <defs>
      <path id="DejaVuSans-4d" d="M 628 4666 
L 1569 4666 
L 2759 1491 
L 3956 4666 
L 4897 4666 
L 4897 0 
L 4281 0 
L 4281 4097 
L 3078 897 
L 2444 897 
L 1241 4097 
L 1241 0 
L 628 0 
L 628 4666 
z
" transform="scale(0.015625)"/>
      <path id="DejaVuSans-27" d="M 1147 4666 
L 1147 2931 
L 616 2931 
L 616 4666 
L 1147 4666 
z
" transform="scale(0.015625)"/>
     </defs>
     <use xlink:href="#DejaVuSans-4d"/>
     <use xlink:href="#DejaVuSans-69" x="86.279297"/>
     <use xlink:href="#DejaVuSans-6c" x="114.0625"/>
     <use xlink:href="#DejaVuSans-65" x="141.845703"/>
     <use xlink:href="#DejaVuSans-73" x="203.369141"/>
     <use xlink:href="#DejaVuSans-20" x="255.46875"/>
     <use xlink:href="#DejaVuSans-4f" x="287.255859"/>
     <use xlink:href="#DejaVuSans-27" x="365.966797"/>
     <use xlink:href="#DejaVuSans-42" x="393.457031"/>
     <use xlink:href="#DejaVuSans-72" x="462.060547"/>
     <use xlink:href="#DejaVuSans-69" x="503.173828"/>
     <use xlink:href="#DejaVuSans-65" x="530.957031"/>
     <use xlink:href="#DejaVuSans-6e" x="592.480469"/>
    </g>
   </g>
   <g id="text_16">
    <!-- Weyoun -->
    <g transform="translate(469.201992 554.109479)scale(0.1 -0.1)">
     <defs>
      <path id="DejaVuSans-57" d="M 213 4666 
L 850 4666 
L 1831 722 
L 2809 4666 
L 3519 4666 
L 4500 722 
L 5478 4666 
L 6119 4666 
L 4947 0 
L 4153 0 
L 3169 4050 
L 2175 0 
L 1381 0 
L 213 4666 
z
" transform="scale(0.015625)"/>
     </defs>
     <use xlink:href="#DejaVuSans-57"/>
     <use xlink:href="#DejaVuSans-65" x="93.001953"/>
     <use xlink:href="#DejaVuSans-79" x="154.525391"/>
     <use xlink:href="#DejaVuSans-6f" x="213.705078"/>
     <use xlink:href="#DejaVuSans-75" x="274.886719"/>
     <use xlink:href="#DejaVuSans-6e" x="338.265625"/>
    </g>
   </g>
   <g id="text_17">
    <!-- Corat Damar -->
    <g transform="translate(492.350723 538.702453)scale(0.1 -0.1)">
     <defs>
      <path id="DejaVuSans-43" d="M 4122 4306 
L 4122 3641 
Q 3803 3938 3442 4084 
Q 3081 4231 2675 4231 
Q 1875 4231 1450 3742 
Q 1025 3253 1025 2328 
Q 1025 1406 1450 917 
Q 1875 428 2675 428 
Q 3081 428 3442 575 
Q 3803 722 4122 1019 
L 4122 359 
Q 3791 134 3420 21 
Q 3050 -91 2638 -91 
Q 1578 -91 968 557 
Q 359 1206 359 2328 
Q 359 3453 968 4101 
Q 1578 4750 2638 4750 
Q 3056 4750 3426 4639 
Q 3797 4528 4122 4306 
z
" transform="scale(0.015625)"/>
     </defs>
     <use xlink:href="#DejaVuSans-43"/>
     <use xlink:href="#DejaVuSans-6f" x="69.824219"/>
     <use xlink:href="#DejaVuSans-72" x="131.005859"/>
     <use xlink:href="#DejaVuSans-61" x="172.119141"/>
     <use xlink:href="#DejaVuSans-74" x="233.398438"/>
     <use xlink:href="#DejaVuSans-20" x="272.607422"/>
     <use xlink:href="#DejaVuSans-44" x="304.394531"/>
     <use xlink:href="#DejaVuSans-61" x="381.396484"/>
     <use xlink:href="#DejaVuSans-6d" x="442.675781"/>
     <use xlink:href="#DejaVuSans-61" x="540.087891"/>
     <use xlink:href="#DejaVuSans-72" x="601.367188"/>
    </g>
   </g>
   <g id="text_18">
    <!-- Benjamin Sisko -->
    <g transform="translate(511.957548 522.859236)scale(0.1 -0.1)">
     <defs>
      <path id="DejaVuSans-6a" d="M 603 3500 
L 1178 3500 
L 1178 -63 
Q 1178 -731 923 -1031 
Q 669 -1331 103 -1331 
L -116 -1331 
L -116 -844 
L 38 -844 
Q 366 -844 484 -692 
Q 603 -541 603 -63 
L 603 3500 
z
M 603 4863 
L 1178 4863 
L 1178 4134 
L 603 4134 
L 603 4863 
z
" transform="scale(0.015625)"/>
     </defs>
     <use xlink:href="#DejaVuSans-42"/>
     <use xlink:href="#DejaVuSans-65" x="68.603516"/>
     <use xlink:href="#DejaVuSans-6e" x="130.126953"/>
     <use xlink:href="#DejaVuSans-6a" x="193.505859"/>
     <use xlink:href="#DejaVuSans-61" x="221.289062"/>
     <use xlink:href="#DejaVuSans-6d" x="282.568359"/>
     <use xlink:href="#DejaVuSans-69" x="379.980469"/>
     <use xlink:href="#DejaVuSans-6e" x="407.763672"/>
     <use xlink:href="#DejaVuSans-20" x="471.142578"/>
     <use xlink:href="#DejaVuSans-53" x="502.929688"/>
     <use xlink:href="#DejaVuSans-69" x="566.40625"/>
     <use xlink:href="#DejaVuSans-73" x="594.189453"/>
     <use xlink:href="#DejaVuSans-6b" x="646.289062"/>
     <use xlink:href="#DejaVuSans-6f" x="700.574219"/>
    </g>
   </g>
   <g id="text_19">
    <!-- Worf -->
    <g transform="translate(529.200763 506.298374)scale(0.1 -0.1)">
     <defs>
      <path id="DejaVuSans-66" d="M 2375 4863 
L 2375 4384 
L 1825 4384 
Q 1516 4384 1395 4259 
Q 1275 4134 1275 3809 
L 1275 3500 
L 2222 3500 
L 2222 3053 
L 1275 3053 
L 1275 0 
L 697 0 
L 697 3053 
L 147 3053 
L 147 3500 
L 697 3500 
L 697 3744 
Q 697 4328 969 4595 
Q 1241 4863 1831 4863 
L 2375 4863 
z
" transform="scale(0.015625)"/>
     </defs>
     <use xlink:href="#DejaVuSans-57"/>
     <use xlink:href="#DejaVuSans-6f" x="93.001953"/>
     <use xlink:href="#DejaVuSans-72" x="154.183594"/>
     <use xlink:href="#DejaVuSans-66" x="195.296875"/>
    </g>
   </g>
   <g id="text_20">
    <!-- Keiko O'Brien -->
    <g transform="translate(544.576409 488.889061)scale(0.1 -0.1)">
     <use xlink:href="#DejaVuSans-4b"/>
     <use xlink:href="#DejaVuSans-65" x="60.576172"/>
     <use xlink:href="#DejaVuSans-69" x="122.099609"/>
     <use xlink:href="#DejaVuSans-6b" x="149.882812"/>
     <use xlink:href="#DejaVuSans-6f" x="204.167969"/>
     <use xlink:href="#DejaVuSans-20" x="265.349609"/>
     <use xlink:href="#DejaVuSans-4f" x="297.136719"/>
     <use xlink:href="#DejaVuSans-27" x="375.847656"/>
     <use xlink:href="#DejaVuSans-42" x="403.337891"/>
     <use xlink:href="#DejaVuSans-72" x="471.941406"/>
     <use xlink:href="#DejaVuSans-69" x="513.054688"/>
     <use xlink:href="#DejaVuSans-65" x="540.837891"/>
     <use xlink:href="#DejaVuSans-6e" x="602.361328"/>
    </g>
   </g>
   <g id="text_21">
    <!-- Kelas Parmak -->
    <g transform="translate(557.578056 471.618582)scale(0.1 -0.1)">
     <defs>
      <path id="DejaVuSans-50" d="M 1259 4147 
L 1259 2394 
L 2053 2394 
Q 2494 2394 2734 2622 
Q 2975 2850 2975 3272 
Q 2975 3691 2734 3919 
Q 2494 4147 2053 4147 
L 1259 4147 
z
M 628 4666 
L 2053 4666 
Q 2838 4666 3239 4311 
Q 3641 3956 3641 3272 
Q 3641 2581 3239 2228 
Q 2838 1875 2053 1875 
L 1259 1875 
L 1259 0 
L 628 0 
L 628 4666 
z
" transform="scale(0.015625)"/>
     </defs>
     <use xlink:href="#DejaVuSans-4b"/>
     <use xlink:href="#DejaVuSans-65" x="60.576172"/>
     <use xlink:href="#DejaVuSans-6c" x="122.099609"/>
     <use xlink:href="#DejaVuSans-61" x="149.882812"/>
     <use xlink:href="#DejaVuSans-73" x="211.162109"/>
     <use xlink:href="#DejaVuSans-20" x="263.261719"/>
     <use xlink:href="#DejaVuSans-50" x="295.048828"/>
     <use xlink:href="#DejaVuSans-61" x="350.851562"/>
     <use xlink:href="#DejaVuSans-72" x="412.130859"/>
     <use xlink:href="#DejaVuSans-6d" x="451.494141"/>
     <use xlink:href="#DejaVuSans-61" x="548.90625"/>
     <use xlink:href="#DejaVuSans-6b" x="610.185547"/>
    </g>
   </g>
   <g id="text_22">
    <!-- Jake Sisko -->
    <g transform="translate(567.303543 456.66221)scale(0.1 -0.1)">
     <use xlink:href="#DejaVuSans-4a"/>
     <use xlink:href="#DejaVuSans-61" x="29.492188"/>
     <use xlink:href="#DejaVuSans-6b" x="90.771484"/>
     <use xlink:href="#DejaVuSans-65" x="145.056641"/>
     <use xlink:href="#DejaVuSans-20" x="206.580078"/>
     <use xlink:href="#DejaVuSans-53" x="238.367188"/>
     <use xlink:href="#DejaVuSans-69" x="301.84375"/>
     <use xlink:href="#DejaVuSans-73" x="329.626953"/>
     <use xlink:href="#DejaVuSans-6b" x="381.726562"/>
     <use xlink:href="#DejaVuSans-6f" x="436.011719"/>
    </g>
   </g>
   <g id="text_23">
    <!-- Tora Ziyal -->
    <g transform="translate(574.155095 444.737582)scale(0.1 -0.1)">
     <defs>
      <path id="DejaVuSans-54" d="M -19 4666 
L 3928 4666 
L 3928 4134 
L 2272 4134 
L 2272 0 
L 1638 0 
L 1638 4134 
L -19 4134 
L -19 4666 
z
" transform="scale(0.015625)"/>
      <path id="DejaVuSans-5a" d="M 359 4666 
L 4025 4666 
L 4025 4184 
L 1075 531 
L 4097 531 
L 4097 0 
L 288 0 
L 288 481 
L 3238 4134 
L 359 4134 
L 359 4666 
z
" transform="scale(0.015625)"/>
     </defs>
     <use xlink:href="#DejaVuSans-54"/>
     <use xlink:href="#DejaVuSans-6f" x="44.083984"/>
     <use xlink:href="#DejaVuSans-72" x="105.265625"/>
     <use xlink:href="#DejaVuSans-61" x="146.378906"/>
     <use xlink:href="#DejaVuSans-20" x="207.658203"/>
     <use xlink:href="#DejaVuSans-5a" x="239.445312"/>
     <use xlink:href="#DejaVuSans-69" x="307.951172"/>
     <use xlink:href="#DejaVuSans-79" x="335.734375"/>
     <use xlink:href="#DejaVuSans-61" x="394.914062"/>
     <use xlink:href="#DejaVuSans-6c" x="456.193359"/>
    </g>
   </g>
   <g id="text_24">
    <!-- Lenara Kahn -->
    <g transform="translate(579.696125 434.00285)scale(0.1 -0.1)">
     <defs>
      <path id="DejaVuSans-4c" d="M 628 4666 
L 1259 4666 
L 1259 531 
L 3531 531 
L 3531 0 
L 628 0 
L 628 4666 
z
" transform="scale(0.015625)"/>
     </defs>
     <use xlink:href="#DejaVuSans-4c"/>
     <use xlink:href="#DejaVuSans-65" x="53.962891"/>
     <use xlink:href="#DejaVuSans-6e" x="115.486328"/>
     <use xlink:href="#DejaVuSans-61" x="178.865234"/>
     <use xlink:href="#DejaVuSans-72" x="240.144531"/>
     <use xlink:href="#DejaVuSans-61" x="281.257812"/>
     <use xlink:href="#DejaVuSans-20" x="342.537109"/>
     <use xlink:href="#DejaVuSans-4b" x="374.324219"/>
     <use xlink:href="#DejaVuSans-61" x="438.150391"/>
     <use xlink:href="#DejaVuSans-68" x="499.429688"/>
     <use xlink:href="#DejaVuSans-6e" x="562.808594"/>
    </g>
   </g>
   <g id="text_25">
    <!-- Nog -->
    <g transform="translate(584.60602 423.44149)scale(0.1 -0.1)">
     <defs>
      <path id="DejaVuSans-67" d="M 2906 1791 
Q 2906 2416 2648 2759 
Q 2391 3103 1925 3103 
Q 1463 3103 1205 2759 
Q 947 2416 947 1791 
Q 947 1169 1205 825 
Q 1463 481 1925 481 
Q 2391 481 2648 825 
Q 2906 1169 2906 1791 
z
M 3481 434 
Q 3481 -459 3084 -895 
Q 2688 -1331 1869 -1331 
Q 1566 -1331 1297 -1286 
Q 1028 -1241 775 -1147 
L 775 -588 
Q 1028 -725 1275 -790 
Q 1522 -856 1778 -856 
Q 2344 -856 2625 -561 
Q 2906 -266 2906 331 
L 2906 616 
Q 2728 306 2450 153 
Q 2172 0 1784 0 
Q 1141 0 747 490 
Q 353 981 353 1791 
Q 353 2603 747 3093 
Q 1141 3584 1784 3584 
Q 2172 3584 2450 3431 
Q 2728 3278 2906 2969 
L 2906 3500 
L 3481 3500 
L 3481 434 
z
" transform="scale(0.015625)"/>
     </defs>
     <use xlink:href="#DejaVuSans-4e"/>
     <use xlink:href="#DejaVuSans-6f" x="74.804688"/>
     <use xlink:href="#DejaVuSans-67" x="135.986328"/>
    </g>
   </g>
   <g id="text_26">
    <!-- Leeta -->
    <g transform="translate(588.879025 413.208427)scale(0.1 -0.1)">
     <use xlink:href="#DejaVuSans-4c"/>
     <use xlink:href="#DejaVuSans-65" x="53.962891"/>
     <use xlink:href="#DejaVuSans-65" x="115.486328"/>
     <use xlink:href="#DejaVuSans-74" x="177.009766"/>
     <use xlink:href="#DejaVuSans-61" x="216.21875"/>
    </g>
   </g>
   <g id="text_27">
    <!-- Deep Space 9 cast appearing in Deep Space 9 slash-works with at least one cast member -->
    <g transform="translate(51.721734 16.318125)scale(0.12 -0.12)">
     <defs>
      <path id="DejaVuSans-70" d="M 1159 525 
L 1159 -1331 
L 581 -1331 
L 581 3500 
L 1159 3500 
L 1159 2969 
Q 1341 3281 1617 3432 
Q 1894 3584 2278 3584 
Q 2916 3584 3314 3078 
Q 3713 2572 3713 1747 
Q 3713 922 3314 415 
Q 2916 -91 2278 -91 
Q 1894 -91 1617 61 
Q 1341 213 1159 525 
z
M 3116 1747 
Q 3116 2381 2855 2742 
Q 2594 3103 2138 3103 
Q 1681 3103 1420 2742 
Q 1159 2381 1159 1747 
Q 1159 1113 1420 752 
Q 1681 391 2138 391 
Q 2594 391 2855 752 
Q 3116 1113 3116 1747 
z
" transform="scale(0.015625)"/>
      <path id="DejaVuSans-63" d="M 3122 3366 
L 3122 2828 
Q 2878 2963 2633 3030 
Q 2388 3097 2138 3097 
Q 1578 3097 1268 2742 
Q 959 2388 959 1747 
Q 959 1106 1268 751 
Q 1578 397 2138 397 
Q 2388 397 2633 464 
Q 2878 531 3122 666 
L 3122 134 
Q 2881 22 2623 -34 
Q 2366 -91 2075 -91 
Q 1284 -91 818 406 
Q 353 903 353 1747 
Q 353 2603 823 3093 
Q 1294 3584 2113 3584 
Q 2378 3584 2631 3529 
Q 2884 3475 3122 3366 
z
" transform="scale(0.015625)"/>
      <path id="DejaVuSans-2d" d="M 313 2009 
L 1997 2009 
L 1997 1497 
L 313 1497 
L 313 2009 
z
" transform="scale(0.015625)"/>
      <path id="DejaVuSans-77" d="M 269 3500 
L 844 3500 
L 1563 769 
L 2278 3500 
L 2956 3500 
L 3675 769 
L 4391 3500 
L 4966 3500 
L 4050 0 
L 3372 0 
L 2619 2869 
L 1863 0 
L 1184 0 
L 269 3500 
z
" transform="scale(0.015625)"/>
      <path id="DejaVuSans-62" d="M 3116 1747 
Q 3116 2381 2855 2742 
Q 2594 3103 2138 3103 
Q 1681 3103 1420 2742 
Q 1159 2381 1159 1747 
Q 1159 1113 1420 752 
Q 1681 391 2138 391 
Q 2594 391 2855 752 
Q 3116 1113 3116 1747 
z
M 1159 2969 
Q 1341 3281 1617 3432 
Q 1894 3584 2278 3584 
Q 2916 3584 3314 3078 
Q 3713 2572 3713 1747 
Q 3713 922 3314 415 
Q 2916 -91 2278 -91 
Q 1894 -91 1617 61 
Q 1341 213 1159 525 
L 1159 0 
L 581 0 
L 581 4863 
L 1159 4863 
L 1159 2969 
z
" transform="scale(0.015625)"/>
     </defs>
     <use xlink:href="#DejaVuSans-44"/>
     <use xlink:href="#DejaVuSans-65" x="77.001953"/>
     <use xlink:href="#DejaVuSans-65" x="138.525391"/>
     <use xlink:href="#DejaVuSans-70" x="200.048828"/>
     <use xlink:href="#DejaVuSans-20" x="263.525391"/>
     <use xlink:href="#DejaVuSans-53" x="295.3125"/>
     <use xlink:href="#DejaVuSans-70" x="358.789062"/>
     <use xlink:href="#DejaVuSans-61" x="422.265625"/>
     <use xlink:href="#DejaVuSans-63" x="483.544922"/>
     <use xlink:href="#DejaVuSans-65" x="538.525391"/>
     <use xlink:href="#DejaVuSans-20" x="600.048828"/>
     <use xlink:href="#DejaVuSans-39" x="631.835938"/>
     <use xlink:href="#DejaVuSans-20" x="695.458984"/>
     <use xlink:href="#DejaVuSans-63" x="727.246094"/>
     <use xlink:href="#DejaVuSans-61" x="782.226562"/>
     <use xlink:href="#DejaVuSans-73" x="843.505859"/>
     <use xlink:href="#DejaVuSans-74" x="895.605469"/>
     <use xlink:href="#DejaVuSans-20" x="934.814453"/>
     <use xlink:href="#DejaVuSans-61" x="966.601562"/>
     <use xlink:href="#DejaVuSans-70" x="1027.880859"/>
     <use xlink:href="#DejaVuSans-70" x="1091.357422"/>
     <use xlink:href="#DejaVuSans-65" x="1154.833984"/>
     <use xlink:href="#DejaVuSans-61" x="1216.357422"/>
     <use xlink:href="#DejaVuSans-72" x="1277.636719"/>
     <use xlink:href="#DejaVuSans-69" x="1318.75"/>
     <use xlink:href="#DejaVuSans-6e" x="1346.533203"/>
     <use xlink:href="#DejaVuSans-67" x="1409.912109"/>
     <use xlink:href="#DejaVuSans-20" x="1473.388672"/>
     <use xlink:href="#DejaVuSans-69" x="1505.175781"/>
     <use xlink:href="#DejaVuSans-6e" x="1532.958984"/>
     <use xlink:href="#DejaVuSans-20" x="1596.337891"/>
     <use xlink:href="#DejaVuSans-44" x="1628.125"/>
     <use xlink:href="#DejaVuSans-65" x="1705.126953"/>
     <use xlink:href="#DejaVuSans-65" x="1766.650391"/>
     <use xlink:href="#DejaVuSans-70" x="1828.173828"/>
     <use xlink:href="#DejaVuSans-20" x="1891.650391"/>
     <use xlink:href="#DejaVuSans-53" x="1923.4375"/>
     <use xlink:href="#DejaVuSans-70" x="1986.914062"/>
     <use xlink:href="#DejaVuSans-61" x="2050.390625"/>
     <use xlink:href="#DejaVuSans-63" x="2111.669922"/>
     <use xlink:href="#DejaVuSans-65" x="2166.650391"/>
     <use xlink:href="#DejaVuSans-20" x="2228.173828"/>
     <use xlink:href="#DejaVuSans-39" x="2259.960938"/>
     <use xlink:href="#DejaVuSans-20" x="2323.583984"/>
     <use xlink:href="#DejaVuSans-73" x="2355.371094"/>
     <use xlink:href="#DejaVuSans-6c" x="2407.470703"/>
     <use xlink:href="#DejaVuSans-61" x="2435.253906"/>
     <use xlink:href="#DejaVuSans-73" x="2496.533203"/>
     <use xlink:href="#DejaVuSans-68" x="2548.632812"/>
     <use xlink:href="#DejaVuSans-2d" x="2612.011719"/>
     <use xlink:href="#DejaVuSans-77" x="2648.095703"/>
     <use xlink:href="#DejaVuSans-6f" x="2729.882812"/>
     <use xlink:href="#DejaVuSans-72" x="2791.064453"/>
     <use xlink:href="#DejaVuSans-6b" x="2832.177734"/>
     <use xlink:href="#DejaVuSans-73" x="2890.087891"/>
     <use xlink:href="#DejaVuSans-20" x="2942.1875"/>
     <use xlink:href="#DejaVuSans-77" x="2973.974609"/>
     <use xlink:href="#DejaVuSans-69" x="3055.761719"/>
     <use xlink:href="#DejaVuSans-74" x="3083.544922"/>
     <use xlink:href="#DejaVuSans-68" x="3122.753906"/>
     <use xlink:href="#DejaVuSans-20" x="3186.132812"/>
     <use xlink:href="#DejaVuSans-61" x="3217.919922"/>
     <use xlink:href="#DejaVuSans-74" x="3279.199219"/>
     <use xlink:href="#DejaVuSans-20" x="3318.408203"/>
     <use xlink:href="#DejaVuSans-6c" x="3350.195312"/>
     <use xlink:href="#DejaVuSans-65" x="3377.978516"/>
     <use xlink:href="#DejaVuSans-61" x="3439.501953"/>
     <use xlink:href="#DejaVuSans-73" x="3500.78125"/>
     <use xlink:href="#DejaVuSans-74" x="3552.880859"/>
     <use xlink:href="#DejaVuSans-20" x="3592.089844"/>
     <use xlink:href="#DejaVuSans-6f" x="3623.876953"/>
     <use xlink:href="#DejaVuSans-6e" x="3685.058594"/>
     <use xlink:href="#DejaVuSans-65" x="3748.4375"/>
     <use xlink:href="#DejaVuSans-20" x="3809.960938"/>
     <use xlink:href="#DejaVuSans-63" x="3841.748047"/>
     <use xlink:href="#DejaVuSans-61" x="3896.728516"/>
     <use xlink:href="#DejaVuSans-73" x="3958.007812"/>
     <use xlink:href="#DejaVuSans-74" x="4010.107422"/>
     <use xlink:href="#DejaVuSans-20" x="4049.316406"/>
     <use xlink:href="#DejaVuSans-6d" x="4081.103516"/>
     <use xlink:href="#DejaVuSans-65" x="4178.515625"/>
     <use xlink:href="#DejaVuSans-6d" x="4240.039062"/>
     <use xlink:href="#DejaVuSans-62" x="4337.451172"/>
     <use xlink:href="#DejaVuSans-65" x="4400.927734"/>
     <use xlink:href="#DejaVuSans-72" x="4462.451172"/>
    </g>
   </g>
  </g>
 </g>
</svg>
