<?xml version="1.0" encoding="utf-8" standalone="no"?>
<!DOCTYPE svg PUBLIC "-//W3C//DTD SVG 1.1//EN"
  "http://www.w3.org/Graphics/SVG/1.1/DTD/svg11.dtd">
<svg xmlns:xlink="http://www.w3.org/1999/xlink" width="432pt" height="288pt" viewBox="0 0 432 288" xmlns="http://www.w3.org/2000/svg" version="1.1">
 <metadata>
  <rdf:RDF xmlns:dc="http://purl.org/dc/elements/1.1/" xmlns:cc="http://creativecommons.org/ns#" xmlns:rdf="http://www.w3.org/1999/02/22-rdf-syntax-ns#">
   <cc:Work>
    <dc:type rdf:resource="http://purl.org/dc/dcmitype/StillImage"/>
    <dc:date>2022-08-18T01:04:55.284640</dc:date>
    <dc:format>image/svg+xml</dc:format>
    <dc:creator>
     <cc:Agent>
      <dc:title>Matplotlib v3.5.2, https://matplotlib.org/</dc:title>
     </cc:Agent>
    </dc:creator>
   </cc:Work>
  </rdf:RDF>
 </metadata>
 <defs>
  <style type="text/css">*{stroke-linejoin: round; stroke-linecap: butt}</style>
 </defs>
 <g id="figure_1">
  <g id="patch_1">
   <path d="M 0 288 
L 432 288 
L 432 0 
L 0 0 
L 0 288 
z
" style="fill: none"/>
  </g>
  <g id="axes_1">
   <g id="patch_2">
    <path d="M 54 252 
L 388.8 252 
L 388.8 34.56 
L 54 34.56 
z
" style="fill: #ffffff"/>
   </g>
   <g id="QuadMesh_1">
    <path d="M 54 34.56 
L 101.828571 34.56 
L 101.828571 41.574194 
L 54 41.574194 
L 54 34.56 
" clip-path="url(#pbcefb0608f)" style="fill: #aa1016; stroke: #ffffff; stroke-width: 0.05"/>
    <path d="M 101.828571 34.56 
L 149.657143 34.56 
L 149.657143 41.574194 
L 101.828571 41.574194 
L 101.828571 34.56 
" clip-path="url(#pbcefb0608f)" style="fill: #f44f39; stroke: #ffffff; stroke-width: 0.05"/>
    <path d="M 149.657143 34.56 
L 197.485714 34.56 
L 197.485714 41.574194 
L 149.657143 41.574194 
L 149.657143 34.56 
" clip-path="url(#pbcefb0608f)" style="fill: #fc8161; stroke: #ffffff; stroke-width: 0.05"/>
    <path d="M 197.485714 34.56 
L 245.314286 34.56 
L 245.314286 41.574194 
L 197.485714 41.574194 
L 197.485714 34.56 
" clip-path="url(#pbcefb0608f)" style="fill: #fcaf93; stroke: #ffffff; stroke-width: 0.05"/>
    <path d="M 245.314286 34.56 
L 293.142857 34.56 
L 293.142857 41.574194 
L 245.314286 41.574194 
L 245.314286 34.56 
" clip-path="url(#pbcefb0608f)" style="fill: #fc8161; stroke: #ffffff; stroke-width: 0.05"/>
    <path d="M 293.142857 34.56 
L 340.971429 34.56 
L 340.971429 41.574194 
L 293.142857 41.574194 
L 293.142857 34.56 
" clip-path="url(#pbcefb0608f)" style="fill: #fcaf93; stroke: #ffffff; stroke-width: 0.05"/>
    <path d="M 340.971429 34.56 
L 388.8 34.56 
L 388.8 41.574194 
L 340.971429 41.574194 
L 340.971429 34.56 
" clip-path="url(#pbcefb0608f)" style="fill: #fcaf93; stroke: #ffffff; stroke-width: 0.05"/>
    <path d="M 54 41.574194 
L 101.828571 41.574194 
L 101.828571 48.588387 
L 54 48.588387 
L 54 41.574194 
" clip-path="url(#pbcefb0608f)" style="fill: #f44f39; stroke: #ffffff; stroke-width: 0.05"/>
    <path d="M 101.828571 41.574194 
L 149.657143 41.574194 
L 149.657143 48.588387 
L 101.828571 48.588387 
L 101.828571 41.574194 
" clip-path="url(#pbcefb0608f)" style="fill: #f44f39; stroke: #ffffff; stroke-width: 0.05"/>
    <path d="M 149.657143 41.574194 
L 197.485714 41.574194 
L 197.485714 48.588387 
L 149.657143 48.588387 
L 149.657143 41.574194 
" clip-path="url(#pbcefb0608f)" style="fill: #fc8161; stroke: #ffffff; stroke-width: 0.05"/>
    <path d="M 197.485714 41.574194 
L 245.314286 41.574194 
L 245.314286 48.588387 
L 197.485714 48.588387 
L 197.485714 41.574194 
" clip-path="url(#pbcefb0608f)" style="fill: #aa1016; stroke: #ffffff; stroke-width: 0.05"/>
    <path d="M 245.314286 41.574194 
L 293.142857 41.574194 
L 293.142857 48.588387 
L 245.314286 48.588387 
L 245.314286 41.574194 
" clip-path="url(#pbcefb0608f)" style="fill: #fc8161; stroke: #ffffff; stroke-width: 0.05"/>
    <path d="M 293.142857 41.574194 
L 340.971429 41.574194 
L 340.971429 48.588387 
L 293.142857 48.588387 
L 293.142857 41.574194 
" clip-path="url(#pbcefb0608f)" style="fill: #fedbcc; stroke: #ffffff; stroke-width: 0.05"/>
    <path d="M 340.971429 41.574194 
L 388.8 41.574194 
L 388.8 48.588387 
L 340.971429 48.588387 
L 340.971429 41.574194 
" clip-path="url(#pbcefb0608f)" style="fill: #fedbcc; stroke: #ffffff; stroke-width: 0.05"/>
    <path d="M 54 48.588387 
L 101.828571 48.588387 
L 101.828571 55.602581 
L 54 55.602581 
L 54 48.588387 
" clip-path="url(#pbcefb0608f)" style="fill: #aa1016; stroke: #ffffff; stroke-width: 0.05"/>
    <path d="M 101.828571 48.588387 
L 149.657143 48.588387 
L 149.657143 55.602581 
L 101.828571 55.602581 
L 101.828571 48.588387 
" clip-path="url(#pbcefb0608f)" style="fill: #f44f39; stroke: #ffffff; stroke-width: 0.05"/>
    <path d="M 149.657143 48.588387 
L 197.485714 48.588387 
L 197.485714 55.602581 
L 149.657143 55.602581 
L 149.657143 48.588387 
" clip-path="url(#pbcefb0608f)" style="fill: #fc8161; stroke: #ffffff; stroke-width: 0.05"/>
    <path d="M 197.485714 48.588387 
L 245.314286 48.588387 
L 245.314286 55.602581 
L 197.485714 55.602581 
L 197.485714 48.588387 
" clip-path="url(#pbcefb0608f)" style="fill: #fcaf93; stroke: #ffffff; stroke-width: 0.05"/>
    <path d="M 245.314286 48.588387 
L 293.142857 48.588387 
L 293.142857 55.602581 
L 245.314286 55.602581 
L 245.314286 48.588387 
" clip-path="url(#pbcefb0608f)" style="fill: #fc8161; stroke: #ffffff; stroke-width: 0.05"/>
    <path d="M 293.142857 48.588387 
L 340.971429 48.588387 
L 340.971429 55.602581 
L 293.142857 55.602581 
L 293.142857 48.588387 
" clip-path="url(#pbcefb0608f)" style="fill: #fedbcc; stroke: #ffffff; stroke-width: 0.05"/>
    <path d="M 340.971429 48.588387 
L 388.8 48.588387 
L 388.8 55.602581 
L 340.971429 55.602581 
L 340.971429 48.588387 
" clip-path="url(#pbcefb0608f)" style="fill: #fc8161; stroke: #ffffff; stroke-width: 0.05"/>
    <path d="M 54 55.602581 
L 101.828571 55.602581 
L 101.828571 62.616774 
L 54 62.616774 
L 54 55.602581 
" clip-path="url(#pbcefb0608f)" style="fill: #f44f39; stroke: #ffffff; stroke-width: 0.05"/>
    <path d="M 101.828571 55.602581 
L 149.657143 55.602581 
L 149.657143 62.616774 
L 101.828571 62.616774 
L 101.828571 55.602581 
" clip-path="url(#pbcefb0608f)" style="fill: #d52221; stroke: #ffffff; stroke-width: 0.05"/>
    <path d="M 149.657143 55.602581 
L 197.485714 55.602581 
L 197.485714 62.616774 
L 149.657143 62.616774 
L 149.657143 55.602581 
" clip-path="url(#pbcefb0608f)" style="fill: #aa1016; stroke: #ffffff; stroke-width: 0.05"/>
    <path d="M 197.485714 55.602581 
L 245.314286 55.602581 
L 245.314286 62.616774 
L 197.485714 62.616774 
L 197.485714 55.602581 
" clip-path="url(#pbcefb0608f)" style="fill: #fc8161; stroke: #ffffff; stroke-width: 0.05"/>
    <path d="M 245.314286 55.602581 
L 293.142857 55.602581 
L 293.142857 62.616774 
L 245.314286 62.616774 
L 245.314286 55.602581 
" clip-path="url(#pbcefb0608f)" style="fill: #f44f39; stroke: #ffffff; stroke-width: 0.05"/>
    <path d="M 293.142857 55.602581 
L 340.971429 55.602581 
L 340.971429 62.616774 
L 293.142857 62.616774 
L 293.142857 55.602581 
" clip-path="url(#pbcefb0608f)" style="fill: #fc8161; stroke: #ffffff; stroke-width: 0.05"/>
    <path d="M 340.971429 55.602581 
L 388.8 55.602581 
L 388.8 62.616774 
L 340.971429 62.616774 
L 340.971429 55.602581 
" clip-path="url(#pbcefb0608f)" style="fill: #f44f39; stroke: #ffffff; stroke-width: 0.05"/>
    <path d="M 54 62.616774 
L 101.828571 62.616774 
L 101.828571 69.630968 
L 54 69.630968 
L 54 62.616774 
" clip-path="url(#pbcefb0608f)" style="fill: #d52221; stroke: #ffffff; stroke-width: 0.05"/>
    <path d="M 101.828571 62.616774 
L 149.657143 62.616774 
L 149.657143 69.630968 
L 101.828571 69.630968 
L 101.828571 62.616774 
" clip-path="url(#pbcefb0608f)" style="fill: #d52221; stroke: #ffffff; stroke-width: 0.05"/>
    <path d="M 149.657143 62.616774 
L 197.485714 62.616774 
L 197.485714 69.630968 
L 149.657143 69.630968 
L 149.657143 62.616774 
" clip-path="url(#pbcefb0608f)" style="fill: #aa1016; stroke: #ffffff; stroke-width: 0.05"/>
    <path d="M 197.485714 62.616774 
L 245.314286 62.616774 
L 245.314286 69.630968 
L 197.485714 69.630968 
L 197.485714 62.616774 
" clip-path="url(#pbcefb0608f)" style="fill: #f44f39; stroke: #ffffff; stroke-width: 0.05"/>
    <path d="M 245.314286 62.616774 
L 293.142857 62.616774 
L 293.142857 69.630968 
L 245.314286 69.630968 
L 245.314286 62.616774 
" clip-path="url(#pbcefb0608f)" style="fill: #f44f39; stroke: #ffffff; stroke-width: 0.05"/>
    <path d="M 293.142857 62.616774 
L 340.971429 62.616774 
L 340.971429 69.630968 
L 293.142857 69.630968 
L 293.142857 62.616774 
" clip-path="url(#pbcefb0608f)" style="fill: #fcaf93; stroke: #ffffff; stroke-width: 0.05"/>
    <path d="M 340.971429 62.616774 
L 388.8 62.616774 
L 388.8 69.630968 
L 340.971429 69.630968 
L 340.971429 62.616774 
" clip-path="url(#pbcefb0608f)" style="fill: #fedbcc; stroke: #ffffff; stroke-width: 0.05"/>
    <path d="M 54 69.630968 
L 101.828571 69.630968 
L 101.828571 76.645161 
L 54 76.645161 
L 54 69.630968 
" clip-path="url(#pbcefb0608f)" style="fill: #aa1016; stroke: #ffffff; stroke-width: 0.05"/>
    <path d="M 101.828571 69.630968 
L 149.657143 69.630968 
L 149.657143 76.645161 
L 101.828571 76.645161 
L 101.828571 69.630968 
" clip-path="url(#pbcefb0608f)" style="fill: #f44f39; stroke: #ffffff; stroke-width: 0.05"/>
    <path d="M 149.657143 69.630968 
L 197.485714 69.630968 
L 197.485714 76.645161 
L 149.657143 76.645161 
L 149.657143 69.630968 
" clip-path="url(#pbcefb0608f)" style="fill: #d52221; stroke: #ffffff; stroke-width: 0.05"/>
    <path d="M 197.485714 69.630968 
L 245.314286 69.630968 
L 245.314286 76.645161 
L 197.485714 76.645161 
L 197.485714 69.630968 
" clip-path="url(#pbcefb0608f)" style="fill: #fc8161; stroke: #ffffff; stroke-width: 0.05"/>
    <path d="M 245.314286 69.630968 
L 293.142857 69.630968 
L 293.142857 76.645161 
L 245.314286 76.645161 
L 245.314286 69.630968 
" clip-path="url(#pbcefb0608f)" style="fill: #f44f39; stroke: #ffffff; stroke-width: 0.05"/>
    <path d="M 293.142857 69.630968 
L 340.971429 69.630968 
L 340.971429 76.645161 
L 293.142857 76.645161 
L 293.142857 69.630968 
" clip-path="url(#pbcefb0608f)" style="fill: #fcaf93; stroke: #ffffff; stroke-width: 0.05"/>
    <path d="M 340.971429 69.630968 
L 388.8 69.630968 
L 388.8 76.645161 
L 340.971429 76.645161 
L 340.971429 69.630968 
" clip-path="url(#pbcefb0608f)" style="fill: #fc8161; stroke: #ffffff; stroke-width: 0.05"/>
    <path d="M 54 76.645161 
L 101.828571 76.645161 
L 101.828571 83.659355 
L 54 83.659355 
L 54 76.645161 
" clip-path="url(#pbcefb0608f)" style="fill: #d52221; stroke: #ffffff; stroke-width: 0.05"/>
    <path d="M 101.828571 76.645161 
L 149.657143 76.645161 
L 149.657143 83.659355 
L 101.828571 83.659355 
L 101.828571 76.645161 
" clip-path="url(#pbcefb0608f)" style="fill: #d52221; stroke: #ffffff; stroke-width: 0.05"/>
    <path d="M 149.657143 76.645161 
L 197.485714 76.645161 
L 197.485714 83.659355 
L 149.657143 83.659355 
L 149.657143 76.645161 
" clip-path="url(#pbcefb0608f)" style="fill: #d52221; stroke: #ffffff; stroke-width: 0.05"/>
    <path d="M 197.485714 76.645161 
L 245.314286 76.645161 
L 245.314286 83.659355 
L 197.485714 83.659355 
L 197.485714 76.645161 
" clip-path="url(#pbcefb0608f)" style="fill: #f44f39; stroke: #ffffff; stroke-width: 0.05"/>
    <path d="M 245.314286 76.645161 
L 293.142857 76.645161 
L 293.142857 83.659355 
L 245.314286 83.659355 
L 245.314286 76.645161 
" clip-path="url(#pbcefb0608f)" style="fill: #f44f39; stroke: #ffffff; stroke-width: 0.05"/>
    <path d="M 293.142857 76.645161 
L 340.971429 76.645161 
L 340.971429 83.659355 
L 293.142857 83.659355 
L 293.142857 76.645161 
" clip-path="url(#pbcefb0608f)" style="fill: none; stroke: #ffffff; stroke-width: 0.05"/>
    <path d="M 340.971429 76.645161 
L 388.8 76.645161 
L 388.8 83.659355 
L 340.971429 83.659355 
L 340.971429 76.645161 
" clip-path="url(#pbcefb0608f)" style="fill: #fcaf93; stroke: #ffffff; stroke-width: 0.05"/>
    <path d="M 54 83.659355 
L 101.828571 83.659355 
L 101.828571 90.673548 
L 54 90.673548 
L 54 83.659355 
" clip-path="url(#pbcefb0608f)" style="fill: #aa1016; stroke: #ffffff; stroke-width: 0.05"/>
    <path d="M 101.828571 83.659355 
L 149.657143 83.659355 
L 149.657143 90.673548 
L 101.828571 90.673548 
L 101.828571 83.659355 
" clip-path="url(#pbcefb0608f)" style="fill: #f44f39; stroke: #ffffff; stroke-width: 0.05"/>
    <path d="M 149.657143 83.659355 
L 197.485714 83.659355 
L 197.485714 90.673548 
L 149.657143 90.673548 
L 149.657143 83.659355 
" clip-path="url(#pbcefb0608f)" style="fill: #fc8161; stroke: #ffffff; stroke-width: 0.05"/>
    <path d="M 197.485714 83.659355 
L 245.314286 83.659355 
L 245.314286 90.673548 
L 197.485714 90.673548 
L 197.485714 83.659355 
" clip-path="url(#pbcefb0608f)" style="fill: #fc8161; stroke: #ffffff; stroke-width: 0.05"/>
    <path d="M 245.314286 83.659355 
L 293.142857 83.659355 
L 293.142857 90.673548 
L 245.314286 90.673548 
L 245.314286 83.659355 
" clip-path="url(#pbcefb0608f)" style="fill: #fc8161; stroke: #ffffff; stroke-width: 0.05"/>
    <path d="M 293.142857 83.659355 
L 340.971429 83.659355 
L 340.971429 90.673548 
L 293.142857 90.673548 
L 293.142857 83.659355 
" clip-path="url(#pbcefb0608f)" style="fill: none; stroke: #ffffff; stroke-width: 0.05"/>
    <path d="M 340.971429 83.659355 
L 388.8 83.659355 
L 388.8 90.673548 
L 340.971429 90.673548 
L 340.971429 83.659355 
" clip-path="url(#pbcefb0608f)" style="fill: #d52221; stroke: #ffffff; stroke-width: 0.05"/>
    <path d="M 54 90.673548 
L 101.828571 90.673548 
L 101.828571 97.687742 
L 54 97.687742 
L 54 90.673548 
" clip-path="url(#pbcefb0608f)" style="fill: #aa1016; stroke: #ffffff; stroke-width: 0.05"/>
    <path d="M 101.828571 90.673548 
L 149.657143 90.673548 
L 149.657143 97.687742 
L 101.828571 97.687742 
L 101.828571 90.673548 
" clip-path="url(#pbcefb0608f)" style="fill: #f44f39; stroke: #ffffff; stroke-width: 0.05"/>
    <path d="M 149.657143 90.673548 
L 197.485714 90.673548 
L 197.485714 97.687742 
L 149.657143 97.687742 
L 149.657143 90.673548 
" clip-path="url(#pbcefb0608f)" style="fill: #fc8161; stroke: #ffffff; stroke-width: 0.05"/>
    <path d="M 197.485714 90.673548 
L 245.314286 90.673548 
L 245.314286 97.687742 
L 197.485714 97.687742 
L 197.485714 90.673548 
" clip-path="url(#pbcefb0608f)" style="fill: #fc8161; stroke: #ffffff; stroke-width: 0.05"/>
    <path d="M 245.314286 90.673548 
L 293.142857 90.673548 
L 293.142857 97.687742 
L 245.314286 97.687742 
L 245.314286 90.673548 
" clip-path="url(#pbcefb0608f)" style="fill: #f44f39; stroke: #ffffff; stroke-width: 0.05"/>
    <path d="M 293.142857 90.673548 
L 340.971429 90.673548 
L 340.971429 97.687742 
L 293.142857 97.687742 
L 293.142857 90.673548 
" clip-path="url(#pbcefb0608f)" style="fill: #fedbcc; stroke: #ffffff; stroke-width: 0.05"/>
    <path d="M 340.971429 90.673548 
L 388.8 90.673548 
L 388.8 97.687742 
L 340.971429 97.687742 
L 340.971429 90.673548 
" clip-path="url(#pbcefb0608f)" style="fill: #d52221; stroke: #ffffff; stroke-width: 0.05"/>
    <path d="M 54 97.687742 
L 101.828571 97.687742 
L 101.828571 104.701935 
L 54 104.701935 
L 54 97.687742 
" clip-path="url(#pbcefb0608f)" style="fill: #d52221; stroke: #ffffff; stroke-width: 0.05"/>
    <path d="M 101.828571 97.687742 
L 149.657143 97.687742 
L 149.657143 104.701935 
L 101.828571 104.701935 
L 101.828571 97.687742 
" clip-path="url(#pbcefb0608f)" style="fill: #f44f39; stroke: #ffffff; stroke-width: 0.05"/>
    <path d="M 149.657143 97.687742 
L 197.485714 97.687742 
L 197.485714 104.701935 
L 149.657143 104.701935 
L 149.657143 97.687742 
" clip-path="url(#pbcefb0608f)" style="fill: #aa1016; stroke: #ffffff; stroke-width: 0.05"/>
    <path d="M 197.485714 97.687742 
L 245.314286 97.687742 
L 245.314286 104.701935 
L 197.485714 104.701935 
L 197.485714 97.687742 
" clip-path="url(#pbcefb0608f)" style="fill: #f44f39; stroke: #ffffff; stroke-width: 0.05"/>
    <path d="M 245.314286 97.687742 
L 293.142857 97.687742 
L 293.142857 104.701935 
L 245.314286 104.701935 
L 245.314286 97.687742 
" clip-path="url(#pbcefb0608f)" style="fill: #f44f39; stroke: #ffffff; stroke-width: 0.05"/>
    <path d="M 293.142857 97.687742 
L 340.971429 97.687742 
L 340.971429 104.701935 
L 293.142857 104.701935 
L 293.142857 97.687742 
" clip-path="url(#pbcefb0608f)" style="fill: #fcaf93; stroke: #ffffff; stroke-width: 0.05"/>
    <path d="M 340.971429 97.687742 
L 388.8 97.687742 
L 388.8 104.701935 
L 340.971429 104.701935 
L 340.971429 97.687742 
" clip-path="url(#pbcefb0608f)" style="fill: #fc8161; stroke: #ffffff; stroke-width: 0.05"/>
    <path d="M 54 104.701935 
L 101.828571 104.701935 
L 101.828571 111.716129 
L 54 111.716129 
L 54 104.701935 
" clip-path="url(#pbcefb0608f)" style="fill: #aa1016; stroke: #ffffff; stroke-width: 0.05"/>
    <path d="M 101.828571 104.701935 
L 149.657143 104.701935 
L 149.657143 111.716129 
L 101.828571 111.716129 
L 101.828571 104.701935 
" clip-path="url(#pbcefb0608f)" style="fill: #f44f39; stroke: #ffffff; stroke-width: 0.05"/>
    <path d="M 149.657143 104.701935 
L 197.485714 104.701935 
L 197.485714 111.716129 
L 149.657143 111.716129 
L 149.657143 104.701935 
" clip-path="url(#pbcefb0608f)" style="fill: #f44f39; stroke: #ffffff; stroke-width: 0.05"/>
    <path d="M 197.485714 104.701935 
L 245.314286 104.701935 
L 245.314286 111.716129 
L 197.485714 111.716129 
L 197.485714 104.701935 
" clip-path="url(#pbcefb0608f)" style="fill: #f44f39; stroke: #ffffff; stroke-width: 0.05"/>
    <path d="M 245.314286 104.701935 
L 293.142857 104.701935 
L 293.142857 111.716129 
L 245.314286 111.716129 
L 245.314286 104.701935 
" clip-path="url(#pbcefb0608f)" style="fill: #f44f39; stroke: #ffffff; stroke-width: 0.05"/>
    <path d="M 293.142857 104.701935 
L 340.971429 104.701935 
L 340.971429 111.716129 
L 293.142857 111.716129 
L 293.142857 104.701935 
" clip-path="url(#pbcefb0608f)" style="fill: none; stroke: #ffffff; stroke-width: 0.05"/>
    <path d="M 340.971429 104.701935 
L 388.8 104.701935 
L 388.8 111.716129 
L 340.971429 111.716129 
L 340.971429 104.701935 
" clip-path="url(#pbcefb0608f)" style="fill: #fedbcc; stroke: #ffffff; stroke-width: 0.05"/>
    <path d="M 54 111.716129 
L 101.828571 111.716129 
L 101.828571 118.730323 
L 54 118.730323 
L 54 111.716129 
" clip-path="url(#pbcefb0608f)" style="fill: #aa1016; stroke: #ffffff; stroke-width: 0.05"/>
    <path d="M 101.828571 111.716129 
L 149.657143 111.716129 
L 149.657143 118.730323 
L 101.828571 118.730323 
L 101.828571 111.716129 
" clip-path="url(#pbcefb0608f)" style="fill: #f44f39; stroke: #ffffff; stroke-width: 0.05"/>
    <path d="M 149.657143 111.716129 
L 197.485714 111.716129 
L 197.485714 118.730323 
L 149.657143 118.730323 
L 149.657143 111.716129 
" clip-path="url(#pbcefb0608f)" style="fill: #d52221; stroke: #ffffff; stroke-width: 0.05"/>
    <path d="M 197.485714 111.716129 
L 245.314286 111.716129 
L 245.314286 118.730323 
L 197.485714 118.730323 
L 197.485714 111.716129 
" clip-path="url(#pbcefb0608f)" style="fill: #fc8161; stroke: #ffffff; stroke-width: 0.05"/>
    <path d="M 245.314286 111.716129 
L 293.142857 111.716129 
L 293.142857 118.730323 
L 245.314286 118.730323 
L 245.314286 111.716129 
" clip-path="url(#pbcefb0608f)" style="fill: #f44f39; stroke: #ffffff; stroke-width: 0.05"/>
    <path d="M 293.142857 111.716129 
L 340.971429 111.716129 
L 340.971429 118.730323 
L 293.142857 118.730323 
L 293.142857 111.716129 
" clip-path="url(#pbcefb0608f)" style="fill: #fedbcc; stroke: #ffffff; stroke-width: 0.05"/>
    <path d="M 340.971429 111.716129 
L 388.8 111.716129 
L 388.8 118.730323 
L 340.971429 118.730323 
L 340.971429 111.716129 
" clip-path="url(#pbcefb0608f)" style="fill: #fc8161; stroke: #ffffff; stroke-width: 0.05"/>
    <path d="M 54 118.730323 
L 101.828571 118.730323 
L 101.828571 125.744516 
L 54 125.744516 
L 54 118.730323 
" clip-path="url(#pbcefb0608f)" style="fill: #aa1016; stroke: #ffffff; stroke-width: 0.05"/>
    <path d="M 101.828571 118.730323 
L 149.657143 118.730323 
L 149.657143 125.744516 
L 101.828571 125.744516 
L 101.828571 118.730323 
" clip-path="url(#pbcefb0608f)" style="fill: #f44f39; stroke: #ffffff; stroke-width: 0.05"/>
    <path d="M 149.657143 118.730323 
L 197.485714 118.730323 
L 197.485714 125.744516 
L 149.657143 125.744516 
L 149.657143 118.730323 
" clip-path="url(#pbcefb0608f)" style="fill: #f44f39; stroke: #ffffff; stroke-width: 0.05"/>
    <path d="M 197.485714 118.730323 
L 245.314286 118.730323 
L 245.314286 125.744516 
L 197.485714 125.744516 
L 197.485714 118.730323 
" clip-path="url(#pbcefb0608f)" style="fill: #fc8161; stroke: #ffffff; stroke-width: 0.05"/>
    <path d="M 245.314286 118.730323 
L 293.142857 118.730323 
L 293.142857 125.744516 
L 245.314286 125.744516 
L 245.314286 118.730323 
" clip-path="url(#pbcefb0608f)" style="fill: #f44f39; stroke: #ffffff; stroke-width: 0.05"/>
    <path d="M 293.142857 118.730323 
L 340.971429 118.730323 
L 340.971429 125.744516 
L 293.142857 125.744516 
L 293.142857 118.730323 
" clip-path="url(#pbcefb0608f)" style="fill: none; stroke: #ffffff; stroke-width: 0.05"/>
    <path d="M 340.971429 118.730323 
L 388.8 118.730323 
L 388.8 125.744516 
L 340.971429 125.744516 
L 340.971429 118.730323 
" clip-path="url(#pbcefb0608f)" style="fill: #fedbcc; stroke: #ffffff; stroke-width: 0.05"/>
    <path d="M 54 125.744516 
L 101.828571 125.744516 
L 101.828571 132.75871 
L 54 132.75871 
L 54 125.744516 
" clip-path="url(#pbcefb0608f)" style="fill: #f44f39; stroke: #ffffff; stroke-width: 0.05"/>
    <path d="M 101.828571 125.744516 
L 149.657143 125.744516 
L 149.657143 132.75871 
L 101.828571 132.75871 
L 101.828571 125.744516 
" clip-path="url(#pbcefb0608f)" style="fill: #f44f39; stroke: #ffffff; stroke-width: 0.05"/>
    <path d="M 149.657143 125.744516 
L 197.485714 125.744516 
L 197.485714 132.75871 
L 149.657143 132.75871 
L 149.657143 125.744516 
" clip-path="url(#pbcefb0608f)" style="fill: #fc8161; stroke: #ffffff; stroke-width: 0.05"/>
    <path d="M 197.485714 125.744516 
L 245.314286 125.744516 
L 245.314286 132.75871 
L 197.485714 132.75871 
L 197.485714 125.744516 
" clip-path="url(#pbcefb0608f)" style="fill: #aa1016; stroke: #ffffff; stroke-width: 0.05"/>
    <path d="M 245.314286 125.744516 
L 293.142857 125.744516 
L 293.142857 132.75871 
L 245.314286 132.75871 
L 245.314286 125.744516 
" clip-path="url(#pbcefb0608f)" style="fill: #f44f39; stroke: #ffffff; stroke-width: 0.05"/>
    <path d="M 293.142857 125.744516 
L 340.971429 125.744516 
L 340.971429 132.75871 
L 293.142857 132.75871 
L 293.142857 125.744516 
" clip-path="url(#pbcefb0608f)" style="fill: none; stroke: #ffffff; stroke-width: 0.05"/>
    <path d="M 340.971429 125.744516 
L 388.8 125.744516 
L 388.8 132.75871 
L 340.971429 132.75871 
L 340.971429 125.744516 
" clip-path="url(#pbcefb0608f)" style="fill: #fcaf93; stroke: #ffffff; stroke-width: 0.05"/>
    <path d="M 54 132.75871 
L 101.828571 132.75871 
L 101.828571 139.772903 
L 54 139.772903 
L 54 132.75871 
" clip-path="url(#pbcefb0608f)" style="fill: #f44f39; stroke: #ffffff; stroke-width: 0.05"/>
    <path d="M 101.828571 132.75871 
L 149.657143 132.75871 
L 149.657143 139.772903 
L 101.828571 139.772903 
L 101.828571 132.75871 
" clip-path="url(#pbcefb0608f)" style="fill: #f44f39; stroke: #ffffff; stroke-width: 0.05"/>
    <path d="M 149.657143 132.75871 
L 197.485714 132.75871 
L 197.485714 139.772903 
L 149.657143 139.772903 
L 149.657143 132.75871 
" clip-path="url(#pbcefb0608f)" style="fill: #f44f39; stroke: #ffffff; stroke-width: 0.05"/>
    <path d="M 197.485714 132.75871 
L 245.314286 132.75871 
L 245.314286 139.772903 
L 197.485714 139.772903 
L 197.485714 132.75871 
" clip-path="url(#pbcefb0608f)" style="fill: #aa1016; stroke: #ffffff; stroke-width: 0.05"/>
    <path d="M 245.314286 132.75871 
L 293.142857 132.75871 
L 293.142857 139.772903 
L 245.314286 139.772903 
L 245.314286 132.75871 
" clip-path="url(#pbcefb0608f)" style="fill: #fcaf93; stroke: #ffffff; stroke-width: 0.05"/>
    <path d="M 293.142857 132.75871 
L 340.971429 132.75871 
L 340.971429 139.772903 
L 293.142857 139.772903 
L 293.142857 132.75871 
" clip-path="url(#pbcefb0608f)" style="fill: none; stroke: #ffffff; stroke-width: 0.05"/>
    <path d="M 340.971429 132.75871 
L 388.8 132.75871 
L 388.8 139.772903 
L 340.971429 139.772903 
L 340.971429 132.75871 
" clip-path="url(#pbcefb0608f)" style="fill: #fcaf93; stroke: #ffffff; stroke-width: 0.05"/>
    <path d="M 54 139.772903 
L 101.828571 139.772903 
L 101.828571 146.787097 
L 54 146.787097 
L 54 139.772903 
" clip-path="url(#pbcefb0608f)" style="fill: #d52221; stroke: #ffffff; stroke-width: 0.05"/>
    <path d="M 101.828571 139.772903 
L 149.657143 139.772903 
L 149.657143 146.787097 
L 101.828571 146.787097 
L 101.828571 139.772903 
" clip-path="url(#pbcefb0608f)" style="fill: #d52221; stroke: #ffffff; stroke-width: 0.05"/>
    <path d="M 149.657143 139.772903 
L 197.485714 139.772903 
L 197.485714 146.787097 
L 149.657143 146.787097 
L 149.657143 139.772903 
" clip-path="url(#pbcefb0608f)" style="fill: #d52221; stroke: #ffffff; stroke-width: 0.05"/>
    <path d="M 197.485714 139.772903 
L 245.314286 139.772903 
L 245.314286 146.787097 
L 197.485714 146.787097 
L 197.485714 139.772903 
" clip-path="url(#pbcefb0608f)" style="fill: #f44f39; stroke: #ffffff; stroke-width: 0.05"/>
    <path d="M 245.314286 139.772903 
L 293.142857 139.772903 
L 293.142857 146.787097 
L 245.314286 146.787097 
L 245.314286 139.772903 
" clip-path="url(#pbcefb0608f)" style="fill: #d52221; stroke: #ffffff; stroke-width: 0.05"/>
    <path d="M 293.142857 139.772903 
L 340.971429 139.772903 
L 340.971429 146.787097 
L 293.142857 146.787097 
L 293.142857 139.772903 
" clip-path="url(#pbcefb0608f)" style="fill: none; stroke: #ffffff; stroke-width: 0.05"/>
    <path d="M 340.971429 139.772903 
L 388.8 139.772903 
L 388.8 146.787097 
L 340.971429 146.787097 
L 340.971429 139.772903 
" clip-path="url(#pbcefb0608f)" style="fill: none; stroke: #ffffff; stroke-width: 0.05"/>
    <path d="M 54 146.787097 
L 101.828571 146.787097 
L 101.828571 153.80129 
L 54 153.80129 
L 54 146.787097 
" clip-path="url(#pbcefb0608f)" style="fill: #f44f39; stroke: #ffffff; stroke-width: 0.05"/>
    <path d="M 101.828571 146.787097 
L 149.657143 146.787097 
L 149.657143 153.80129 
L 101.828571 153.80129 
L 101.828571 146.787097 
" clip-path="url(#pbcefb0608f)" style="fill: #f44f39; stroke: #ffffff; stroke-width: 0.05"/>
    <path d="M 149.657143 146.787097 
L 197.485714 146.787097 
L 197.485714 153.80129 
L 149.657143 153.80129 
L 149.657143 146.787097 
" clip-path="url(#pbcefb0608f)" style="fill: #aa1016; stroke: #ffffff; stroke-width: 0.05"/>
    <path d="M 197.485714 146.787097 
L 245.314286 146.787097 
L 245.314286 153.80129 
L 197.485714 153.80129 
L 197.485714 146.787097 
" clip-path="url(#pbcefb0608f)" style="fill: none; stroke: #ffffff; stroke-width: 0.05"/>
    <path d="M 245.314286 146.787097 
L 293.142857 146.787097 
L 293.142857 153.80129 
L 245.314286 153.80129 
L 245.314286 146.787097 
" clip-path="url(#pbcefb0608f)" style="fill: #fcaf93; stroke: #ffffff; stroke-width: 0.05"/>
    <path d="M 293.142857 146.787097 
L 340.971429 146.787097 
L 340.971429 153.80129 
L 293.142857 153.80129 
L 293.142857 146.787097 
" clip-path="url(#pbcefb0608f)" style="fill: none; stroke: #ffffff; stroke-width: 0.05"/>
    <path d="M 340.971429 146.787097 
L 388.8 146.787097 
L 388.8 153.80129 
L 340.971429 153.80129 
L 340.971429 146.787097 
" clip-path="url(#pbcefb0608f)" style="fill: none; stroke: #ffffff; stroke-width: 0.05"/>
    <path d="M 54 153.80129 
L 101.828571 153.80129 
L 101.828571 160.815484 
L 54 160.815484 
L 54 153.80129 
" clip-path="url(#pbcefb0608f)" style="fill: #d52221; stroke: #ffffff; stroke-width: 0.05"/>
    <path d="M 101.828571 153.80129 
L 149.657143 153.80129 
L 149.657143 160.815484 
L 101.828571 160.815484 
L 101.828571 153.80129 
" clip-path="url(#pbcefb0608f)" style="fill: #fc8161; stroke: #ffffff; stroke-width: 0.05"/>
    <path d="M 149.657143 153.80129 
L 197.485714 153.80129 
L 197.485714 160.815484 
L 149.657143 160.815484 
L 149.657143 153.80129 
" clip-path="url(#pbcefb0608f)" style="fill: #aa1016; stroke: #ffffff; stroke-width: 0.05"/>
    <path d="M 197.485714 153.80129 
L 245.314286 153.80129 
L 245.314286 160.815484 
L 197.485714 160.815484 
L 197.485714 153.80129 
" clip-path="url(#pbcefb0608f)" style="fill: #fc8161; stroke: #ffffff; stroke-width: 0.05"/>
    <path d="M 245.314286 153.80129 
L 293.142857 153.80129 
L 293.142857 160.815484 
L 245.314286 160.815484 
L 245.314286 153.80129 
" clip-path="url(#pbcefb0608f)" style="fill: #f44f39; stroke: #ffffff; stroke-width: 0.05"/>
    <path d="M 293.142857 153.80129 
L 340.971429 153.80129 
L 340.971429 160.815484 
L 293.142857 160.815484 
L 293.142857 153.80129 
" clip-path="url(#pbcefb0608f)" style="fill: none; stroke: #ffffff; stroke-width: 0.05"/>
    <path d="M 340.971429 153.80129 
L 388.8 153.80129 
L 388.8 160.815484 
L 340.971429 160.815484 
L 340.971429 153.80129 
" clip-path="url(#pbcefb0608f)" style="fill: #fc8161; stroke: #ffffff; stroke-width: 0.05"/>
    <path d="M 54 160.815484 
L 101.828571 160.815484 
L 101.828571 167.829677 
L 54 167.829677 
L 54 160.815484 
" clip-path="url(#pbcefb0608f)" style="fill: #aa1016; stroke: #ffffff; stroke-width: 0.05"/>
    <path d="M 101.828571 160.815484 
L 149.657143 160.815484 
L 149.657143 167.829677 
L 101.828571 167.829677 
L 101.828571 160.815484 
" clip-path="url(#pbcefb0608f)" style="fill: #f44f39; stroke: #ffffff; stroke-width: 0.05"/>
    <path d="M 149.657143 160.815484 
L 197.485714 160.815484 
L 197.485714 167.829677 
L 149.657143 167.829677 
L 149.657143 160.815484 
" clip-path="url(#pbcefb0608f)" style="fill: #f44f39; stroke: #ffffff; stroke-width: 0.05"/>
    <path d="M 197.485714 160.815484 
L 245.314286 160.815484 
L 245.314286 167.829677 
L 197.485714 167.829677 
L 197.485714 160.815484 
" clip-path="url(#pbcefb0608f)" style="fill: #f44f39; stroke: #ffffff; stroke-width: 0.05"/>
    <path d="M 245.314286 160.815484 
L 293.142857 160.815484 
L 293.142857 167.829677 
L 245.314286 167.829677 
L 245.314286 160.815484 
" clip-path="url(#pbcefb0608f)" style="fill: #d52221; stroke: #ffffff; stroke-width: 0.05"/>
    <path d="M 293.142857 160.815484 
L 340.971429 160.815484 
L 340.971429 167.829677 
L 293.142857 167.829677 
L 293.142857 160.815484 
" clip-path="url(#pbcefb0608f)" style="fill: #fcaf93; stroke: #ffffff; stroke-width: 0.05"/>
    <path d="M 340.971429 160.815484 
L 388.8 160.815484 
L 388.8 167.829677 
L 340.971429 167.829677 
L 340.971429 160.815484 
" clip-path="url(#pbcefb0608f)" style="fill: #fc8161; stroke: #ffffff; stroke-width: 0.05"/>
    <path d="M 54 167.829677 
L 101.828571 167.829677 
L 101.828571 174.843871 
L 54 174.843871 
L 54 167.829677 
" clip-path="url(#pbcefb0608f)" style="fill: #d52221; stroke: #ffffff; stroke-width: 0.05"/>
    <path d="M 101.828571 167.829677 
L 149.657143 167.829677 
L 149.657143 174.843871 
L 101.828571 174.843871 
L 101.828571 167.829677 
" clip-path="url(#pbcefb0608f)" style="fill: #f44f39; stroke: #ffffff; stroke-width: 0.05"/>
    <path d="M 149.657143 167.829677 
L 197.485714 167.829677 
L 197.485714 174.843871 
L 149.657143 174.843871 
L 149.657143 167.829677 
" clip-path="url(#pbcefb0608f)" style="fill: #aa1016; stroke: #ffffff; stroke-width: 0.05"/>
    <path d="M 197.485714 167.829677 
L 245.314286 167.829677 
L 245.314286 174.843871 
L 197.485714 174.843871 
L 197.485714 167.829677 
" clip-path="url(#pbcefb0608f)" style="fill: #fc8161; stroke: #ffffff; stroke-width: 0.05"/>
    <path d="M 245.314286 167.829677 
L 293.142857 167.829677 
L 293.142857 174.843871 
L 245.314286 174.843871 
L 245.314286 167.829677 
" clip-path="url(#pbcefb0608f)" style="fill: #f44f39; stroke: #ffffff; stroke-width: 0.05"/>
    <path d="M 293.142857 167.829677 
L 340.971429 167.829677 
L 340.971429 174.843871 
L 293.142857 174.843871 
L 293.142857 167.829677 
" clip-path="url(#pbcefb0608f)" style="fill: none; stroke: #ffffff; stroke-width: 0.05"/>
    <path d="M 340.971429 167.829677 
L 388.8 167.829677 
L 388.8 174.843871 
L 340.971429 174.843871 
L 340.971429 167.829677 
" clip-path="url(#pbcefb0608f)" style="fill: #fcaf93; stroke: #ffffff; stroke-width: 0.05"/>
    <path d="M 54 174.843871 
L 101.828571 174.843871 
L 101.828571 181.858065 
L 54 181.858065 
L 54 174.843871 
" clip-path="url(#pbcefb0608f)" style="fill: #fc8161; stroke: #ffffff; stroke-width: 0.05"/>
    <path d="M 101.828571 174.843871 
L 149.657143 174.843871 
L 149.657143 181.858065 
L 101.828571 181.858065 
L 101.828571 174.843871 
" clip-path="url(#pbcefb0608f)" style="fill: #f44f39; stroke: #ffffff; stroke-width: 0.05"/>
    <path d="M 149.657143 174.843871 
L 197.485714 174.843871 
L 197.485714 181.858065 
L 149.657143 181.858065 
L 149.657143 174.843871 
" clip-path="url(#pbcefb0608f)" style="fill: #aa1016; stroke: #ffffff; stroke-width: 0.05"/>
    <path d="M 197.485714 174.843871 
L 245.314286 174.843871 
L 245.314286 181.858065 
L 197.485714 181.858065 
L 197.485714 174.843871 
" clip-path="url(#pbcefb0608f)" style="fill: #f44f39; stroke: #ffffff; stroke-width: 0.05"/>
    <path d="M 245.314286 174.843871 
L 293.142857 174.843871 
L 293.142857 181.858065 
L 245.314286 181.858065 
L 245.314286 174.843871 
" clip-path="url(#pbcefb0608f)" style="fill: #d52221; stroke: #ffffff; stroke-width: 0.05"/>
    <path d="M 293.142857 174.843871 
L 340.971429 174.843871 
L 340.971429 181.858065 
L 293.142857 181.858065 
L 293.142857 174.843871 
" clip-path="url(#pbcefb0608f)" style="fill: none; stroke: #ffffff; stroke-width: 0.05"/>
    <path d="M 340.971429 174.843871 
L 388.8 174.843871 
L 388.8 181.858065 
L 340.971429 181.858065 
L 340.971429 174.843871 
" clip-path="url(#pbcefb0608f)" style="fill: none; stroke: #ffffff; stroke-width: 0.05"/>
    <path d="M 54 181.858065 
L 101.828571 181.858065 
L 101.828571 188.872258 
L 54 188.872258 
L 54 181.858065 
" clip-path="url(#pbcefb0608f)" style="fill: #aa1016; stroke: #ffffff; stroke-width: 0.05"/>
    <path d="M 101.828571 181.858065 
L 149.657143 181.858065 
L 149.657143 188.872258 
L 101.828571 188.872258 
L 101.828571 181.858065 
" clip-path="url(#pbcefb0608f)" style="fill: #fcaf93; stroke: #ffffff; stroke-width: 0.05"/>
    <path d="M 149.657143 181.858065 
L 197.485714 181.858065 
L 197.485714 188.872258 
L 149.657143 188.872258 
L 149.657143 181.858065 
" clip-path="url(#pbcefb0608f)" style="fill: #f44f39; stroke: #ffffff; stroke-width: 0.05"/>
    <path d="M 197.485714 181.858065 
L 245.314286 181.858065 
L 245.314286 188.872258 
L 197.485714 188.872258 
L 197.485714 181.858065 
" clip-path="url(#pbcefb0608f)" style="fill: #fcaf93; stroke: #ffffff; stroke-width: 0.05"/>
    <path d="M 245.314286 181.858065 
L 293.142857 181.858065 
L 293.142857 188.872258 
L 245.314286 188.872258 
L 245.314286 181.858065 
" clip-path="url(#pbcefb0608f)" style="fill: #fcaf93; stroke: #ffffff; stroke-width: 0.05"/>
    <path d="M 293.142857 181.858065 
L 340.971429 181.858065 
L 340.971429 188.872258 
L 293.142857 188.872258 
L 293.142857 181.858065 
" clip-path="url(#pbcefb0608f)" style="fill: none; stroke: #ffffff; stroke-width: 0.05"/>
    <path d="M 340.971429 181.858065 
L 388.8 181.858065 
L 388.8 188.872258 
L 340.971429 188.872258 
L 340.971429 181.858065 
" clip-path="url(#pbcefb0608f)" style="fill: #f44f39; stroke: #ffffff; stroke-width: 0.05"/>
    <path d="M 54 188.872258 
L 101.828571 188.872258 
L 101.828571 195.886452 
L 54 195.886452 
L 54 188.872258 
" clip-path="url(#pbcefb0608f)" style="fill: #d52221; stroke: #ffffff; stroke-width: 0.05"/>
    <path d="M 101.828571 188.872258 
L 149.657143 188.872258 
L 149.657143 195.886452 
L 101.828571 195.886452 
L 101.828571 188.872258 
" clip-path="url(#pbcefb0608f)" style="fill: #d52221; stroke: #ffffff; stroke-width: 0.05"/>
    <path d="M 149.657143 188.872258 
L 197.485714 188.872258 
L 197.485714 195.886452 
L 149.657143 195.886452 
L 149.657143 188.872258 
" clip-path="url(#pbcefb0608f)" style="fill: #d52221; stroke: #ffffff; stroke-width: 0.05"/>
    <path d="M 197.485714 188.872258 
L 245.314286 188.872258 
L 245.314286 195.886452 
L 197.485714 195.886452 
L 197.485714 188.872258 
" clip-path="url(#pbcefb0608f)" style="fill: #f44f39; stroke: #ffffff; stroke-width: 0.05"/>
    <path d="M 245.314286 188.872258 
L 293.142857 188.872258 
L 293.142857 195.886452 
L 245.314286 195.886452 
L 245.314286 188.872258 
" clip-path="url(#pbcefb0608f)" style="fill: #f44f39; stroke: #ffffff; stroke-width: 0.05"/>
    <path d="M 293.142857 188.872258 
L 340.971429 188.872258 
L 340.971429 195.886452 
L 293.142857 195.886452 
L 293.142857 188.872258 
" clip-path="url(#pbcefb0608f)" style="fill: #f44f39; stroke: #ffffff; stroke-width: 0.05"/>
    <path d="M 340.971429 188.872258 
L 388.8 188.872258 
L 388.8 195.886452 
L 340.971429 195.886452 
L 340.971429 188.872258 
" clip-path="url(#pbcefb0608f)" style="fill: #fc8161; stroke: #ffffff; stroke-width: 0.05"/>
    <path d="M 54 195.886452 
L 101.828571 195.886452 
L 101.828571 202.900645 
L 54 202.900645 
L 54 195.886452 
" clip-path="url(#pbcefb0608f)" style="fill: #f44f39; stroke: #ffffff; stroke-width: 0.05"/>
    <path d="M 101.828571 195.886452 
L 149.657143 195.886452 
L 149.657143 202.900645 
L 101.828571 202.900645 
L 101.828571 195.886452 
" clip-path="url(#pbcefb0608f)" style="fill: #fc8161; stroke: #ffffff; stroke-width: 0.05"/>
    <path d="M 149.657143 195.886452 
L 197.485714 195.886452 
L 197.485714 202.900645 
L 149.657143 202.900645 
L 149.657143 195.886452 
" clip-path="url(#pbcefb0608f)" style="fill: #aa1016; stroke: #ffffff; stroke-width: 0.05"/>
    <path d="M 197.485714 195.886452 
L 245.314286 195.886452 
L 245.314286 202.900645 
L 197.485714 202.900645 
L 197.485714 195.886452 
" clip-path="url(#pbcefb0608f)" style="fill: #fcaf93; stroke: #ffffff; stroke-width: 0.05"/>
    <path d="M 245.314286 195.886452 
L 293.142857 195.886452 
L 293.142857 202.900645 
L 245.314286 202.900645 
L 245.314286 195.886452 
" clip-path="url(#pbcefb0608f)" style="fill: #fc8161; stroke: #ffffff; stroke-width: 0.05"/>
    <path d="M 293.142857 195.886452 
L 340.971429 195.886452 
L 340.971429 202.900645 
L 293.142857 202.900645 
L 293.142857 195.886452 
" clip-path="url(#pbcefb0608f)" style="fill: #fc8161; stroke: #ffffff; stroke-width: 0.05"/>
    <path d="M 340.971429 195.886452 
L 388.8 195.886452 
L 388.8 202.900645 
L 340.971429 202.900645 
L 340.971429 195.886452 
" clip-path="url(#pbcefb0608f)" style="fill: none; stroke: #ffffff; stroke-width: 0.05"/>
    <path d="M 54 202.900645 
L 101.828571 202.900645 
L 101.828571 209.914839 
L 54 209.914839 
L 54 202.900645 
" clip-path="url(#pbcefb0608f)" style="fill: #f44f39; stroke: #ffffff; stroke-width: 0.05"/>
    <path d="M 101.828571 202.900645 
L 149.657143 202.900645 
L 149.657143 209.914839 
L 101.828571 209.914839 
L 101.828571 202.900645 
" clip-path="url(#pbcefb0608f)" style="fill: #f44f39; stroke: #ffffff; stroke-width: 0.05"/>
    <path d="M 149.657143 202.900645 
L 197.485714 202.900645 
L 197.485714 209.914839 
L 149.657143 209.914839 
L 149.657143 202.900645 
" clip-path="url(#pbcefb0608f)" style="fill: #d52221; stroke: #ffffff; stroke-width: 0.05"/>
    <path d="M 197.485714 202.900645 
L 245.314286 202.900645 
L 245.314286 209.914839 
L 197.485714 209.914839 
L 197.485714 202.900645 
" clip-path="url(#pbcefb0608f)" style="fill: #aa1016; stroke: #ffffff; stroke-width: 0.05"/>
    <path d="M 245.314286 202.900645 
L 293.142857 202.900645 
L 293.142857 209.914839 
L 245.314286 209.914839 
L 245.314286 202.900645 
" clip-path="url(#pbcefb0608f)" style="fill: #f44f39; stroke: #ffffff; stroke-width: 0.05"/>
    <path d="M 293.142857 202.900645 
L 340.971429 202.900645 
L 340.971429 209.914839 
L 293.142857 209.914839 
L 293.142857 202.900645 
" clip-path="url(#pbcefb0608f)" style="fill: none; stroke: #ffffff; stroke-width: 0.05"/>
    <path d="M 340.971429 202.900645 
L 388.8 202.900645 
L 388.8 209.914839 
L 340.971429 209.914839 
L 340.971429 202.900645 
" clip-path="url(#pbcefb0608f)" style="fill: #fcaf93; stroke: #ffffff; stroke-width: 0.05"/>
    <path d="M 54 209.914839 
L 101.828571 209.914839 
L 101.828571 216.929032 
L 54 216.929032 
L 54 209.914839 
" clip-path="url(#pbcefb0608f)" style="fill: none; stroke: #ffffff; stroke-width: 0.05"/>
    <path d="M 101.828571 209.914839 
L 149.657143 209.914839 
L 149.657143 216.929032 
L 101.828571 216.929032 
L 101.828571 209.914839 
" clip-path="url(#pbcefb0608f)" style="fill: #d52221; stroke: #ffffff; stroke-width: 0.05"/>
    <path d="M 149.657143 209.914839 
L 197.485714 209.914839 
L 197.485714 216.929032 
L 149.657143 216.929032 
L 149.657143 209.914839 
" clip-path="url(#pbcefb0608f)" style="fill: #aa1016; stroke: #ffffff; stroke-width: 0.05"/>
    <path d="M 197.485714 209.914839 
L 245.314286 209.914839 
L 245.314286 216.929032 
L 197.485714 216.929032 
L 197.485714 209.914839 
" clip-path="url(#pbcefb0608f)" style="fill: #fc8161; stroke: #ffffff; stroke-width: 0.05"/>
    <path d="M 245.314286 209.914839 
L 293.142857 209.914839 
L 293.142857 216.929032 
L 245.314286 216.929032 
L 245.314286 209.914839 
" clip-path="url(#pbcefb0608f)" style="fill: none; stroke: #ffffff; stroke-width: 0.05"/>
    <path d="M 293.142857 209.914839 
L 340.971429 209.914839 
L 340.971429 216.929032 
L 293.142857 216.929032 
L 293.142857 209.914839 
" clip-path="url(#pbcefb0608f)" style="fill: none; stroke: #ffffff; stroke-width: 0.05"/>
    <path d="M 340.971429 209.914839 
L 388.8 209.914839 
L 388.8 216.929032 
L 340.971429 216.929032 
L 340.971429 209.914839 
" clip-path="url(#pbcefb0608f)" style="fill: #fc8161; stroke: #ffffff; stroke-width: 0.05"/>
    <path d="M 54 216.929032 
L 101.828571 216.929032 
L 101.828571 223.943226 
L 54 223.943226 
L 54 216.929032 
" clip-path="url(#pbcefb0608f)" style="fill: #d52221; stroke: #ffffff; stroke-width: 0.05"/>
    <path d="M 101.828571 216.929032 
L 149.657143 216.929032 
L 149.657143 223.943226 
L 101.828571 223.943226 
L 101.828571 216.929032 
" clip-path="url(#pbcefb0608f)" style="fill: #f44f39; stroke: #ffffff; stroke-width: 0.05"/>
    <path d="M 149.657143 216.929032 
L 197.485714 216.929032 
L 197.485714 223.943226 
L 149.657143 223.943226 
L 149.657143 216.929032 
" clip-path="url(#pbcefb0608f)" style="fill: #aa1016; stroke: #ffffff; stroke-width: 0.05"/>
    <path d="M 197.485714 216.929032 
L 245.314286 216.929032 
L 245.314286 223.943226 
L 197.485714 223.943226 
L 197.485714 216.929032 
" clip-path="url(#pbcefb0608f)" style="fill: none; stroke: #ffffff; stroke-width: 0.05"/>
    <path d="M 245.314286 216.929032 
L 293.142857 216.929032 
L 293.142857 223.943226 
L 245.314286 223.943226 
L 245.314286 216.929032 
" clip-path="url(#pbcefb0608f)" style="fill: #f44f39; stroke: #ffffff; stroke-width: 0.05"/>
    <path d="M 293.142857 216.929032 
L 340.971429 216.929032 
L 340.971429 223.943226 
L 293.142857 223.943226 
L 293.142857 216.929032 
" clip-path="url(#pbcefb0608f)" style="fill: #fcaf93; stroke: #ffffff; stroke-width: 0.05"/>
    <path d="M 340.971429 216.929032 
L 388.8 216.929032 
L 388.8 223.943226 
L 340.971429 223.943226 
L 340.971429 216.929032 
" clip-path="url(#pbcefb0608f)" style="fill: #f44f39; stroke: #ffffff; stroke-width: 0.05"/>
    <path d="M 54 223.943226 
L 101.828571 223.943226 
L 101.828571 230.957419 
L 54 230.957419 
L 54 223.943226 
" clip-path="url(#pbcefb0608f)" style="fill: #d52221; stroke: #ffffff; stroke-width: 0.05"/>
    <path d="M 101.828571 223.943226 
L 149.657143 223.943226 
L 149.657143 230.957419 
L 101.828571 230.957419 
L 101.828571 223.943226 
" clip-path="url(#pbcefb0608f)" style="fill: #f44f39; stroke: #ffffff; stroke-width: 0.05"/>
    <path d="M 149.657143 223.943226 
L 197.485714 223.943226 
L 197.485714 230.957419 
L 149.657143 230.957419 
L 149.657143 223.943226 
" clip-path="url(#pbcefb0608f)" style="fill: #d52221; stroke: #ffffff; stroke-width: 0.05"/>
    <path d="M 197.485714 223.943226 
L 245.314286 223.943226 
L 245.314286 230.957419 
L 197.485714 230.957419 
L 197.485714 223.943226 
" clip-path="url(#pbcefb0608f)" style="fill: #d52221; stroke: #ffffff; stroke-width: 0.05"/>
    <path d="M 245.314286 223.943226 
L 293.142857 223.943226 
L 293.142857 230.957419 
L 245.314286 230.957419 
L 245.314286 223.943226 
" clip-path="url(#pbcefb0608f)" style="fill: #d52221; stroke: #ffffff; stroke-width: 0.05"/>
    <path d="M 293.142857 223.943226 
L 340.971429 223.943226 
L 340.971429 230.957419 
L 293.142857 230.957419 
L 293.142857 223.943226 
" clip-path="url(#pbcefb0608f)" style="fill: none; stroke: #ffffff; stroke-width: 0.05"/>
    <path d="M 340.971429 223.943226 
L 388.8 223.943226 
L 388.8 230.957419 
L 340.971429 230.957419 
L 340.971429 223.943226 
" clip-path="url(#pbcefb0608f)" style="fill: #fc8161; stroke: #ffffff; stroke-width: 0.05"/>
    <path d="M 54 230.957419 
L 101.828571 230.957419 
L 101.828571 237.971613 
L 54 237.971613 
L 54 230.957419 
" clip-path="url(#pbcefb0608f)" style="fill: #aa1016; stroke: #ffffff; stroke-width: 0.05"/>
    <path d="M 101.828571 230.957419 
L 149.657143 230.957419 
L 149.657143 237.971613 
L 101.828571 237.971613 
L 101.828571 230.957419 
" clip-path="url(#pbcefb0608f)" style="fill: #fc8161; stroke: #ffffff; stroke-width: 0.05"/>
    <path d="M 149.657143 230.957419 
L 197.485714 230.957419 
L 197.485714 237.971613 
L 149.657143 237.971613 
L 149.657143 230.957419 
" clip-path="url(#pbcefb0608f)" style="fill: #fc8161; stroke: #ffffff; stroke-width: 0.05"/>
    <path d="M 197.485714 230.957419 
L 245.314286 230.957419 
L 245.314286 237.971613 
L 197.485714 237.971613 
L 197.485714 230.957419 
" clip-path="url(#pbcefb0608f)" style="fill: none; stroke: #ffffff; stroke-width: 0.05"/>
    <path d="M 245.314286 230.957419 
L 293.142857 230.957419 
L 293.142857 237.971613 
L 245.314286 237.971613 
L 245.314286 230.957419 
" clip-path="url(#pbcefb0608f)" style="fill: #fc8161; stroke: #ffffff; stroke-width: 0.05"/>
    <path d="M 293.142857 230.957419 
L 340.971429 230.957419 
L 340.971429 237.971613 
L 293.142857 237.971613 
L 293.142857 230.957419 
" clip-path="url(#pbcefb0608f)" style="fill: none; stroke: #ffffff; stroke-width: 0.05"/>
    <path d="M 340.971429 230.957419 
L 388.8 230.957419 
L 388.8 237.971613 
L 340.971429 237.971613 
L 340.971429 230.957419 
" clip-path="url(#pbcefb0608f)" style="fill: none; stroke: #ffffff; stroke-width: 0.05"/>
    <path d="M 54 237.971613 
L 101.828571 237.971613 
L 101.828571 244.985806 
L 54 244.985806 
L 54 237.971613 
" clip-path="url(#pbcefb0608f)" style="fill: #aa1016; stroke: #ffffff; stroke-width: 0.05"/>
    <path d="M 101.828571 237.971613 
L 149.657143 237.971613 
L 149.657143 244.985806 
L 101.828571 244.985806 
L 101.828571 237.971613 
" clip-path="url(#pbcefb0608f)" style="fill: #fc8161; stroke: #ffffff; stroke-width: 0.05"/>
    <path d="M 149.657143 237.971613 
L 197.485714 237.971613 
L 197.485714 244.985806 
L 149.657143 244.985806 
L 149.657143 237.971613 
" clip-path="url(#pbcefb0608f)" style="fill: #fc8161; stroke: #ffffff; stroke-width: 0.05"/>
    <path d="M 197.485714 237.971613 
L 245.314286 237.971613 
L 245.314286 244.985806 
L 197.485714 244.985806 
L 197.485714 237.971613 
" clip-path="url(#pbcefb0608f)" style="fill: none; stroke: #ffffff; stroke-width: 0.05"/>
    <path d="M 245.314286 237.971613 
L 293.142857 237.971613 
L 293.142857 244.985806 
L 245.314286 244.985806 
L 245.314286 237.971613 
" clip-path="url(#pbcefb0608f)" style="fill: #fc8161; stroke: #ffffff; stroke-width: 0.05"/>
    <path d="M 293.142857 237.971613 
L 340.971429 237.971613 
L 340.971429 244.985806 
L 293.142857 244.985806 
L 293.142857 237.971613 
" clip-path="url(#pbcefb0608f)" style="fill: none; stroke: #ffffff; stroke-width: 0.05"/>
    <path d="M 340.971429 237.971613 
L 388.8 237.971613 
L 388.8 244.985806 
L 340.971429 244.985806 
L 340.971429 237.971613 
" clip-path="url(#pbcefb0608f)" style="fill: #fc8161; stroke: #ffffff; stroke-width: 0.05"/>
    <path d="M 54 244.985806 
L 101.828571 244.985806 
L 101.828571 252 
L 54 252 
L 54 244.985806 
" clip-path="url(#pbcefb0608f)" style="fill: #aa1016; stroke: #ffffff; stroke-width: 0.05"/>
    <path d="M 101.828571 244.985806 
L 149.657143 244.985806 
L 149.657143 252 
L 101.828571 252 
L 101.828571 244.985806 
" clip-path="url(#pbcefb0608f)" style="fill: #f44f39; stroke: #ffffff; stroke-width: 0.05"/>
    <path d="M 149.657143 244.985806 
L 197.485714 244.985806 
L 197.485714 252 
L 149.657143 252 
L 149.657143 244.985806 
" clip-path="url(#pbcefb0608f)" style="fill: #f44f39; stroke: #ffffff; stroke-width: 0.05"/>
    <path d="M 197.485714 244.985806 
L 245.314286 244.985806 
L 245.314286 252 
L 197.485714 252 
L 197.485714 244.985806 
" clip-path="url(#pbcefb0608f)" style="fill: #f44f39; stroke: #ffffff; stroke-width: 0.05"/>
    <path d="M 245.314286 244.985806 
L 293.142857 244.985806 
L 293.142857 252 
L 245.314286 252 
L 245.314286 244.985806 
" clip-path="url(#pbcefb0608f)" style="fill: #fc8161; stroke: #ffffff; stroke-width: 0.05"/>
    <path d="M 293.142857 244.985806 
L 340.971429 244.985806 
L 340.971429 252 
L 293.142857 252 
L 293.142857 244.985806 
" clip-path="url(#pbcefb0608f)" style="fill: #fcaf93; stroke: #ffffff; stroke-width: 0.05"/>
    <path d="M 340.971429 244.985806 
L 388.8 244.985806 
L 388.8 252 
L 340.971429 252 
L 340.971429 244.985806 
" clip-path="url(#pbcefb0608f)" style="fill: #fc8161; stroke: #ffffff; stroke-width: 0.05"/>
   </g>
   <g id="matplotlib.axis_1">
    <g id="xtick_1">
     <g id="line2d_1">
      <defs>
       <path id="m27c5da2910" d="M 0 0 
L 0 3.5 
" style="stroke: #000000; stroke-width: 0.8"/>
      </defs>
      <g>
       <use xlink:href="#m27c5da2910" x="77.914286" y="252" style="stroke: #000000; stroke-width: 0.8"/>
      </g>
     </g>
     <g id="text_1">
      <!-- M/M -->
      <g transform="translate(67.601786 266.598437)scale(0.1 -0.1)">
       <defs>
        <path id="DejaVuSans-4d" d="M 628 4666 
L 1569 4666 
L 2759 1491 
L 3956 4666 
L 4897 4666 
L 4897 0 
L 4281 0 
L 4281 4097 
L 3078 897 
L 2444 897 
L 1241 4097 
L 1241 0 
L 628 0 
L 628 4666 
z
" transform="scale(0.015625)"/>
        <path id="DejaVuSans-2f" d="M 1625 4666 
L 2156 4666 
L 531 -594 
L 0 -594 
L 1625 4666 
z
" transform="scale(0.015625)"/>
       </defs>
       <use xlink:href="#DejaVuSans-4d"/>
       <use xlink:href="#DejaVuSans-2f" x="86.279297"/>
       <use xlink:href="#DejaVuSans-4d" x="119.970703"/>
      </g>
     </g>
    </g>
    <g id="xtick_2">
     <g id="line2d_2">
      <g>
       <use xlink:href="#m27c5da2910" x="125.742857" y="252" style="stroke: #000000; stroke-width: 0.8"/>
      </g>
     </g>
     <g id="text_2">
      <!-- Gen -->
      <g transform="translate(115.623326 266.598437)scale(0.1 -0.1)">
       <defs>
        <path id="DejaVuSans-47" d="M 3809 666 
L 3809 1919 
L 2778 1919 
L 2778 2438 
L 4434 2438 
L 4434 434 
Q 4069 175 3628 42 
Q 3188 -91 2688 -91 
Q 1594 -91 976 548 
Q 359 1188 359 2328 
Q 359 3472 976 4111 
Q 1594 4750 2688 4750 
Q 3144 4750 3555 4637 
Q 3966 4525 4313 4306 
L 4313 3634 
Q 3963 3931 3569 4081 
Q 3175 4231 2741 4231 
Q 1884 4231 1454 3753 
Q 1025 3275 1025 2328 
Q 1025 1384 1454 906 
Q 1884 428 2741 428 
Q 3075 428 3337 486 
Q 3600 544 3809 666 
z
" transform="scale(0.015625)"/>
        <path id="DejaVuSans-65" d="M 3597 1894 
L 3597 1613 
L 953 1613 
Q 991 1019 1311 708 
Q 1631 397 2203 397 
Q 2534 397 2845 478 
Q 3156 559 3463 722 
L 3463 178 
Q 3153 47 2828 -22 
Q 2503 -91 2169 -91 
Q 1331 -91 842 396 
Q 353 884 353 1716 
Q 353 2575 817 3079 
Q 1281 3584 2069 3584 
Q 2775 3584 3186 3129 
Q 3597 2675 3597 1894 
z
M 3022 2063 
Q 3016 2534 2758 2815 
Q 2500 3097 2075 3097 
Q 1594 3097 1305 2825 
Q 1016 2553 972 2059 
L 3022 2063 
z
" transform="scale(0.015625)"/>
        <path id="DejaVuSans-6e" d="M 3513 2113 
L 3513 0 
L 2938 0 
L 2938 2094 
Q 2938 2591 2744 2837 
Q 2550 3084 2163 3084 
Q 1697 3084 1428 2787 
Q 1159 2491 1159 1978 
L 1159 0 
L 581 0 
L 581 3500 
L 1159 3500 
L 1159 2956 
Q 1366 3272 1645 3428 
Q 1925 3584 2291 3584 
Q 2894 3584 3203 3211 
Q 3513 2838 3513 2113 
z
" transform="scale(0.015625)"/>
       </defs>
       <use xlink:href="#DejaVuSans-47"/>
       <use xlink:href="#DejaVuSans-65" x="77.490234"/>
       <use xlink:href="#DejaVuSans-6e" x="139.013672"/>
      </g>
     </g>
    </g>
    <g id="xtick_3">
     <g id="line2d_3">
      <g>
       <use xlink:href="#m27c5da2910" x="173.571429" y="252" style="stroke: #000000; stroke-width: 0.8"/>
      </g>
     </g>
     <g id="text_3">
      <!-- F/M -->
      <g transform="translate(164.69721 266.598437)scale(0.1 -0.1)">
       <defs>
        <path id="DejaVuSans-46" d="M 628 4666 
L 3309 4666 
L 3309 4134 
L 1259 4134 
L 1259 2759 
L 3109 2759 
L 3109 2228 
L 1259 2228 
L 1259 0 
L 628 0 
L 628 4666 
z
" transform="scale(0.015625)"/>
       </defs>
       <use xlink:href="#DejaVuSans-46"/>
       <use xlink:href="#DejaVuSans-2f" x="57.519531"/>
       <use xlink:href="#DejaVuSans-4d" x="91.210938"/>
      </g>
     </g>
    </g>
    <g id="xtick_4">
     <g id="line2d_4">
      <g>
       <use xlink:href="#m27c5da2910" x="221.4" y="252" style="stroke: #000000; stroke-width: 0.8"/>
      </g>
     </g>
     <g id="text_4">
      <!-- F/F -->
      <g transform="translate(213.964063 266.598437)scale(0.1 -0.1)">
       <use xlink:href="#DejaVuSans-46"/>
       <use xlink:href="#DejaVuSans-2f" x="57.519531"/>
       <use xlink:href="#DejaVuSans-46" x="91.210938"/>
      </g>
     </g>
    </g>
    <g id="xtick_5">
     <g id="line2d_5">
      <g>
       <use xlink:href="#m27c5da2910" x="269.228571" y="252" style="stroke: #000000; stroke-width: 0.8"/>
      </g>
     </g>
     <g id="text_5">
      <!-- Multi -->
      <g transform="translate(257.007478 266.598437)scale(0.1 -0.1)">
       <defs>
        <path id="DejaVuSans-75" d="M 544 1381 
L 544 3500 
L 1119 3500 
L 1119 1403 
Q 1119 906 1312 657 
Q 1506 409 1894 409 
Q 2359 409 2629 706 
Q 2900 1003 2900 1516 
L 2900 3500 
L 3475 3500 
L 3475 0 
L 2900 0 
L 2900 538 
Q 2691 219 2414 64 
Q 2138 -91 1772 -91 
Q 1169 -91 856 284 
Q 544 659 544 1381 
z
M 1991 3584 
L 1991 3584 
z
" transform="scale(0.015625)"/>
        <path id="DejaVuSans-6c" d="M 603 4863 
L 1178 4863 
L 1178 0 
L 603 0 
L 603 4863 
z
" transform="scale(0.015625)"/>
        <path id="DejaVuSans-74" d="M 1172 4494 
L 1172 3500 
L 2356 3500 
L 2356 3053 
L 1172 3053 
L 1172 1153 
Q 1172 725 1289 603 
Q 1406 481 1766 481 
L 2356 481 
L 2356 0 
L 1766 0 
Q 1100 0 847 248 
Q 594 497 594 1153 
L 594 3053 
L 172 3053 
L 172 3500 
L 594 3500 
L 594 4494 
L 1172 4494 
z
" transform="scale(0.015625)"/>
        <path id="DejaVuSans-69" d="M 603 3500 
L 1178 3500 
L 1178 0 
L 603 0 
L 603 3500 
z
M 603 4863 
L 1178 4863 
L 1178 4134 
L 603 4134 
L 603 4863 
z
" transform="scale(0.015625)"/>
       </defs>
       <use xlink:href="#DejaVuSans-4d"/>
       <use xlink:href="#DejaVuSans-75" x="86.279297"/>
       <use xlink:href="#DejaVuSans-6c" x="149.658203"/>
       <use xlink:href="#DejaVuSans-74" x="177.441406"/>
       <use xlink:href="#DejaVuSans-69" x="216.650391"/>
      </g>
     </g>
    </g>
    <g id="xtick_6">
     <g id="line2d_6">
      <g>
       <use xlink:href="#m27c5da2910" x="317.057143" y="252" style="stroke: #000000; stroke-width: 0.8"/>
      </g>
     </g>
     <g id="text_6">
      <!-- No category -->
      <g transform="translate(286.569643 266.598437)scale(0.1 -0.1)">
       <defs>
        <path id="DejaVuSans-4e" d="M 628 4666 
L 1478 4666 
L 3547 763 
L 3547 4666 
L 4159 4666 
L 4159 0 
L 3309 0 
L 1241 3903 
L 1241 0 
L 628 0 
L 628 4666 
z
" transform="scale(0.015625)"/>
        <path id="DejaVuSans-6f" d="M 1959 3097 
Q 1497 3097 1228 2736 
Q 959 2375 959 1747 
Q 959 1119 1226 758 
Q 1494 397 1959 397 
Q 2419 397 2687 759 
Q 2956 1122 2956 1747 
Q 2956 2369 2687 2733 
Q 2419 3097 1959 3097 
z
M 1959 3584 
Q 2709 3584 3137 3096 
Q 3566 2609 3566 1747 
Q 3566 888 3137 398 
Q 2709 -91 1959 -91 
Q 1206 -91 779 398 
Q 353 888 353 1747 
Q 353 2609 779 3096 
Q 1206 3584 1959 3584 
z
" transform="scale(0.015625)"/>
        <path id="DejaVuSans-20" transform="scale(0.015625)"/>
        <path id="DejaVuSans-63" d="M 3122 3366 
L 3122 2828 
Q 2878 2963 2633 3030 
Q 2388 3097 2138 3097 
Q 1578 3097 1268 2742 
Q 959 2388 959 1747 
Q 959 1106 1268 751 
Q 1578 397 2138 397 
Q 2388 397 2633 464 
Q 2878 531 3122 666 
L 3122 134 
Q 2881 22 2623 -34 
Q 2366 -91 2075 -91 
Q 1284 -91 818 406 
Q 353 903 353 1747 
Q 353 2603 823 3093 
Q 1294 3584 2113 3584 
Q 2378 3584 2631 3529 
Q 2884 3475 3122 3366 
z
" transform="scale(0.015625)"/>
        <path id="DejaVuSans-61" d="M 2194 1759 
Q 1497 1759 1228 1600 
Q 959 1441 959 1056 
Q 959 750 1161 570 
Q 1363 391 1709 391 
Q 2188 391 2477 730 
Q 2766 1069 2766 1631 
L 2766 1759 
L 2194 1759 
z
M 3341 1997 
L 3341 0 
L 2766 0 
L 2766 531 
Q 2569 213 2275 61 
Q 1981 -91 1556 -91 
Q 1019 -91 701 211 
Q 384 513 384 1019 
Q 384 1609 779 1909 
Q 1175 2209 1959 2209 
L 2766 2209 
L 2766 2266 
Q 2766 2663 2505 2880 
Q 2244 3097 1772 3097 
Q 1472 3097 1187 3025 
Q 903 2953 641 2809 
L 641 3341 
Q 956 3463 1253 3523 
Q 1550 3584 1831 3584 
Q 2591 3584 2966 3190 
Q 3341 2797 3341 1997 
z
" transform="scale(0.015625)"/>
        <path id="DejaVuSans-67" d="M 2906 1791 
Q 2906 2416 2648 2759 
Q 2391 3103 1925 3103 
Q 1463 3103 1205 2759 
Q 947 2416 947 1791 
Q 947 1169 1205 825 
Q 1463 481 1925 481 
Q 2391 481 2648 825 
Q 2906 1169 2906 1791 
z
M 3481 434 
Q 3481 -459 3084 -895 
Q 2688 -1331 1869 -1331 
Q 1566 -1331 1297 -1286 
Q 1028 -1241 775 -1147 
L 775 -588 
Q 1028 -725 1275 -790 
Q 1522 -856 1778 -856 
Q 2344 -856 2625 -561 
Q 2906 -266 2906 331 
L 2906 616 
Q 2728 306 2450 153 
Q 2172 0 1784 0 
Q 1141 0 747 490 
Q 353 981 353 1791 
Q 353 2603 747 3093 
Q 1141 3584 1784 3584 
Q 2172 3584 2450 3431 
Q 2728 3278 2906 2969 
L 2906 3500 
L 3481 3500 
L 3481 434 
z
" transform="scale(0.015625)"/>
        <path id="DejaVuSans-72" d="M 2631 2963 
Q 2534 3019 2420 3045 
Q 2306 3072 2169 3072 
Q 1681 3072 1420 2755 
Q 1159 2438 1159 1844 
L 1159 0 
L 581 0 
L 581 3500 
L 1159 3500 
L 1159 2956 
Q 1341 3275 1631 3429 
Q 1922 3584 2338 3584 
Q 2397 3584 2469 3576 
Q 2541 3569 2628 3553 
L 2631 2963 
z
" transform="scale(0.015625)"/>
        <path id="DejaVuSans-79" d="M 2059 -325 
Q 1816 -950 1584 -1140 
Q 1353 -1331 966 -1331 
L 506 -1331 
L 506 -850 
L 844 -850 
Q 1081 -850 1212 -737 
Q 1344 -625 1503 -206 
L 1606 56 
L 191 3500 
L 800 3500 
L 1894 763 
L 2988 3500 
L 3597 3500 
L 2059 -325 
z
" transform="scale(0.015625)"/>
       </defs>
       <use xlink:href="#DejaVuSans-4e"/>
       <use xlink:href="#DejaVuSans-6f" x="74.804688"/>
       <use xlink:href="#DejaVuSans-20" x="135.986328"/>
       <use xlink:href="#DejaVuSans-63" x="167.773438"/>
       <use xlink:href="#DejaVuSans-61" x="222.753906"/>
       <use xlink:href="#DejaVuSans-74" x="284.033203"/>
       <use xlink:href="#DejaVuSans-65" x="323.242188"/>
       <use xlink:href="#DejaVuSans-67" x="384.765625"/>
       <use xlink:href="#DejaVuSans-6f" x="448.242188"/>
       <use xlink:href="#DejaVuSans-72" x="509.423828"/>
       <use xlink:href="#DejaVuSans-79" x="550.537109"/>
      </g>
     </g>
    </g>
    <g id="xtick_7">
     <g id="line2d_7">
      <g>
       <use xlink:href="#m27c5da2910" x="364.885714" y="252" style="stroke: #000000; stroke-width: 0.8"/>
      </g>
     </g>
     <g id="text_7">
      <!-- Other -->
      <g transform="translate(350.688839 266.598437)scale(0.1 -0.1)">
       <defs>
        <path id="DejaVuSans-4f" d="M 2522 4238 
Q 1834 4238 1429 3725 
Q 1025 3213 1025 2328 
Q 1025 1447 1429 934 
Q 1834 422 2522 422 
Q 3209 422 3611 934 
Q 4013 1447 4013 2328 
Q 4013 3213 3611 3725 
Q 3209 4238 2522 4238 
z
M 2522 4750 
Q 3503 4750 4090 4092 
Q 4678 3434 4678 2328 
Q 4678 1225 4090 567 
Q 3503 -91 2522 -91 
Q 1538 -91 948 565 
Q 359 1222 359 2328 
Q 359 3434 948 4092 
Q 1538 4750 2522 4750 
z
" transform="scale(0.015625)"/>
        <path id="DejaVuSans-68" d="M 3513 2113 
L 3513 0 
L 2938 0 
L 2938 2094 
Q 2938 2591 2744 2837 
Q 2550 3084 2163 3084 
Q 1697 3084 1428 2787 
Q 1159 2491 1159 1978 
L 1159 0 
L 581 0 
L 581 4863 
L 1159 4863 
L 1159 2956 
Q 1366 3272 1645 3428 
Q 1925 3584 2291 3584 
Q 2894 3584 3203 3211 
Q 3513 2838 3513 2113 
z
" transform="scale(0.015625)"/>
       </defs>
       <use xlink:href="#DejaVuSans-4f"/>
       <use xlink:href="#DejaVuSans-74" x="78.710938"/>
       <use xlink:href="#DejaVuSans-68" x="117.919922"/>
       <use xlink:href="#DejaVuSans-65" x="181.298828"/>
       <use xlink:href="#DejaVuSans-72" x="242.822266"/>
      </g>
     </g>
    </g>
    <g id="text_8">
     <!-- categories -->
     <g transform="translate(195.190625 280.276563)scale(0.1 -0.1)">
      <defs>
       <path id="DejaVuSans-73" d="M 2834 3397 
L 2834 2853 
Q 2591 2978 2328 3040 
Q 2066 3103 1784 3103 
Q 1356 3103 1142 2972 
Q 928 2841 928 2578 
Q 928 2378 1081 2264 
Q 1234 2150 1697 2047 
L 1894 2003 
Q 2506 1872 2764 1633 
Q 3022 1394 3022 966 
Q 3022 478 2636 193 
Q 2250 -91 1575 -91 
Q 1294 -91 989 -36 
Q 684 19 347 128 
L 347 722 
Q 666 556 975 473 
Q 1284 391 1588 391 
Q 1994 391 2212 530 
Q 2431 669 2431 922 
Q 2431 1156 2273 1281 
Q 2116 1406 1581 1522 
L 1381 1569 
Q 847 1681 609 1914 
Q 372 2147 372 2553 
Q 372 3047 722 3315 
Q 1072 3584 1716 3584 
Q 2034 3584 2315 3537 
Q 2597 3491 2834 3397 
z
" transform="scale(0.015625)"/>
      </defs>
      <use xlink:href="#DejaVuSans-63"/>
      <use xlink:href="#DejaVuSans-61" x="54.980469"/>
      <use xlink:href="#DejaVuSans-74" x="116.259766"/>
      <use xlink:href="#DejaVuSans-65" x="155.46875"/>
      <use xlink:href="#DejaVuSans-67" x="216.992188"/>
      <use xlink:href="#DejaVuSans-6f" x="280.46875"/>
      <use xlink:href="#DejaVuSans-72" x="341.650391"/>
      <use xlink:href="#DejaVuSans-69" x="382.763672"/>
      <use xlink:href="#DejaVuSans-65" x="410.546875"/>
      <use xlink:href="#DejaVuSans-73" x="472.070312"/>
     </g>
    </g>
   </g>
   <g id="matplotlib.axis_2">
    <g id="ytick_1">
     <g id="line2d_8">
      <defs>
       <path id="mb1078adb0b" d="M 0 0 
L -3.5 0 
" style="stroke: #000000; stroke-width: 0.8"/>
      </defs>
      <g>
       <use xlink:href="#mb1078adb0b" x="54" y="38.067097" style="stroke: #000000; stroke-width: 0.8"/>
      </g>
     </g>
     <g id="text_9">
      <!-- Elim Garak/Julian Bashir -->
      <g transform="translate(-72.98125 41.866316)scale(0.1 -0.1)">
       <defs>
        <path id="DejaVuSans-45" d="M 628 4666 
L 3578 4666 
L 3578 4134 
L 1259 4134 
L 1259 2753 
L 3481 2753 
L 3481 2222 
L 1259 2222 
L 1259 531 
L 3634 531 
L 3634 0 
L 628 0 
L 628 4666 
z
" transform="scale(0.015625)"/>
        <path id="DejaVuSans-6d" d="M 3328 2828 
Q 3544 3216 3844 3400 
Q 4144 3584 4550 3584 
Q 5097 3584 5394 3201 
Q 5691 2819 5691 2113 
L 5691 0 
L 5113 0 
L 5113 2094 
Q 5113 2597 4934 2840 
Q 4756 3084 4391 3084 
Q 3944 3084 3684 2787 
Q 3425 2491 3425 1978 
L 3425 0 
L 2847 0 
L 2847 2094 
Q 2847 2600 2669 2842 
Q 2491 3084 2119 3084 
Q 1678 3084 1418 2786 
Q 1159 2488 1159 1978 
L 1159 0 
L 581 0 
L 581 3500 
L 1159 3500 
L 1159 2956 
Q 1356 3278 1631 3431 
Q 1906 3584 2284 3584 
Q 2666 3584 2933 3390 
Q 3200 3197 3328 2828 
z
" transform="scale(0.015625)"/>
        <path id="DejaVuSans-6b" d="M 581 4863 
L 1159 4863 
L 1159 1991 
L 2875 3500 
L 3609 3500 
L 1753 1863 
L 3688 0 
L 2938 0 
L 1159 1709 
L 1159 0 
L 581 0 
L 581 4863 
z
" transform="scale(0.015625)"/>
        <path id="DejaVuSans-4a" d="M 628 4666 
L 1259 4666 
L 1259 325 
Q 1259 -519 939 -900 
Q 619 -1281 -91 -1281 
L -331 -1281 
L -331 -750 
L -134 -750 
Q 284 -750 456 -515 
Q 628 -281 628 325 
L 628 4666 
z
" transform="scale(0.015625)"/>
        <path id="DejaVuSans-42" d="M 1259 2228 
L 1259 519 
L 2272 519 
Q 2781 519 3026 730 
Q 3272 941 3272 1375 
Q 3272 1813 3026 2020 
Q 2781 2228 2272 2228 
L 1259 2228 
z
M 1259 4147 
L 1259 2741 
L 2194 2741 
Q 2656 2741 2882 2914 
Q 3109 3088 3109 3444 
Q 3109 3797 2882 3972 
Q 2656 4147 2194 4147 
L 1259 4147 
z
M 628 4666 
L 2241 4666 
Q 2963 4666 3353 4366 
Q 3744 4066 3744 3513 
Q 3744 3084 3544 2831 
Q 3344 2578 2956 2516 
Q 3422 2416 3680 2098 
Q 3938 1781 3938 1306 
Q 3938 681 3513 340 
Q 3088 0 2303 0 
L 628 0 
L 628 4666 
z
" transform="scale(0.015625)"/>
       </defs>
       <use xlink:href="#DejaVuSans-45"/>
       <use xlink:href="#DejaVuSans-6c" x="63.183594"/>
       <use xlink:href="#DejaVuSans-69" x="90.966797"/>
       <use xlink:href="#DejaVuSans-6d" x="118.75"/>
       <use xlink:href="#DejaVuSans-20" x="216.162109"/>
       <use xlink:href="#DejaVuSans-47" x="247.949219"/>
       <use xlink:href="#DejaVuSans-61" x="325.439453"/>
       <use xlink:href="#DejaVuSans-72" x="386.71875"/>
       <use xlink:href="#DejaVuSans-61" x="427.832031"/>
       <use xlink:href="#DejaVuSans-6b" x="489.111328"/>
       <use xlink:href="#DejaVuSans-2f" x="547.021484"/>
       <use xlink:href="#DejaVuSans-4a" x="580.712891"/>
       <use xlink:href="#DejaVuSans-75" x="610.205078"/>
       <use xlink:href="#DejaVuSans-6c" x="673.583984"/>
       <use xlink:href="#DejaVuSans-69" x="701.367188"/>
       <use xlink:href="#DejaVuSans-61" x="729.150391"/>
       <use xlink:href="#DejaVuSans-6e" x="790.429688"/>
       <use xlink:href="#DejaVuSans-20" x="853.808594"/>
       <use xlink:href="#DejaVuSans-42" x="885.595703"/>
       <use xlink:href="#DejaVuSans-61" x="954.199219"/>
       <use xlink:href="#DejaVuSans-73" x="1015.478516"/>
       <use xlink:href="#DejaVuSans-68" x="1067.578125"/>
       <use xlink:href="#DejaVuSans-69" x="1130.957031"/>
       <use xlink:href="#DejaVuSans-72" x="1158.740234"/>
      </g>
     </g>
    </g>
    <g id="ytick_2">
     <g id="line2d_9">
      <g>
       <use xlink:href="#mb1078adb0b" x="54" y="52.095484" style="stroke: #000000; stroke-width: 0.8"/>
      </g>
     </g>
     <g id="text_10">
      <!-- Odo/Quark -->
      <g transform="translate(-6.946875 55.894703)scale(0.1 -0.1)">
       <defs>
        <path id="DejaVuSans-64" d="M 2906 2969 
L 2906 4863 
L 3481 4863 
L 3481 0 
L 2906 0 
L 2906 525 
Q 2725 213 2448 61 
Q 2172 -91 1784 -91 
Q 1150 -91 751 415 
Q 353 922 353 1747 
Q 353 2572 751 3078 
Q 1150 3584 1784 3584 
Q 2172 3584 2448 3432 
Q 2725 3281 2906 2969 
z
M 947 1747 
Q 947 1113 1208 752 
Q 1469 391 1925 391 
Q 2381 391 2643 752 
Q 2906 1113 2906 1747 
Q 2906 2381 2643 2742 
Q 2381 3103 1925 3103 
Q 1469 3103 1208 2742 
Q 947 2381 947 1747 
z
" transform="scale(0.015625)"/>
        <path id="DejaVuSans-51" d="M 2522 4238 
Q 1834 4238 1429 3725 
Q 1025 3213 1025 2328 
Q 1025 1447 1429 934 
Q 1834 422 2522 422 
Q 3209 422 3611 934 
Q 4013 1447 4013 2328 
Q 4013 3213 3611 3725 
Q 3209 4238 2522 4238 
z
M 3406 84 
L 4238 -825 
L 3475 -825 
L 2784 -78 
Q 2681 -84 2626 -87 
Q 2572 -91 2522 -91 
Q 1538 -91 948 567 
Q 359 1225 359 2328 
Q 359 3434 948 4092 
Q 1538 4750 2522 4750 
Q 3503 4750 4090 4092 
Q 4678 3434 4678 2328 
Q 4678 1516 4351 937 
Q 4025 359 3406 84 
z
" transform="scale(0.015625)"/>
       </defs>
       <use xlink:href="#DejaVuSans-4f"/>
       <use xlink:href="#DejaVuSans-64" x="78.710938"/>
       <use xlink:href="#DejaVuSans-6f" x="142.1875"/>
       <use xlink:href="#DejaVuSans-2f" x="203.369141"/>
       <use xlink:href="#DejaVuSans-51" x="237.060547"/>
       <use xlink:href="#DejaVuSans-75" x="315.771484"/>
       <use xlink:href="#DejaVuSans-61" x="379.150391"/>
       <use xlink:href="#DejaVuSans-72" x="440.429688"/>
       <use xlink:href="#DejaVuSans-6b" x="481.542969"/>
      </g>
     </g>
    </g>
    <g id="ytick_3">
     <g id="line2d_10">
      <g>
       <use xlink:href="#mb1078adb0b" x="54" y="66.123871" style="stroke: #000000; stroke-width: 0.8"/>
      </g>
     </g>
     <g id="text_11">
      <!-- Jadzia Dax/Worf -->
      <g transform="translate(-31.925 69.92309)scale(0.1 -0.1)">
       <defs>
        <path id="DejaVuSans-7a" d="M 353 3500 
L 3084 3500 
L 3084 2975 
L 922 459 
L 3084 459 
L 3084 0 
L 275 0 
L 275 525 
L 2438 3041 
L 353 3041 
L 353 3500 
z
" transform="scale(0.015625)"/>
        <path id="DejaVuSans-44" d="M 1259 4147 
L 1259 519 
L 2022 519 
Q 2988 519 3436 956 
Q 3884 1394 3884 2338 
Q 3884 3275 3436 3711 
Q 2988 4147 2022 4147 
L 1259 4147 
z
M 628 4666 
L 1925 4666 
Q 3281 4666 3915 4102 
Q 4550 3538 4550 2338 
Q 4550 1131 3912 565 
Q 3275 0 1925 0 
L 628 0 
L 628 4666 
z
" transform="scale(0.015625)"/>
        <path id="DejaVuSans-78" d="M 3513 3500 
L 2247 1797 
L 3578 0 
L 2900 0 
L 1881 1375 
L 863 0 
L 184 0 
L 1544 1831 
L 300 3500 
L 978 3500 
L 1906 2253 
L 2834 3500 
L 3513 3500 
z
" transform="scale(0.015625)"/>
        <path id="DejaVuSans-57" d="M 213 4666 
L 850 4666 
L 1831 722 
L 2809 4666 
L 3519 4666 
L 4500 722 
L 5478 4666 
L 6119 4666 
L 4947 0 
L 4153 0 
L 3169 4050 
L 2175 0 
L 1381 0 
L 213 4666 
z
" transform="scale(0.015625)"/>
        <path id="DejaVuSans-66" d="M 2375 4863 
L 2375 4384 
L 1825 4384 
Q 1516 4384 1395 4259 
Q 1275 4134 1275 3809 
L 1275 3500 
L 2222 3500 
L 2222 3053 
L 1275 3053 
L 1275 0 
L 697 0 
L 697 3053 
L 147 3053 
L 147 3500 
L 697 3500 
L 697 3744 
Q 697 4328 969 4595 
Q 1241 4863 1831 4863 
L 2375 4863 
z
" transform="scale(0.015625)"/>
       </defs>
       <use xlink:href="#DejaVuSans-4a"/>
       <use xlink:href="#DejaVuSans-61" x="29.492188"/>
       <use xlink:href="#DejaVuSans-64" x="90.771484"/>
       <use xlink:href="#DejaVuSans-7a" x="154.248047"/>
       <use xlink:href="#DejaVuSans-69" x="206.738281"/>
       <use xlink:href="#DejaVuSans-61" x="234.521484"/>
       <use xlink:href="#DejaVuSans-20" x="295.800781"/>
       <use xlink:href="#DejaVuSans-44" x="327.587891"/>
       <use xlink:href="#DejaVuSans-61" x="404.589844"/>
       <use xlink:href="#DejaVuSans-78" x="465.869141"/>
       <use xlink:href="#DejaVuSans-2f" x="525.048828"/>
       <use xlink:href="#DejaVuSans-57" x="558.740234"/>
       <use xlink:href="#DejaVuSans-6f" x="651.742188"/>
       <use xlink:href="#DejaVuSans-72" x="712.923828"/>
       <use xlink:href="#DejaVuSans-66" x="754.037109"/>
      </g>
     </g>
    </g>
    <g id="ytick_4">
     <g id="line2d_11">
      <g>
       <use xlink:href="#mb1078adb0b" x="54" y="80.152258" style="stroke: #000000; stroke-width: 0.8"/>
      </g>
     </g>
     <g id="text_12">
      <!-- Keiko O'Brien/Miles O'Brien -->
      <g transform="translate(-88.529687 83.951477)scale(0.1 -0.1)">
       <defs>
        <path id="DejaVuSans-4b" d="M 628 4666 
L 1259 4666 
L 1259 2694 
L 3353 4666 
L 4166 4666 
L 1850 2491 
L 4331 0 
L 3500 0 
L 1259 2247 
L 1259 0 
L 628 0 
L 628 4666 
z
" transform="scale(0.015625)"/>
        <path id="DejaVuSans-27" d="M 1147 4666 
L 1147 2931 
L 616 2931 
L 616 4666 
L 1147 4666 
z
" transform="scale(0.015625)"/>
       </defs>
       <use xlink:href="#DejaVuSans-4b"/>
       <use xlink:href="#DejaVuSans-65" x="60.576172"/>
       <use xlink:href="#DejaVuSans-69" x="122.099609"/>
       <use xlink:href="#DejaVuSans-6b" x="149.882812"/>
       <use xlink:href="#DejaVuSans-6f" x="204.167969"/>
       <use xlink:href="#DejaVuSans-20" x="265.349609"/>
       <use xlink:href="#DejaVuSans-4f" x="297.136719"/>
       <use xlink:href="#DejaVuSans-27" x="375.847656"/>
       <use xlink:href="#DejaVuSans-42" x="403.337891"/>
       <use xlink:href="#DejaVuSans-72" x="471.941406"/>
       <use xlink:href="#DejaVuSans-69" x="513.054688"/>
       <use xlink:href="#DejaVuSans-65" x="540.837891"/>
       <use xlink:href="#DejaVuSans-6e" x="602.361328"/>
       <use xlink:href="#DejaVuSans-2f" x="665.740234"/>
       <use xlink:href="#DejaVuSans-4d" x="699.431641"/>
       <use xlink:href="#DejaVuSans-69" x="785.710938"/>
       <use xlink:href="#DejaVuSans-6c" x="813.494141"/>
       <use xlink:href="#DejaVuSans-65" x="841.277344"/>
       <use xlink:href="#DejaVuSans-73" x="902.800781"/>
       <use xlink:href="#DejaVuSans-20" x="954.900391"/>
       <use xlink:href="#DejaVuSans-4f" x="986.6875"/>
       <use xlink:href="#DejaVuSans-27" x="1065.398438"/>
       <use xlink:href="#DejaVuSans-42" x="1092.888672"/>
       <use xlink:href="#DejaVuSans-72" x="1161.492188"/>
       <use xlink:href="#DejaVuSans-69" x="1202.605469"/>
       <use xlink:href="#DejaVuSans-65" x="1230.388672"/>
       <use xlink:href="#DejaVuSans-6e" x="1291.912109"/>
      </g>
     </g>
    </g>
    <g id="ytick_5">
     <g id="line2d_12">
      <g>
       <use xlink:href="#mb1078adb0b" x="54" y="94.180645" style="stroke: #000000; stroke-width: 0.8"/>
      </g>
     </g>
     <g id="text_13">
      <!-- Elim Garak/Kelas Parmak -->
      <g transform="translate(-77.876563 97.979864)scale(0.1 -0.1)">
       <defs>
        <path id="DejaVuSans-50" d="M 1259 4147 
L 1259 2394 
L 2053 2394 
Q 2494 2394 2734 2622 
Q 2975 2850 2975 3272 
Q 2975 3691 2734 3919 
Q 2494 4147 2053 4147 
L 1259 4147 
z
M 628 4666 
L 2053 4666 
Q 2838 4666 3239 4311 
Q 3641 3956 3641 3272 
Q 3641 2581 3239 2228 
Q 2838 1875 2053 1875 
L 1259 1875 
L 1259 0 
L 628 0 
L 628 4666 
z
" transform="scale(0.015625)"/>
       </defs>
       <use xlink:href="#DejaVuSans-45"/>
       <use xlink:href="#DejaVuSans-6c" x="63.183594"/>
       <use xlink:href="#DejaVuSans-69" x="90.966797"/>
       <use xlink:href="#DejaVuSans-6d" x="118.75"/>
       <use xlink:href="#DejaVuSans-20" x="216.162109"/>
       <use xlink:href="#DejaVuSans-47" x="247.949219"/>
       <use xlink:href="#DejaVuSans-61" x="325.439453"/>
       <use xlink:href="#DejaVuSans-72" x="386.71875"/>
       <use xlink:href="#DejaVuSans-61" x="427.832031"/>
       <use xlink:href="#DejaVuSans-6b" x="489.111328"/>
       <use xlink:href="#DejaVuSans-2f" x="547.021484"/>
       <use xlink:href="#DejaVuSans-4b" x="580.712891"/>
       <use xlink:href="#DejaVuSans-65" x="641.289062"/>
       <use xlink:href="#DejaVuSans-6c" x="702.8125"/>
       <use xlink:href="#DejaVuSans-61" x="730.595703"/>
       <use xlink:href="#DejaVuSans-73" x="791.875"/>
       <use xlink:href="#DejaVuSans-20" x="843.974609"/>
       <use xlink:href="#DejaVuSans-50" x="875.761719"/>
       <use xlink:href="#DejaVuSans-61" x="931.564453"/>
       <use xlink:href="#DejaVuSans-72" x="992.84375"/>
       <use xlink:href="#DejaVuSans-6d" x="1032.207031"/>
       <use xlink:href="#DejaVuSans-61" x="1129.619141"/>
       <use xlink:href="#DejaVuSans-6b" x="1190.898438"/>
      </g>
     </g>
    </g>
    <g id="ytick_6">
     <g id="line2d_13">
      <g>
       <use xlink:href="#mb1078adb0b" x="54" y="108.209032" style="stroke: #000000; stroke-width: 0.8"/>
      </g>
     </g>
     <g id="text_14">
      <!-- Julian Bashir/Miles O'Brien -->
      <g transform="translate(-83.867188 112.008251)scale(0.1 -0.1)">
       <use xlink:href="#DejaVuSans-4a"/>
       <use xlink:href="#DejaVuSans-75" x="29.492188"/>
       <use xlink:href="#DejaVuSans-6c" x="92.871094"/>
       <use xlink:href="#DejaVuSans-69" x="120.654297"/>
       <use xlink:href="#DejaVuSans-61" x="148.4375"/>
       <use xlink:href="#DejaVuSans-6e" x="209.716797"/>
       <use xlink:href="#DejaVuSans-20" x="273.095703"/>
       <use xlink:href="#DejaVuSans-42" x="304.882812"/>
       <use xlink:href="#DejaVuSans-61" x="373.486328"/>
       <use xlink:href="#DejaVuSans-73" x="434.765625"/>
       <use xlink:href="#DejaVuSans-68" x="486.865234"/>
       <use xlink:href="#DejaVuSans-69" x="550.244141"/>
       <use xlink:href="#DejaVuSans-72" x="578.027344"/>
       <use xlink:href="#DejaVuSans-2f" x="619.140625"/>
       <use xlink:href="#DejaVuSans-4d" x="652.832031"/>
       <use xlink:href="#DejaVuSans-69" x="739.111328"/>
       <use xlink:href="#DejaVuSans-6c" x="766.894531"/>
       <use xlink:href="#DejaVuSans-65" x="794.677734"/>
       <use xlink:href="#DejaVuSans-73" x="856.201172"/>
       <use xlink:href="#DejaVuSans-20" x="908.300781"/>
       <use xlink:href="#DejaVuSans-4f" x="940.087891"/>
       <use xlink:href="#DejaVuSans-27" x="1018.798828"/>
       <use xlink:href="#DejaVuSans-42" x="1046.289062"/>
       <use xlink:href="#DejaVuSans-72" x="1114.892578"/>
       <use xlink:href="#DejaVuSans-69" x="1156.005859"/>
       <use xlink:href="#DejaVuSans-65" x="1183.789062"/>
       <use xlink:href="#DejaVuSans-6e" x="1245.3125"/>
      </g>
     </g>
    </g>
    <g id="ytick_7">
     <g id="line2d_14">
      <g>
       <use xlink:href="#mb1078adb0b" x="54" y="122.237419" style="stroke: #000000; stroke-width: 0.8"/>
      </g>
     </g>
     <g id="text_15">
      <!-- Jake Sisko/Nog -->
      <g transform="translate(-26.0375 126.036638)scale(0.1 -0.1)">
       <defs>
        <path id="DejaVuSans-53" d="M 3425 4513 
L 3425 3897 
Q 3066 4069 2747 4153 
Q 2428 4238 2131 4238 
Q 1616 4238 1336 4038 
Q 1056 3838 1056 3469 
Q 1056 3159 1242 3001 
Q 1428 2844 1947 2747 
L 2328 2669 
Q 3034 2534 3370 2195 
Q 3706 1856 3706 1288 
Q 3706 609 3251 259 
Q 2797 -91 1919 -91 
Q 1588 -91 1214 -16 
Q 841 59 441 206 
L 441 856 
Q 825 641 1194 531 
Q 1563 422 1919 422 
Q 2459 422 2753 634 
Q 3047 847 3047 1241 
Q 3047 1584 2836 1778 
Q 2625 1972 2144 2069 
L 1759 2144 
Q 1053 2284 737 2584 
Q 422 2884 422 3419 
Q 422 4038 858 4394 
Q 1294 4750 2059 4750 
Q 2388 4750 2728 4690 
Q 3069 4631 3425 4513 
z
" transform="scale(0.015625)"/>
       </defs>
       <use xlink:href="#DejaVuSans-4a"/>
       <use xlink:href="#DejaVuSans-61" x="29.492188"/>
       <use xlink:href="#DejaVuSans-6b" x="90.771484"/>
       <use xlink:href="#DejaVuSans-65" x="145.056641"/>
       <use xlink:href="#DejaVuSans-20" x="206.580078"/>
       <use xlink:href="#DejaVuSans-53" x="238.367188"/>
       <use xlink:href="#DejaVuSans-69" x="301.84375"/>
       <use xlink:href="#DejaVuSans-73" x="329.626953"/>
       <use xlink:href="#DejaVuSans-6b" x="381.726562"/>
       <use xlink:href="#DejaVuSans-6f" x="436.011719"/>
       <use xlink:href="#DejaVuSans-2f" x="497.193359"/>
       <use xlink:href="#DejaVuSans-4e" x="530.884766"/>
       <use xlink:href="#DejaVuSans-6f" x="605.689453"/>
       <use xlink:href="#DejaVuSans-67" x="666.871094"/>
      </g>
     </g>
    </g>
    <g id="ytick_8">
     <g id="line2d_15">
      <g>
       <use xlink:href="#mb1078adb0b" x="54" y="136.265806" style="stroke: #000000; stroke-width: 0.8"/>
      </g>
     </g>
     <g id="text_16">
      <!-- Jadzia Dax/Lenara Kahn -->
      <g transform="translate(-71.49375 140.065025)scale(0.1 -0.1)">
       <defs>
        <path id="DejaVuSans-4c" d="M 628 4666 
L 1259 4666 
L 1259 531 
L 3531 531 
L 3531 0 
L 628 0 
L 628 4666 
z
" transform="scale(0.015625)"/>
       </defs>
       <use xlink:href="#DejaVuSans-4a"/>
       <use xlink:href="#DejaVuSans-61" x="29.492188"/>
       <use xlink:href="#DejaVuSans-64" x="90.771484"/>
       <use xlink:href="#DejaVuSans-7a" x="154.248047"/>
       <use xlink:href="#DejaVuSans-69" x="206.738281"/>
       <use xlink:href="#DejaVuSans-61" x="234.521484"/>
       <use xlink:href="#DejaVuSans-20" x="295.800781"/>
       <use xlink:href="#DejaVuSans-44" x="327.587891"/>
       <use xlink:href="#DejaVuSans-61" x="404.589844"/>
       <use xlink:href="#DejaVuSans-78" x="465.869141"/>
       <use xlink:href="#DejaVuSans-2f" x="525.048828"/>
       <use xlink:href="#DejaVuSans-4c" x="558.740234"/>
       <use xlink:href="#DejaVuSans-65" x="612.703125"/>
       <use xlink:href="#DejaVuSans-6e" x="674.226562"/>
       <use xlink:href="#DejaVuSans-61" x="737.605469"/>
       <use xlink:href="#DejaVuSans-72" x="798.884766"/>
       <use xlink:href="#DejaVuSans-61" x="839.998047"/>
       <use xlink:href="#DejaVuSans-20" x="901.277344"/>
       <use xlink:href="#DejaVuSans-4b" x="933.064453"/>
       <use xlink:href="#DejaVuSans-61" x="996.890625"/>
       <use xlink:href="#DejaVuSans-68" x="1058.169922"/>
       <use xlink:href="#DejaVuSans-6e" x="1121.548828"/>
      </g>
     </g>
    </g>
    <g id="ytick_9">
     <g id="line2d_16">
      <g>
       <use xlink:href="#mb1078adb0b" x="54" y="150.294194" style="stroke: #000000; stroke-width: 0.8"/>
      </g>
     </g>
     <g id="text_17">
      <!-- Kira Nerys/Skrain Dukat -->
      <g transform="translate(-72.36875 154.093412)scale(0.1 -0.1)">
       <use xlink:href="#DejaVuSans-4b"/>
       <use xlink:href="#DejaVuSans-69" x="65.576172"/>
       <use xlink:href="#DejaVuSans-72" x="93.359375"/>
       <use xlink:href="#DejaVuSans-61" x="134.472656"/>
       <use xlink:href="#DejaVuSans-20" x="195.751953"/>
       <use xlink:href="#DejaVuSans-4e" x="227.539062"/>
       <use xlink:href="#DejaVuSans-65" x="302.34375"/>
       <use xlink:href="#DejaVuSans-72" x="363.867188"/>
       <use xlink:href="#DejaVuSans-79" x="404.980469"/>
       <use xlink:href="#DejaVuSans-73" x="464.160156"/>
       <use xlink:href="#DejaVuSans-2f" x="516.259766"/>
       <use xlink:href="#DejaVuSans-53" x="549.951172"/>
       <use xlink:href="#DejaVuSans-6b" x="613.427734"/>
       <use xlink:href="#DejaVuSans-72" x="671.337891"/>
       <use xlink:href="#DejaVuSans-61" x="712.451172"/>
       <use xlink:href="#DejaVuSans-69" x="773.730469"/>
       <use xlink:href="#DejaVuSans-6e" x="801.513672"/>
       <use xlink:href="#DejaVuSans-20" x="864.892578"/>
       <use xlink:href="#DejaVuSans-44" x="896.679688"/>
       <use xlink:href="#DejaVuSans-75" x="973.681641"/>
       <use xlink:href="#DejaVuSans-6b" x="1037.060547"/>
       <use xlink:href="#DejaVuSans-61" x="1093.220703"/>
       <use xlink:href="#DejaVuSans-74" x="1154.5"/>
      </g>
     </g>
    </g>
    <g id="ytick_10">
     <g id="line2d_17">
      <g>
       <use xlink:href="#mb1078adb0b" x="54" y="164.322581" style="stroke: #000000; stroke-width: 0.8"/>
      </g>
     </g>
     <g id="text_18">
      <!-- Elim Garak/Julian Bashir/Kelas Parmak -->
      <g transform="translate(-143.157813 168.121799)scale(0.1 -0.1)">
       <use xlink:href="#DejaVuSans-45"/>
       <use xlink:href="#DejaVuSans-6c" x="63.183594"/>
       <use xlink:href="#DejaVuSans-69" x="90.966797"/>
       <use xlink:href="#DejaVuSans-6d" x="118.75"/>
       <use xlink:href="#DejaVuSans-20" x="216.162109"/>
       <use xlink:href="#DejaVuSans-47" x="247.949219"/>
       <use xlink:href="#DejaVuSans-61" x="325.439453"/>
       <use xlink:href="#DejaVuSans-72" x="386.71875"/>
       <use xlink:href="#DejaVuSans-61" x="427.832031"/>
       <use xlink:href="#DejaVuSans-6b" x="489.111328"/>
       <use xlink:href="#DejaVuSans-2f" x="547.021484"/>
       <use xlink:href="#DejaVuSans-4a" x="580.712891"/>
       <use xlink:href="#DejaVuSans-75" x="610.205078"/>
       <use xlink:href="#DejaVuSans-6c" x="673.583984"/>
       <use xlink:href="#DejaVuSans-69" x="701.367188"/>
       <use xlink:href="#DejaVuSans-61" x="729.150391"/>
       <use xlink:href="#DejaVuSans-6e" x="790.429688"/>
       <use xlink:href="#DejaVuSans-20" x="853.808594"/>
       <use xlink:href="#DejaVuSans-42" x="885.595703"/>
       <use xlink:href="#DejaVuSans-61" x="954.199219"/>
       <use xlink:href="#DejaVuSans-73" x="1015.478516"/>
       <use xlink:href="#DejaVuSans-68" x="1067.578125"/>
       <use xlink:href="#DejaVuSans-69" x="1130.957031"/>
       <use xlink:href="#DejaVuSans-72" x="1158.740234"/>
       <use xlink:href="#DejaVuSans-2f" x="1199.853516"/>
       <use xlink:href="#DejaVuSans-4b" x="1233.544922"/>
       <use xlink:href="#DejaVuSans-65" x="1294.121094"/>
       <use xlink:href="#DejaVuSans-6c" x="1355.644531"/>
       <use xlink:href="#DejaVuSans-61" x="1383.427734"/>
       <use xlink:href="#DejaVuSans-73" x="1444.707031"/>
       <use xlink:href="#DejaVuSans-20" x="1496.806641"/>
       <use xlink:href="#DejaVuSans-50" x="1528.59375"/>
       <use xlink:href="#DejaVuSans-61" x="1584.396484"/>
       <use xlink:href="#DejaVuSans-72" x="1645.675781"/>
       <use xlink:href="#DejaVuSans-6d" x="1685.039062"/>
       <use xlink:href="#DejaVuSans-61" x="1782.451172"/>
       <use xlink:href="#DejaVuSans-6b" x="1843.730469"/>
      </g>
     </g>
    </g>
    <g id="ytick_11">
     <g id="line2d_18">
      <g>
       <use xlink:href="#mb1078adb0b" x="54" y="178.350968" style="stroke: #000000; stroke-width: 0.8"/>
      </g>
     </g>
     <g id="text_19">
      <!-- Benjamin Sisko/Kira Nerys -->
      <g transform="translate(-84.170312 182.150186)scale(0.1 -0.1)">
       <defs>
        <path id="DejaVuSans-6a" d="M 603 3500 
L 1178 3500 
L 1178 -63 
Q 1178 -731 923 -1031 
Q 669 -1331 103 -1331 
L -116 -1331 
L -116 -844 
L 38 -844 
Q 366 -844 484 -692 
Q 603 -541 603 -63 
L 603 3500 
z
M 603 4863 
L 1178 4863 
L 1178 4134 
L 603 4134 
L 603 4863 
z
" transform="scale(0.015625)"/>
       </defs>
       <use xlink:href="#DejaVuSans-42"/>
       <use xlink:href="#DejaVuSans-65" x="68.603516"/>
       <use xlink:href="#DejaVuSans-6e" x="130.126953"/>
       <use xlink:href="#DejaVuSans-6a" x="193.505859"/>
       <use xlink:href="#DejaVuSans-61" x="221.289062"/>
       <use xlink:href="#DejaVuSans-6d" x="282.568359"/>
       <use xlink:href="#DejaVuSans-69" x="379.980469"/>
       <use xlink:href="#DejaVuSans-6e" x="407.763672"/>
       <use xlink:href="#DejaVuSans-20" x="471.142578"/>
       <use xlink:href="#DejaVuSans-53" x="502.929688"/>
       <use xlink:href="#DejaVuSans-69" x="566.40625"/>
       <use xlink:href="#DejaVuSans-73" x="594.189453"/>
       <use xlink:href="#DejaVuSans-6b" x="646.289062"/>
       <use xlink:href="#DejaVuSans-6f" x="700.574219"/>
       <use xlink:href="#DejaVuSans-2f" x="761.755859"/>
       <use xlink:href="#DejaVuSans-4b" x="795.447266"/>
       <use xlink:href="#DejaVuSans-69" x="861.023438"/>
       <use xlink:href="#DejaVuSans-72" x="888.806641"/>
       <use xlink:href="#DejaVuSans-61" x="929.919922"/>
       <use xlink:href="#DejaVuSans-20" x="991.199219"/>
       <use xlink:href="#DejaVuSans-4e" x="1022.986328"/>
       <use xlink:href="#DejaVuSans-65" x="1097.791016"/>
       <use xlink:href="#DejaVuSans-72" x="1159.314453"/>
       <use xlink:href="#DejaVuSans-79" x="1200.427734"/>
       <use xlink:href="#DejaVuSans-73" x="1259.607422"/>
      </g>
     </g>
    </g>
    <g id="ytick_12">
     <g id="line2d_19">
      <g>
       <use xlink:href="#mb1078adb0b" x="54" y="192.379355" style="stroke: #000000; stroke-width: 0.8"/>
      </g>
     </g>
     <g id="text_20">
      <!-- Elim Garak/Tora Ziyal -->
      <g transform="translate(-59.465625 196.178574)scale(0.1 -0.1)">
       <defs>
        <path id="DejaVuSans-54" d="M -19 4666 
L 3928 4666 
L 3928 4134 
L 2272 4134 
L 2272 0 
L 1638 0 
L 1638 4134 
L -19 4134 
L -19 4666 
z
" transform="scale(0.015625)"/>
        <path id="DejaVuSans-5a" d="M 359 4666 
L 4025 4666 
L 4025 4184 
L 1075 531 
L 4097 531 
L 4097 0 
L 288 0 
L 288 481 
L 3238 4134 
L 359 4134 
L 359 4666 
z
" transform="scale(0.015625)"/>
       </defs>
       <use xlink:href="#DejaVuSans-45"/>
       <use xlink:href="#DejaVuSans-6c" x="63.183594"/>
       <use xlink:href="#DejaVuSans-69" x="90.966797"/>
       <use xlink:href="#DejaVuSans-6d" x="118.75"/>
       <use xlink:href="#DejaVuSans-20" x="216.162109"/>
       <use xlink:href="#DejaVuSans-47" x="247.949219"/>
       <use xlink:href="#DejaVuSans-61" x="325.439453"/>
       <use xlink:href="#DejaVuSans-72" x="386.71875"/>
       <use xlink:href="#DejaVuSans-61" x="427.832031"/>
       <use xlink:href="#DejaVuSans-6b" x="489.111328"/>
       <use xlink:href="#DejaVuSans-2f" x="547.021484"/>
       <use xlink:href="#DejaVuSans-54" x="580.712891"/>
       <use xlink:href="#DejaVuSans-6f" x="624.796875"/>
       <use xlink:href="#DejaVuSans-72" x="685.978516"/>
       <use xlink:href="#DejaVuSans-61" x="727.091797"/>
       <use xlink:href="#DejaVuSans-20" x="788.371094"/>
       <use xlink:href="#DejaVuSans-5a" x="820.158203"/>
       <use xlink:href="#DejaVuSans-69" x="888.664062"/>
       <use xlink:href="#DejaVuSans-79" x="916.447266"/>
       <use xlink:href="#DejaVuSans-61" x="975.626953"/>
       <use xlink:href="#DejaVuSans-6c" x="1036.90625"/>
      </g>
     </g>
    </g>
    <g id="ytick_13">
     <g id="line2d_20">
      <g>
       <use xlink:href="#mb1078adb0b" x="54" y="206.407742" style="stroke: #000000; stroke-width: 0.8"/>
      </g>
     </g>
     <g id="text_21">
      <!-- Kira Nerys/non-cast -->
      <g transform="translate(-51.153125 210.206961)scale(0.1 -0.1)">
       <defs>
        <path id="DejaVuSans-2d" d="M 313 2009 
L 1997 2009 
L 1997 1497 
L 313 1497 
L 313 2009 
z
" transform="scale(0.015625)"/>
       </defs>
       <use xlink:href="#DejaVuSans-4b"/>
       <use xlink:href="#DejaVuSans-69" x="65.576172"/>
       <use xlink:href="#DejaVuSans-72" x="93.359375"/>
       <use xlink:href="#DejaVuSans-61" x="134.472656"/>
       <use xlink:href="#DejaVuSans-20" x="195.751953"/>
       <use xlink:href="#DejaVuSans-4e" x="227.539062"/>
       <use xlink:href="#DejaVuSans-65" x="302.34375"/>
       <use xlink:href="#DejaVuSans-72" x="363.867188"/>
       <use xlink:href="#DejaVuSans-79" x="404.980469"/>
       <use xlink:href="#DejaVuSans-73" x="464.160156"/>
       <use xlink:href="#DejaVuSans-2f" x="516.259766"/>
       <use xlink:href="#DejaVuSans-6e" x="549.951172"/>
       <use xlink:href="#DejaVuSans-6f" x="613.330078"/>
       <use xlink:href="#DejaVuSans-6e" x="674.511719"/>
       <use xlink:href="#DejaVuSans-2d" x="737.890625"/>
       <use xlink:href="#DejaVuSans-63" x="773.974609"/>
       <use xlink:href="#DejaVuSans-61" x="828.955078"/>
       <use xlink:href="#DejaVuSans-73" x="890.234375"/>
       <use xlink:href="#DejaVuSans-74" x="942.333984"/>
      </g>
     </g>
    </g>
    <g id="ytick_14">
     <g id="line2d_21">
      <g>
       <use xlink:href="#mb1078adb0b" x="54" y="220.436129" style="stroke: #000000; stroke-width: 0.8"/>
      </g>
     </g>
     <g id="text_22">
      <!-- Weyoun/non-cast -->
      <g transform="translate(-39.692188 224.235348)scale(0.1 -0.1)">
       <use xlink:href="#DejaVuSans-57"/>
       <use xlink:href="#DejaVuSans-65" x="93.001953"/>
       <use xlink:href="#DejaVuSans-79" x="154.525391"/>
       <use xlink:href="#DejaVuSans-6f" x="213.705078"/>
       <use xlink:href="#DejaVuSans-75" x="274.886719"/>
       <use xlink:href="#DejaVuSans-6e" x="338.265625"/>
       <use xlink:href="#DejaVuSans-2f" x="401.644531"/>
       <use xlink:href="#DejaVuSans-6e" x="435.335938"/>
       <use xlink:href="#DejaVuSans-6f" x="498.714844"/>
       <use xlink:href="#DejaVuSans-6e" x="559.896484"/>
       <use xlink:href="#DejaVuSans-2d" x="623.275391"/>
       <use xlink:href="#DejaVuSans-63" x="659.359375"/>
       <use xlink:href="#DejaVuSans-61" x="714.339844"/>
       <use xlink:href="#DejaVuSans-73" x="775.619141"/>
       <use xlink:href="#DejaVuSans-74" x="827.71875"/>
      </g>
     </g>
    </g>
    <g id="ytick_15">
     <g id="line2d_22">
      <g>
       <use xlink:href="#mb1078adb0b" x="54" y="234.464516" style="stroke: #000000; stroke-width: 0.8"/>
      </g>
     </g>
     <g id="text_23">
      <!-- Benjamin Sisko/Julian Bashir -->
      <g transform="translate(-94.45625 238.263735)scale(0.1 -0.1)">
       <use xlink:href="#DejaVuSans-42"/>
       <use xlink:href="#DejaVuSans-65" x="68.603516"/>
       <use xlink:href="#DejaVuSans-6e" x="130.126953"/>
       <use xlink:href="#DejaVuSans-6a" x="193.505859"/>
       <use xlink:href="#DejaVuSans-61" x="221.289062"/>
       <use xlink:href="#DejaVuSans-6d" x="282.568359"/>
       <use xlink:href="#DejaVuSans-69" x="379.980469"/>
       <use xlink:href="#DejaVuSans-6e" x="407.763672"/>
       <use xlink:href="#DejaVuSans-20" x="471.142578"/>
       <use xlink:href="#DejaVuSans-53" x="502.929688"/>
       <use xlink:href="#DejaVuSans-69" x="566.40625"/>
       <use xlink:href="#DejaVuSans-73" x="594.189453"/>
       <use xlink:href="#DejaVuSans-6b" x="646.289062"/>
       <use xlink:href="#DejaVuSans-6f" x="700.574219"/>
       <use xlink:href="#DejaVuSans-2f" x="761.755859"/>
       <use xlink:href="#DejaVuSans-4a" x="795.447266"/>
       <use xlink:href="#DejaVuSans-75" x="824.939453"/>
       <use xlink:href="#DejaVuSans-6c" x="888.318359"/>
       <use xlink:href="#DejaVuSans-69" x="916.101562"/>
       <use xlink:href="#DejaVuSans-61" x="943.884766"/>
       <use xlink:href="#DejaVuSans-6e" x="1005.164062"/>
       <use xlink:href="#DejaVuSans-20" x="1068.542969"/>
       <use xlink:href="#DejaVuSans-42" x="1100.330078"/>
       <use xlink:href="#DejaVuSans-61" x="1168.933594"/>
       <use xlink:href="#DejaVuSans-73" x="1230.212891"/>
       <use xlink:href="#DejaVuSans-68" x="1282.3125"/>
       <use xlink:href="#DejaVuSans-69" x="1345.691406"/>
       <use xlink:href="#DejaVuSans-72" x="1373.474609"/>
      </g>
     </g>
    </g>
    <g id="ytick_16">
     <g id="line2d_23">
      <g>
       <use xlink:href="#mb1078adb0b" x="54" y="248.492903" style="stroke: #000000; stroke-width: 0.8"/>
      </g>
     </g>
     <g id="text_24">
      <!-- Total -->
      <g transform="translate(23.646875 252.292122)scale(0.1 -0.1)">
       <use xlink:href="#DejaVuSans-54"/>
       <use xlink:href="#DejaVuSans-6f" x="44.083984"/>
       <use xlink:href="#DejaVuSans-74" x="105.265625"/>
       <use xlink:href="#DejaVuSans-61" x="144.474609"/>
       <use xlink:href="#DejaVuSans-6c" x="205.753906"/>
      </g>
     </g>
    </g>
    <g id="text_25">
     <!-- relationshipspairslash -->
     <g transform="translate(-149.2375 197.785469)rotate(-90)scale(0.1 -0.1)">
      <defs>
       <path id="DejaVuSans-70" d="M 1159 525 
L 1159 -1331 
L 581 -1331 
L 581 3500 
L 1159 3500 
L 1159 2969 
Q 1341 3281 1617 3432 
Q 1894 3584 2278 3584 
Q 2916 3584 3314 3078 
Q 3713 2572 3713 1747 
Q 3713 922 3314 415 
Q 2916 -91 2278 -91 
Q 1894 -91 1617 61 
Q 1341 213 1159 525 
z
M 3116 1747 
Q 3116 2381 2855 2742 
Q 2594 3103 2138 3103 
Q 1681 3103 1420 2742 
Q 1159 2381 1159 1747 
Q 1159 1113 1420 752 
Q 1681 391 2138 391 
Q 2594 391 2855 752 
Q 3116 1113 3116 1747 
z
" transform="scale(0.015625)"/>
      </defs>
      <use xlink:href="#DejaVuSans-72"/>
      <use xlink:href="#DejaVuSans-65" x="38.863281"/>
      <use xlink:href="#DejaVuSans-6c" x="100.386719"/>
      <use xlink:href="#DejaVuSans-61" x="128.169922"/>
      <use xlink:href="#DejaVuSans-74" x="189.449219"/>
      <use xlink:href="#DejaVuSans-69" x="228.658203"/>
      <use xlink:href="#DejaVuSans-6f" x="256.441406"/>
      <use xlink:href="#DejaVuSans-6e" x="317.623047"/>
      <use xlink:href="#DejaVuSans-73" x="381.001953"/>
      <use xlink:href="#DejaVuSans-68" x="433.101562"/>
      <use xlink:href="#DejaVuSans-69" x="496.480469"/>
      <use xlink:href="#DejaVuSans-70" x="524.263672"/>
      <use xlink:href="#DejaVuSans-73" x="587.740234"/>
      <use xlink:href="#DejaVuSans-70" x="639.839844"/>
      <use xlink:href="#DejaVuSans-61" x="703.316406"/>
      <use xlink:href="#DejaVuSans-69" x="764.595703"/>
      <use xlink:href="#DejaVuSans-72" x="792.378906"/>
      <use xlink:href="#DejaVuSans-73" x="833.492188"/>
      <use xlink:href="#DejaVuSans-6c" x="885.591797"/>
      <use xlink:href="#DejaVuSans-61" x="913.375"/>
      <use xlink:href="#DejaVuSans-73" x="974.654297"/>
      <use xlink:href="#DejaVuSans-68" x="1026.753906"/>
     </g>
    </g>
   </g>
  </g>
 </g>
 <defs>
  <clipPath id="pbcefb0608f">
   <rect x="54" y="34.56" width="334.8" height="217.44"/>
  </clipPath>
 </defs>
</svg>
